<?xml version="1.0" standalone="no"?>
<!DOCTYPE svg PUBLIC "-//W3C//DTD SVG 20010904//EN"
 "http://www.w3.org/TR/2001/REC-SVG-20010904/DTD/svg10.dtd">
<svg version="1.0" xmlns="http://www.w3.org/2000/svg"
 width="322.000000pt" height="322.000000pt" viewBox="0 0 322.000000 322.000000"
 preserveAspectRatio="xMidYMid meet">
<metadata>
Created by potrace 1.16, written by Peter Selinger 2001-2019
</metadata>
<g transform="translate(0.000000,322.000000) scale(0.100000,-0.100000)"
fill="#000000" stroke="none">
<path d="M1460 3210 l0 -10 -320 0 -320 0 0 -80 0 -80 -10 0 -10 0 0 80 0 80
-390 0 -390 0 0 -70 0 -70 320 0 320 0 0 -90 0 -90 -10 0 -10 0 0 80 0 80
-150 0 -150 0 0 -80 0 -80 -10 0 -10 0 0 80 0 80 -150 0 -150 0 0 -230 0 -230
80 0 80 0 0 -10 0 -10 -80 0 -80 0 0 -150 0 -150 80 0 80 0 0 -90 0 -90 -10 0
-10 0 0 80 0 80 -70 0 -70 0 0 -150 0 -150 160 0 160 0 0 -80 0 -80 160 0 160
0 0 -80 0 -80 70 0 70 0 0 150 0 150 -160 0 -160 0 0 80 0 80 -80 0 -80 0 0
160 0 160 -80 0 -80 0 0 10 0 10 80 0 80 0 0 80 0 80 10 0 10 0 0 -80 0 -80
70 0 70 0 0 150 0 150 -160 0 -160 0 0 90 0 90 10 0 10 0 0 -80 0 -80 150 0
150 0 0 80 0 80 10 0 10 0 0 -240 0 -240 160 0 160 0 0 -90 0 -90 -170 0 -170
0 0 10 0 10 160 0 160 0 0 70 0 70 -230 0 -230 0 0 -150 0 -150 240 0 240 0 0
-10 0 -10 -160 0 -160 0 0 -70 0 -70 230 0 230 0 0 80 0 80 80 0 80 0 0 240 0
240 10 0 10 0 0 -250 0 -250 -80 0 -80 0 0 -80 0 -80 -80 0 -80 0 0 -160 0
-160 -80 0 -80 0 0 -80 0 -80 -10 0 -10 0 0 160 0 160 -150 0 -150 0 0 -80 0
-80 -90 0 -90 0 0 10 0 10 80 0 80 0 0 150 0 150 -150 0 -150 0 0 -70 0 -70
80 0 80 0 0 -10 0 -10 -80 0 -80 0 0 -150 0 -150 160 0 160 0 0 -90 0 -90 -10
0 -10 0 0 80 0 80 -150 0 -150 0 0 -230 0 -230 80 0 80 0 0 -80 0 -80 150 0
150 0 0 80 0 80 80 0 80 0 0 80 0 80 10 0 10 0 0 -90 0 -90 -80 0 -80 0 0 -80
0 -80 -160 0 -160 0 0 -150 0 -150 80 0 80 0 0 -90 0 -90 -10 0 -10 0 0 80 0
80 -70 0 -70 0 0 -80 0 -80 -10 0 -10 0 0 320 0 320 -70 0 -70 0 0 -390 0
-390 230 0 230 0 0 160 0 160 90 0 90 0 0 -10 0 -10 -80 0 -80 0 0 -150 0
-150 230 0 230 0 0 160 0 160 10 0 10 0 0 -160 0 -160 230 0 230 0 0 70 0 70
-160 0 -160 0 0 10 0 10 80 0 80 0 0 70 0 70 -80 0 -80 0 0 80 0 80 -150 0
-150 0 0 -160 0 -160 -90 0 -90 0 0 10 0 10 80 0 80 0 0 150 0 150 -240 0
-240 0 0 10 0 10 160 0 160 0 0 80 0 80 10 0 10 0 0 -80 0 -80 240 0 240 0 0
-80 0 -80 80 0 80 0 0 -80 0 -80 80 0 80 0 0 -90 0 -90 -720 0 -720 0 0 -70 0
-70 790 0 790 0 0 80 0 80 80 0 80 0 0 70 0 70 -80 0 -80 0 0 80 0 80 -80 0
-80 0 0 10 0 10 80 0 80 0 0 150 0 150 -80 0 -80 0 0 10 0 10 80 0 80 0 0 70
0 70 -150 0 -150 0 0 -150 0 -150 80 0 80 0 0 -10 0 -10 -90 0 -90 0 0 320 0
320 -160 0 -160 0 0 10 0 10 160 0 160 0 0 70 0 70 -230 0 -230 0 0 -310 0
-310 150 0 150 0 0 150 0 150 -70 0 -70 0 0 -80 0 -80 -10 0 -10 0 0 90 0 90
90 0 90 0 0 -170 0 -170 -170 0 -170 0 0 240 0 240 -150 0 -150 0 0 -80 0 -80
-80 0 -80 0 0 -80 0 -80 -10 0 -10 0 0 80 0 80 -80 0 -80 0 0 90 0 90 10 0 10
0 0 -80 0 -80 150 0 150 0 0 240 0 240 10 0 10 0 0 -160 0 -160 150 0 150 0 0
80 0 80 80 0 80 0 0 160 0 160 80 0 80 0 0 80 0 80 10 0 10 0 0 -90 0 -90 -80
0 -80 0 0 -150 0 -150 70 0 70 0 0 80 0 80 10 0 10 0 0 -80 0 -80 150 0 150 0
0 70 0 70 -80 0 -80 0 0 410 0 410 10 0 10 0 0 -80 0 -80 70 0 70 0 0 150 0
150 -80 0 -80 0 0 80 0 80 -150 0 -150 0 0 -240 0 -240 -10 0 -10 0 0 160 0
160 -160 0 -160 0 0 10 0 10 160 0 160 0 0 150 0 150 -70 0 -70 0 0 -80 0 -80
-90 0 -90 0 0 10 0 10 80 0 80 0 0 80 0 80 90 0 90 0 0 -80 0 -80 150 0 150 0
0 150 0 150 -70 0 -70 0 0 -80 0 -80 -10 0 -10 0 0 80 0 80 -80 0 -80 0 0 10
0 10 170 0 170 0 0 -240 0 -240 80 0 80 0 0 -80 0 -80 80 0 80 0 0 -10 0 -10
-80 0 -80 0 0 -80 0 -80 -80 0 -80 0 0 -310 0 -310 160 0 160 0 0 -10 0 -10
-80 0 -80 0 0 -80 0 -80 -80 0 -80 0 0 -230 0 -230 160 0 160 0 0 -320 0 -320
80 0 80 0 0 -90 0 -90 -80 0 -80 0 0 -80 0 -80 70 0 70 0 0 10 0 10 80 0 80 0
0 230 0 230 -80 0 -80 0 0 320 0 320 -160 0 -160 0 0 90 0 90 80 0 80 0 0 80
0 80 80 0 80 0 0 150 0 150 -160 0 -160 0 0 170 0 170 80 0 80 0 0 80 0 80 80
0 80 0 0 150 0 150 -80 0 -80 0 0 80 0 80 -80 0 -80 0 0 170 0 170 570 0 570
0 0 -10 0 -10 -80 0 -80 0 0 -150 0 -150 160 0 160 0 0 -170 0 -170 -160 0
-160 0 0 -80 0 -80 -10 0 -10 0 0 80 0 80 -80 0 -80 0 0 10 0 10 80 0 80 0 0
70 0 70 -80 0 -80 0 0 10 0 10 90 0 90 0 0 -80 0 -80 150 0 150 0 0 150 0 150
-70 0 -70 0 0 -80 0 -80 -10 0 -10 0 0 80 0 80 -240 0 -240 0 0 90 0 90 10 0
10 0 0 -80 0 -80 150 0 150 0 0 150 0 150 -70 0 -70 0 0 -80 0 -80 -10 0 -10
0 0 80 0 80 -150 0 -150 0 0 -80 0 -80 -10 0 -10 0 0 80 0 80 -230 0 -230 0 0
-150 0 -150 70 0 70 0 0 80 0 80 10 0 10 0 0 -160 0 -160 80 0 80 0 0 -160 0
-160 70 0 70 0 0 230 0 230 -80 0 -80 0 0 90 0 90 10 0 10 0 0 -80 0 -80 80 0
80 0 0 -80 0 -80 80 0 80 0 0 -10 0 -10 -80 0 -80 0 0 -160 0 -160 -160 0
-160 0 0 -70 0 -70 80 0 80 0 0 -10 0 -10 -160 0 -160 0 0 -150 0 -150 240 0
240 0 0 -80 0 -80 150 0 150 0 0 80 0 80 80 0 80 0 0 150 0 150 -80 0 -80 0 0
80 0 80 -70 0 -70 0 0 -80 0 -80 -80 0 -80 0 0 -70 0 -70 160 0 160 0 0 -10 0
-10 -80 0 -80 0 0 -80 0 -80 -10 0 -10 0 0 80 0 80 -240 0 -240 0 0 10 0 10
160 0 160 0 0 80 0 80 80 0 80 0 0 160 0 160 10 0 10 0 0 -80 0 -80 80 0 80 0
0 -80 0 -80 150 0 150 0 0 80 0 80 170 0 170 0 0 -90 0 -90 -10 0 -10 0 0 80
0 80 -150 0 -150 0 0 -80 0 -80 -80 0 -80 0 0 -240 0 -240 -10 0 -10 0 0 80 0
80 -70 0 -70 0 0 -150 0 -150 80 0 80 0 0 -10 0 -10 -90 0 -90 0 0 80 0 80
-160 0 -160 0 0 80 0 80 -70 0 -70 0 0 -160 0 -160 -80 0 -80 0 0 -80 0 -80
-80 0 -80 0 0 -70 0 -70 160 0 160 0 0 -80 0 -80 240 0 240 0 0 -160 0 -160
150 0 150 0 0 70 0 70 -80 0 -80 0 0 160 0 160 -240 0 -240 0 0 80 0 80 -80 0
-80 0 0 10 0 10 80 0 80 0 0 80 0 80 90 0 90 0 0 -80 0 -80 80 0 80 0 0 -10 0
-10 -90 0 -90 0 0 80 0 80 -70 0 -70 0 0 -150 0 -150 240 0 240 0 0 -160 0
-160 80 0 80 0 0 -90 0 -90 -330 0 -330 0 0 10 0 10 80 0 80 0 0 80 0 80 10 0
10 0 0 -80 0 -80 70 0 70 0 0 150 0 150 -150 0 -150 0 0 -80 0 -80 -10 0 -10
0 0 80 0 80 -70 0 -70 0 0 -230 0 -230 240 0 240 0 0 -10 0 -10 -160 0 -160 0
0 -70 0 -70 80 0 80 0 0 -10 0 -10 -80 0 -80 0 0 -150 0 -150 150 0 150 0 0
70 0 70 -80 0 -80 0 0 10 0 10 90 0 90 0 0 -80 0 -80 470 0 470 0 0 150 0 150
-80 0 -80 0 0 80 0 80 -150 0 -150 0 0 -80 0 -80 -10 0 -10 0 0 80 0 80 -150
0 -150 0 0 -150 0 -150 70 0 70 0 0 80 0 80 10 0 10 0 0 -80 0 -80 150 0 150
0 0 80 0 80 10 0 10 0 0 -80 0 -80 80 0 80 0 0 -10 0 -10 -330 0 -330 0 0 80
0 80 -80 0 -80 0 0 10 0 10 80 0 80 0 0 80 0 80 160 0 160 0 0 230 0 230 -80
0 -80 0 0 10 0 10 80 0 80 0 0 160 0 160 90 0 90 0 0 -90 0 -90 -10 0 -10 0 0
80 0 80 -70 0 -70 0 0 -390 0 -390 160 0 160 0 0 -80 0 -80 70 0 70 0 0 310 0
310 -150 0 -150 0 0 -150 0 -150 70 0 70 0 0 80 0 80 10 0 10 0 0 -90 0 -90
-90 0 -90 0 0 170 0 170 160 0 160 0 0 310 0 310 -240 0 -240 0 0 10 0 10 80
0 80 0 0 80 0 80 10 0 10 0 0 -80 0 -80 150 0 150 0 0 470 0 470 -80 0 -80 0
0 10 0 10 80 0 80 0 0 310 0 310 -230 0 -230 0 0 -150 0 -150 80 0 80 0 0 -80
0 -80 70 0 70 0 0 150 0 150 -80 0 -80 0 0 10 0 10 90 0 90 0 0 -170 0 -170
-80 0 -80 0 0 -150 0 -150 80 0 80 0 0 -330 0 -330 -10 0 -10 0 0 80 0 80
-150 0 -150 0 0 -80 0 -80 -10 0 -10 0 0 80 0 80 -70 0 -70 0 0 -230 0 -230
240 0 240 0 0 -170 0 -170 -10 0 -10 0 0 160 0 160 -230 0 -230 0 0 -160 0
-160 -10 0 -10 0 0 80 0 80 -80 0 -80 0 0 10 0 10 80 0 80 0 0 320 0 320 80 0
80 0 0 80 0 80 10 0 10 0 0 -80 0 -80 150 0 150 0 0 230 0 230 -80 0 -80 0 0
240 0 240 -160 0 -160 0 0 10 0 10 80 0 80 0 0 150 0 150 -560 0 -560 0 0 10
0 10 -70 0 -70 0 0 -10z"/>
</g>
</svg>
