  0
SECTION
  2
HEADER
  9
$ACADVER
  1
AC1009
  9
$FILLMODE
 70
 0
  9
$SPLFRAME
 70
 1
  9
$EXTMIN
 10
0
 20
0
 30
0.0
  9
$EXTMAX
 10
1058.33
 20
1058.33
 30
0.0
  0
ENDSEC
  0
SECTION
  2
TABLES
  0
TABLE
  2
LAYER
 70
1
  0
LAYER
  2
0
 70
     0
 62
     7
  6
CONTINUOUS
  0
ENDTAB
  0
ENDSEC
  0
SECTION
  2
ENTITIES
  0
LINE
  8
0
 62
     0
 10
50.8
 20
113.242
 30
0.0
 11
50.8
 21
112.889
 31
0.0
  0
LINE
  8
0
 62
     0
 10
50.8
 20
112.889
 30
0.0
 11
28.2222
 21
112.889
 31
0.0
  0
LINE
  8
0
 62
     0
 10
28.2222
 20
112.889
 30
0.0
 11
28.2222
 21
107.244
 31
0.0
  0
LINE
  8
0
 62
     0
 10
28.2222
 20
107.244
 30
0.0
 11
27.5167
 21
107.244
 31
0.0
  0
LINE
  8
0
 62
     0
 10
27.5167
 20
107.244
 30
0.0
 11
27.5167
 21
112.889
 31
0.0
  0
LINE
  8
0
 62
     0
 10
27.5167
 20
112.889
 30
0.0
 11
0
 21
112.889
 31
0.0
  0
LINE
  8
0
 62
     0
 10
0
 20
112.889
 30
0.0
 11
0
 21
107.95
 31
0.0
  0
LINE
  8
0
 62
     0
 10
0
 20
107.95
 30
0.0
 11
22.5778
 21
107.95
 31
0.0
  0
LINE
  8
0
 62
     0
 10
22.5778
 20
107.95
 30
0.0
 11
22.5778
 21
101.6
 31
0.0
  0
LINE
  8
0
 62
     0
 10
22.5778
 20
101.6
 30
0.0
 11
21.8722
 21
101.6
 31
0.0
  0
LINE
  8
0
 62
     0
 10
21.8722
 20
101.6
 30
0.0
 11
21.8722
 21
107.244
 31
0.0
  0
LINE
  8
0
 62
     0
 10
21.8722
 20
107.244
 30
0.0
 11
11.2889
 21
107.244
 31
0.0
  0
LINE
  8
0
 62
     0
 10
11.2889
 20
107.244
 30
0.0
 11
11.2889
 21
101.6
 31
0.0
  0
LINE
  8
0
 62
     0
 10
11.2889
 20
101.6
 30
0.0
 11
10.5833
 21
101.6
 31
0.0
  0
LINE
  8
0
 62
     0
 10
10.5833
 20
101.6
 30
0.0
 11
10.5833
 21
107.244
 31
0.0
  0
LINE
  8
0
 62
     0
 10
10.5833
 20
107.244
 30
0.0
 11
0
 21
107.244
 31
0.0
  0
LINE
  8
0
 62
     0
 10
0
 20
107.244
 30
0.0
 11
0
 21
91.0167
 31
0.0
  0
LINE
  8
0
 62
     0
 10
0
 20
91.0167
 30
0.0
 11
5.64444
 21
91.0167
 31
0.0
  0
LINE
  8
0
 62
     0
 10
5.64444
 20
91.0167
 30
0.0
 11
5.64444
 21
90.3111
 31
0.0
  0
LINE
  8
0
 62
     0
 10
5.64444
 20
90.3111
 30
0.0
 11
0
 21
90.3111
 31
0.0
  0
LINE
  8
0
 62
     0
 10
0
 20
90.3111
 30
0.0
 11
0
 21
79.7278
 31
0.0
  0
LINE
  8
0
 62
     0
 10
0
 20
79.7278
 30
0.0
 11
5.64444
 21
79.7278
 31
0.0
  0
LINE
  8
0
 62
     0
 10
5.64444
 20
79.7278
 30
0.0
 11
5.64444
 21
73.3778
 31
0.0
  0
LINE
  8
0
 62
     0
 10
5.64444
 20
73.3778
 30
0.0
 11
4.93889
 21
73.3778
 31
0.0
  0
LINE
  8
0
 62
     0
 10
4.93889
 20
73.3778
 30
0.0
 11
4.93889
 21
79.0222
 31
0.0
  0
LINE
  8
0
 62
     0
 10
4.93889
 20
79.0222
 30
0.0
 11
0
 21
79.0222
 31
0.0
  0
LINE
  8
0
 62
     0
 10
0
 20
79.0222
 30
0.0
 11
0
 21
68.4389
 31
0.0
  0
LINE
  8
0
 62
     0
 10
0
 20
68.4389
 30
0.0
 11
11.2889
 21
68.4389
 31
0.0
  0
LINE
  8
0
 62
     0
 10
11.2889
 20
68.4389
 30
0.0
 11
11.2889
 21
62.7944
 31
0.0
  0
LINE
  8
0
 62
     0
 10
11.2889
 20
62.7944
 30
0.0
 11
22.5778
 21
62.7944
 31
0.0
  0
LINE
  8
0
 62
     0
 10
22.5778
 20
62.7944
 30
0.0
 11
22.5778
 21
57.15
 31
0.0
  0
LINE
  8
0
 62
     0
 10
22.5778
 20
57.15
 30
0.0
 11
27.5167
 21
57.15
 31
0.0
  0
LINE
  8
0
 62
     0
 10
27.5167
 20
57.15
 30
0.0
 11
27.5167
 21
67.7333
 31
0.0
  0
LINE
  8
0
 62
     0
 10
27.5167
 20
67.7333
 30
0.0
 11
16.2278
 21
67.7333
 31
0.0
  0
LINE
  8
0
 62
     0
 10
16.2278
 20
67.7333
 30
0.0
 11
16.2278
 21
73.3778
 31
0.0
  0
LINE
  8
0
 62
     0
 10
16.2278
 20
73.3778
 30
0.0
 11
10.5833
 21
73.3778
 31
0.0
  0
LINE
  8
0
 62
     0
 10
10.5833
 20
73.3778
 30
0.0
 11
10.5833
 21
84.6667
 31
0.0
  0
LINE
  8
0
 62
     0
 10
10.5833
 20
84.6667
 30
0.0
 11
4.93889
 21
84.6667
 31
0.0
  0
LINE
  8
0
 62
     0
 10
4.93889
 20
84.6667
 30
0.0
 11
4.93889
 21
85.3722
 31
0.0
  0
LINE
  8
0
 62
     0
 10
4.93889
 20
85.3722
 30
0.0
 11
10.5833
 21
85.3722
 31
0.0
  0
LINE
  8
0
 62
     0
 10
10.5833
 20
85.3722
 30
0.0
 11
10.5833
 21
91.0167
 31
0.0
  0
LINE
  8
0
 62
     0
 10
10.5833
 20
91.0167
 30
0.0
 11
11.2889
 21
91.0167
 31
0.0
  0
LINE
  8
0
 62
     0
 10
11.2889
 20
91.0167
 30
0.0
 11
11.2889
 21
85.3722
 31
0.0
  0
LINE
  8
0
 62
     0
 10
11.2889
 20
85.3722
 30
0.0
 11
16.2278
 21
85.3722
 31
0.0
  0
LINE
  8
0
 62
     0
 10
16.2278
 20
85.3722
 30
0.0
 11
16.2278
 21
95.9556
 31
0.0
  0
LINE
  8
0
 62
     0
 10
16.2278
 20
95.9556
 30
0.0
 11
4.93889
 21
95.9556
 31
0.0
  0
LINE
  8
0
 62
     0
 10
4.93889
 20
95.9556
 30
0.0
 11
4.93889
 21
102.306
 31
0.0
  0
LINE
  8
0
 62
     0
 10
4.93889
 20
102.306
 30
0.0
 11
5.64444
 21
102.306
 31
0.0
  0
LINE
  8
0
 62
     0
 10
5.64444
 20
102.306
 30
0.0
 11
5.64444
 21
96.6611
 31
0.0
  0
LINE
  8
0
 62
     0
 10
5.64444
 20
96.6611
 30
0.0
 11
16.2278
 21
96.6611
 31
0.0
  0
LINE
  8
0
 62
     0
 10
16.2278
 20
96.6611
 30
0.0
 11
16.2278
 21
102.306
 31
0.0
  0
LINE
  8
0
 62
     0
 10
16.2278
 20
102.306
 30
0.0
 11
16.9333
 21
102.306
 31
0.0
  0
LINE
  8
0
 62
     0
 10
16.9333
 20
102.306
 30
0.0
 11
16.9333
 21
85.3722
 31
0.0
  0
LINE
  8
0
 62
     0
 10
16.9333
 20
85.3722
 30
0.0
 11
28.2222
 21
85.3722
 31
0.0
  0
LINE
  8
0
 62
     0
 10
28.2222
 20
85.3722
 30
0.0
 11
28.2222
 21
79.0222
 31
0.0
  0
LINE
  8
0
 62
     0
 10
28.2222
 20
79.0222
 30
0.0
 11
16.2278
 21
79.0222
 31
0.0
  0
LINE
  8
0
 62
     0
 10
16.2278
 20
79.0222
 30
0.0
 11
16.2278
 21
79.7278
 31
0.0
  0
LINE
  8
0
 62
     0
 10
16.2278
 20
79.7278
 30
0.0
 11
27.5167
 21
79.7278
 31
0.0
  0
LINE
  8
0
 62
     0
 10
27.5167
 20
79.7278
 30
0.0
 11
27.5167
 21
84.6667
 31
0.0
  0
LINE
  8
0
 62
     0
 10
27.5167
 20
84.6667
 30
0.0
 11
11.2889
 21
84.6667
 31
0.0
  0
LINE
  8
0
 62
     0
 10
11.2889
 20
84.6667
 30
0.0
 11
11.2889
 21
74.0833
 31
0.0
  0
LINE
  8
0
 62
     0
 10
11.2889
 20
74.0833
 30
0.0
 11
28.2222
 21
74.0833
 31
0.0
  0
LINE
  8
0
 62
     0
 10
28.2222
 20
74.0833
 30
0.0
 11
28.2222
 21
73.3778
 31
0.0
  0
LINE
  8
0
 62
     0
 10
28.2222
 20
73.3778
 30
0.0
 11
16.9333
 21
73.3778
 31
0.0
  0
LINE
  8
0
 62
     0
 10
16.9333
 20
73.3778
 30
0.0
 11
16.9333
 21
68.4389
 31
0.0
  0
LINE
  8
0
 62
     0
 10
16.9333
 20
68.4389
 30
0.0
 11
33.1611
 21
68.4389
 31
0.0
  0
LINE
  8
0
 62
     0
 10
33.1611
 20
68.4389
 30
0.0
 11
33.1611
 21
74.0833
 31
0.0
  0
LINE
  8
0
 62
     0
 10
33.1611
 20
74.0833
 30
0.0
 11
38.8056
 21
74.0833
 31
0.0
  0
LINE
  8
0
 62
     0
 10
38.8056
 20
74.0833
 30
0.0
 11
38.8056
 21
91.0167
 31
0.0
  0
LINE
  8
0
 62
     0
 10
38.8056
 20
91.0167
 30
0.0
 11
39.5111
 21
91.0167
 31
0.0
  0
LINE
  8
0
 62
     0
 10
39.5111
 20
91.0167
 30
0.0
 11
39.5111
 21
73.3778
 31
0.0
  0
LINE
  8
0
 62
     0
 10
39.5111
 20
73.3778
 30
0.0
 11
33.8667
 21
73.3778
 31
0.0
  0
LINE
  8
0
 62
     0
 10
33.8667
 20
73.3778
 30
0.0
 11
33.8667
 21
67.7333
 31
0.0
  0
LINE
  8
0
 62
     0
 10
33.8667
 20
67.7333
 30
0.0
 11
28.2222
 21
67.7333
 31
0.0
  0
LINE
  8
0
 62
     0
 10
28.2222
 20
67.7333
 30
0.0
 11
28.2222
 21
56.4444
 31
0.0
  0
LINE
  8
0
 62
     0
 10
28.2222
 20
56.4444
 30
0.0
 11
22.5778
 21
56.4444
 31
0.0
  0
LINE
  8
0
 62
     0
 10
22.5778
 20
56.4444
 30
0.0
 11
22.5778
 21
50.8
 31
0.0
  0
LINE
  8
0
 62
     0
 10
22.5778
 20
50.8
 30
0.0
 11
21.8722
 21
50.8
 31
0.0
  0
LINE
  8
0
 62
     0
 10
21.8722
 20
50.8
 30
0.0
 11
21.8722
 21
62.0889
 31
0.0
  0
LINE
  8
0
 62
     0
 10
21.8722
 20
62.0889
 30
0.0
 11
11.2889
 21
62.0889
 31
0.0
  0
LINE
  8
0
 62
     0
 10
11.2889
 20
62.0889
 30
0.0
 11
11.2889
 21
56.4444
 31
0.0
  0
LINE
  8
0
 62
     0
 10
11.2889
 20
56.4444
 30
0.0
 11
4.93889
 21
56.4444
 31
0.0
  0
LINE
  8
0
 62
     0
 10
4.93889
 20
56.4444
 30
0.0
 11
4.93889
 21
57.15
 31
0.0
  0
LINE
  8
0
 62
     0
 10
4.93889
 20
57.15
 30
0.0
 11
10.5833
 21
57.15
 31
0.0
  0
LINE
  8
0
 62
     0
 10
10.5833
 20
57.15
 30
0.0
 11
10.5833
 21
67.7333
 31
0.0
  0
LINE
  8
0
 62
     0
 10
10.5833
 20
67.7333
 30
0.0
 11
0
 21
67.7333
 31
0.0
  0
LINE
  8
0
 62
     0
 10
0
 20
67.7333
 30
0.0
 11
0
 21
62.7944
 31
0.0
  0
LINE
  8
0
 62
     0
 10
0
 20
62.7944
 30
0.0
 11
5.64444
 21
62.7944
 31
0.0
  0
LINE
  8
0
 62
     0
 10
5.64444
 20
62.7944
 30
0.0
 11
5.64444
 21
62.0889
 31
0.0
  0
LINE
  8
0
 62
     0
 10
5.64444
 20
62.0889
 30
0.0
 11
0
 21
62.0889
 31
0.0
  0
LINE
  8
0
 62
     0
 10
0
 20
62.0889
 30
0.0
 11
0
 21
51.5056
 31
0.0
  0
LINE
  8
0
 62
     0
 10
0
 20
51.5056
 30
0.0
 11
11.2889
 21
51.5056
 31
0.0
  0
LINE
  8
0
 62
     0
 10
11.2889
 20
51.5056
 30
0.0
 11
11.2889
 21
45.1556
 31
0.0
  0
LINE
  8
0
 62
     0
 10
11.2889
 20
45.1556
 30
0.0
 11
10.5833
 21
45.1556
 31
0.0
  0
LINE
  8
0
 62
     0
 10
10.5833
 20
45.1556
 30
0.0
 11
10.5833
 21
50.8
 31
0.0
  0
LINE
  8
0
 62
     0
 10
10.5833
 20
50.8
 30
0.0
 11
0
 21
50.8
 31
0.0
  0
LINE
  8
0
 62
     0
 10
0
 20
50.8
 30
0.0
 11
0
 21
34.5722
 31
0.0
  0
LINE
  8
0
 62
     0
 10
0
 20
34.5722
 30
0.0
 11
5.64444
 21
34.5722
 31
0.0
  0
LINE
  8
0
 62
     0
 10
5.64444
 20
34.5722
 30
0.0
 11
5.64444
 21
28.9278
 31
0.0
  0
LINE
  8
0
 62
     0
 10
5.64444
 20
28.9278
 30
0.0
 11
16.2278
 21
28.9278
 31
0.0
  0
LINE
  8
0
 62
     0
 10
16.2278
 20
28.9278
 30
0.0
 11
16.2278
 21
34.5722
 31
0.0
  0
LINE
  8
0
 62
     0
 10
16.2278
 20
34.5722
 30
0.0
 11
21.8722
 21
34.5722
 31
0.0
  0
LINE
  8
0
 62
     0
 10
21.8722
 20
34.5722
 30
0.0
 11
21.8722
 21
40.2167
 31
0.0
  0
LINE
  8
0
 62
     0
 10
21.8722
 20
40.2167
 30
0.0
 11
22.5778
 21
40.2167
 31
0.0
  0
LINE
  8
0
 62
     0
 10
22.5778
 20
40.2167
 30
0.0
 11
22.5778
 21
33.8667
 31
0.0
  0
LINE
  8
0
 62
     0
 10
22.5778
 20
33.8667
 30
0.0
 11
16.9333
 21
33.8667
 31
0.0
  0
LINE
  8
0
 62
     0
 10
16.9333
 20
33.8667
 30
0.0
 11
16.9333
 21
28.2222
 31
0.0
  0
LINE
  8
0
 62
     0
 10
16.9333
 20
28.2222
 30
0.0
 11
5.64444
 21
28.2222
 31
0.0
  0
LINE
  8
0
 62
     0
 10
5.64444
 20
28.2222
 30
0.0
 11
5.64444
 21
17.6389
 31
0.0
  0
LINE
  8
0
 62
     0
 10
5.64444
 20
17.6389
 30
0.0
 11
11.2889
 21
17.6389
 31
0.0
  0
LINE
  8
0
 62
     0
 10
11.2889
 20
17.6389
 30
0.0
 11
11.2889
 21
11.2889
 31
0.0
  0
LINE
  8
0
 62
     0
 10
11.2889
 20
11.2889
 30
0.0
 11
10.5833
 21
11.2889
 31
0.0
  0
LINE
  8
0
 62
     0
 10
10.5833
 20
11.2889
 30
0.0
 11
10.5833
 21
16.9333
 31
0.0
  0
LINE
  8
0
 62
     0
 10
10.5833
 20
16.9333
 30
0.0
 11
5.64444
 21
16.9333
 31
0.0
  0
LINE
  8
0
 62
     0
 10
5.64444
 20
16.9333
 30
0.0
 11
5.64444
 21
11.2889
 31
0.0
  0
LINE
  8
0
 62
     0
 10
5.64444
 20
11.2889
 30
0.0
 11
4.93889
 21
11.2889
 31
0.0
  0
LINE
  8
0
 62
     0
 10
4.93889
 20
11.2889
 30
0.0
 11
4.93889
 21
33.8667
 31
0.0
  0
LINE
  8
0
 62
     0
 10
4.93889
 20
33.8667
 30
0.0
 11
0
 21
33.8667
 31
0.0
  0
LINE
  8
0
 62
     0
 10
0
 20
33.8667
 30
0.0
 11
0
 21
6.35
 31
0.0
  0
LINE
  8
0
 62
     0
 10
0
 20
6.35
 30
0.0
 11
16.2278
 21
6.35
 31
0.0
  0
LINE
  8
0
 62
     0
 10
16.2278
 20
6.35
 30
0.0
 11
16.2278
 21
17.6389
 31
0.0
  0
LINE
  8
0
 62
     0
 10
16.2278
 20
17.6389
 30
0.0
 11
22.5778
 21
17.6389
 31
0.0
  0
LINE
  8
0
 62
     0
 10
22.5778
 20
17.6389
 30
0.0
 11
22.5778
 21
16.9333
 31
0.0
  0
LINE
  8
0
 62
     0
 10
22.5778
 20
16.9333
 30
0.0
 11
16.9333
 21
16.9333
 31
0.0
  0
LINE
  8
0
 62
     0
 10
16.9333
 20
16.9333
 30
0.0
 11
16.9333
 21
6.35
 31
0.0
  0
LINE
  8
0
 62
     0
 10
16.9333
 20
6.35
 30
0.0
 11
33.1611
 21
6.35
 31
0.0
  0
LINE
  8
0
 62
     0
 10
33.1611
 20
6.35
 30
0.0
 11
33.1611
 21
17.6389
 31
0.0
  0
LINE
  8
0
 62
     0
 10
33.1611
 20
17.6389
 30
0.0
 11
33.8667
 21
17.6389
 31
0.0
  0
LINE
  8
0
 62
     0
 10
33.8667
 20
17.6389
 30
0.0
 11
33.8667
 21
6.35
 31
0.0
  0
LINE
  8
0
 62
     0
 10
33.8667
 20
6.35
 30
0.0
 11
50.0944
 21
6.35
 31
0.0
  0
LINE
  8
0
 62
     0
 10
50.0944
 20
6.35
 30
0.0
 11
50.0944
 21
11.2889
 31
0.0
  0
LINE
  8
0
 62
     0
 10
50.0944
 20
11.2889
 30
0.0
 11
38.8056
 21
11.2889
 31
0.0
  0
LINE
  8
0
 62
     0
 10
38.8056
 20
11.2889
 30
0.0
 11
38.8056
 21
11.9944
 31
0.0
  0
LINE
  8
0
 62
     0
 10
38.8056
 20
11.9944
 30
0.0
 11
44.45
 21
11.9944
 31
0.0
  0
LINE
  8
0
 62
     0
 10
44.45
 20
11.9944
 30
0.0
 11
44.45
 21
16.9333
 31
0.0
  0
LINE
  8
0
 62
     0
 10
44.45
 20
16.9333
 30
0.0
 11
38.8056
 21
16.9333
 31
0.0
  0
LINE
  8
0
 62
     0
 10
38.8056
 20
16.9333
 30
0.0
 11
38.8056
 21
22.5778
 31
0.0
  0
LINE
  8
0
 62
     0
 10
38.8056
 20
22.5778
 30
0.0
 11
28.2222
 21
22.5778
 31
0.0
  0
LINE
  8
0
 62
     0
 10
28.2222
 20
22.5778
 30
0.0
 11
28.2222
 21
11.2889
 31
0.0
  0
LINE
  8
0
 62
     0
 10
28.2222
 20
11.2889
 30
0.0
 11
21.8722
 21
11.2889
 31
0.0
  0
LINE
  8
0
 62
     0
 10
21.8722
 20
11.2889
 30
0.0
 11
21.8722
 21
11.9944
 31
0.0
  0
LINE
  8
0
 62
     0
 10
21.8722
 20
11.9944
 30
0.0
 11
27.5167
 21
11.9944
 31
0.0
  0
LINE
  8
0
 62
     0
 10
27.5167
 20
11.9944
 30
0.0
 11
27.5167
 21
22.5778
 31
0.0
  0
LINE
  8
0
 62
     0
 10
27.5167
 20
22.5778
 30
0.0
 11
10.5833
 21
22.5778
 31
0.0
  0
LINE
  8
0
 62
     0
 10
10.5833
 20
22.5778
 30
0.0
 11
10.5833
 21
23.2833
 31
0.0
  0
LINE
  8
0
 62
     0
 10
10.5833
 20
23.2833
 30
0.0
 11
21.8722
 21
23.2833
 31
0.0
  0
LINE
  8
0
 62
     0
 10
21.8722
 20
23.2833
 30
0.0
 11
21.8722
 21
28.9278
 31
0.0
  0
LINE
  8
0
 62
     0
 10
21.8722
 20
28.9278
 30
0.0
 11
22.5778
 21
28.9278
 31
0.0
  0
LINE
  8
0
 62
     0
 10
22.5778
 20
28.9278
 30
0.0
 11
22.5778
 21
23.2833
 31
0.0
  0
LINE
  8
0
 62
     0
 10
22.5778
 20
23.2833
 30
0.0
 11
39.5111
 21
23.2833
 31
0.0
  0
LINE
  8
0
 62
     0
 10
39.5111
 20
23.2833
 30
0.0
 11
39.5111
 21
17.6389
 31
0.0
  0
LINE
  8
0
 62
     0
 10
39.5111
 20
17.6389
 30
0.0
 11
45.1556
 21
17.6389
 31
0.0
  0
LINE
  8
0
 62
     0
 10
45.1556
 20
17.6389
 30
0.0
 11
45.1556
 21
11.9944
 31
0.0
  0
LINE
  8
0
 62
     0
 10
45.1556
 20
11.9944
 30
0.0
 11
50.8
 21
11.9944
 31
0.0
  0
LINE
  8
0
 62
     0
 10
50.8
 20
11.9944
 30
0.0
 11
50.8
 21
5.64444
 31
0.0
  0
LINE
  8
0
 62
     0
 10
50.8
 20
5.64444
 30
0.0
 11
0
 21
5.64444
 31
0.0
  0
LINE
  8
0
 62
     0
 10
0
 20
5.64444
 30
0.0
 11
0
 21
0.705556
 31
0.0
  0
LINE
  8
0
 62
     0
 10
0
 20
0.705556
 30
0.0
 11
55.7389
 21
0.705556
 31
0.0
  0
LINE
  8
0
 62
     0
 10
55.7389
 20
0.705556
 30
0.0
 11
55.7389
 21
6.35
 31
0.0
  0
LINE
  8
0
 62
     0
 10
55.7389
 20
6.35
 30
0.0
 11
61.3833
 21
6.35
 31
0.0
  0
LINE
  8
0
 62
     0
 10
61.3833
 20
6.35
 30
0.0
 11
61.3833
 21
11.2889
 31
0.0
  0
LINE
  8
0
 62
     0
 10
61.3833
 20
11.2889
 30
0.0
 11
55.7389
 21
11.2889
 31
0.0
  0
LINE
  8
0
 62
     0
 10
55.7389
 20
11.2889
 30
0.0
 11
55.7389
 21
16.9333
 31
0.0
  0
LINE
  8
0
 62
     0
 10
55.7389
 20
16.9333
 30
0.0
 11
50.0944
 21
16.9333
 31
0.0
  0
LINE
  8
0
 62
     0
 10
50.0944
 20
16.9333
 30
0.0
 11
50.0944
 21
17.6389
 31
0.0
  0
LINE
  8
0
 62
     0
 10
50.0944
 20
17.6389
 30
0.0
 11
55.7389
 21
17.6389
 31
0.0
  0
LINE
  8
0
 62
     0
 10
55.7389
 20
17.6389
 30
0.0
 11
55.7389
 21
28.2222
 31
0.0
  0
LINE
  8
0
 62
     0
 10
55.7389
 20
28.2222
 30
0.0
 11
50.0944
 21
28.2222
 31
0.0
  0
LINE
  8
0
 62
     0
 10
50.0944
 20
28.2222
 30
0.0
 11
50.0944
 21
28.9278
 31
0.0
  0
LINE
  8
0
 62
     0
 10
50.0944
 20
28.9278
 30
0.0
 11
55.7389
 21
28.9278
 31
0.0
  0
LINE
  8
0
 62
     0
 10
55.7389
 20
28.9278
 30
0.0
 11
55.7389
 21
33.8667
 31
0.0
  0
LINE
  8
0
 62
     0
 10
55.7389
 20
33.8667
 30
0.0
 11
45.1556
 21
33.8667
 31
0.0
  0
LINE
  8
0
 62
     0
 10
45.1556
 20
33.8667
 30
0.0
 11
45.1556
 21
23.2833
 31
0.0
  0
LINE
  8
0
 62
     0
 10
45.1556
 20
23.2833
 30
0.0
 11
50.8
 21
23.2833
 31
0.0
  0
LINE
  8
0
 62
     0
 10
50.8
 20
23.2833
 30
0.0
 11
50.8
 21
22.5778
 31
0.0
  0
LINE
  8
0
 62
     0
 10
50.8
 20
22.5778
 30
0.0
 11
44.45
 21
22.5778
 31
0.0
  0
LINE
  8
0
 62
     0
 10
44.45
 20
22.5778
 30
0.0
 11
44.45
 21
45.1556
 31
0.0
  0
LINE
  8
0
 62
     0
 10
44.45
 20
45.1556
 30
0.0
 11
33.1611
 21
45.1556
 31
0.0
  0
LINE
  8
0
 62
     0
 10
33.1611
 20
45.1556
 30
0.0
 11
33.1611
 21
45.8611
 31
0.0
  0
LINE
  8
0
 62
     0
 10
33.1611
 20
45.8611
 30
0.0
 11
44.45
 21
45.8611
 31
0.0
  0
LINE
  8
0
 62
     0
 10
44.45
 20
45.8611
 30
0.0
 11
44.45
 21
50.8
 31
0.0
  0
LINE
  8
0
 62
     0
 10
44.45
 20
50.8
 30
0.0
 11
28.2222
 21
50.8
 31
0.0
  0
LINE
  8
0
 62
     0
 10
28.2222
 20
50.8
 30
0.0
 11
28.2222
 21
28.9278
 31
0.0
  0
LINE
  8
0
 62
     0
 10
28.2222
 20
28.9278
 30
0.0
 11
38.8056
 21
28.9278
 31
0.0
  0
LINE
  8
0
 62
     0
 10
38.8056
 20
28.9278
 30
0.0
 11
38.8056
 21
39.5111
 31
0.0
  0
LINE
  8
0
 62
     0
 10
38.8056
 20
39.5111
 30
0.0
 11
33.8667
 21
39.5111
 31
0.0
  0
LINE
  8
0
 62
     0
 10
33.8667
 20
39.5111
 30
0.0
 11
33.8667
 21
33.8667
 31
0.0
  0
LINE
  8
0
 62
     0
 10
33.8667
 20
33.8667
 30
0.0
 11
33.1611
 21
33.8667
 31
0.0
  0
LINE
  8
0
 62
     0
 10
33.1611
 20
33.8667
 30
0.0
 11
33.1611
 21
40.2167
 31
0.0
  0
LINE
  8
0
 62
     0
 10
33.1611
 20
40.2167
 30
0.0
 11
39.5111
 21
40.2167
 31
0.0
  0
LINE
  8
0
 62
     0
 10
39.5111
 20
40.2167
 30
0.0
 11
39.5111
 21
28.2222
 31
0.0
  0
LINE
  8
0
 62
     0
 10
39.5111
 20
28.2222
 30
0.0
 11
27.5167
 21
28.2222
 31
0.0
  0
LINE
  8
0
 62
     0
 10
27.5167
 20
28.2222
 30
0.0
 11
27.5167
 21
45.1556
 31
0.0
  0
LINE
  8
0
 62
     0
 10
27.5167
 20
45.1556
 30
0.0
 11
16.9333
 21
45.1556
 31
0.0
  0
LINE
  8
0
 62
     0
 10
16.9333
 20
45.1556
 30
0.0
 11
16.9333
 21
39.5111
 31
0.0
  0
LINE
  8
0
 62
     0
 10
16.9333
 20
39.5111
 30
0.0
 11
11.2889
 21
39.5111
 31
0.0
  0
LINE
  8
0
 62
     0
 10
11.2889
 20
39.5111
 30
0.0
 11
11.2889
 21
33.8667
 31
0.0
  0
LINE
  8
0
 62
     0
 10
11.2889
 20
33.8667
 30
0.0
 11
10.5833
 21
33.8667
 31
0.0
  0
LINE
  8
0
 62
     0
 10
10.5833
 20
33.8667
 30
0.0
 11
10.5833
 21
39.5111
 31
0.0
  0
LINE
  8
0
 62
     0
 10
10.5833
 20
39.5111
 30
0.0
 11
4.93889
 21
39.5111
 31
0.0
  0
LINE
  8
0
 62
     0
 10
4.93889
 20
39.5111
 30
0.0
 11
4.93889
 21
45.8611
 31
0.0
  0
LINE
  8
0
 62
     0
 10
4.93889
 20
45.8611
 30
0.0
 11
5.64444
 21
45.8611
 31
0.0
  0
LINE
  8
0
 62
     0
 10
5.64444
 20
45.8611
 30
0.0
 11
5.64444
 21
40.2167
 31
0.0
  0
LINE
  8
0
 62
     0
 10
5.64444
 20
40.2167
 30
0.0
 11
16.2278
 21
40.2167
 31
0.0
  0
LINE
  8
0
 62
     0
 10
16.2278
 20
40.2167
 30
0.0
 11
16.2278
 21
57.15
 31
0.0
  0
LINE
  8
0
 62
     0
 10
16.2278
 20
57.15
 30
0.0
 11
16.9333
 21
57.15
 31
0.0
  0
LINE
  8
0
 62
     0
 10
16.9333
 20
57.15
 30
0.0
 11
16.9333
 21
45.8611
 31
0.0
  0
LINE
  8
0
 62
     0
 10
16.9333
 20
45.8611
 30
0.0
 11
27.5167
 21
45.8611
 31
0.0
  0
LINE
  8
0
 62
     0
 10
27.5167
 20
45.8611
 30
0.0
 11
27.5167
 21
51.5056
 31
0.0
  0
LINE
  8
0
 62
     0
 10
27.5167
 20
51.5056
 30
0.0
 11
33.1611
 21
51.5056
 31
0.0
  0
LINE
  8
0
 62
     0
 10
33.1611
 20
51.5056
 30
0.0
 11
33.1611
 21
62.7944
 31
0.0
  0
LINE
  8
0
 62
     0
 10
33.1611
 20
62.7944
 30
0.0
 11
38.8056
 21
62.7944
 31
0.0
  0
LINE
  8
0
 62
     0
 10
38.8056
 20
62.7944
 30
0.0
 11
38.8056
 21
68.4389
 31
0.0
  0
LINE
  8
0
 62
     0
 10
38.8056
 20
68.4389
 30
0.0
 11
39.5111
 21
68.4389
 31
0.0
  0
LINE
  8
0
 62
     0
 10
39.5111
 20
68.4389
 30
0.0
 11
39.5111
 21
62.0889
 31
0.0
  0
LINE
  8
0
 62
     0
 10
39.5111
 20
62.0889
 30
0.0
 11
33.8667
 21
62.0889
 31
0.0
  0
LINE
  8
0
 62
     0
 10
33.8667
 20
62.0889
 30
0.0
 11
33.8667
 21
51.5056
 31
0.0
  0
LINE
  8
0
 62
     0
 10
33.8667
 20
51.5056
 30
0.0
 11
38.8056
 21
51.5056
 31
0.0
  0
LINE
  8
0
 62
     0
 10
38.8056
 20
51.5056
 30
0.0
 11
38.8056
 21
57.15
 31
0.0
  0
LINE
  8
0
 62
     0
 10
38.8056
 20
57.15
 30
0.0
 11
39.5111
 21
57.15
 31
0.0
  0
LINE
  8
0
 62
     0
 10
39.5111
 20
57.15
 30
0.0
 11
39.5111
 21
51.5056
 31
0.0
  0
LINE
  8
0
 62
     0
 10
39.5111
 20
51.5056
 30
0.0
 11
50.0944
 21
51.5056
 31
0.0
  0
LINE
  8
0
 62
     0
 10
50.0944
 20
51.5056
 30
0.0
 11
50.0944
 21
56.4444
 31
0.0
  0
LINE
  8
0
 62
     0
 10
50.0944
 20
56.4444
 30
0.0
 11
44.45
 21
56.4444
 31
0.0
  0
LINE
  8
0
 62
     0
 10
44.45
 20
56.4444
 30
0.0
 11
44.45
 21
85.3722
 31
0.0
  0
LINE
  8
0
 62
     0
 10
44.45
 20
85.3722
 30
0.0
 11
45.1556
 21
85.3722
 31
0.0
  0
LINE
  8
0
 62
     0
 10
45.1556
 20
85.3722
 30
0.0
 11
45.1556
 21
79.7278
 31
0.0
  0
LINE
  8
0
 62
     0
 10
45.1556
 20
79.7278
 30
0.0
 11
50.0944
 21
79.7278
 31
0.0
  0
LINE
  8
0
 62
     0
 10
50.0944
 20
79.7278
 30
0.0
 11
50.0944
 21
90.3111
 31
0.0
  0
LINE
  8
0
 62
     0
 10
50.0944
 20
90.3111
 30
0.0
 11
44.45
 21
90.3111
 31
0.0
  0
LINE
  8
0
 62
     0
 10
44.45
 20
90.3111
 30
0.0
 11
44.45
 21
95.9556
 31
0.0
  0
LINE
  8
0
 62
     0
 10
44.45
 20
95.9556
 30
0.0
 11
33.8667
 21
95.9556
 31
0.0
  0
LINE
  8
0
 62
     0
 10
33.8667
 20
95.9556
 30
0.0
 11
33.8667
 21
79.0222
 31
0.0
  0
LINE
  8
0
 62
     0
 10
33.8667
 20
79.0222
 30
0.0
 11
33.1611
 21
79.0222
 31
0.0
  0
LINE
  8
0
 62
     0
 10
33.1611
 20
79.0222
 30
0.0
 11
33.1611
 21
90.3111
 31
0.0
  0
LINE
  8
0
 62
     0
 10
33.1611
 20
90.3111
 30
0.0
 11
21.8722
 21
90.3111
 31
0.0
  0
LINE
  8
0
 62
     0
 10
21.8722
 20
90.3111
 30
0.0
 11
21.8722
 21
91.0167
 31
0.0
  0
LINE
  8
0
 62
     0
 10
21.8722
 20
91.0167
 30
0.0
 11
33.1611
 21
91.0167
 31
0.0
  0
LINE
  8
0
 62
     0
 10
33.1611
 20
91.0167
 30
0.0
 11
33.1611
 21
101.6
 31
0.0
  0
LINE
  8
0
 62
     0
 10
33.1611
 20
101.6
 30
0.0
 11
28.2222
 21
101.6
 31
0.0
  0
LINE
  8
0
 62
     0
 10
28.2222
 20
101.6
 30
0.0
 11
28.2222
 21
95.9556
 31
0.0
  0
LINE
  8
0
 62
     0
 10
28.2222
 20
95.9556
 30
0.0
 11
21.8722
 21
95.9556
 31
0.0
  0
LINE
  8
0
 62
     0
 10
21.8722
 20
95.9556
 30
0.0
 11
21.8722
 21
96.6611
 31
0.0
  0
LINE
  8
0
 62
     0
 10
21.8722
 20
96.6611
 30
0.0
 11
27.5167
 21
96.6611
 31
0.0
  0
LINE
  8
0
 62
     0
 10
27.5167
 20
96.6611
 30
0.0
 11
27.5167
 21
102.306
 31
0.0
  0
LINE
  8
0
 62
     0
 10
27.5167
 20
102.306
 30
0.0
 11
33.8667
 21
102.306
 31
0.0
  0
LINE
  8
0
 62
     0
 10
33.8667
 20
102.306
 30
0.0
 11
33.8667
 21
96.6611
 31
0.0
  0
LINE
  8
0
 62
     0
 10
33.8667
 20
96.6611
 30
0.0
 11
44.45
 21
96.6611
 31
0.0
  0
LINE
  8
0
 62
     0
 10
44.45
 20
96.6611
 30
0.0
 11
44.45
 21
107.244
 31
0.0
  0
LINE
  8
0
 62
     0
 10
44.45
 20
107.244
 30
0.0
 11
39.5111
 21
107.244
 31
0.0
  0
LINE
  8
0
 62
     0
 10
39.5111
 20
107.244
 30
0.0
 11
39.5111
 21
101.6
 31
0.0
  0
LINE
  8
0
 62
     0
 10
39.5111
 20
101.6
 30
0.0
 11
38.8056
 21
101.6
 31
0.0
  0
LINE
  8
0
 62
     0
 10
38.8056
 20
101.6
 30
0.0
 11
38.8056
 21
107.244
 31
0.0
  0
LINE
  8
0
 62
     0
 10
38.8056
 20
107.244
 30
0.0
 11
33.1611
 21
107.244
 31
0.0
  0
LINE
  8
0
 62
     0
 10
33.1611
 20
107.244
 30
0.0
 11
33.1611
 21
107.95
 31
0.0
  0
LINE
  8
0
 62
     0
 10
33.1611
 20
107.95
 30
0.0
 11
45.1556
 21
107.95
 31
0.0
  0
LINE
  8
0
 62
     0
 10
45.1556
 20
107.95
 30
0.0
 11
45.1556
 21
91.0167
 31
0.0
  0
LINE
  8
0
 62
     0
 10
45.1556
 20
91.0167
 30
0.0
 11
50.8
 21
91.0167
 31
0.0
  0
LINE
  8
0
 62
     0
 10
50.8
 20
91.0167
 30
0.0
 11
50.8
 21
85.3722
 31
0.0
  0
LINE
  8
0
 62
     0
 10
50.8
 20
85.3722
 30
0.0
 11
56.4444
 21
85.3722
 31
0.0
  0
LINE
  8
0
 62
     0
 10
56.4444
 20
85.3722
 30
0.0
 11
56.4444
 21
84.6667
 31
0.0
  0
LINE
  8
0
 62
     0
 10
56.4444
 20
84.6667
 30
0.0
 11
50.8
 21
84.6667
 31
0.0
  0
LINE
  8
0
 62
     0
 10
50.8
 20
84.6667
 30
0.0
 11
50.8
 21
79.0222
 31
0.0
  0
LINE
  8
0
 62
     0
 10
50.8
 20
79.0222
 30
0.0
 11
45.1556
 21
79.0222
 31
0.0
  0
LINE
  8
0
 62
     0
 10
45.1556
 20
79.0222
 30
0.0
 11
45.1556
 21
57.15
 31
0.0
  0
LINE
  8
0
 62
     0
 10
45.1556
 20
57.15
 30
0.0
 11
56.4444
 21
57.15
 31
0.0
  0
LINE
  8
0
 62
     0
 10
56.4444
 20
57.15
 30
0.0
 11
56.4444
 21
56.4444
 31
0.0
  0
LINE
  8
0
 62
     0
 10
56.4444
 20
56.4444
 30
0.0
 11
50.8
 21
56.4444
 31
0.0
  0
LINE
  8
0
 62
     0
 10
50.8
 20
56.4444
 30
0.0
 11
50.8
 21
50.8
 31
0.0
  0
LINE
  8
0
 62
     0
 10
50.8
 20
50.8
 30
0.0
 11
45.1556
 21
50.8
 31
0.0
  0
LINE
  8
0
 62
     0
 10
45.1556
 20
50.8
 30
0.0
 11
45.1556
 21
34.5722
 31
0.0
  0
LINE
  8
0
 62
     0
 10
45.1556
 20
34.5722
 30
0.0
 11
56.4444
 21
34.5722
 31
0.0
  0
LINE
  8
0
 62
     0
 10
56.4444
 20
34.5722
 30
0.0
 11
56.4444
 21
11.9944
 31
0.0
  0
LINE
  8
0
 62
     0
 10
56.4444
 20
11.9944
 30
0.0
 11
62.0889
 21
11.9944
 31
0.0
  0
LINE
  8
0
 62
     0
 10
62.0889
 20
11.9944
 30
0.0
 11
62.0889
 21
5.64444
 31
0.0
  0
LINE
  8
0
 62
     0
 10
62.0889
 20
5.64444
 30
0.0
 11
56.4444
 21
5.64444
 31
0.0
  0
LINE
  8
0
 62
     0
 10
56.4444
 20
5.64444
 30
0.0
 11
56.4444
 21
0
 31
0.0
  0
LINE
  8
0
 62
     0
 10
56.4444
 20
0
 30
0.0
 11
61.3833
 21
0
 31
0.0
  0
LINE
  8
0
 62
     0
 10
61.3833
 20
0
 30
0.0
 11
61.3833
 21
0.705556
 31
0.0
  0
LINE
  8
0
 62
     0
 10
61.3833
 20
0.705556
 30
0.0
 11
67.0278
 21
0.705556
 31
0.0
  0
LINE
  8
0
 62
     0
 10
67.0278
 20
0.705556
 30
0.0
 11
67.0278
 21
16.9333
 31
0.0
  0
LINE
  8
0
 62
     0
 10
67.0278
 20
16.9333
 30
0.0
 11
61.3833
 21
16.9333
 31
0.0
  0
LINE
  8
0
 62
     0
 10
61.3833
 20
16.9333
 30
0.0
 11
61.3833
 21
39.5111
 31
0.0
  0
LINE
  8
0
 62
     0
 10
61.3833
 20
39.5111
 30
0.0
 11
50.0944
 21
39.5111
 31
0.0
  0
LINE
  8
0
 62
     0
 10
50.0944
 20
39.5111
 30
0.0
 11
50.0944
 21
45.8611
 31
0.0
  0
LINE
  8
0
 62
     0
 10
50.0944
 20
45.8611
 30
0.0
 11
55.7389
 21
45.8611
 31
0.0
  0
LINE
  8
0
 62
     0
 10
55.7389
 20
45.8611
 30
0.0
 11
55.7389
 21
51.5056
 31
0.0
  0
LINE
  8
0
 62
     0
 10
55.7389
 20
51.5056
 30
0.0
 11
61.3833
 21
51.5056
 31
0.0
  0
LINE
  8
0
 62
     0
 10
61.3833
 20
51.5056
 30
0.0
 11
61.3833
 21
62.0889
 31
0.0
  0
LINE
  8
0
 62
     0
 10
61.3833
 20
62.0889
 30
0.0
 11
50.0944
 21
62.0889
 31
0.0
  0
LINE
  8
0
 62
     0
 10
50.0944
 20
62.0889
 30
0.0
 11
50.0944
 21
74.0833
 31
0.0
  0
LINE
  8
0
 62
     0
 10
50.0944
 20
74.0833
 30
0.0
 11
55.7389
 21
74.0833
 31
0.0
  0
LINE
  8
0
 62
     0
 10
55.7389
 20
74.0833
 30
0.0
 11
55.7389
 21
79.7278
 31
0.0
  0
LINE
  8
0
 62
     0
 10
55.7389
 20
79.7278
 30
0.0
 11
61.3833
 21
79.7278
 31
0.0
  0
LINE
  8
0
 62
     0
 10
61.3833
 20
79.7278
 30
0.0
 11
61.3833
 21
90.3111
 31
0.0
  0
LINE
  8
0
 62
     0
 10
61.3833
 20
90.3111
 30
0.0
 11
55.7389
 21
90.3111
 31
0.0
  0
LINE
  8
0
 62
     0
 10
55.7389
 20
90.3111
 30
0.0
 11
55.7389
 21
95.9556
 31
0.0
  0
LINE
  8
0
 62
     0
 10
55.7389
 20
95.9556
 30
0.0
 11
50.0944
 21
95.9556
 31
0.0
  0
LINE
  8
0
 62
     0
 10
50.0944
 20
95.9556
 30
0.0
 11
50.0944
 21
107.95
 31
0.0
  0
LINE
  8
0
 62
     0
 10
50.0944
 20
107.95
 30
0.0
 11
90.3111
 21
107.95
 31
0.0
  0
LINE
  8
0
 62
     0
 10
90.3111
 20
107.95
 30
0.0
 11
90.3111
 21
107.244
 31
0.0
  0
LINE
  8
0
 62
     0
 10
90.3111
 20
107.244
 30
0.0
 11
84.6667
 21
107.244
 31
0.0
  0
LINE
  8
0
 62
     0
 10
84.6667
 20
107.244
 30
0.0
 11
84.6667
 21
96.6611
 31
0.0
  0
LINE
  8
0
 62
     0
 10
84.6667
 20
96.6611
 30
0.0
 11
95.9556
 21
96.6611
 31
0.0
  0
LINE
  8
0
 62
     0
 10
95.9556
 20
96.6611
 30
0.0
 11
95.9556
 21
84.6667
 31
0.0
  0
LINE
  8
0
 62
     0
 10
95.9556
 20
84.6667
 30
0.0
 11
84.6667
 21
84.6667
 31
0.0
  0
LINE
  8
0
 62
     0
 10
84.6667
 20
84.6667
 30
0.0
 11
84.6667
 21
79.0222
 31
0.0
  0
LINE
  8
0
 62
     0
 10
84.6667
 20
79.0222
 30
0.0
 11
83.9611
 21
79.0222
 31
0.0
  0
LINE
  8
0
 62
     0
 10
83.9611
 20
79.0222
 30
0.0
 11
83.9611
 21
84.6667
 31
0.0
  0
LINE
  8
0
 62
     0
 10
83.9611
 20
84.6667
 30
0.0
 11
78.3167
 21
84.6667
 31
0.0
  0
LINE
  8
0
 62
     0
 10
78.3167
 20
84.6667
 30
0.0
 11
78.3167
 21
85.3722
 31
0.0
  0
LINE
  8
0
 62
     0
 10
78.3167
 20
85.3722
 30
0.0
 11
83.9611
 21
85.3722
 31
0.0
  0
LINE
  8
0
 62
     0
 10
83.9611
 20
85.3722
 30
0.0
 11
83.9611
 21
90.3111
 31
0.0
  0
LINE
  8
0
 62
     0
 10
83.9611
 20
90.3111
 30
0.0
 11
78.3167
 21
90.3111
 31
0.0
  0
LINE
  8
0
 62
     0
 10
78.3167
 20
90.3111
 30
0.0
 11
78.3167
 21
91.0167
 31
0.0
  0
LINE
  8
0
 62
     0
 10
78.3167
 20
91.0167
 30
0.0
 11
84.6667
 21
91.0167
 31
0.0
  0
LINE
  8
0
 62
     0
 10
84.6667
 20
91.0167
 30
0.0
 11
84.6667
 21
85.3722
 31
0.0
  0
LINE
  8
0
 62
     0
 10
84.6667
 20
85.3722
 30
0.0
 11
95.25
 21
85.3722
 31
0.0
  0
LINE
  8
0
 62
     0
 10
95.25
 20
85.3722
 30
0.0
 11
95.25
 21
95.9556
 31
0.0
  0
LINE
  8
0
 62
     0
 10
95.25
 20
95.9556
 30
0.0
 11
90.3111
 21
95.9556
 31
0.0
  0
LINE
  8
0
 62
     0
 10
90.3111
 20
95.9556
 30
0.0
 11
90.3111
 21
90.3111
 31
0.0
  0
LINE
  8
0
 62
     0
 10
90.3111
 20
90.3111
 30
0.0
 11
89.6056
 21
90.3111
 31
0.0
  0
LINE
  8
0
 62
     0
 10
89.6056
 20
90.3111
 30
0.0
 11
89.6056
 21
95.9556
 31
0.0
  0
LINE
  8
0
 62
     0
 10
89.6056
 20
95.9556
 30
0.0
 11
72.6722
 21
95.9556
 31
0.0
  0
LINE
  8
0
 62
     0
 10
72.6722
 20
95.9556
 30
0.0
 11
72.6722
 21
102.306
 31
0.0
  0
LINE
  8
0
 62
     0
 10
72.6722
 20
102.306
 30
0.0
 11
73.3778
 21
102.306
 31
0.0
  0
LINE
  8
0
 62
     0
 10
73.3778
 20
102.306
 30
0.0
 11
73.3778
 21
96.6611
 31
0.0
  0
LINE
  8
0
 62
     0
 10
73.3778
 20
96.6611
 30
0.0
 11
83.9611
 21
96.6611
 31
0.0
  0
LINE
  8
0
 62
     0
 10
83.9611
 20
96.6611
 30
0.0
 11
83.9611
 21
107.244
 31
0.0
  0
LINE
  8
0
 62
     0
 10
83.9611
 20
107.244
 30
0.0
 11
79.0222
 21
107.244
 31
0.0
  0
LINE
  8
0
 62
     0
 10
79.0222
 20
107.244
 30
0.0
 11
79.0222
 21
101.6
 31
0.0
  0
LINE
  8
0
 62
     0
 10
79.0222
 20
101.6
 30
0.0
 11
78.3167
 21
101.6
 31
0.0
  0
LINE
  8
0
 62
     0
 10
78.3167
 20
101.6
 30
0.0
 11
78.3167
 21
107.244
 31
0.0
  0
LINE
  8
0
 62
     0
 10
78.3167
 20
107.244
 30
0.0
 11
67.7333
 21
107.244
 31
0.0
  0
LINE
  8
0
 62
     0
 10
67.7333
 20
107.244
 30
0.0
 11
67.7333
 21
101.6
 31
0.0
  0
LINE
  8
0
 62
     0
 10
67.7333
 20
101.6
 30
0.0
 11
67.0278
 21
101.6
 31
0.0
  0
LINE
  8
0
 62
     0
 10
67.0278
 20
101.6
 30
0.0
 11
67.0278
 21
107.244
 31
0.0
  0
LINE
  8
0
 62
     0
 10
67.0278
 20
107.244
 30
0.0
 11
50.8
 21
107.244
 31
0.0
  0
LINE
  8
0
 62
     0
 10
50.8
 20
107.244
 30
0.0
 11
50.8
 21
96.6611
 31
0.0
  0
LINE
  8
0
 62
     0
 10
50.8
 20
96.6611
 30
0.0
 11
55.7389
 21
96.6611
 31
0.0
  0
LINE
  8
0
 62
     0
 10
55.7389
 20
96.6611
 30
0.0
 11
55.7389
 21
102.306
 31
0.0
  0
LINE
  8
0
 62
     0
 10
55.7389
 20
102.306
 30
0.0
 11
56.4444
 21
102.306
 31
0.0
  0
LINE
  8
0
 62
     0
 10
56.4444
 20
102.306
 30
0.0
 11
56.4444
 21
91.0167
 31
0.0
  0
LINE
  8
0
 62
     0
 10
56.4444
 20
91.0167
 30
0.0
 11
62.0889
 21
91.0167
 31
0.0
  0
LINE
  8
0
 62
     0
 10
62.0889
 20
91.0167
 30
0.0
 11
62.0889
 21
79.7278
 31
0.0
  0
LINE
  8
0
 62
     0
 10
62.0889
 20
79.7278
 30
0.0
 11
67.0278
 21
79.7278
 31
0.0
  0
LINE
  8
0
 62
     0
 10
67.0278
 20
79.7278
 30
0.0
 11
67.0278
 21
95.9556
 31
0.0
  0
LINE
  8
0
 62
     0
 10
67.0278
 20
95.9556
 30
0.0
 11
61.3833
 21
95.9556
 31
0.0
  0
LINE
  8
0
 62
     0
 10
61.3833
 20
95.9556
 30
0.0
 11
61.3833
 21
102.306
 31
0.0
  0
LINE
  8
0
 62
     0
 10
61.3833
 20
102.306
 30
0.0
 11
62.0889
 21
102.306
 31
0.0
  0
LINE
  8
0
 62
     0
 10
62.0889
 20
102.306
 30
0.0
 11
62.0889
 21
96.6611
 31
0.0
  0
LINE
  8
0
 62
     0
 10
62.0889
 20
96.6611
 30
0.0
 11
67.7333
 21
96.6611
 31
0.0
  0
LINE
  8
0
 62
     0
 10
67.7333
 20
96.6611
 30
0.0
 11
67.7333
 21
91.0167
 31
0.0
  0
LINE
  8
0
 62
     0
 10
67.7333
 20
91.0167
 30
0.0
 11
73.3778
 21
91.0167
 31
0.0
  0
LINE
  8
0
 62
     0
 10
73.3778
 20
91.0167
 30
0.0
 11
73.3778
 21
90.3111
 31
0.0
  0
LINE
  8
0
 62
     0
 10
73.3778
 20
90.3111
 30
0.0
 11
67.7333
 21
90.3111
 31
0.0
  0
LINE
  8
0
 62
     0
 10
67.7333
 20
90.3111
 30
0.0
 11
67.7333
 21
79.0222
 31
0.0
  0
LINE
  8
0
 62
     0
 10
67.7333
 20
79.0222
 30
0.0
 11
56.4444
 21
79.0222
 31
0.0
  0
LINE
  8
0
 62
     0
 10
56.4444
 20
79.0222
 30
0.0
 11
56.4444
 21
74.0833
 31
0.0
  0
LINE
  8
0
 62
     0
 10
56.4444
 20
74.0833
 30
0.0
 11
62.0889
 21
74.0833
 31
0.0
  0
LINE
  8
0
 62
     0
 10
62.0889
 20
74.0833
 30
0.0
 11
62.0889
 21
73.3778
 31
0.0
  0
LINE
  8
0
 62
     0
 10
62.0889
 20
73.3778
 30
0.0
 11
50.8
 21
73.3778
 31
0.0
  0
LINE
  8
0
 62
     0
 10
50.8
 20
73.3778
 30
0.0
 11
50.8
 21
62.7944
 31
0.0
  0
LINE
  8
0
 62
     0
 10
50.8
 20
62.7944
 30
0.0
 11
67.7333
 21
62.7944
 31
0.0
  0
LINE
  8
0
 62
     0
 10
67.7333
 20
62.7944
 30
0.0
 11
67.7333
 21
57.15
 31
0.0
  0
LINE
  8
0
 62
     0
 10
67.7333
 20
57.15
 30
0.0
 11
78.3167
 21
57.15
 31
0.0
  0
LINE
  8
0
 62
     0
 10
78.3167
 20
57.15
 30
0.0
 11
78.3167
 21
62.7944
 31
0.0
  0
LINE
  8
0
 62
     0
 10
78.3167
 20
62.7944
 30
0.0
 11
83.9611
 21
62.7944
 31
0.0
  0
LINE
  8
0
 62
     0
 10
83.9611
 20
62.7944
 30
0.0
 11
83.9611
 21
73.3778
 31
0.0
  0
LINE
  8
0
 62
     0
 10
83.9611
 20
73.3778
 30
0.0
 11
78.3167
 21
73.3778
 31
0.0
  0
LINE
  8
0
 62
     0
 10
78.3167
 20
73.3778
 30
0.0
 11
78.3167
 21
79.0222
 31
0.0
  0
LINE
  8
0
 62
     0
 10
78.3167
 20
79.0222
 30
0.0
 11
73.3778
 21
79.0222
 31
0.0
  0
LINE
  8
0
 62
     0
 10
73.3778
 20
79.0222
 30
0.0
 11
73.3778
 21
73.3778
 31
0.0
  0
LINE
  8
0
 62
     0
 10
73.3778
 20
73.3778
 30
0.0
 11
67.7333
 21
73.3778
 31
0.0
  0
LINE
  8
0
 62
     0
 10
67.7333
 20
73.3778
 30
0.0
 11
67.7333
 21
68.4389
 31
0.0
  0
LINE
  8
0
 62
     0
 10
67.7333
 20
68.4389
 30
0.0
 11
79.0222
 21
68.4389
 31
0.0
  0
LINE
  8
0
 62
     0
 10
79.0222
 20
68.4389
 30
0.0
 11
79.0222
 21
67.7333
 31
0.0
  0
LINE
  8
0
 62
     0
 10
79.0222
 20
67.7333
 30
0.0
 11
73.3778
 21
67.7333
 31
0.0
  0
LINE
  8
0
 62
     0
 10
73.3778
 20
67.7333
 30
0.0
 11
73.3778
 21
62.0889
 31
0.0
  0
LINE
  8
0
 62
     0
 10
73.3778
 20
62.0889
 30
0.0
 11
72.6722
 21
62.0889
 31
0.0
  0
LINE
  8
0
 62
     0
 10
72.6722
 20
62.0889
 30
0.0
 11
72.6722
 21
67.7333
 31
0.0
  0
LINE
  8
0
 62
     0
 10
72.6722
 20
67.7333
 30
0.0
 11
55.7389
 21
67.7333
 31
0.0
  0
LINE
  8
0
 62
     0
 10
55.7389
 20
67.7333
 30
0.0
 11
55.7389
 21
68.4389
 31
0.0
  0
LINE
  8
0
 62
     0
 10
55.7389
 20
68.4389
 30
0.0
 11
67.0278
 21
68.4389
 31
0.0
  0
LINE
  8
0
 62
     0
 10
67.0278
 20
68.4389
 30
0.0
 11
67.0278
 21
74.0833
 31
0.0
  0
LINE
  8
0
 62
     0
 10
67.0278
 20
74.0833
 30
0.0
 11
72.6722
 21
74.0833
 31
0.0
  0
LINE
  8
0
 62
     0
 10
72.6722
 20
74.0833
 30
0.0
 11
72.6722
 21
85.3722
 31
0.0
  0
LINE
  8
0
 62
     0
 10
72.6722
 20
85.3722
 30
0.0
 11
73.3778
 21
85.3722
 31
0.0
  0
LINE
  8
0
 62
     0
 10
73.3778
 20
85.3722
 30
0.0
 11
73.3778
 21
79.7278
 31
0.0
  0
LINE
  8
0
 62
     0
 10
73.3778
 20
79.7278
 30
0.0
 11
79.0222
 21
79.7278
 31
0.0
  0
LINE
  8
0
 62
     0
 10
79.0222
 20
79.7278
 30
0.0
 11
79.0222
 21
74.0833
 31
0.0
  0
LINE
  8
0
 62
     0
 10
79.0222
 20
74.0833
 30
0.0
 11
89.6056
 21
74.0833
 31
0.0
  0
LINE
  8
0
 62
     0
 10
89.6056
 20
74.0833
 30
0.0
 11
89.6056
 21
79.7278
 31
0.0
  0
LINE
  8
0
 62
     0
 10
89.6056
 20
79.7278
 30
0.0
 11
101.6
 21
79.7278
 31
0.0
  0
LINE
  8
0
 62
     0
 10
101.6
 20
79.7278
 30
0.0
 11
101.6
 21
73.3778
 31
0.0
  0
LINE
  8
0
 62
     0
 10
101.6
 20
73.3778
 30
0.0
 11
100.894
 21
73.3778
 31
0.0
  0
LINE
  8
0
 62
     0
 10
100.894
 20
73.3778
 30
0.0
 11
100.894
 21
79.0222
 31
0.0
  0
LINE
  8
0
 62
     0
 10
100.894
 20
79.0222
 30
0.0
 11
90.3111
 21
79.0222
 31
0.0
  0
LINE
  8
0
 62
     0
 10
90.3111
 20
79.0222
 30
0.0
 11
90.3111
 21
73.3778
 31
0.0
  0
LINE
  8
0
 62
     0
 10
90.3111
 20
73.3778
 30
0.0
 11
84.6667
 21
73.3778
 31
0.0
  0
LINE
  8
0
 62
     0
 10
84.6667
 20
73.3778
 30
0.0
 11
84.6667
 21
56.4444
 31
0.0
  0
LINE
  8
0
 62
     0
 10
84.6667
 20
56.4444
 30
0.0
 11
83.9611
 21
56.4444
 31
0.0
  0
LINE
  8
0
 62
     0
 10
83.9611
 20
56.4444
 30
0.0
 11
83.9611
 21
62.0889
 31
0.0
  0
LINE
  8
0
 62
     0
 10
83.9611
 20
62.0889
 30
0.0
 11
79.0222
 21
62.0889
 31
0.0
  0
LINE
  8
0
 62
     0
 10
79.0222
 20
62.0889
 30
0.0
 11
79.0222
 21
51.5056
 31
0.0
  0
LINE
  8
0
 62
     0
 10
79.0222
 20
51.5056
 30
0.0
 11
84.6667
 21
51.5056
 31
0.0
  0
LINE
  8
0
 62
     0
 10
84.6667
 20
51.5056
 30
0.0
 11
84.6667
 21
50.8
 31
0.0
  0
LINE
  8
0
 62
     0
 10
84.6667
 20
50.8
 30
0.0
 11
78.3167
 21
50.8
 31
0.0
  0
LINE
  8
0
 62
     0
 10
78.3167
 20
50.8
 30
0.0
 11
78.3167
 21
56.4444
 31
0.0
  0
LINE
  8
0
 62
     0
 10
78.3167
 20
56.4444
 30
0.0
 11
67.0278
 21
56.4444
 31
0.0
  0
LINE
  8
0
 62
     0
 10
67.0278
 20
56.4444
 30
0.0
 11
67.0278
 21
62.0889
 31
0.0
  0
LINE
  8
0
 62
     0
 10
67.0278
 20
62.0889
 30
0.0
 11
62.0889
 21
62.0889
 31
0.0
  0
LINE
  8
0
 62
     0
 10
62.0889
 20
62.0889
 30
0.0
 11
62.0889
 21
50.8
 31
0.0
  0
LINE
  8
0
 62
     0
 10
62.0889
 20
50.8
 30
0.0
 11
56.4444
 21
50.8
 31
0.0
  0
LINE
  8
0
 62
     0
 10
56.4444
 20
50.8
 30
0.0
 11
56.4444
 21
45.1556
 31
0.0
  0
LINE
  8
0
 62
     0
 10
56.4444
 20
45.1556
 30
0.0
 11
50.8
 21
45.1556
 31
0.0
  0
LINE
  8
0
 62
     0
 10
50.8
 20
45.1556
 30
0.0
 11
50.8
 21
40.2167
 31
0.0
  0
LINE
  8
0
 62
     0
 10
50.8
 20
40.2167
 30
0.0
 11
62.0889
 21
40.2167
 31
0.0
  0
LINE
  8
0
 62
     0
 10
62.0889
 20
40.2167
 30
0.0
 11
62.0889
 21
34.5722
 31
0.0
  0
LINE
  8
0
 62
     0
 10
62.0889
 20
34.5722
 30
0.0
 11
79.0222
 21
34.5722
 31
0.0
  0
LINE
  8
0
 62
     0
 10
79.0222
 20
34.5722
 30
0.0
 11
79.0222
 21
23.2833
 31
0.0
  0
LINE
  8
0
 62
     0
 10
79.0222
 20
23.2833
 30
0.0
 11
89.6056
 21
23.2833
 31
0.0
  0
LINE
  8
0
 62
     0
 10
89.6056
 20
23.2833
 30
0.0
 11
89.6056
 21
28.2222
 31
0.0
  0
LINE
  8
0
 62
     0
 10
89.6056
 20
28.2222
 30
0.0
 11
83.9611
 21
28.2222
 31
0.0
  0
LINE
  8
0
 62
     0
 10
83.9611
 20
28.2222
 30
0.0
 11
83.9611
 21
39.5111
 31
0.0
  0
LINE
  8
0
 62
     0
 10
83.9611
 20
39.5111
 30
0.0
 11
67.0278
 21
39.5111
 31
0.0
  0
LINE
  8
0
 62
     0
 10
67.0278
 20
39.5111
 30
0.0
 11
67.0278
 21
45.1556
 31
0.0
  0
LINE
  8
0
 62
     0
 10
67.0278
 20
45.1556
 30
0.0
 11
61.3833
 21
45.1556
 31
0.0
  0
LINE
  8
0
 62
     0
 10
61.3833
 20
45.1556
 30
0.0
 11
61.3833
 21
45.8611
 31
0.0
  0
LINE
  8
0
 62
     0
 10
61.3833
 20
45.8611
 30
0.0
 11
67.0278
 21
45.8611
 31
0.0
  0
LINE
  8
0
 62
     0
 10
67.0278
 20
45.8611
 30
0.0
 11
67.0278
 21
51.5056
 31
0.0
  0
LINE
  8
0
 62
     0
 10
67.0278
 20
51.5056
 30
0.0
 11
73.3778
 21
51.5056
 31
0.0
  0
LINE
  8
0
 62
     0
 10
73.3778
 20
51.5056
 30
0.0
 11
73.3778
 21
45.8611
 31
0.0
  0
LINE
  8
0
 62
     0
 10
73.3778
 20
45.8611
 30
0.0
 11
79.0222
 21
45.8611
 31
0.0
  0
LINE
  8
0
 62
     0
 10
79.0222
 20
45.8611
 30
0.0
 11
79.0222
 21
45.1556
 31
0.0
  0
LINE
  8
0
 62
     0
 10
79.0222
 20
45.1556
 30
0.0
 11
72.6722
 21
45.1556
 31
0.0
  0
LINE
  8
0
 62
     0
 10
72.6722
 20
45.1556
 30
0.0
 11
72.6722
 21
50.8
 31
0.0
  0
LINE
  8
0
 62
     0
 10
72.6722
 20
50.8
 30
0.0
 11
67.7333
 21
50.8
 31
0.0
  0
LINE
  8
0
 62
     0
 10
67.7333
 20
50.8
 30
0.0
 11
67.7333
 21
40.2167
 31
0.0
  0
LINE
  8
0
 62
     0
 10
67.7333
 20
40.2167
 30
0.0
 11
84.6667
 21
40.2167
 31
0.0
  0
LINE
  8
0
 62
     0
 10
84.6667
 20
40.2167
 30
0.0
 11
84.6667
 21
28.9278
 31
0.0
  0
LINE
  8
0
 62
     0
 10
84.6667
 20
28.9278
 30
0.0
 11
90.3111
 21
28.9278
 31
0.0
  0
LINE
  8
0
 62
     0
 10
90.3111
 20
28.9278
 30
0.0
 11
90.3111
 21
22.5778
 31
0.0
  0
LINE
  8
0
 62
     0
 10
90.3111
 20
22.5778
 30
0.0
 11
67.0278
 21
22.5778
 31
0.0
  0
LINE
  8
0
 62
     0
 10
67.0278
 20
22.5778
 30
0.0
 11
67.0278
 21
23.2833
 31
0.0
  0
LINE
  8
0
 62
     0
 10
67.0278
 20
23.2833
 30
0.0
 11
72.6722
 21
23.2833
 31
0.0
  0
LINE
  8
0
 62
     0
 10
72.6722
 20
23.2833
 30
0.0
 11
72.6722
 21
28.9278
 31
0.0
  0
LINE
  8
0
 62
     0
 10
72.6722
 20
28.9278
 30
0.0
 11
73.3778
 21
28.9278
 31
0.0
  0
LINE
  8
0
 62
     0
 10
73.3778
 20
28.9278
 30
0.0
 11
73.3778
 21
23.2833
 31
0.0
  0
LINE
  8
0
 62
     0
 10
73.3778
 20
23.2833
 30
0.0
 11
78.3167
 21
23.2833
 31
0.0
  0
LINE
  8
0
 62
     0
 10
78.3167
 20
23.2833
 30
0.0
 11
78.3167
 21
33.8667
 31
0.0
  0
LINE
  8
0
 62
     0
 10
78.3167
 20
33.8667
 30
0.0
 11
67.7333
 21
33.8667
 31
0.0
  0
LINE
  8
0
 62
     0
 10
67.7333
 20
33.8667
 30
0.0
 11
67.7333
 21
28.2222
 31
0.0
  0
LINE
  8
0
 62
     0
 10
67.7333
 20
28.2222
 30
0.0
 11
67.0278
 21
28.2222
 31
0.0
  0
LINE
  8
0
 62
     0
 10
67.0278
 20
28.2222
 30
0.0
 11
67.0278
 21
33.8667
 31
0.0
  0
LINE
  8
0
 62
     0
 10
67.0278
 20
33.8667
 30
0.0
 11
62.0889
 21
33.8667
 31
0.0
  0
LINE
  8
0
 62
     0
 10
62.0889
 20
33.8667
 30
0.0
 11
62.0889
 21
17.6389
 31
0.0
  0
LINE
  8
0
 62
     0
 10
62.0889
 20
17.6389
 30
0.0
 11
79.0222
 21
17.6389
 31
0.0
  0
LINE
  8
0
 62
     0
 10
79.0222
 20
17.6389
 30
0.0
 11
79.0222
 21
16.9333
 31
0.0
  0
LINE
  8
0
 62
     0
 10
79.0222
 20
16.9333
 30
0.0
 11
67.7333
 21
16.9333
 31
0.0
  0
LINE
  8
0
 62
     0
 10
67.7333
 20
16.9333
 30
0.0
 11
67.7333
 21
11.9944
 31
0.0
  0
LINE
  8
0
 62
     0
 10
67.7333
 20
11.9944
 30
0.0
 11
73.3778
 21
11.9944
 31
0.0
  0
LINE
  8
0
 62
     0
 10
73.3778
 20
11.9944
 30
0.0
 11
73.3778
 21
11.2889
 31
0.0
  0
LINE
  8
0
 62
     0
 10
73.3778
 20
11.2889
 30
0.0
 11
67.7333
 21
11.2889
 31
0.0
  0
LINE
  8
0
 62
     0
 10
67.7333
 20
11.2889
 30
0.0
 11
67.7333
 21
0.705556
 31
0.0
  0
LINE
  8
0
 62
     0
 10
67.7333
 20
0.705556
 30
0.0
 11
78.3167
 21
0.705556
 31
0.0
  0
LINE
  8
0
 62
     0
 10
78.3167
 20
0.705556
 30
0.0
 11
78.3167
 21
5.64444
 31
0.0
  0
LINE
  8
0
 62
     0
 10
78.3167
 20
5.64444
 30
0.0
 11
72.6722
 21
5.64444
 31
0.0
  0
LINE
  8
0
 62
     0
 10
72.6722
 20
5.64444
 30
0.0
 11
72.6722
 21
6.35
 31
0.0
  0
LINE
  8
0
 62
     0
 10
72.6722
 20
6.35
 30
0.0
 11
79.0222
 21
6.35
 31
0.0
  0
LINE
  8
0
 62
     0
 10
79.0222
 20
6.35
 30
0.0
 11
79.0222
 21
0.705556
 31
0.0
  0
LINE
  8
0
 62
     0
 10
79.0222
 20
0.705556
 30
0.0
 11
112.183
 21
0.705556
 31
0.0
  0
LINE
  8
0
 62
     0
 10
112.183
 20
0.705556
 30
0.0
 11
112.183
 21
11.2889
 31
0.0
  0
LINE
  8
0
 62
     0
 10
112.183
 20
11.2889
 30
0.0
 11
106.539
 21
11.2889
 31
0.0
  0
LINE
  8
0
 62
     0
 10
106.539
 20
11.2889
 30
0.0
 11
106.539
 21
16.9333
 31
0.0
  0
LINE
  8
0
 62
     0
 10
106.539
 20
16.9333
 30
0.0
 11
95.9556
 21
16.9333
 31
0.0
  0
LINE
  8
0
 62
     0
 10
95.9556
 20
16.9333
 30
0.0
 11
95.9556
 21
11.2889
 31
0.0
  0
LINE
  8
0
 62
     0
 10
95.9556
 20
11.2889
 30
0.0
 11
95.25
 21
11.2889
 31
0.0
  0
LINE
  8
0
 62
     0
 10
95.25
 20
11.2889
 30
0.0
 11
95.25
 21
16.9333
 31
0.0
  0
LINE
  8
0
 62
     0
 10
95.25
 20
16.9333
 30
0.0
 11
84.6667
 21
16.9333
 31
0.0
  0
LINE
  8
0
 62
     0
 10
84.6667
 20
16.9333
 30
0.0
 11
84.6667
 21
6.35
 31
0.0
  0
LINE
  8
0
 62
     0
 10
84.6667
 20
6.35
 30
0.0
 11
89.6056
 21
6.35
 31
0.0
  0
LINE
  8
0
 62
     0
 10
89.6056
 20
6.35
 30
0.0
 11
89.6056
 21
11.9944
 31
0.0
  0
LINE
  8
0
 62
     0
 10
89.6056
 20
11.9944
 30
0.0
 11
90.3111
 21
11.9944
 31
0.0
  0
LINE
  8
0
 62
     0
 10
90.3111
 20
11.9944
 30
0.0
 11
90.3111
 21
6.35
 31
0.0
  0
LINE
  8
0
 62
     0
 10
90.3111
 20
6.35
 30
0.0
 11
100.894
 21
6.35
 31
0.0
  0
LINE
  8
0
 62
     0
 10
100.894
 20
6.35
 30
0.0
 11
100.894
 21
11.9944
 31
0.0
  0
LINE
  8
0
 62
     0
 10
100.894
 20
11.9944
 30
0.0
 11
101.6
 21
11.9944
 31
0.0
  0
LINE
  8
0
 62
     0
 10
101.6
 20
11.9944
 30
0.0
 11
101.6
 21
6.35
 31
0.0
  0
LINE
  8
0
 62
     0
 10
101.6
 20
6.35
 30
0.0
 11
107.244
 21
6.35
 31
0.0
  0
LINE
  8
0
 62
     0
 10
107.244
 20
6.35
 30
0.0
 11
107.244
 21
5.64444
 31
0.0
  0
LINE
  8
0
 62
     0
 10
107.244
 20
5.64444
 30
0.0
 11
83.9611
 21
5.64444
 31
0.0
  0
LINE
  8
0
 62
     0
 10
83.9611
 20
5.64444
 30
0.0
 11
83.9611
 21
11.2889
 31
0.0
  0
LINE
  8
0
 62
     0
 10
83.9611
 20
11.2889
 30
0.0
 11
78.3167
 21
11.2889
 31
0.0
  0
LINE
  8
0
 62
     0
 10
78.3167
 20
11.2889
 30
0.0
 11
78.3167
 21
11.9944
 31
0.0
  0
LINE
  8
0
 62
     0
 10
78.3167
 20
11.9944
 30
0.0
 11
83.9611
 21
11.9944
 31
0.0
  0
LINE
  8
0
 62
     0
 10
83.9611
 20
11.9944
 30
0.0
 11
83.9611
 21
17.6389
 31
0.0
  0
LINE
  8
0
 62
     0
 10
83.9611
 20
17.6389
 30
0.0
 11
95.25
 21
17.6389
 31
0.0
  0
LINE
  8
0
 62
     0
 10
95.25
 20
17.6389
 30
0.0
 11
95.25
 21
33.8667
 31
0.0
  0
LINE
  8
0
 62
     0
 10
95.25
 20
33.8667
 30
0.0
 11
89.6056
 21
33.8667
 31
0.0
  0
LINE
  8
0
 62
     0
 10
89.6056
 20
33.8667
 30
0.0
 11
89.6056
 21
34.5722
 31
0.0
  0
LINE
  8
0
 62
     0
 10
89.6056
 20
34.5722
 30
0.0
 11
95.25
 21
34.5722
 31
0.0
  0
LINE
  8
0
 62
     0
 10
95.25
 20
34.5722
 30
0.0
 11
95.25
 21
45.8611
 31
0.0
  0
LINE
  8
0
 62
     0
 10
95.25
 20
45.8611
 30
0.0
 11
101.6
 21
45.8611
 31
0.0
  0
LINE
  8
0
 62
     0
 10
101.6
 20
45.8611
 30
0.0
 11
101.6
 21
39.5111
 31
0.0
  0
LINE
  8
0
 62
     0
 10
101.6
 20
39.5111
 30
0.0
 11
100.894
 21
39.5111
 31
0.0
  0
LINE
  8
0
 62
     0
 10
100.894
 20
39.5111
 30
0.0
 11
100.894
 21
45.1556
 31
0.0
  0
LINE
  8
0
 62
     0
 10
100.894
 20
45.1556
 30
0.0
 11
95.9556
 21
45.1556
 31
0.0
  0
LINE
  8
0
 62
     0
 10
95.9556
 20
45.1556
 30
0.0
 11
95.9556
 21
17.6389
 31
0.0
  0
LINE
  8
0
 62
     0
 10
95.9556
 20
17.6389
 30
0.0
 11
107.244
 21
17.6389
 31
0.0
  0
LINE
  8
0
 62
     0
 10
107.244
 20
17.6389
 30
0.0
 11
107.244
 21
11.9944
 31
0.0
  0
LINE
  8
0
 62
     0
 10
107.244
 20
11.9944
 30
0.0
 11
112.183
 21
11.9944
 31
0.0
  0
LINE
  8
0
 62
     0
 10
112.183
 20
11.9944
 30
0.0
 11
112.183
 21
33.8667
 31
0.0
  0
LINE
  8
0
 62
     0
 10
112.183
 20
33.8667
 30
0.0
 11
101.6
 21
33.8667
 31
0.0
  0
LINE
  8
0
 62
     0
 10
101.6
 20
33.8667
 30
0.0
 11
101.6
 21
23.2833
 31
0.0
  0
LINE
  8
0
 62
     0
 10
101.6
 20
23.2833
 30
0.0
 11
106.539
 21
23.2833
 31
0.0
  0
LINE
  8
0
 62
     0
 10
106.539
 20
23.2833
 30
0.0
 11
106.539
 21
28.9278
 31
0.0
  0
LINE
  8
0
 62
     0
 10
106.539
 20
28.9278
 30
0.0
 11
107.244
 21
28.9278
 31
0.0
  0
LINE
  8
0
 62
     0
 10
107.244
 20
28.9278
 30
0.0
 11
107.244
 21
22.5778
 31
0.0
  0
LINE
  8
0
 62
     0
 10
107.244
 20
22.5778
 30
0.0
 11
100.894
 21
22.5778
 31
0.0
  0
LINE
  8
0
 62
     0
 10
100.894
 20
22.5778
 30
0.0
 11
100.894
 21
34.5722
 31
0.0
  0
LINE
  8
0
 62
     0
 10
100.894
 20
34.5722
 30
0.0
 11
112.183
 21
34.5722
 31
0.0
  0
LINE
  8
0
 62
     0
 10
112.183
 20
34.5722
 30
0.0
 11
112.183
 21
56.4444
 31
0.0
  0
LINE
  8
0
 62
     0
 10
112.183
 20
56.4444
 30
0.0
 11
95.25
 21
56.4444
 31
0.0
  0
LINE
  8
0
 62
     0
 10
95.25
 20
56.4444
 30
0.0
 11
95.25
 21
57.15
 31
0.0
  0
LINE
  8
0
 62
     0
 10
95.25
 20
57.15
 30
0.0
 11
100.894
 21
57.15
 31
0.0
  0
LINE
  8
0
 62
     0
 10
100.894
 20
57.15
 30
0.0
 11
100.894
 21
62.7944
 31
0.0
  0
LINE
  8
0
 62
     0
 10
100.894
 20
62.7944
 30
0.0
 11
101.6
 21
62.7944
 31
0.0
  0
LINE
  8
0
 62
     0
 10
101.6
 20
62.7944
 30
0.0
 11
101.6
 21
57.15
 31
0.0
  0
LINE
  8
0
 62
     0
 10
101.6
 20
57.15
 30
0.0
 11
112.183
 21
57.15
 31
0.0
  0
LINE
  8
0
 62
     0
 10
112.183
 20
57.15
 30
0.0
 11
112.183
 21
90.3111
 31
0.0
  0
LINE
  8
0
 62
     0
 10
112.183
 20
90.3111
 30
0.0
 11
106.539
 21
90.3111
 31
0.0
  0
LINE
  8
0
 62
     0
 10
106.539
 20
90.3111
 30
0.0
 11
106.539
 21
91.0167
 31
0.0
  0
LINE
  8
0
 62
     0
 10
106.539
 20
91.0167
 30
0.0
 11
112.183
 21
91.0167
 31
0.0
  0
LINE
  8
0
 62
     0
 10
112.183
 20
91.0167
 30
0.0
 11
112.183
 21
112.889
 31
0.0
  0
LINE
  8
0
 62
     0
 10
112.183
 20
112.889
 30
0.0
 11
95.9556
 21
112.889
 31
0.0
  0
LINE
  8
0
 62
     0
 10
95.9556
 20
112.889
 30
0.0
 11
95.9556
 21
102.306
 31
0.0
  0
LINE
  8
0
 62
     0
 10
95.9556
 20
102.306
 30
0.0
 11
101.6
 21
102.306
 31
0.0
  0
LINE
  8
0
 62
     0
 10
101.6
 20
102.306
 30
0.0
 11
101.6
 21
96.6611
 31
0.0
  0
LINE
  8
0
 62
     0
 10
101.6
 20
96.6611
 30
0.0
 11
106.539
 21
96.6611
 31
0.0
  0
LINE
  8
0
 62
     0
 10
106.539
 20
96.6611
 30
0.0
 11
106.539
 21
107.244
 31
0.0
  0
LINE
  8
0
 62
     0
 10
106.539
 20
107.244
 30
0.0
 11
100.894
 21
107.244
 31
0.0
  0
LINE
  8
0
 62
     0
 10
100.894
 20
107.244
 30
0.0
 11
100.894
 21
107.95
 31
0.0
  0
LINE
  8
0
 62
     0
 10
100.894
 20
107.95
 30
0.0
 11
107.244
 21
107.95
 31
0.0
  0
LINE
  8
0
 62
     0
 10
107.244
 20
107.95
 30
0.0
 11
107.244
 21
95.9556
 31
0.0
  0
LINE
  8
0
 62
     0
 10
107.244
 20
95.9556
 30
0.0
 11
101.6
 21
95.9556
 31
0.0
  0
LINE
  8
0
 62
     0
 10
101.6
 20
95.9556
 30
0.0
 11
101.6
 21
85.3722
 31
0.0
  0
LINE
  8
0
 62
     0
 10
101.6
 20
85.3722
 30
0.0
 11
107.244
 21
85.3722
 31
0.0
  0
LINE
  8
0
 62
     0
 10
107.244
 20
85.3722
 30
0.0
 11
107.244
 21
62.0889
 31
0.0
  0
LINE
  8
0
 62
     0
 10
107.244
 20
62.0889
 30
0.0
 11
106.539
 21
62.0889
 31
0.0
  0
LINE
  8
0
 62
     0
 10
106.539
 20
62.0889
 30
0.0
 11
106.539
 21
67.7333
 31
0.0
  0
LINE
  8
0
 62
     0
 10
106.539
 20
67.7333
 30
0.0
 11
95.9556
 21
67.7333
 31
0.0
  0
LINE
  8
0
 62
     0
 10
95.9556
 20
67.7333
 30
0.0
 11
95.9556
 21
62.0889
 31
0.0
  0
LINE
  8
0
 62
     0
 10
95.9556
 20
62.0889
 30
0.0
 11
95.25
 21
62.0889
 31
0.0
  0
LINE
  8
0
 62
     0
 10
95.25
 20
62.0889
 30
0.0
 11
95.25
 21
67.7333
 31
0.0
  0
LINE
  8
0
 62
     0
 10
95.25
 20
67.7333
 30
0.0
 11
90.3111
 21
67.7333
 31
0.0
  0
LINE
  8
0
 62
     0
 10
90.3111
 20
67.7333
 30
0.0
 11
90.3111
 21
51.5056
 31
0.0
  0
LINE
  8
0
 62
     0
 10
90.3111
 20
51.5056
 30
0.0
 11
107.244
 21
51.5056
 31
0.0
  0
LINE
  8
0
 62
     0
 10
107.244
 20
51.5056
 30
0.0
 11
107.244
 21
39.5111
 31
0.0
  0
LINE
  8
0
 62
     0
 10
107.244
 20
39.5111
 30
0.0
 11
106.539
 21
39.5111
 31
0.0
  0
LINE
  8
0
 62
     0
 10
106.539
 20
39.5111
 30
0.0
 11
106.539
 21
50.8
 31
0.0
  0
LINE
  8
0
 62
     0
 10
106.539
 20
50.8
 30
0.0
 11
90.3111
 21
50.8
 31
0.0
  0
LINE
  8
0
 62
     0
 10
90.3111
 20
50.8
 30
0.0
 11
90.3111
 21
39.5111
 31
0.0
  0
LINE
  8
0
 62
     0
 10
90.3111
 20
39.5111
 30
0.0
 11
89.6056
 21
39.5111
 31
0.0
  0
LINE
  8
0
 62
     0
 10
89.6056
 20
39.5111
 30
0.0
 11
89.6056
 21
45.1556
 31
0.0
  0
LINE
  8
0
 62
     0
 10
89.6056
 20
45.1556
 30
0.0
 11
83.9611
 21
45.1556
 31
0.0
  0
LINE
  8
0
 62
     0
 10
83.9611
 20
45.1556
 30
0.0
 11
83.9611
 21
45.8611
 31
0.0
  0
LINE
  8
0
 62
     0
 10
83.9611
 20
45.8611
 30
0.0
 11
89.6056
 21
45.8611
 31
0.0
  0
LINE
  8
0
 62
     0
 10
89.6056
 20
45.8611
 30
0.0
 11
89.6056
 21
68.4389
 31
0.0
  0
LINE
  8
0
 62
     0
 10
89.6056
 20
68.4389
 30
0.0
 11
95.25
 21
68.4389
 31
0.0
  0
LINE
  8
0
 62
     0
 10
95.25
 20
68.4389
 30
0.0
 11
95.25
 21
74.0833
 31
0.0
  0
LINE
  8
0
 62
     0
 10
95.25
 20
74.0833
 30
0.0
 11
95.9556
 21
74.0833
 31
0.0
  0
LINE
  8
0
 62
     0
 10
95.9556
 20
74.0833
 30
0.0
 11
95.9556
 21
68.4389
 31
0.0
  0
LINE
  8
0
 62
     0
 10
95.9556
 20
68.4389
 30
0.0
 11
106.539
 21
68.4389
 31
0.0
  0
LINE
  8
0
 62
     0
 10
106.539
 20
68.4389
 30
0.0
 11
106.539
 21
84.6667
 31
0.0
  0
LINE
  8
0
 62
     0
 10
106.539
 20
84.6667
 30
0.0
 11
100.894
 21
84.6667
 31
0.0
  0
LINE
  8
0
 62
     0
 10
100.894
 20
84.6667
 30
0.0
 11
100.894
 21
101.6
 31
0.0
  0
LINE
  8
0
 62
     0
 10
100.894
 20
101.6
 30
0.0
 11
89.6056
 21
101.6
 31
0.0
  0
LINE
  8
0
 62
     0
 10
89.6056
 20
101.6
 30
0.0
 11
89.6056
 21
102.306
 31
0.0
  0
LINE
  8
0
 62
     0
 10
89.6056
 20
102.306
 30
0.0
 11
95.25
 21
102.306
 31
0.0
  0
LINE
  8
0
 62
     0
 10
95.25
 20
102.306
 30
0.0
 11
95.25
 21
112.889
 31
0.0
  0
LINE
  8
0
 62
     0
 10
95.25
 20
112.889
 30
0.0
 11
55.7389
 21
112.889
 31
0.0
  0
LINE
  8
0
 62
     0
 10
55.7389
 20
112.889
 30
0.0
 11
55.7389
 21
113.594
 31
0.0
  0
LINE
  8
0
 62
     0
 10
55.7389
 20
113.594
 30
0.0
 11
50.8
 21
113.594
 31
0.0
  0
LINE
  8
0
 62
     0
 10
50.8
 20
113.594
 30
0.0
 11
50.8
 21
113.242
 31
0.0
  0
ENDSEC
  0
EOF
