<?xml version="1.0" encoding="UTF-8" standalone="no"?>
<!-- Created with Inkscape (http://www.inkscape.org/) -->

<svg
   width="220mm"
   height="220mm"
   viewBox="0 0 219.99999 220"
   version="1.1"
   id="svg5"
   xml:space="preserve"
   inkscape:version="1.2.2 (b0a8486541, 2022-12-01)"
   sodipodi:docname="fxmono.svg"
   xmlns:inkscape="http://www.inkscape.org/namespaces/inkscape"
   xmlns:sodipodi="http://sodipodi.sourceforge.net/DTD/sodipodi-0.dtd"
   xmlns:xlink="http://www.w3.org/1999/xlink"
   xmlns="http://www.w3.org/2000/svg"
   xmlns:svg="http://www.w3.org/2000/svg"><sodipodi:namedview
     id="namedview7"
     pagecolor="#ffffff"
     bordercolor="#666666"
     borderopacity="1.0"
     inkscape:showpageshadow="2"
     inkscape:pageopacity="0.0"
     inkscape:pagecheckerboard="0"
     inkscape:deskcolor="#d1d1d1"
     inkscape:document-units="mm"
     showgrid="false"
     inkscape:zoom="0.74386226"
     inkscape:cx="372.38077"
     inkscape:cy="426.15416"
     inkscape:window-width="1920"
     inkscape:window-height="1051"
     inkscape:window-x="1920"
     inkscape:window-y="0"
     inkscape:window-maximized="1"
     inkscape:current-layer="layer1"><inkscape:grid
       type="xygrid"
       id="grid498"
       originx="-19.127847"
       originy="-32.077032" /></sodipodi:namedview><defs
     id="defs2"><linearGradient
       inkscape:collect="always"
       id="linearGradient2248"><stop
         style="stop-color:#c75033;stop-opacity:1;"
         offset="0"
         id="stop2244" /><stop
         style="stop-color:#c75033;stop-opacity:0;"
         offset="1"
         id="stop2246" /></linearGradient><linearGradient
       inkscape:collect="always"
       xlink:href="#linearGradient2248"
       id="linearGradient2250"
       x1="34.395836"
       y1="122.36976"
       x2="150.31943"
       y2="122.36976"
       gradientUnits="userSpaceOnUse" /></defs><g
     inkscape:label="Layer 1"
     inkscape:groupmode="layer"
     id="layer1"
     transform="translate(-19.127847,-32.07703)"><path
       style="fill:#dddddd;stroke-width:0.264583;fill-opacity:1"
       d="m 45.324176,229.53724 c -1.45905,-0.51976 -2.32103,-1.20761 -2.85436,-2.27774 -0.41871,-0.84015 -0.45921,-2.32375 -0.47418,-17.37084 -0.0174,-17.50697 -0.0365,-17.22318 1.23563,-18.36579 0.67432,-0.60565 2.18966,-1.157 4.91725,-1.78911 1.27076,-0.29449 3.473417,-0.96031 4.894787,-1.47959 2.41953,-0.88395 2.69864,-1.06501 4.37728,-2.83965 0.98612,-1.04252 2.08296,-2.50851 2.43741,-3.25776 0.87767,-1.85525 1.67919,-6.50791 2.02521,-11.75598 0.29034,-4.40358 0.15867,-38.53857 -0.26331,-68.26248 l -0.19344,-13.62605 -0.86824,-4.21623 c -0.47753,-2.31892 -1.02933,-4.44621 -1.22622,-4.72731 -0.71293,-1.01786 -3.48471,-2.84906 -5.49331,-3.62921 -1.12943,-0.43869 -3.663497,-1.21384 -5.631247,-1.72257 -4.0664,-1.05131 -5.1949,-1.65596 -5.94358,-3.18457 -0.50722,-1.03562 -0.5268,-1.63243 -0.52538,-16.007292 7.9e-4,-9.277966 0.10308,-15.297382 0.26983,-15.897706 0.39226,-1.412266 1.99656,-2.747788 3.78031,-3.146972 1.14694,-0.256673 16.582777,-0.29563 72.059704,-0.181867 65.29473,0.133898 70.70843,0.178385 72.0414,0.591987 1.73878,0.539519 3.03771,1.752602 3.41556,3.189803 0.18186,0.691764 0.25658,9.859364 0.22214,27.256699 l -0.0519,26.214348 -0.75825,0.99411 c -1.02276,1.3409 -2.18754,2.00522 -3.51794,2.00641 -0.73945,7.9e-4 -6.2587,-1.75509 -16.80104,-5.34466 l -15.69985,-5.34566 -8.59896,-0.17759 c -4.72943,-0.0977 -14.38455,-0.27109 -21.45583,-0.38537 l -12.85687,-0.20779 -0.17386,0.86931 c -0.0956,0.47812 -0.17386,6.03365 -0.17386,12.34562 0,10.74986 0.0293,11.4769 0.46302,11.48567 5.08463,0.1028 20.09856,-0.0893 21.78523,-0.27878 3.68113,-0.41345 7.2404,-1.44766 10.42779,-3.02994 3.51048,-1.74267 4.97137,-2.08452 8.30298,-1.94288 3.11064,0.13224 3.93879,0.49259 4.72775,2.05714 l 0.59531,1.18055 v 21.45945 c 0,23.15564 -0.0134,23.39522 -1.38428,24.64894 -1.26497,1.15692 -2.36288,1.53048 -4.43655,1.50954 -1.79131,-0.0181 -2.29328,-0.15505 -5.15937,-1.40766 -10.98021,-4.79883 -11.97793,-5.15292 -17.15461,-6.08804 -3.77569,-0.68205 -5.09139,-0.78942 -11.23205,-0.91665 l -6.9554,-0.14412 0.16423,15.13977 c 0.0903,8.32687 0.26967,16.05894 0.39855,17.18237 0.2853,2.48703 1.58539,5.90064 2.77787,7.29378 1.34881,1.57578 3.88977,2.59814 9.03323,3.63451 4.6043,0.92774 5.40127,1.2696 6.2179,2.66717 0.40512,0.69333 0.45253,2.25201 0.49907,16.4096 0.0283,8.60393 -0.0314,15.77745 -0.13253,15.94115 -0.11406,0.18457 -1.08273,0.29764 -2.54959,0.29764 -2.02829,0 -2.4426,0.077 -2.90536,0.53974 -0.71181,0.71181 -1.04777,1.64416 -1.04777,2.90777 0,0.74932 -0.14011,1.10678 -0.51177,1.30569 -0.34647,0.18542 -13.18749,0.27014 -39.753647,0.26228 -33.00048,-0.01 -39.407757,-0.0707 -40.284897,-0.38318 z"
       id="path12338"
       sodipodi:nodetypes="sssssssssscssssscsssssscsccccsccsccscccscscsscsssssscsssscss" /><path
       style="fill:#666666;fill-opacity:1;stroke:none;stroke-width:0.264583"
       d="m 125.74475,229.61988 c 0.0135,-4.71831 2.94243,-5.02708 6.87917,-5.02708 v -23.54791 c 0,-2.50984 0.83449,-6.90087 -0.9443,-8.93631 -1.33218,-1.52479 -4.33255,-1.59094 -6.19945,-1.96453 -4.48469,-0.89693 -8.29231,-2.11269 -10.24361,-6.56166 -1.93014,-4.40055 -1.20412,-8.82703 -1.40838,-13.49375 -0.3511,-8.01714 -0.51885,-16.03931 -0.51885,-24.07708 9.41176,0 18.6362,0.20346 27.51667,3.65416 4.40902,1.71317 11.29744,6.7728 16.13853,4.57305 3.60177,-1.63671 2.64689,-6.57357 2.64689,-9.81471 v -28.31043 c 0,-2.61805 1.1938,-9.20009 -1.37266,-10.81087 -5.04217,-3.16494 -11.4972,1.828 -16.08984,3.21177 -9.09135,2.7387 -19.45534,1.51368 -28.83959,1.51368 l 0.26459,-25.664575 c 9.72238,0 19.4101,0.41275 29.10416,0.52811 4.50877,0.0537 10.22694,-0.97102 14.55209,0.35772 7.99518,2.45639 15.91124,5.33426 23.8125,8.07323 2.68446,0.93054 6.94637,3.32528 9.78931,2.26801 4.1582,-1.54649 2.6461,-9.05537 2.6461,-12.549981 V 49.174057 c 0,-3.313377 1.2999,-9.722908 -2.12725,-11.663891 -2.38495,-1.350698 -5.81845,-0.771525 -8.45608,-0.771525 -6.21692,0 -12.58411,0.401108 -18.78542,-0.02355 -10.25022,-0.70194 -20.67295,-0.241035 -30.95625,-0.241035 h -54.504165 -23.8125 c -3.06996,0 -7.56285,-0.811478 -10.31478,0.817297 -2.51566,1.488811 -1.85605,5.182129 -1.85605,7.649369 v 18.785416 c 0,2.191014 -0.67125,5.740135 0.53155,7.662332 1.28164,2.047611 3.95711,2.215357 6.08303,2.718594 3.6494,0.8636 9.17073,2.42226 11.06911,6.023504 0.93874,1.781176 1.02606,4.384407 1.41923,6.349737 1.49013,7.45225 0.74083,15.442145 0.74083,23.018745 0,14.37349 0.52917,28.73031 0.52917,43.12709 0,7.2943 0.34898,14.71453 -0.60405,21.96147 -0.69744,5.30199 -1.88701,11.19108 -7.33345,13.67473 -3.14087,1.43219 -9.22258,1.5449 -11.49033,4.13834 -1.7063,1.95131 -0.68051,5.75257 -0.68051,8.11504 v 19.57916 c 0,2.22965 -0.71781,6.0116 0.71517,7.88776 1.36393,1.78568 3.9071,1.63724 5.89942,1.63724 h 14.81666 61.383335 M 82.882255,40.442807 72.034335,51.294692 65.948915,56.846973 C 61.750775,50.887498 54.030765,46.827467 50.867665,40.178224 l 32.01459,0.264583 m 99.747915,0 v 0.264584 l -25.4,13.493749 1.32291,-13.758333 h 24.07709 m -28.04584,0.264584 -1.32291,13.229166 C 144.95033,49.309259 136.40323,44.63857 127.59684,40.971974 l 8.20208,-0.264583 h 18.78541 m -39.42292,0.264583 -6.57383,9.525 -7.71366,10.583332 C 97.853962,54.622621 94.492166,47.851669 92.671835,40.971974 h 22.489585 m -27.516665,0.264583 c 2.50957,4.255294 4.27222,8.793427 6.418257,13.229166 1.323446,2.735263 3.298825,5.899415 3.371321,8.995833 -8.824118,-2.480733 -18.432198,-4.333081 -27.516668,-5.55625 3.00091,-4.26032 7.7941,-7.675826 11.64167,-11.157478 1.98305,-1.794404 3.68935,-4.268258 6.08542,-5.511271 m 64.558325,15.08125 c -1.32529,2.190485 -4.51511,3.345126 -6.61458,4.681801 -5.06307,3.223684 -9.97611,6.719623 -15.08125,9.870281 l -4.0087,-15.610416 -3.13505,-12.435416 8.20209,3.761317 20.63749,9.732433 m -104.774995,-12.7 c 3.39487,3.394869 6.92071,6.6548 10.31875,10.054166 1.64333,1.643857 4.00182,3.583517 4.7625,5.820833 l -9.78958,5.288756 -5.55625,2.648744 V 51.02614 l 0.26458,-7.408333 m 71.966665,0 c 1.86002,8.987366 6.7437,18.336418 7.14375,27.516665 l -12.7,-3.856566 -10.58333,-3.0226 c 4.1148,-4.744243 7.63561,-10.216091 11.26489,-15.345832 1.24249,-1.75604 2.56805,-4.928129 4.87469,-5.291667 m 67.20417,0 -3.35862,6.614583 -8.81222,18.785416 -15.34583,-11.641666 c 4.94824,-4.099983 12.3018,-6.471708 17.99167,-9.467056 2.87628,-1.51421 6.23623,-3.954462 9.525,-4.291277 m 3.175,3.704167 -0.16775,13.493749 -0.10504,4.842404 -2.90221,1.236133 -7.9375,2.123546 c 1.38906,-7.792243 8.40475,-14.147799 10.58333,-21.695832 h 0.52917 M 153.526,60.55114 l 0.79402,15.081249 -2.7e-4,5.820835 -20.10833,-8.202085 c 1.15543,-1.959504 4.17354,-3.139016 6.08541,-4.28625 4.41299,-2.647685 8.5905,-6.219295 13.22917,-8.413749 m -76.199995,2.645833 c 5.05909,0.0418 10.39547,1.775883 15.34583,2.764631 1.377154,0.275167 4.324083,0.403754 4.842666,2.02565 0.433917,1.357048 -0.885295,3.467364 -1.309158,4.734718 -1.356518,4.054475 -2.739498,8.104192 -4.062678,12.170833 h -0.52916 c -2.13625,-3.230031 -5.05487,-5.550693 -7.51682,-8.466666 -4.27937,-5.068887 -8.31294,-10.789179 -13.38527,-15.081249 1.14644,-0.439473 6.42858,0.581818 6.61459,1.852083 m 80.433325,-2.116667 14.02292,10.847916 v 0.529167 l -13.49375,8.202085 -0.52943,-14.287501 2.6e-4,-5.291667 m -92.868745,0.79375 0.79375,24.341669 h -0.26458 c -1.43061,-4.224871 -2.17382,-8.796076 -5.6433,-12.030871 -2.10529,-1.962944 -7.40463,-3.296179 -10.2317,-3.579548 2.1582,-2.519363 6.3492,-3.85736 9.26041,-5.359929 2.03862,-1.052248 3.94547,-2.561431 6.08542,-3.371321 m 4.23333,3.175 c 4.00421,2.820458 6.73259,6.913827 9.86155,10.583333 3.18559,3.736446 7.00987,7.283715 9.71762,11.377086 -5.95074,1.77535 -13.88904,2.21826 -20.10833,2.38125 l 0.25426,-17.462503 0.2749,-6.879166 m 56.091675,9.789583 v 0.264583 l -11.90626,5.027083 0.26458,1.058329 -6.34999,1.55681 -11.641671,3.205691 c 0.386028,-4.421981 2.706688,-9.607017 4.284134,-13.758329 0.410897,-1.081352 0.952497,-3.602038 2.169057,-4.048919 1.50495,-0.552979 4.76673,1.202796 6.24681,1.66079 5.60837,1.736195 11.58822,2.495285 16.93334,5.033962 m 64.29374,-5.291666 0.26459,0.264583 c -1.0721,5.493543 0,12.348628 0,17.991669 l -5.3475,-6.614591 -6.55875,-7.937495 11.64166,-3.704166 m -14.2875,5.291666 12.43542,16.668746 -25.66458,-8.202081 v -0.52917 c 4.35636,-2.42543 8.3767,-6.537056 13.22916,-7.937495 m -32.80833,6.349995 -20.90208,-0.26458 c 1.93913,-1.829592 7.31229,-5.251184 10.05417,-5.074971 2.12777,0.136525 4.48045,1.824302 6.34999,2.759075 1.38748,0.693737 3.57373,1.320006 4.49792,2.580476 m -32.54375,25.664576 h -0.26458 L 97.169749,89.126135 c 2.871521,-0.37094 5.689331,-1.3208 8.466671,-2.11666 0.98636,-0.28258 2.84665,-1.02606 3.85392,-0.6104 1.18189,0.48763 0.64399,3.81291 0.64399,4.84373 0,5.05407 0.65881,10.637035 -0.26458,15.610405 M 90.290585,90.449055 82.088505,110.55738 c -1.76478,-1.01388 -2.93238,-3.15965 -4.13465,-4.7625 -2.86649,-3.82217 -6.57833,-8.221915 -8.30077,-12.699995 l 20.6375,-2.64583 m 3.968748,1.32292 13.758337,19.049985 -9.525004,0.86942 -13.493751,1.77642 8.73125,-21.695825 h 0.529168 m -27.252078,4.49791 c 3.43746,4.799805 6.69951,9.736665 10.13116,14.552075 0.7993,1.12157 3.4663,3.81741 3.01704,5.2877 -0.42095,1.37874 -2.62043,2.6498 -3.57822,3.70814 -3.09986,3.4245 -6.91277,6.84 -9.56998,10.58333 h -0.26459 c -1.45494,-7.83749 -0.26458,-16.89709 -0.26458,-24.87083 0,-2.60244 -0.8337,-6.985525 0.52917,-9.260415 m 86.783325,12.170825 -6.06186,6.61459 -8.22564,8.20208 c 1.03056,-3.16151 1.92247,-8.38174 3.99151,-10.98074 2.05502,-2.58127 7.25038,-3.45096 10.29599,-3.83593 m 1.85209,3.96875 v 19.84375 c -4.95459,-0.041 -11.15854,-1.68354 -15.875,-3.175 0.75909,-2.42146 3.01625,-4.07458 4.7625,-5.82083 3.54832,-3.54833 7.01093,-7.95867 11.1125,-10.84792 m -16.13959,0.52917 -4.49791,13.49375 -5.55625,-4.13438 -11.37709,-8.30104 7.14376,-0.26458 14.28749,-0.79375 m -30.42708,1.32292 -3.95473,11.90625 -5.0411,14.02291 c -2.664623,-3.21283 -4.299218,-7.59936 -6.615385,-11.1125 -2.40532,-3.64834 -6.34708,-7.74832 -7.67212,-11.90625 L 109.076,114.26155 m 22.75417,15.08125 -17.19792,6.19786 -10.58333,4.38547 3.69014,-10.84792 5.04111,-14.2875 5.82083,3.99944 8.73125,6.38546 4.49792,4.16719 m -35.983337,11.1125 -26.722918,-6.61459 c 2.39237,-4.14337 6.37196,-7.75546 9.49061,-11.37708 0.78687,-0.91387 2.33362,-3.36868 3.68988,-3.34804 1.37345,0.0206 3.07287,3.65046 3.75285,4.67096 2.23652,3.35624 4.19417,6.88101 6.29999,10.31875 1.23137,2.0103 2.831569,4.07035 3.489588,6.35 m -13.758328,-21.43125 -0.26459,0.52916 0.26459,-0.52916 m 50.535415,13.75833 c -0.56171,2.36458 -1.79652,4.62359 -2.69875,6.87917 -0.32729,0.81835 -0.60219,2.12354 -1.3806,2.63843 -1.57295,1.04061 -5.76447,0.29501 -7.56232,0.0831 -4.39076,-0.51806 -9.08103,0.0154 -13.49375,-0.0757 l 9.26042,-3.62269 15.875,-5.90232 m 23.01875,3.70417 v 12.17084 h -0.26459 l -13.75833,-15.34584 14.02292,3.175 m -3.70417,14.02292 -19.31458,-7.40833 3.43958,-9.52501 c 2.03544,0.57123 3.42397,2.71039 4.77573,4.23333 3.43006,3.86371 8.98181,7.94915 11.09927,12.70001 m -55.033334,-6.35 c -1.695979,4.47331 -6.187011,8.71829 -9.154581,12.43542 -1.20015,1.50283 -2.3323,3.61526 -4.07458,4.49791 l -15.08125,-24.07708 28.310411,7.14376 m -30.162501,-2.38126 c 2.35427,2.812 4.04045,6.45796 6.08542,9.52501 2.55429,3.83117 5.81766,7.53507 7.40833,11.90625 l -9.26041,-2.15027 -3.80921,-1.06177 -0.42413,-4.46088 v -13.75834 m 35.983335,3.17501 c 1.66635,0.43127 6.06398,0.66569 7.13634,2.0447 0.73766,0.94827 0.27199,3.42106 0.27199,4.56988 v 12.17084 h -0.26458 l -5.13212,-13.22917 -2.01163,-5.55625 m -2.38125,2.64584 8.46667,23.01874 -22.489585,-6.35 c 2.20609,-4.32144 6.43916,-8.18779 9.546164,-11.90625 1.311275,-1.56924 2.61673,-3.85603 4.476751,-4.76249 m -20.902085,19.04999 -7.38452,7.9375 -7.16756,7.40834 c 1.52691,-5.71156 2.38072,-12.06553 2.38125,-17.99167 l 12.17083,2.64583 m 27.781255,7.40834 0.52916,1.32291 -8.972018,9.525 -6.638397,6.87917 -3.34724,-14.02292 -2.20901,-9.525 8.995834,2.53365 11.641671,3.28719 M 83.146835,169.0303 c 2.28653,5.31416 2.77098,11.61786 4.27328,17.19792 0.59823,2.22144 1.86796,5.17657 1.01839,7.40833 l -10.31875,-3.34856 -11.64167,-4.05977 c 1.01997,-2.18758 3.36444,-3.82826 5.01676,-5.55625 3.38059,-3.53563 7.17974,-9.55622 11.65199,-11.64167 m 26.987495,9.525 c 0.28178,3.56923 0.97579,7.31547 3.4671,10.05391 1.41738,1.55813 3.89335,2.53973 4.99957,4.23359 l -9.525,0.78343 -14.2875,1.06866 6.34894,-6.87917 8.99689,-9.26042 m -49.212495,10.84792 0.52917,19.57917 c -1.79679,-1.26921 -3.04192,-3.15437 -4.52067,-4.7625 -2.70008,-2.93635 -6.11823,-5.91767 -7.91475,-9.525 l 11.90625,-5.29167 m 26.45833,7.67292 v 0.52916 l -15.34583,7.75468 -6.87917,3.62241 -0.26458,-18.52084 c 7.64222,1.02923 15.19767,4.23783 22.48958,6.61459 M 126.5385,196.0178 v 0.26459 c -6.31799,4.43309 -12.47854,9.94648 -17.99167,15.34583 h -0.26458 L 95.317666,197.86989 126.5385,196.0178 m 2.38125,2.91042 v 15.34583 l -0.26458,8.46667 -17.19792,-8.73125 6.61458,-5.85523 10.84792,-9.22602 m -81.491665,0.52917 12.43542,13.22916 v 0.26459 c -3.42318,3.42265 -8.11186,7.52131 -12.7,9.26041 1.2184,-5.1181 0,-11.65066 0,-16.93333 0,-1.76901 -0.42307,-4.18201 0.26458,-5.82083 m 44.71458,1.85208 h 0.26459 l 0.26458,-0.52917 c 4.478071,3.56235 9.145585,8.55901 12.435415,13.22917 l -19.314585,10.58333 3.06202,-12.43541 3.0234,-11.37709 0.26458,0.52917 m -4.49791,0 c -0.99563,7.39352 -3.4544,15.78001 -6.08542,22.75416 -5.40385,-2.5564 -10.71536,-7.09003 -15.34583,-10.84791 1.7518,-2.05846 5.05407,-3.28295 7.40833,-4.57888 4.49368,-2.47359 9.03208,-5.96239 14.02292,-7.32737 m -10.58334,24.34166 v 0.26459 l -26.45833,-0.26459 8.99583,-7.69646 3.43959,-2.38257 3.70416,2.49713 10.31875,7.5819 m 48.154175,0 v 0.26459 l -34.660425,0.26458 c 1.29223,-1.97273 5.33453,-3.16653 7.408334,-4.29445 2.909091,-1.58168 7.187671,-5.31521 10.583331,-5.35252 1.5449,-0.0167 3.40731,1.4941 4.7625,2.17329 4.01638,2.01295 8.42169,4.12644 11.90626,6.94451 z"
       id="path569"
       sodipodi:nodetypes="ccscccccccssccccccccsscscscscssccccssccssssscccccccccccccccccccccccccccccccccccccccccccccccccccccccccccccccccccccscccccccccccccccccccccccccccccccscccccccccccccccccsccccccscccccccccccccsccccscccccccccsccccccccccscccccccccccccccccccccccccccccccccccccccccccccccccccsccccccccccccccccccccccccccccccccccccccsccccccccccccccccccccccccsccccccccccccscccccccccccccsc" /><g
       aria-label="X"
       id="text12336"
       style="font-weight:bold;font-size:128.825px;line-height:18.5629px;font-family:FreeMono;-inkscape-font-specification:'FreeMono Bold';letter-spacing:0px;word-spacing:0px;fill:#0f85af;stroke-width:8.05155"><path
         d="m 137.6303,238.79416 h 14.29957 c 4.76653,0 8.50245,-1.28825 8.50245,-6.44125 0,-3.86475 -2.5765,-6.1836 -6.95655,-6.44125 l 13.14015,-15.459 13.01133,15.459 c -4.50888,0.25765 -7.08538,2.5765 -7.08538,6.44125 0,4.25122 2.83415,6.44125 8.50245,6.44125 h 14.29958 c 4.76652,0 8.50245,-1.28825 8.50245,-6.44125 0,-3.99358 -2.70533,-6.31243 -7.60068,-6.44125 l -21.51377,-25.37853 20.22552,-23.96144 c 4.50888,-0.12883 7.34303,-2.44768 7.34303,-6.44125 0,-5.28183 -3.6071,-6.44125 -8.50245,-6.44125 h -11.59425 c -7.34303,0 -8.63128,3.73592 -8.63128,6.44125 0,2.83415 1.28825,4.50887 4.89535,6.31242 l -11.98072,14.04193 -12.23838,-14.04193 c 3.73593,-1.80355 4.89535,-3.47827 4.89535,-6.31242 0,-5.28183 -3.73592,-6.44125 -8.63127,-6.44125 h -11.72308 c -4.76652,0 -8.50245,1.80355 -8.50245,6.44125 0,3.86475 2.70533,6.1836 7.47185,6.44125 l 20.35435,23.83262 -21.38495,25.50735 c -4.76652,0 -7.60067,2.44767 -7.60067,6.44125 0,4.89535 3.47827,6.44125 8.50245,6.44125 z"
         id="path16976" /></g></g></svg>
