<?xml version="1.0" encoding="UTF-8" standalone="no"?>
<svg
   xmlns:dc="http://purl.org/dc/elements/1.1/"
   xmlns:cc="http://creativecommons.org/ns#"
   xmlns:rdf="http://www.w3.org/1999/02/22-rdf-syntax-ns#"
   xmlns:svg="http://www.w3.org/2000/svg"
   xmlns="http://www.w3.org/2000/svg"
   xmlns:xlink="http://www.w3.org/1999/xlink"
   xmlns:sodipodi="http://sodipodi.sourceforge.net/DTD/sodipodi-0.dtd"
   xmlns:inkscape="http://www.inkscape.org/namespaces/inkscape"
   width="260"
   height="260"
   viewBox="0 0 260 260"
   id="svg2"
   version="1.1"
   inkscape:version="0.92.4 (5da689c313, 2019-01-14)"
   sodipodi:docname="logo.svg">
  <metadata
     id="metadata34">
    <rdf:RDF>
      <cc:Work
         rdf:about="">
        <dc:format>image/svg+xml</dc:format>
        <dc:type
           rdf:resource="http://purl.org/dc/dcmitype/StillImage" />
        <dc:title></dc:title>
      </cc:Work>
    </rdf:RDF>
  </metadata>
  <sodipodi:namedview
     pagecolor="#ffffff"
     bordercolor="#666666"
     borderopacity="1"
     objecttolerance="10"
     gridtolerance="10"
     guidetolerance="10"
     inkscape:pageopacity="0"
     inkscape:pageshadow="2"
     inkscape:window-width="1920"
     inkscape:window-height="1015"
     id="namedview32"
     showgrid="false"
     inkscape:zoom="1.748432"
     inkscape:cx="141.65079"
     inkscape:cy="109.73753"
     inkscape:window-x="0"
     inkscape:window-y="0"
     inkscape:window-maximized="1"
     inkscape:current-layer="svg2" />
  <desc
     id="desc4">Produced by GNUPLOT 4.4 patchlevel 0 </desc>
  <defs
     id="defs6">
    <linearGradient
       id="linearGradient3781">
      <stop
         style="stop-color:#ffffff;stop-opacity:1;"
         offset="0"
         id="stop3783" />
      <stop
         style="stop-color:#e4e6e9;stop-opacity:1;"
         offset="1"
         id="stop3785" />
    </linearGradient>
    <circle
       id="gpDot"
       r="0.5"
       cx="0"
       cy="0"
       sodipodi:cx="0"
       sodipodi:cy="0"
       sodipodi:rx="0.5"
       sodipodi:ry="0.5"
       style="stroke-width:0.5" />
    <path
       id="gpPt0"
       d="M -1,0 H 1 M 0,-1 v 2"
       inkscape:connector-curvature="0"
       style="stroke:currentColor;stroke-width:0.222" />
    <path
       id="gpPt1"
       d="M -1,-1 1,1 M 1,-1 -1,1"
       inkscape:connector-curvature="0"
       style="stroke:currentColor;stroke-width:0.222" />
    <path
       id="gpPt2"
       d="M -1,0 1,0 M 0,-1 0,1 m -1,-2 2,2 m -2,0 2,-2"
       inkscape:connector-curvature="0"
       style="stroke:currentColor;stroke-width:0.222" />
    <rect
       id="gpPt3"
       x="-1"
       y="-1"
       width="2"
       height="2"
       style="stroke:currentColor;stroke-width:0.222" />
    <rect
       id="gpPt4"
       x="-1"
       y="-1"
       width="2"
       height="2"
       style="fill:currentColor;stroke:currentColor;stroke-width:0.222" />
    <circle
       id="gpPt5"
       cx="0"
       cy="0"
       r="1"
       sodipodi:cx="0"
       sodipodi:cy="0"
       sodipodi:rx="1"
       sodipodi:ry="1"
       style="stroke:currentColor;stroke-width:0.222" />
    <use
       xlink:href="#gpPt5"
       id="gpPt6"
       style="fill:currentColor;stroke:none"
       x="0"
       y="0"
       width="600"
       height="480" />
    <path
       id="gpPt7"
       d="m 0,-1.33 -1.33,2 2.66,0 z"
       inkscape:connector-curvature="0"
       style="stroke:currentColor;stroke-width:0.222" />
    <use
       xlink:href="#gpPt7"
       id="gpPt8"
       style="fill:currentColor;stroke:none"
       x="0"
       y="0"
       width="600"
       height="480" />
    <use
       xlink:href="#gpPt7"
       id="gpPt9"
       transform="scale(-1,-1)"
       style="stroke:currentColor"
       x="0"
       y="0"
       width="600"
       height="480" />
    <use
       xlink:href="#gpPt9"
       id="gpPt10"
       style="fill:currentColor;stroke:none"
       x="0"
       y="0"
       width="600"
       height="480" />
    <use
       xlink:href="#gpPt3"
       id="gpPt11"
       transform="matrix(0.70710678,0.70710678,-0.70710678,0.70710678,0,0)"
       style="stroke:currentColor"
       x="0"
       y="0"
       width="600"
       height="480" />
    <use
       xlink:href="#gpPt11"
       id="gpPt12"
       style="fill:currentColor;stroke:none"
       x="0"
       y="0"
       width="600"
       height="480" />
  </defs>
  <g
     style="color:#ffffff;fill:none;stroke:currentColor;stroke-width:1;stroke-linecap:butt;stroke-linejoin:miter"
     id="g22"
     transform="translate(0,-220)" />
  <g
     style="color:#000000;fill:none;stroke:currentColor;stroke-width:1;stroke-linecap:butt;stroke-linejoin:miter"
     id="g24"
     transform="translate(0,-220)" />
  <a
     xlink:title="Plot #1"
     id="a26"
     style="stroke:#000000;stroke-width:0.2;stroke-miterlimit:4;stroke-opacity:1;stroke-dasharray:none"
     transform="matrix(0.96584006,0.2591389,-0.2591389,0.96584006,-113.88226,-167.33241)">
    <g
       style="color:#ff9900;fill:none;stroke:#000000;stroke-width:0.2;stroke-linecap:butt;stroke-linejoin:miter;stroke-miterlimit:4;stroke-opacity:1;stroke-dasharray:none"
       id="g28">
      <path
         d="m 251.8,261.1 0,-0.1 -0.1,0 0,-0.1 -0.1,-0.1 0,-0.2 -0.1,-0.2 -0.2,-0.4 -0.2,-0.4 -0.4,-0.8 -0.3,-0.6 -0.3,-0.7 -0.3,-0.7 -0.4,-0.7 -0.6,-1.4 -0.7,-1.5 -0.6,-1.5 -0.7,-1.5 -0.7,-1.5 -0.7,-1.5 -0.7,-1.6 -0.7,-1.6 -1.4,-3.2 -1.4,-3 -1.3,-3 -1.3,-3 -1.3,-3.1 -1.3,-3.1 -1.4,-3.1 -1.3,-3 -1.3,-3.1 -1.2,-3 -1.3,-3 -1.2,-3 -1.2,-2.8 -1.1,-2.8 -1,-2.7 -1.1,-2.6 -0.9,-2.5 -0.9,-2.4 -0.8,-2.2 -0.7,-2.1 -0.6,-1.9 -0.6,-1.8 -0.4,-1.6 -0.3,-1.4 -0.3,-1.3 -0.1,-1.1 -0.1,-1 0.1,-0.7 0.2,-0.7 0.3,-0.4 0.3,-0.3 0.5,-0.2 0.6,0.1 0.7,0.1 0.8,0.3 0.8,0.4 1,0.5 1,0.7 1.1,0.7 1.2,0.9 1.2,0.9 1.3,1 1.3,1.1 1.4,1.2 1.4,1.2 1.5,1.3 3,2.7 2.8,2.6 2.8,2.7 2.5,2.4 2.5,2.5 2.2,2.3 2.2,2.3 2.2,2.3 2.1,2.3 2,2.3 2,2.2 1.9,2.3 1.8,2.2 1.8,2.3 1.7,2.2 1.6,2.1 1.5,2.2 1.5,2.1 1.4,2.1 1.3,2.1 1.2,2.1 1.1,2 1.1,2 1,2 1,1.9 0.9,2 0.8,1.8 0.7,1.9 0.7,1.9 0.7,1.8 0.6,1.8 0.5,1.7 0.5,1.8 0.5,1.7 0.4,1.7 0.4,1.7 0.3,1.6 0.3,1.6 0.5,3.2 0.3,2.7 0.2,2.7 0.2,2.6 0,2.6 0,2.4 -0.1,2.4 -0.1,2.3 -0.3,2.1 -0.3,2.2 -0.3,2 -0.5,1.9 -0.5,1.7 -0.5,1.7 -0.7,1.6 -0.7,1.3 -0.8,1.3 -0.9,1 -1,0.8 -1.1,0.6 -1.2,0.3 -1.4,-0.1 -1.3,-0.3 -1.5,-0.7 -1.5,-1 -1.7,-1.5 -1.9,-2 -1.8,-2.2 -2,-2.7 -2.1,-3.1 -2.3,-3.8 -2.5,-4.3 -2.3,-4.3 -2.5,-4.9 -2.7,-5.3 -2.8,-5.8 -2.9,-6.3 -2.7,-6 -2.8,-6.3 -2.9,-6.5 -3,-6.7 -2.9,-6.8 -2.9,-6.8 -2.9,-6.7 -2.8,-6.6 -2.4,-5.7 -2.3,-5.4 -1.8,-4.6 -1.7,-4.2 -1.5,-3.9 -1.3,-3.5 -1.1,-3.1 -0.8,-2.7 -0.5,-2.2 -0.3,-1.7 0,-1.3 0.3,-0.9 0.6,-0.5 0.8,0 1,0.2 1.2,0.6 1.4,0.8 1.5,1 1.7,1.2 1.9,1.5 2,1.6 2.1,1.7 2.2,1.9 2.3,1.9 2.3,2.1 2.4,2.1 2.4,2.2 2.5,2.2 2.4,2.3 2.4,2.2 2.5,2.3 2.4,2.3 2.3,2.3 2.4,2.2 2.2,2.3 2.3,2.2 2.1,2.3 2.1,2.2 2,2.1 2,2.2 1.9,2.1 1.8,2.1 1.7,2 1.7,2.1 1.6,2 1.5,2 1.4,1.9 1.4,1.9 1.3,1.9 1.3,1.9 1.1,1.8 1.2,1.9 1,1.7 1,1.8 0.9,1.7 0.9,1.8 0.9,1.7 0.7,1.6 0.8,1.7 0.7,1.6 0.6,1.6 0.6,1.6 0.6,1.5 0.5,1.6 0.5,1.5 0.5,1.5 0.4,1.4 0.4,1.5 0.4,1.4 0.4,1.5 0.3,1.3 0.3,1.4 0.3,1.4 0.3,1.3 0.2,1.3 0.3,1.3 0.2,1.3 0.2,1.3 0.2,1.3 0.2,1.2 0.2,1.2 0.1,1.2 0.2,1.2 0.1,1.2 0.1,1.1 0.2,1.1 0.1,1.2 0.1,1.1 0.1,1.1 0.1,1 0.1,1.1 0.1,1 0.1,1.1 0.1,1 0.1,1 0.1,0.9 0.1,1 0.1,1 0.1,0.9 0.1,0.9 0,0.9 0.1,0.9 0.1,0.9 0.1,0.9 0.1,0.8 0.1,0.8 0.1,0.9 0.1,0.8 0.2,1.5 0.1,1.4 0.2,1.3 0.2,1.2 0.3,1.2 0.2,1.1 0.2,1.1 0.3,1 0.3,1 0.3,0.9 0.3,0.8 0.4,0.8 0.4,0.7 0.4,0.6 0.5,0.5 0.5,0.4 0.6,0.3 0.5,0.1 0.7,0.1 0.7,-0.2 0.8,-0.3 0.8,-0.5 0.9,-0.7 1,-1 1.1,-1.3 1.2,-1.6 1.3,-2 1.3,-2.2 1.4,-2.6 1.5,-2.9 1.7,-3.5 1.8,-4 2,-4.5 1.9,-4.7 2.1,-5.1 2.3,-5.8 2.1,-5.7 2.4,-6.2 2.5,-6.6 2.7,-7.2 2.9,-7.7 3,-8.2 3.3,-8.5 3.4,-9 3.2,-8.3 3.4,-8.5 3.5,-8.5 3.5,-8.6 3.6,-8.4 3.6,-8.3 3.6,-7.9 3.6,-7.5 3.1,-6.3 3,-5.8 2.8,-5.2 2.5,-4.5 2.4,-3.9 1.8,-2.9 1.6,-2.2 1.3,-1.7 1,-1.1 0.6,-0.5 0.4,0.1 0,0.6 -0.3,1 -0.6,1.4 -0.8,1.7 -1,1.8 -1.1,2 -1.4,2.2 -1.5,2.3 -1.7,2.6 -1.9,2.6 -2,2.8 -2.1,2.8 -2.2,2.9 -2.3,2.9 -2.5,2.9 -2.5,3 -2.5,3 -2.6,2.9 -2.6,3 -2.7,2.9 -2.7,2.8 -2.6,2.8 -2.7,2.8 -2.7,2.7 -2.6,2.7 -2.6,2.6 -2.6,2.5 -2.5,2.5 -2.5,2.5 -2.4,2.3 -2.4,2.3 -2.4,2.3 -2.2,2.2 -2.2,2.1 -2.2,2.1 -2.1,2 -2,2 -2,1.9 -1.8,1.9 -1.9,1.9 -1.7,1.7 -1.7,1.8 -1.7,1.7 -1.5,1.7 -1.6,1.6 -1.4,1.6 -1.4,1.6 -1.4,1.5 -1.3,1.5 -1.2,1.5 -1.2,1.4 -1.1,1.4 -2.1,2.8 -1.8,2.4 -1.6,2.3 -1.5,2.2 -1.4,2.2 -1.3,2.1 -1.2,2 -1.1,2 -1,1.9 -1,1.9 -0.9,1.8 -0.8,1.8 -0.8,1.7 -0.8,1.6 -0.7,1.6 -0.7,1.5 -0.7,1.4 -0.6,1.4 -0.7,1.4 -0.6,1.2 -0.7,1.2 -0.6,1.2 -0.6,1 -0.7,1 -0.6,0.9 -0.7,0.8 -0.7,0.7 -0.7,0.6 -0.8,0.5 -0.7,0.4 -0.9,0.3 -0.8,0.1 -0.9,0 -0.9,-0.1 -0.9,-0.3 -1,-0.4 -1.1,-0.6 -1.1,-0.7 -1.1,-1 -1.2,-1.1 -1.3,-1.4 -1.3,-1.5 -1.4,-1.8 -1.4,-2 -1.5,-2.2 -1.6,-2.5 -1.6,-2.6 -1.7,-2.9 -1.7,-3.1 -1.8,-3.3 -1.8,-3.6 -1.8,-3.6 -1.9,-3.9 -1.9,-3.9 -1.9,-4.1 -1.9,-4.1 -1.9,-4.2 -1.8,-4.1 -1.7,-4 -1.7,-4 -1.6,-3.8 -1.4,-3.6 -1.3,-3.4 -1.1,-3.1 -1,-2.8 -0.7,-2.5 -0.5,-2.2 -0.3,-1.8 -0.1,-1.4 0.2,-1.1 0.4,-0.7 0.6,-0.3 0.9,0 1,0.3 1.3,0.6 1.2,0.7 1.5,1 1.5,1.2 1.6,1.3 1.7,1.4 1.8,1.6 1.8,1.7 1.9,1.8 1.9,1.9 2,1.9 1.9,2 1.9,2 1.9,2.1 1.9,2.1 1.8,2.1 1.8,2.1 1.8,2.1 1.6,2.1 1.7,2.1 1.5,2.2 1.5,2.1 1.5,2 1.3,2.1 1.3,2.1 1.3,2 1.1,2 1.1,2 1,1.9 1,2 0.9,1.9 0.8,1.9 0.7,1.8 0.7,1.9 0.7,1.8 0.6,1.8 0.5,1.7 0.5,1.7 0.4,1.7 0.4,1.7 0.6,3.2 0.4,2.8 0.2,2.7 0.2,2.5 0,2.5 -0.1,2.3 -0.2,2.2 -0.4,2 -0.4,1.9 -0.6,1.7 -0.6,1.4 -0.8,1.3 -0.9,1.1 -1,0.7 -1.1,0.5 -1.1,0.1 -1.3,-0.1 -1.3,-0.5 -1.5,-0.9 -1.7,-1.3 -1.7,-1.7 -1.9,-2.1 -2.1,-2.7 -2,-2.9 -2.1,-3.4 -2.3,-3.8 -2.1,-3.8 -2.3,-4.2 -2.3,-4.6 -2.5,-4.8 -2.5,-5.2 -2.5,-5.4 -2.6,-5.6 -2.6,-5.8 -2.5,-5.7 -2.5,-5.8 -2.2,-5 -2,-4.8 -1.8,-4.6 -1.6,-3.9 -1.3,-3.6 -1.2,-3.3 -0.9,-2.9 -0.7,-2.5 -0.4,-2.1 -0.3,-1.7 0.1,-1.3 0.3,-0.9 0.6,-0.5 0.8,-0.1 1.1,0.2 1.1,0.5 1.4,0.8 1.4,0.9 1.6,1.2 1.8,1.4 1.6,1.3 1.8,1.5 1.7,1.6 1.9,1.6 1.9,1.8 1.9,1.8 1.9,1.8 1.9,1.9 2,1.9 1.9,2 1.9,2 1.8,2 1.9,2 1.8,2 1.7,2 1.7,2 1.7,2 1.6,2 1.5,2 1.5,1.9 1.4,2 1.4,1.9 1.3,1.9 1.3,1.9 1.2,1.9 1.1,1.8 1.1,1.9 1,1.8 1,1.8 0.9,1.8 0.8,1.7 0.8,1.7 0.7,1.8 0.7,1.6 0.7,1.7 0.6,1.7 0.6,1.6 0.5,1.6 0.4,1.6 0.5,1.5 0.4,1.6 0.3,1.5 0.4,1.5 0.3,1.5 0.2,1.4 0.2,1.5 0.2,1.4 0.2,1.4 0.1,1.3 0.2,1.4 0,1.3 0.1,1.3 0,1.3 0.1,1.3 0,1.2 -0.1,1.2 0,1.2 -0.1,1.1 -0.1,1.2 -0.1,1.1 -0.2,1.1 -0.1,1 -0.2,1 -0.2,1 -0.2,1 -0.3,0.9 -0.2,0.9 -0.3,0.8 -0.3,0.9 -0.3,0.7 -0.4,0.8 -0.3,0.7 -0.4,0.6 -0.5,0.6 -0.4,0.6 -0.5,0.5 -0.5,0.4 -0.5,0.4 -0.5,0.3 -0.6,0.2 -0.6,0.2 -0.7,0 -0.6,0 -0.7,-0.1 -0.8,-0.2 -0.8,-0.3 -0.8,-0.4 -0.8,-0.5 -0.9,-0.7 -1,-0.8 -1,-0.9 -1,-1.1 -1.1,-1.2 -1.1,-1.4 -1.2,-1.6 -1.2,-1.7 -1.3,-2 -1.4,-2.1 -1.4,-2.3 -1.5,-2.5 -1.5,-2.8 -1.6,-2.9 -1.6,-3.1 -1.7,-3.4 -1.8,-3.5 -1.8,-3.8 -1.9,-3.9 -1.9,-4.1 -2,-4.2 -2,-4.4 -2,-4.5 -2.1,-4.6 -2,-4.7 -2.1,-4.7 -2,-4.7 -2,-4.6 -1.9,-4.6 -1.9,-4.4 -1.8,-4.4 -1.7,-4.1 -1.6,-3.9 -1.4,-3.7 -1.3,-3.3 -1.1,-3.1 -1,-2.8 -0.7,-2.4 -0.5,-2.1 -0.3,-1.7 -0.1,-1.4 0.1,-1 0.4,-0.7 0.5,-0.3 0.8,-0.1 1,0.3 1.2,0.5 1.4,0.8 1.5,1 1.7,1.2 1.6,1.3 1.8,1.4 1.8,1.5 1.9,1.6 2,1.7 2,1.8 2,1.9 2.1,1.9 2.1,1.9 2.1,2 2.1,2 2.1,2 2.1,2.1 2.1,2 2,2 2,2.1 1.9,2 1.9,2 1.8,2 1.8,2 1.8,2 1.7,2 1.6,1.9 1.6,1.9 1.5,1.9 1.4,1.9 1.4,1.9 1.3,1.8 1.3,1.8 1.2,1.8 1.2,1.8 1.1,1.7 1,1.8 1,1.7 1,1.7 0.8,1.7 0.9,1.6 0.8,1.6 0.7,1.6 0.7,1.6 0.7,1.6 0.6,1.6 0.6,1.5 0.6,1.5 0.5,1.5 0.4,1.5 0.5,1.5 0.4,1.4 0.4,1.4 0.4,1.4 0.3,1.4 0.3,1.4 0.3,1.4 0.2,1.3 0.3,1.4 0.2,1.3 0.2,1.3 0.2,1.3 0.2,1.2 0.1,1.3 0.1,1.2 0.2,1.2 0.1,1.7 0.1,1.7 0.1,1.6 0.1,1.6 0,1.5 0,1.6 0,1.5 0,1.5 0,1.4 0,1.5 -0.1,1.4 -0.1,1.4 -0.2,2.7 -0.2,2.3 -0.3,2.3 -0.3,2.2 -0.4,2.1 -0.5,2 -0.5,1.9 -0.6,1.8 -0.6,1.7 -0.8,1.6 -0.8,1.4 -0.9,1.3 -0.9,0.9 -1,0.7 -1,0.5 -1.1,0.3 -1.2,0 -1.4,-0.3 -1.4,-0.7 -1.5,-0.9 -1.5,-1.3 -1.7,-1.7 -1.9,-2.2 -1.8,-2.5 -2,-2.9 -2.2,-3.5 -2.3,-4 -2.5,-4.6 -2.4,-4.8 -2.6,-5.3 -2.8,-5.8 -2.9,-6.4 -2.8,-6.3 -2.9,-6.6 -3.1,-7.1 -3.2,-7.4 -3.3,-7.7 -3.3,-7.9 -3.4,-8 -3.5,-8.1 -3.4,-8 -3,-7.1 -2.9,-6.8 -2.7,-6.5 -2.6,-6.2 -2.2,-5.1 -1.9,-4.7 -1.7,-4.2 -1.5,-3.8 -1.1,-3.2 -0.9,-2.7 -0.5,-2.2 -0.3,-1.6 0.1,-1.2 0.5,-0.6 0.7,-0.2 1,0.2 1.1,0.6 1.5,0.9 1.6,1.1 1.8,1.3 1.8,1.5 2,1.5 2,1.7 2.2,1.9 2.3,1.9 2.3,2 2.4,2.1 2.5,2.1 2.5,2.1 2.5,2.2 2.5,2.2 2.6,2.2 2.5,2.2 2.5,2.3 2.5,2.2 2.5,2.1 2.5,2.2 2.4,2.1 2.3,2.2 2.3,2 2.3,2.1 2.2,2 2.1,2 2.1,2 2,1.9 1.9,1.9 1.9,1.9 1.8,1.8 1.8,1.8 1.6,1.8 1.6,1.7 1.6,1.8 1.5,1.6 1.4,1.7 1.4,1.6 1.3,1.6 1.2,1.6 1.2,1.5 1.2,1.6 1.1,1.5 1,1.4 1,1.5 1,1.4 0.9,1.4 0.8,1.4 0.8,1.3 1.5,2.7 1.3,2.3 1.1,2.2 1.1,2.2 1,2.1 0.9,2.1 0.8,2 0.7,1.9 0.8,1.8 0.6,1.8 0.7,1.7 0.6,1.7 0.5,1.6 0.6,1.5 0.5,1.4 0.6,1.4 0.5,1.3 0.5,1.2 0.6,1.1 0.5,1.1 0.6,0.9 0.5,0.9 0.6,0.7 0.6,0.6 0.6,0.6 0.7,0.4 0.7,0.2 0.7,0.2 0.8,0 0.8,-0.2 0.8,-0.4 0.9,-0.5 1,-0.7 1,-0.9 1.1,-1.2 1.2,-1.4 1.2,-1.7 1.3,-1.9 1.4,-2.2 1.4,-2.6 1.6,-2.8 1.7,-3.2 1.7,-3.5 1.9,-3.9 2,-4.2 2,-4.6 2.2,-4.9 2.3,-5.2 2.5,-5.6 2.5,-5.8 2.6,-6 2.6,-6.1 2.8,-6.3 2.7,-6.3 2.8,-6.2 2.7,-6 2.7,-5.8 2.3,-4.9 2.2,-4.5 2,-4.2 1.6,-3.3 1.5,-2.9 1.3,-2.5 1.1,-2 0.8,-1.6 0.6,-1.1 0.3,-0.6 0,-0.2 -0.2,0.3 -0.5,0.7 -0.8,1 -1,1.4 -1.1,1.6 -1.3,1.7 -1.5,2 -1.7,2.1 -1.7,2.3 -1.9,2.4 -2,2.5 -2.1,2.5 -2.2,2.7 -2.2,2.7 -2.2,2.7 -2.3,2.7 -2.3,2.7 -2.3,2.7 -2.3,2.7 -2.2,2.7 -2,2.4 -2,2.3 -1.9,2.4 -1.9,2.3 -1.9,2.2 -1.8,2.3 -1.7,2.2 -1.7,2.1 -1.6,2.1 -1.6,2.1 -1.5,2.1 -1.4,2 -1.4,2 -1.3,2 -1.3,1.9 -1.2,1.9 -1.1,1.8 -1.1,1.9 -1.1,1.7 -1.9,3.6 -1.5,3 -1.4,3 -1.1,2.6 -1,2.6 -1,2.5 -0.8,2.4 -0.7,2.4 -0.6,2.3 -0.6,2.2 -0.5,2.2 -0.4,2.2 -0.4,2 -0.3,2.1 -0.2,2 -0.2,1.9 -0.2,1.9 -0.1,1.8 0,1.8 -0.1,1.7 0,1.7 0.1,1.6 0,1.6 0.1,1.5 0.2,1.4 0.1,1.4 0.2,1.3 0.2,1.3 0.3,1.2 0.3,1.1 0.3,1 0.3,1 0.4,0.9 0.4,0.8 0.5,0.7 0.5,0.6 0.5,0.5 0.6,0.3 0.6,0.3 0.6,0.1 0.8,-0.1 0.7,-0.2 0.9,-0.4 0.9,-0.6 1,-0.9 1,-1.1 1.1,-1.3 1.3,-1.7 1.3,-2 1.4,-2.3 1.5,-2.8 1.7,-3.1 1.8,-3.6 1.9,-4.1 2.1,-4.6 2.2,-5.1 2.5,-5.7 2.6,-6.3 2.5,-6.1 2.6,-6.6 2.8,-6.9 3,-7.4 3.1,-7.6 2.9,-7.1 3,-7.3 3.1,-7.3 3.1,-7.3 3.1,-7.2 3.2,-7 3,-6.7 3,-6.3 2.6,-5.3 2.4,-4.8 2.3,-4.2 2,-3.8 1.6,-2.8 1.4,-2.3 1.1,-1.8 0.8,-1.3 0.6,-0.7 0.3,-0.3 0,0.2 -0.3,0.7 -0.6,1.1 -0.9,1.5 -1,1.6 -1.3,1.9 -1.4,2.1 -1.6,2.3 -1.8,2.4 -1.8,2.4 -1.8,2.4 -2,2.5 -2.1,2.6 -2.1,2.6 -2.2,2.6 -2.2,2.6 -2.3,2.7 -2.3,2.7 -2.4,2.6 -2.3,2.6 -2.1,2.4 -2.1,2.3 -2.1,2.3 -2.1,2.3 -2,2.2 -2.1,2.2 -2,2.2 -1.9,2.1 -2,2.1 -1.8,2.1 -1.9,2 -1.8,2 -1.7,1.9 -1.8,1.9 -1.6,1.9 -1.6,1.9 -1.6,1.8 -1.5,1.8 -1.5,1.7 -1.4,1.8 -1.4,1.7 -1.3,1.6 -1.3,1.7 -1.2,1.6 -1.2,1.6 -1.1,1.5 -1.1,1.6 -1.1,1.5 -1,1.5 -1.9,2.9 -1.4,2.4 -1.3,2.1 -1.1,2.1 -1.1,2 -1,2 -1,2 -0.8,1.9 -0.9,1.9 -0.7,1.9 -0.7,1.8 -0.7,1.8 -0.6,1.7 -0.6,1.8 -0.6,1.7 -0.5,1.6 -0.4,1.7 -0.5,1.6 -0.4,1.6 -0.4,1.6 -0.8,3 -0.6,2.7 -0.6,2.5 -0.5,2.4 -0.5,2.4 -0.5,2.2 -0.5,2.2 -0.6,2.1 -0.5,2.1 -0.5,1.9 -0.6,1.9 -0.6,1.7 -0.7,1.7 -0.7,1.5 -0.7,1.4 -0.9,1.3 -0.8,1.1 -1,0.9 -1,0.7 -1.2,0.5 -1.2,0.3 -1.4,-0.1 -1.4,-0.5 -1.5,-0.7 -1.6,-1.2 -1.7,-1.5 -1.8,-2 -2.1,-2.5 -1.9,-2.8 -2.1,-3.2 -2.3,-3.8 -2.5,-4.3 -2.6,-4.9 -2.5,-5 -2.6,-5.4 -2.8,-5.9 -3,-6.3 -3,-6.8 -2.9,-6.3 -2.9,-6.7 -2.9,-6.7 -3,-6.9 -3,-7 -2.9,-6.8 -2.9,-6.7 -2.4,-5.8 -2.3,-5.6 -2.2,-5.2 -1.9,-4.8 -1.7,-4.4 -1.3,-3.5 -1.1,-3.1 -0.8,-2.6 -0.6,-2.3 -0.3,-1.7 0,-1.4 0.3,-0.9 0.5,-0.4 0.8,-0.1 1.1,0.3 1.2,0.5 1.4,0.8 1.5,1.1 1.7,1.2 1.9,1.4 2,1.6 2.1,1.8 2.2,1.8 2.2,2 2.4,2 2.4,2.2 2.4,2.1 2.5,2.2 2.5,2.3 2.4,2.2 2.5,2.3 2.4,2.3 2.4,2.3 2.4,2.2 2.3,2.3 2.3,2.2 2.2,2.2 2.2,2.2 2,2.1 2.1,2.2 1.9,2.1 1.9,2 1.8,2.1 1.7,2 1.7,2 1.6,2 1.5,1.9 1.4,1.9 1.4,1.9 1.3,1.8 1.3,1.8 1.2,1.8 1.1,1.8 1,1.7 1.1,1.7 0.9,1.7 0.9,1.7 0.9,1.7 0.8,1.6 0.7,1.6 0.7,1.5 0.7,1.6 0.6,1.5 0.6,1.5 0.6,1.5 0.5,1.5 0.5,1.5 0.4,1.4 0.9,2.8 0.7,2.4 0.6,2.4 0.5,2.3 0.5,2.3 0.5,2.2 0.4,2.2 0.4,2.1 0.3,2 0.3,2 0.3,1.9 0.3,1.9 0.3,1.8 0.3,1.8 0.2,1.7 0.3,1.6 0.3,1.6 0.3,1.5 0.3,1.5 0.2,1.4 0.4,1.3 0.3,1.3 0.3,1.2 0.4,1.1 0.4,1 0.4,1 0.4,0.9 0.5,0.8 0.5,0.6 0.6,0.6 0.6,0.4 0.6,0.3 0.7,0.2 0.7,0 0.8,-0.2 0.9,-0.5 1,-0.6 1,-0.9 1.1,-1.2 1.2,-1.5 1.3,-1.9 1.5,-2.2 1.6,-2.8 1.7,-3.2 1.8,-3.7 1.9,-3.9 2,-4.4 2.1,-5 2.3,-5.5 2.5,-6.2 2.5,-6 2.6,-6.6 2.7,-7.1 2.7,-6.7 2.8,-7.1 2.9,-7.5 3,-7.7 3.2,-7.8 3.3,-8.1 3.3,-8 3.1,-7.2 3.1,-7.1 3.1,-6.9 3,-6.5 3,-6.2 2.8,-5.8 2.7,-5.2 2.3,-4.2 2,-3.7 1.9,-3.2 1.6,-2.5 1.3,-2 1,-1.5 0.7,-0.8 0.4,-0.3 0.1,0.3 -0.3,0.8 -0.6,1.2 -0.7,1.5 -1.1,1.7 -1.1,1.9 -1.4,2 -1.5,2.2 -1.7,2.4 -1.8,2.5 -1.9,2.6 -2.1,2.7 -2.2,2.8 -2.2,2.8 -2.4,2.8 -2.4,2.9 -2.5,2.8 -2.5,2.9 -2.5,2.8 -2.5,2.8 -2.6,2.8 -2.5,2.8 -2.6,2.7 -2.5,2.6 -2.5,2.6 -2.4,2.6 -2.4,2.5 -2.4,2.4 -2.3,2.4 -2.2,2.4 -2.2,2.3 -2.2,2.2 -2.1,2.2 -2,2.1 -1.9,2.1 -1.9,2.1 -1.8,2 -1.8,1.9 -1.6,1.9 -1.7,1.9 -1.5,1.9 -1.5,1.8 -1.4,1.7 -1.4,1.8 -1.3,1.7 -1.3,1.6 -1.2,1.7 -1.1,1.6 -1.1,1.5 -1,1.6 -1,1.5 -1,1.5 -0.9,1.5 -0.8,1.4 -0.9,1.5 -0.7,1.4 -0.8,1.4 -0.7,1.3 -0.7,1.4 -0.6,1.3 -0.6,1.3 -0.6,1.3 -0.6,1.3 -0.5,1.2 -0.5,1.3 -0.5,1.2 -0.5,1.2 -0.4,1.2 -0.4,1.2 -0.5,1.1 -0.4,1.1 -0.3,1.2 -0.4,1.1 -0.4,1 -0.3,1.1 -0.7,2.1 -0.5,1.8 -0.6,1.7 -0.5,1.7 -0.5,1.6 -0.6,1.5 -0.5,1.5 -0.5,1.5 -0.5,1.4 -0.5,1.3 -0.6,1.3 -0.6,1.1 -0.5,1.2 -0.7,1 -0.6,0.9 -0.6,0.9 -0.7,0.7 -0.8,0.7 -0.7,0.5 -0.9,0.4 -0.8,0.3 -0.9,0.1 -1,0 -1,-0.2 -1.1,-0.4 -1.1,-0.6 -1.3,-0.8 -1.3,-1.1 -1.3,-1.3 -1.5,-1.6 -1.5,-1.9 -1.7,-2.1 -1.7,-2.6 -1.8,-2.8 -1.9,-3.2 -2.1,-3.6 -2.1,-3.9 -2.2,-4.3 -2.4,-4.6 -2.4,-4.9 -2.5,-5.3 -2.6,-5.5 -2.6,-5.8 -2.6,-5.9 -2.7,-5.9 -2.6,-6.1 -2.6,-5.9 -2.5,-5.8 -2.3,-5.6 -1.9,-4.8 -1.8,-4.5 -1.5,-3.7 -1.2,-3.4 -1,-3 -0.9,-2.7 -0.6,-2.3 -0.3,-1.9 -0.1,-1.5 0.1,-1.1 0.4,-0.7 0.7,-0.3 0.9,0 1.1,0.4 1.3,0.6 1.4,0.9 1.5,1 1.7,1.2 1.7,1.4 1.9,1.6 2,1.6 2,1.8 2.1,1.9 2.2,1.9 2.2,2 2.2,2.1 2.2,2.1 2.2,2.1 2.1,2.2 2.2,2.2 2.1,2.1 2.1,2.2 2.1,2.2 1.9,2.1 2,2.2 1.9,2.1 1.8,2.2 1.7,2.1 1.7,2 1.6,2.1 1.6,2.1 1.4,2 1.4,2 1.4,1.9 1.2,2 1.3,1.9 1.1,1.9 1.1,1.9 1,1.8 0.9,1.9 0.9,1.8 0.9,1.8 0.8,1.7 0.7,1.8 0.7,1.7 0.6,1.7 0.6,1.6 0.6,1.7 0.5,1.6 0.5,1.6 0.4,1.6 0.4,1.6 0.4,1.5 0.3,1.5 0.3,1.5 0.6,3 0.3,2.6 0.3,2.5 0.3,2.5 0.1,2.4 0.1,2.3 0.1,2.3 0,2.2 -0.1,2.2 -0.1,2.1 -0.1,2.1 -0.2,2 -0.2,1.9 -0.3,1.8 -0.3,1.8 -0.4,1.8 -0.4,1.6 -0.5,1.6 -0.5,1.5 -0.6,1.4 -0.6,1.2 -0.7,1.2 -0.8,1.1 -0.8,0.8 -0.9,0.8 -1,0.5 -1.1,0.3 -1.2,0.1 -1.3,-0.3 -1.4,-0.5 -1.6,-1 -1.7,-1.3 -1.6,-1.7 -1.9,-2.1 -1.9,-2.6 -2.2,-3.1 -2.3,-3.7 -2.2,-3.9 -2.5,-4.5 -2.5,-5 -2.8,-5.5 -2.6,-5.5 -2.8,-6 -2.9,-6.4 -3,-6.8 -3.2,-7.2 -2.9,-6.7 -3,-6.8 -3,-7 -3,-7 -2.9,-7 -3,-6.9 -2.8,-6.6 -2.4,-5.7 -2.2,-5.4 -2.1,-5 -1.8,-4.6 -1.7,-4.2 -1.3,-3.7 -1.1,-3.1 -0.7,-2.6 -0.4,-2.1 -0.1,-1.5 0.2,-1 0.6,-0.5 0.8,-0.1 1.1,0.3 1.1,0.6 1.4,0.8 1.5,1 1.7,1.3 1.8,1.4 1.9,1.5 2.1,1.8 2.2,1.8 2.2,1.9 2.4,2 2.4,2.1 2.4,2.1 2.5,2.2 2.5,2.2 2.5,2.3 2.4,2.2 2.5,2.2 2.5,2.3 2.4,2.2 2.4,2.2 2.3,2.2 2.3,2.2 2.2,2.1 2.2,2.1 2.1,2.1 2,2.1 2,2 1.9,2.1 1.8,1.9 1.8,2 1.7,1.9 1.7,1.9 1.5,1.9 1.5,1.8 1.4,1.8 1.4,1.8 1.3,1.7 1.3,1.7 1.1,1.7 1.2,1.7 1,1.7 1.1,1.6 0.9,1.6 0.9,1.6 0.9,1.5 0.8,1.5 0.8,1.5 0.7,1.5 0.7,1.5 0.7,1.4 0.6,1.4 0.6,1.4 0.6,1.4 0.5,1.4 0.5,1.3 0.5,1.3 0.4,1.3 0.5,1.3 0.4,1.3 0.3,1.2 0.4,1.3 0.4,1.2 0.3,1.1 0.3,1.2 0.3,1.2 0.3,1.1 0.3,1.1 0.3,1.1 0.2,1.1 0.3,1 0.2,1 0.3,1.1 0.2,0.9 0.2,1 0.3,1 0.2,0.9 0.2,0.9 0.2,0.9 0.2,0.9 0.3,0.9 0.2,0.8 0.2,0.8 0.4,1.6 0.4,1.3 0.5,1.2 0.4,1.2 0.5,1.1 0.4,1 0.5,0.9 0.6,0.8 0.5,0.6 0.6,0.6 0.7,0.4 0.6,0.3 0.8,0.1 0.7,0 0.9,-0.2 0.9,-0.4 0.9,-0.7 1.1,-0.8 1.1,-1.2 1.2,-1.4 1.3,-1.7 1.3,-2.1 1.5,-2.5 1.7,-2.9 1.7,-3.3 1.9,-3.8 2,-4.3 2.2,-4.8 2.1,-4.8 2.3,-5.3 2.3,-5.7 2.6,-6.1 2.7,-6.6 2.5,-6.2 2.7,-6.5 2.8,-6.8 2.9,-6.9 2.9,-7.1 3.1,-7.1 3,-7.1 3.1,-6.9 3,-6.7 3,-6.4 2.8,-5.9 2.4,-5 2.3,-4.4 1.9,-3.5 1.6,-3.1 1.5,-2.6 1.2,-2.1 1,-1.6 0.7,-1.1 0.5,-0.6 0.1,-0.1 -0.1,0.4 -0.5,0.8 -0.7,1.2 -1,1.5 -1.1,1.7 -1.3,1.9 -1.3,1.9 -1.5,2.1 -1.7,2.2 -1.7,2.3 -1.9,2.3 -1.9,2.5 -2,2.5 -2.1,2.6 -2.2,2.6 -2.2,2.6 -2.3,2.6 -2.2,2.6 -2.3,2.6 -2.3,2.6 -2.3,2.5 -2.3,2.6 -2.2,2.5 -2.2,2.4 -2.2,2.5 -2.2,2.4 -2.1,2.3 -2.1,2.3 -2,2.3 -1.9,2.2 -2,2.2 -1.8,2.1 -1.8,2.1 -1.7,2.1 -1.7,2 -1.6,2 -1.6,1.9 -1.5,1.9 -1.4,1.9 -1.4,1.9 -1.3,1.8 -1.3,1.7 -1.2,1.8 -1.1,1.7 -1.1,1.7 -1.1,1.7 -1,1.6 -0.9,1.6 -0.9,1.6 -0.9,1.6 -0.8,1.5 -0.8,1.5 -0.7,1.5 -0.7,1.5 -0.7,1.5 -0.6,1.4 -0.6,1.5 -0.6,1.4 -0.5,1.3 -0.5,1.4 -0.5,1.4 -0.4,1.3 -0.5,1.3 -0.4,1.3 -0.4,1.3 -0.3,1.3 -0.4,1.2 -0.3,1.3 -0.3,1.2 -0.3,1.2 -0.3,1.2 -0.3,1.2 -0.2,1.2 -0.3,1.1 -0.2,1.2 -0.2,1.1 -0.3,1.1 -0.2,1.1 -0.2,1.1 -0.2,1.1 -0.2,1.1 -0.2,1 -0.1,1.1 -0.2,1 -0.2,1 -0.3,2 -0.3,1.8 -0.3,1.7 -0.3,1.7 -0.3,1.7 -0.3,1.6 -0.4,1.5 -0.3,1.6 -0.3,1.5 -0.4,1.4 -0.3,1.4 -0.4,1.4 -0.4,1.3 -0.4,1.3 -0.5,1.2 -0.5,1.1 -0.5,1.1 -0.5,1 -0.6,1 -0.7,0.8 -0.6,0.8 -0.7,0.7 -0.8,0.5 -0.8,0.5 -0.9,0.2 -1,0.2 -1,-0.1 -1.1,-0.3 -1.2,-0.5 -1.3,-0.7 -1.3,-1 -1.5,-1.4 -1.6,-1.7 -1.8,-2.2 -1.8,-2.5 -2.1,-3.1 -2.1,-3.5 -2.4,-4.2 -2.2,-4.2 -2.5,-4.7 -2.5,-5.2 -2.8,-5.8 -2.8,-6.2 -3.1,-6.8 -2.9,-6.4 -2.9,-6.8 -3.1,-7.1 -3.1,-7.3 -3.2,-7.5 -3.2,-7.5 -3.2,-7.6 -3.2,-7.4 -3,-7.1 -2.7,-6.2 -2.4,-5.9 -2.1,-5 -1.9,-4.5 -1.6,-4.2 -1.5,-3.8 -1.2,-3.2 -0.9,-2.8 -0.6,-2.4 -0.4,-1.8 0,-1.4 0.2,-0.8 0.6,-0.5 0.8,0 1,0.3 1.2,0.6 1.5,0.9 1.6,1.1 1.8,1.4 1.7,1.3 1.9,1.6 2,1.6 2.1,1.7 2.1,1.9 2.2,1.9 2.3,1.9 2.3,2.1 2.4,2 2.4,2.1 2.4,2.1 2.4,2.1 2.4,2.1 2.3,2.2 2.4,2.1 2.3,2.1 2.3,2.1 2.2,2 2.3,2.1 2.1,2 2.1,2 2.1,2 2,1.9 1.9,1.9 1.9,1.9 1.8,1.9 1.8,1.8 1.7,1.8 1.6,1.8 1.6,1.8 1.6,1.7 1.4,1.7 1.4,1.7 1.4,1.6 1.2,1.6 1.3,1.6 1.2,1.6 1.1,1.6 1.1,1.5 1,1.5 1,1.5 1.8,2.9 1.1,1.9 1.1,1.9 1,1.8 0.9,1.8 0.9,1.8 0.8,1.7 0.8,1.7 0.7,1.7 0.6,1.6 0.7,1.6 0.6,1.6 0.5,1.5 0.5,1.5 0.5,1.5 0.9,2.8 0.8,2.4 0.7,2.4 0.6,2.2 0.7,2.1 0.6,2 0.6,1.9 0.5,1.8 0.6,1.6 0.7,1.5 0.6,1.4 0.7,1.2 0.7,1 0.7,0.9 0.8,0.6 0.9,0.5 0.9,0.2 1,-0.1 1.1,-0.4 1.2,-0.7 1.3,-1 1.4,-1.5 1.6,-1.9 1.7,-2.4 1.6,-2.6 1.8,-3.1 1.9,-3.7 2.1,-4.1 2.3,-4.8 2.2,-4.7 2.3,-5.3 2.5,-5.7 2.7,-6.3 2.5,-5.9 2.7,-6.4 2.8,-6.5 2.8,-6.9 3,-6.9 2.7,-6.4 2.8,-6.3 2.7,-6.3 2.8,-6.1 2.7,-5.9 2.6,-5.5 2.5,-5.2 2.1,-4.2 1.9,-3.8 1.7,-3.3 1.5,-2.8 1.3,-2.3 1,-1.8 0.7,-1.2 0.4,-0.7 0.1,-0.1 -0.2,0.3 -0.5,0.8 -0.8,1.3 -1,1.4 -1.2,1.7 -1.3,1.8 -1.4,2 -1.6,2.1 -1.7,2.2 -1.9,2.4 -1.9,2.4 -2,2.5 -2.1,2.6 -2.2,2.7 -2.2,2.6 -2.3,2.7 -2.3,2.6 -2.3,2.7 -2,2.4 -2.1,2.3 -2,2.4 -2.1,2.3 -2,2.3 -1.9,2.3 -2,2.2 -1.9,2.2 -1.8,2.2 -1.9,2.1 -1.7,2.1 -1.7,2.1 -1.7,2 -1.6,2 -1.6,2 -1.5,1.9 -1.5,1.9 -1.4,1.9 -1.3,1.8 -1.3,1.8 -1.2,1.8 -1.2,1.8 -1.2,1.7 -1,1.7 -1.1,1.6 -1,1.7 -0.9,1.6 -0.9,1.6 -0.9,1.6 -0.8,1.5 -0.8,1.6 -0.7,1.5 -0.7,1.5 -0.7,1.4 -0.6,1.5 -0.6,1.4 -0.5,1.4 -0.5,1.4 -0.5,1.4 -1,2.7 -0.5,1.8 -0.5,1.8 -0.5,1.7 -0.4,1.7 -0.4,1.7 -0.4,1.7 -0.3,1.6 -0.4,1.6 -0.2,1.6 -0.3,1.5 -0.2,1.6 -0.2,1.5 -0.2,1.5 -0.2,1.4 -0.2,1.5 -0.1,1.4 -0.2,1.4 -0.1,1.4 -0.1,1.3 -0.2,2.7 -0.1,2.5 -0.1,2.5 -0.1,2.4 -0.1,2.4 -0.1,2.2 0,2.2 0,2.1 -0.1,2.1 0,2 0,1.9 0,1.9 0,1.8 0.1,1.8 0,1.7 0,1.7 0,1.5 0.1,1.6 0,1.5 0.1,1.4 0,1.4 0.1,1.4 0.1,1.3 0,1.2 0.1,1.2 0.1,1.2 0.2,1.1 0.1,1 0.1,1 0.2,1 0.2,0.9 0.2,0.8 0.2,0.8 0.3,0.7 0.3,0.7 0.4,0.5 0.3,0.5 0.5,0.4 0.4,0.2 0.6,0.2 0.6,-0.1 0.6,-0.1 0.7,-0.4 0.7,-0.5 0.8,-0.7 0.9,-0.9 0.9,-1.2 1.1,-1.5 1,-1.6 1.2,-2 1.1,-2.2 1.3,-2.5 1.4,-2.9 1.5,-3.3 1.6,-3.9 1.6,-3.9 1.8,-4.5 1.9,-5.1 1.9,-5.1 2,-5.5 2.2,-6.2 2.4,-6.7 2.6,-7.4 2.7,-8 3,-8.6 2.9,-8.2 3.1,-8.8 3.3,-9.1 3.5,-9.6 3.6,-9.9 3.5,-9.1 3.6,-9.2 3.7,-9.3 3.8,-9.2 3.8,-9 3.9,-8.8 3.9,-8.5 3.9,-8 3.7,-7.4 3.2,-6.1 3.1,-5.4 2.9,-4.9 2.6,-4.1 2.4,-3.4 2,-2.6 1.7,-1.9 1.3,-1.1 0.9,-0.4 0.5,0.3 0.1,1 -0.2,1.3 -0.6,1.8 -0.8,2 -1.1,2.3 -1.3,2.5 -1.6,2.7 -1.6,2.7 -1.7,2.7 -1.7,2.6 -1.9,2.7 -1.9,2.7 -2,2.7 -2.2,2.8 -2.2,2.8 -2.3,2.8 -2.3,2.8 -2.4,2.8 -2.4,2.8 -2.5,2.8 -2.5,2.7 -2.5,2.7 -2.6,2.6 -2.5,2.6 -2.6,2.6 -2.5,2.5 -2.6,2.4 -2.5,2.4 -2.5,2.3 -2.4,2.3 -2.5,2.2 -2.4,2.2 -2.4,2.1 -2.3,2.1 -2.3,2 -2.3,1.9 -2.2,1.9 -2.1,1.8 -2.1,1.8 -2.1,1.8 -2,1.7 -2,1.6 -1.9,1.6 -1.9,1.6 -1.8,1.5 -1.8,1.5 -1.7,1.4 -1.7,1.4 -1.6,1.4 -1.6,1.3 -1.5,1.3 -1.5,1.3 -1.4,1.2 -1.4,1.2 -1.4,1.2 -1.3,1.2 -1.2,1.1 -1.2,1.1 -1.2,1.1 -1.2,1 -2.1,2.1 -2,1.9 -1.9,1.9 -1.8,1.8 -1.6,1.7 -1.5,1.6 -1.4,1.6 -1.4,1.6 -1.2,1.4 -1.2,1.5 -1.1,1.3 -1,1.3 -1,1.3 -0.9,1.1 -0.9,1.2 -0.8,1.1 -0.8,1 -0.7,0.9 -0.8,0.9 -0.7,0.9 -0.7,0.8 -0.6,0.7 -0.7,0.7 -0.7,0.6 -0.6,0.5 -0.7,0.5 -0.6,0.4 -0.7,0.3 -0.7,0.3 -0.6,0.2 -0.7,0.1 -0.7,0 -0.7,-0.1 -0.7,-0.1 -0.7,-0.3 -0.8,-0.3 -0.8,-0.4 -0.8,-0.5 -0.8,-0.6 -0.8,-0.7 -0.8,-0.8 -0.9,-0.9 -0.9,-1 -0.9,-1.1 -0.9,-1.2 -1,-1.3 -1,-1.4 -0.9,-1.5 -1,-1.5 -1,-1.7 -1.1,-1.7 -1,-1.8 -1,-1.8 -1,-1.9 -1.1,-2 -1,-1.9 -1,-2 -0.9,-2.1 -1,-2 -0.9,-2 -0.9,-2 -0.9,-2 -0.8,-1.9 -0.7,-1.9 -0.7,-1.7 -0.6,-1.7 -0.6,-1.7 -0.5,-1.5 -0.4,-1.3 -0.3,-1.3 -0.3,-1.2 -0.1,-1 -0.1,-0.9 0.1,-0.7 0.1,-0.6 0.2,-0.4 0.3,-0.4 0.4,-0.1 0.4,-0.1 0.6,0.1 0.6,0.2 0.6,0.3 0.7,0.4 0.8,0.5 0.7,0.6 0.9,0.6 0.8,0.8 0.9,0.7 0.9,0.9 1,0.9 0.9,1 1,1 1,1.1 1,1.1 1,1.1 1,1.2 0.9,1.2 1,1.2 1,1.2 0.9,1.3 1,1.2 0.9,1.3 0.9,1.3 0.9,1.3 0.8,1.3 0.8,1.3 0.8,1.3 0.8,1.3 0.7,1.3 0.7,1.2 0.7,1.3 0.6,1.3 0.6,1.2 0.6,1.3 0.5,1.2 0.5,1.2 0.5,1.2 0.4,1.2 0.4,1.1 0.4,1.1 0.3,1.1 0.3,1.1 0.3,1.1 0.2,1 0.2,1 0.2,1 0.1,1 0.2,0.9 0,0.9 0.1,0.9 0,0.8 0,0.8 0,0.7 -0.1,0.7 -0.1,0.7 -0.3,1.2 -0.3,0.9 -0.4,0.7 -0.4,0.6 -0.6,0.4 -0.6,0.3 -0.7,0.1 -0.8,-0.1 -0.8,-0.2 -0.9,-0.5 -1,-0.7 -1.1,-0.9 -1.2,-1.1 -1.2,-1.4 -1.3,-1.6 -1.3,-1.8 -1.4,-2.1 -1.5,-2.3 -1.5,-2.5 -1.6,-2.7 -1.6,-2.9 -1.6,-3 -1.6,-3.2 -1.6,-3.3 -1.6,-3.3 -1.5,-3.3 -1.5,-3.3 -1.4,-3.3 -1.2,-3.1 -1.1,-2.9 -1,-2.6 -0.7,-2.2 -0.5,-2 -0.4,-1.7 -0.2,-1.5 0,-1.1 0.2,-0.9 0.3,-0.6 0.6,-0.3 0.6,0 0.9,0.2 1,0.4 1,0.6 1.1,0.8 1.2,1 1.3,1.1 1.3,1.2 1.4,1.3 1.4,1.4 1.5,1.6 1.4,1.5 1.5,1.7 1.5,1.7 1.4,1.8 1.4,1.8 1.4,1.8 1.3,1.8 1.3,1.9 1.2,1.8 1.2,1.9 1.1,1.8 1.1,1.9 1,1.8 1,1.8 0.8,1.8 0.8,1.8 0.8,1.7 0.7,1.7 0.6,1.7 0.6,1.6 0.5,1.6 0.4,1.6 0.4,1.5 0.3,1.5 0.2,1.4 0.2,1.3 0.1,1.3 0.1,1.3 0,1.2 0,1.1 -0.1,1 -0.1,1 -0.2,0.9 -0.2,0.8 -0.3,0.7 -0.4,0.7 -0.4,0.5 -0.4,0.4 -0.5,0.4 -0.6,0.2 -0.6,0.1 -0.6,-0.1 -0.7,-0.1 -0.8,-0.3 -0.8,-0.5 -0.8,-0.5 -1,-0.8 -0.9,-0.9 -1,-1.1 -1.1,-1.2 -1.1,-1.4 -1.2,-1.6 -1.2,-1.7 -1.3,-1.9 -1.3,-2.1 -1.3,-2.2 -1.4,-2.4 -1.4,-2.6 -1.4,-2.6 -1.4,-2.8 -1.5,-2.8 -1.4,-2.9 -1.4,-3 -1.4,-3 -1.3,-3 -1.3,-2.9 -1.2,-2.9 -1.2,-2.8 -1,-2.7 -0.9,-2.5 -0.8,-2.3 -0.7,-2.1 -0.5,-2 -0.4,-1.6 -0.2,-1.5 -0.1,-1.2 0.1,-0.9 0.3,-0.6 0.4,-0.4 0.6,-0.2 0.8,0.1 0.9,0.3 1,0.5 1.2,0.7 1.2,1 1.3,1 1.5,1.3 1.5,1.3 1.5,1.5 1.6,1.6 1.5,1.7 1.6,1.7 1.6,1.8 1.6,1.9 1.6,1.9 1.5,1.9 1.5,2 1.4,1.9 1.4,2 1.3,2 1.3,2 1.2,2 1.2,1.9 1,2 1,1.9 1,1.9 0.8,1.8 0.8,1.9 0.7,1.8 0.7,1.8 0.6,1.7 0.5,1.7 0.4,1.7 0.4,1.6 0.4,1.5 0.2,1.5 0.2,1.5 0.2,1.4 0.1,1.3 0,1.3 0,1.3 -0.1,1.1 -0.1,1.1 -0.3,1.3 -0.3,1.2 -0.5,1.1 -0.5,0.8 -0.7,0.7 -0.7,0.4 -0.9,0.2 -0.9,0 -1.1,-0.2 -1.1,-0.6 -1.2,-0.8 -1.4,-1.2 -1.5,-1.5 -1.5,-1.8 -1.7,-2.2 -1.7,-2.5 -1.9,-2.9 -1.9,-3.2 -2.1,-3.5 -1.8,-3.5 -1.9,-3.6 -2,-3.8 -1.9,-4 -1.9,-4.1 -1.9,-4 -1.8,-4.1 -1.6,-4 -1.5,-3.4 -1.2,-3.3 -1.2,-3 -0.9,-2.8 -0.8,-2.5 -0.6,-2.2 -0.3,-1.9 -0.2,-1.5 0.1,-1.1 0.4,-0.8 0.5,-0.5 0.8,-0.1 0.9,0.2 1,0.5 1.1,0.6 1.3,0.9 1.5,1.1 1.5,1.2 1.5,1.4 1.7,1.5 1.7,1.7 1.7,1.7 1.8,1.9 1.7,1.9 1.8,1.9 1.7,2.1 1.7,2 1.6,2.1 1.6,2.1 1.6,2.1 1.5,2.1 1.4,2.1 1.4,2.1 1.3,2.1 1.2,2 1.1,2.1 1.1,2 1,2 0.9,2 0.8,1.9 0.8,2 0.7,1.8 0.6,1.9 0.5,1.8 0.5,1.7 0.5,1.7 0.3,1.7 0.3,1.6 0.2,1.6 0.2,1.5 0.1,1.5 0.1,1.4 0,1.3 -0.1,1.3 -0.1,1.2 -0.1,1.1 -0.2,1.1 -0.3,1 -0.3,0.9 -0.3,0.8 -0.5,0.7 -0.4,0.6 -0.5,0.5 -0.6,0.4 -0.6,0.3 -0.7,0.2 -0.7,0 -0.8,-0.2 -0.8,-0.2 -0.9,-0.5 -1,-0.6 -1,-0.8 -1.1,-0.9 -1.5,-1.6 -1.6,-1.9 -1.7,-2.2 -1.8,-2.6 -1.9,-3 -1.9,-3.3 -2.1,-3.6 -2.2,-4 -2.2,-4.3 -2,-4 -2,-4.2 -2.1,-4.3 -2,-4.4 -1.9,-4.3 -1.9,-4.3 -1.7,-4.2 -1.4,-3.5 -1.3,-3.4 -1.2,-3.1 -0.9,-2.9 -0.8,-2.5 -0.5,-2.2 -0.4,-1.8 0,-1.5 0.1,-1.1 0.4,-0.7 0.6,-0.4 0.9,0 1.1,0.3 1.1,0.6 1.2,0.7 1.4,1 1.6,1.2 1.6,1.3 1.6,1.5 1.8,1.6 1.8,1.7 1.8,1.8 1.9,1.9 1.8,2 1.9,2 1.8,2.1 1.8,2.1 1.8,2.1 1.7,2.2 1.6,2.1 1.6,2.2 1.6,2.1 1.4,2.2 1.4,2.1 1.3,2.1 1.3,2.1 1.1,2.1 1.1,2 1.1,2 0.9,2 0.9,2 0.8,1.9 0.7,2 0.7,1.8 0.6,1.9 0.5,1.8 0.5,1.7 0.4,1.8 0.4,1.6 0.2,1.7 0.3,1.6 0.2,1.5 0.1,1.5 0.1,1.5 0,1.4 0,1.4 -0.1,1.3 -0.1,1.2 -0.1,1.2 -0.2,1.1 -0.3,1 -0.3,1 -0.3,0.9 -0.4,0.8 -0.4,0.8 -0.5,0.6 -0.5,0.6 -0.6,0.4 -0.6,0.3 -0.6,0.3 -0.7,0 -0.8,0 -0.8,-0.2 -0.9,-0.3 -0.9,-0.5 -1,-0.6 -1,-0.8 -1.1,-1 -1.2,-1.2 -1.2,-1.4 -1.3,-1.6 -1.3,-1.8 -1.4,-2.1 -1.5,-2.2 -1.5,-2.5 -1.6,-2.7 -1.6,-2.9 -1.7,-3.1 -1.8,-3.3 -1.8,-3.5 -1.8,-3.6 -1.8,-3.8 -1.9,-3.9 -1.8,-4 -1.9,-4.1 -1.8,-4 -1.7,-4 -1.7,-4 -1.6,-3.8 -1.5,-3.7 -1.4,-3.5 -1.2,-3.2 -1,-3 -0.9,-2.7 -0.7,-2.3 -0.4,-2.1 -0.2,-1.6 -0.1,-1.4 0.3,-0.9 0.4,-0.7 0.7,-0.2 0.8,0 1.1,0.4 1.3,0.6 1.4,0.9 1.6,1.1 1.7,1.3 1.8,1.6 2,1.6 1.9,1.9 2.1,1.9 2.1,2 2.1,2.2 2.1,2.1 2,2.3 2.1,2.3 2,2.3 2,2.3 1.9,2.3 1.8,2.3 1.8,2.3 1.7,2.4 1.6,2.3 1.6,2.2 1.4,2.3 1.4,2.2 1.3,2.3 1.2,2.2 1.1,2.1 1.1,2.1 0.9,2.1 0.9,2.1 0.8,2 0.7,2 0.7,2 0.6,1.9 0.5,1.9 0.5,1.9 0.4,1.8 0.3,1.8 0.3,1.7 0.3,1.7 0.2,1.7 0.1,1.6 0.1,1.6 0,1.5 0,1.5 0,1.4 -0.1,1.4 -0.2,1.3 -0.2,1.2 -0.2,1.2 -0.3,1.2 -0.3,1 -0.3,1 -0.4,1 -0.5,0.8 -0.4,0.8 -0.6,0.6 -0.5,0.6 -0.6,0.5 -0.7,0.3 -0.7,0.2 -0.8,0.1 -0.8,0 -0.9,-0.2 -0.9,-0.3 -1,-0.5 -1,-0.7 -1.1,-0.9 -1.2,-1.1 -1.3,-1.3 -1.3,-1.5 -1.4,-1.8 -1.4,-2 -1.5,-2.2 -1.6,-2.5 -1.7,-2.8 -1.8,-3 -1.8,-3.3 -1.9,-3.6 -1.9,-3.8 -2,-4 -2.1,-4.2 -2.1,-4.4 -2.1,-4.6 -2.2,-4.6 -2.1,-4.8 -2.1,-4.7 -2,-4.7 -2,-4.7 -1.9,-4.5 -1.8,-4.3 -1.6,-4 -1.4,-3.8 -1.3,-3.4 -1,-3.1 -0.7,-2.7 -0.6,-2.2 -0.2,-1.9 0,-1.4 0.3,-0.9 0.6,-0.6 0.8,-0.1 1,0.2 1.1,0.4 1.4,0.8 1.5,1 1.6,1.2 1.8,1.3 1.9,1.6 2,1.7 2,1.8 2.1,2 2.2,2 2.1,2.1 2.2,2.2 2.2,2.2 2.2,2.3 2.1,2.2 2.1,2.3 2,2.3 2,2.3 1.9,2.3 1.9,2.3 1.8,2.2 1.7,2.3 1.6,2.2 1.6,2.2 1.4,2.2 1.4,2.2 1.4,2.1 1.2,2.1 1.2,2.1 1.1,2.1 1,2 0.9,2 0.9,2 0.8,2 0.7,1.9 0.7,1.9 0.7,1.9 0.5,1.8 0.5,1.8 0.5,1.8 0.4,1.7 0.4,1.8 0.3,1.7 0.3,1.6 0.2,1.6 0.2,1.7 0.3,3.1 0.1,2.7 0,2.6 0,2.4 -0.2,2.4 -0.3,2.3 -0.4,2.1 -0.4,1.9 -0.6,1.9 -0.7,1.6 -0.7,1.5 -0.9,1.2 -0.9,1 -1.1,0.8 -1.3,0.4 -1.3,0.1 -1.3,-0.2 -1.5,-0.7 -1.6,-1 -1.8,-1.4 -1.9,-2 -2.1,-2.5 -2,-2.8 -2.2,-3.3 -2.3,-3.8 -2.5,-4.4 -2.4,-4.4 -2.5,-4.9 -2.4,-4.7 -2.5,-5.1 -2.6,-5.5 -2.6,-5.7 -2.7,-5.9 -2.7,-6.1 -2.7,-6.1 -2.7,-6.2 -2.6,-6.1 -2.6,-6 -2.1,-5.1 -2,-4.9 -1.6,-4.1 -1.5,-3.9 -1.3,-3.4 -1.1,-3.1 -0.8,-2.8 -0.6,-2.3 -0.4,-1.9 -0.1,-1.5 0.2,-1.1 0.4,-0.7 0.7,-0.3 0.8,0.1 1.1,0.3 1.2,0.6 1.3,0.8 1.6,1 1.6,1.2 1.8,1.4 1.9,1.6 2,1.7 2.1,1.8 2.2,1.9 2.2,2 2.2,2 2.3,2.1 2.2,2.2 2.3,2.1 2.2,2.2 2.2,2.2 2,2 1.9,2 1.9,2 1.9,2 1.8,2 1.8,1.9 1.7,2 1.6,1.9 1.6,2 1.6,1.9 1.5,1.8 1.4,1.9 1.4,1.8 1.3,1.9 1.2,1.8 1.3,1.8 1.1,1.7 1.1,1.8 1,1.7 1,1.7 1,1.7 0.8,1.7 0.9,1.6 0.8,1.6 0.7,1.6 0.7,1.6 0.7,1.6 0.6,1.6 0.6,1.5 0.5,1.5 0.5,1.5 0.5,1.5 0.5,1.4 0.4,1.5 0.4,1.4 0.4,2 0.5,1.9 0.4,1.9 0.3,1.8 0.3,1.9 0.3,1.8 0.2,1.7 0.2,1.8 0.1,1.7 0.2,1.6 0.1,1.7 0.1,1.6 0,1.6 0,3.1 0,2.7 -0.2,2.6 -0.1,2.6 -0.3,2.4 -0.3,2.3 -0.4,2.3 -0.4,2.1 -0.5,2.1 -0.6,1.9 -0.7,1.8 -0.7,1.6 -0.9,1.5 -0.9,1.3 -0.9,1 -1.1,0.7 -1,0.5 -1.1,0.2 -1.3,0 -1.3,-0.3 -1.5,-0.7 -1.5,-1 -1.6,-1.4 -1.7,-1.7 -1.9,-2.3 -2,-2.8 -2,-3 -2.2,-3.5 -2.3,-4 -2.5,-4.7 -2.7,-5.2 -2.6,-5.3 -2.7,-5.8 -2.9,-6.2 -3,-6.8 -2.9,-6.4 -2.9,-6.7 -3.1,-7.1 -3.1,-7.2 -3.1,-7.4 -3.2,-7.4 -3.2,-7.4 -3,-7.3 -3,-7 -2.6,-6.1 -2.4,-5.7 -2,-4.8 -1.8,-4.4 -1.6,-4.1 -1.4,-3.6 -1.1,-3.1 -0.9,-2.7 -0.5,-2.3 -0.3,-1.7 0,-1.3 0.3,-0.8 0.6,-0.4 0.8,0 1,0.4 1.3,0.6 1.4,0.9 1.6,1.1 1.8,1.4 2,1.5 2.1,1.7 2.2,1.8 2.3,2 2.4,2.1 2.5,2.1 2.5,2.2 2.6,2.3 2.6,2.2 2.6,2.4 2.6,2.3 2.6,2.3 2.6,2.3 2.6,2.4 2.5,2.3 2.5,2.3 2.4,2.2 2.4,2.2 2.3,2.2 2.3,2.2 2.1,2.2 2.1,2.1 2.1,2 1.9,2.1 1.9,2 1.8,2 1.8,1.9 1.6,1.9 1.6,1.9 1.5,1.8 1.5,1.8 1.4,1.8 1.3,1.8 1.2,1.7 1.2,1.7 1.2,1.7 1,1.6 1,1.6 1,1.6 0.9,1.6 0.9,1.5 0.8,1.6 0.8,1.5 0.7,1.4 0.7,1.5 0.7,1.4 0.6,1.4 1.1,2.8 1,2.3 0.8,2.3 0.8,2.2 0.6,2.1 0.7,2 0.6,2 0.5,1.9 0.6,1.9 0.5,1.7 0.4,1.8 0.5,1.6 0.5,1.6 0.4,1.5 0.5,1.4 0.4,1.4 0.5,1.3 0.4,1.2 0.5,1.1 0.5,1 0.5,1 0.6,0.8 0.6,0.7 0.6,0.6 0.6,0.5 0.7,0.3 0.7,0.2 0.8,0 0.8,-0.2 0.9,-0.3 0.9,-0.5 1,-0.8 1.1,-1 1.1,-1.3 1.3,-1.6 1.3,-1.9 1.4,-2.2 1.5,-2.6 1.7,-3 1.7,-3.4 1.9,-3.8 2,-4.3 2.2,-4.7 2.3,-5.3 2.5,-5.7 2.6,-6.2 2.5,-5.9 2.6,-6.3 2.8,-6.5 2.8,-6.8 3,-7 2.7,-6.3 2.7,-6.4 2.8,-6.3 2.7,-6.2 2.8,-6 2.6,-5.6 2.5,-5.3 2.4,-4.9 2,-3.9 1.8,-3.5 1.6,-3 1.4,-2.5 1.1,-2 0.9,-1.4 0.5,-0.9 0.3,-0.4 -0.1,0.2 -0.3,0.6 -0.7,1 -1,1.5 -1.1,1.6 -1.1,1.6 -1.4,1.9 -1.5,2 -1.6,2.2 -1.7,2.3 -1.9,2.4 -2,2.4 -2,2.6 -2.2,2.6 -2.2,2.6 -2.2,2.6 -2.2,2.7 -2.3,2.6 -2.3,2.7 -2.3,2.6 -2.3,2.6 -2.3,2.6 -2.2,2.5 -2.2,2.5 -2.2,2.5 -2.1,2.4 -2.1,2.4 -2,2.4 -1.9,2.3 -1.9,2.2 -1.9,2.3 -1.8,2.1 -1.7,2.2 -1.6,2.1 -1.6,2 -1.5,2.1 -1.5,2 -1.3,1.9 -1.4,1.9 -1.2,1.9 -1.2,1.9 -1.2,1.8 -1.1,1.8 -1,1.7 -1,1.8 -0.9,1.7 -0.9,1.6 -0.8,1.7 -0.8,1.6 -0.7,1.6 -0.7,1.6 -0.7,1.6 -0.6,1.5 -0.6,1.5 -0.5,1.5 -0.5,1.5 -0.5,1.5 -0.5,1.4 -0.4,1.4 -0.7,2.8 -0.7,2.4 -0.5,2.3 -0.4,2.1 -0.4,2.1 -0.4,2.1 -0.3,2.1 -0.3,1.9 -0.3,2 -0.2,1.9 -0.2,1.9 -0.2,1.8 -0.2,1.8 -0.2,1.8 -0.1,1.7 -0.2,1.8 -0.1,1.6 -0.1,1.7 -0.1,1.6 -0.1,1.5 -0.1,1.6 -0.2,1.5 -0.1,1.5 -0.1,1.4 -0.1,1.5 -0.2,2.8 -0.2,2.4 -0.2,2.3 -0.3,2.3 -0.3,2.2 -0.3,2.1 -0.3,2 -0.4,2 -0.5,1.9 -0.5,1.8 -0.6,1.7 -0.6,1.6 -0.7,1.4 -0.7,1.2 -0.8,1 -0.9,0.9 -0.8,0.6 -1,0.5 -0.9,0.2 -1.1,0.1 -1.1,-0.2 -1.3,-0.4 -1.2,-0.7 -1.4,-0.9 -1.4,-1.3 -1.7,-1.8 -1.6,-1.9 -1.7,-2.4 -1.9,-2.8 -2,-3.4 -2,-3.5 -2.2,-4.1 -2.3,-4.6 -2.6,-5.3 -2.7,-5.8 -2.9,-6.5 -2.8,-6.4 -3,-7 -3.1,-7.4 -3.4,-8 -3.5,-8.4 -3.6,-8.8 -3.4,-8.2 -3.5,-8.4 -3.5,-8.5 -3.6,-8.5 -3.5,-8.5 -3.5,-8.3 -3.5,-8 -2.9,-6.9 -2.9,-6.5 -2.6,-6.1 -2.4,-5.6 -2.2,-5 -1.8,-4.5 -1.6,-3.8 -1.2,-3.2 -0.8,-2.5 -0.4,-2 -0.1,-1.3 0.3,-0.7 0.6,-0.2 1,0.3 1,0.6 1.4,0.8 1.5,1.1 1.7,1.4 1.7,1.4 1.9,1.5 2,1.7 2.1,1.8 2.2,1.9 2.3,1.9 2.4,2.1 2.4,2.1 2.5,2.1 2.6,2.2 2.5,2.1 2.6,2.2 2.7,2.2 2.6,2.2 2.6,2.2 2.6,2.1 2.6,2.2 2.6,2.1 2.5,2.1 2.5,2 2.5,2 2.4,2 2.4,2 2.3,1.9 2.3,1.9 2.2,1.8 2.2,1.8 2.1,1.8 2,1.7 2,1.7 1.9,1.6 1.9,1.7 1.8,1.5 1.8,1.6 1.6,1.5 1.7,1.5 1.5,1.5 1.6,1.4 1.4,1.4 1.4,1.4 1.4,1.3 1.3,1.4 1.2,1.2 1.2,1.3 1.2,1.3 1.1,1.2 1,1.2 1.1,1.1 0.9,1.2 1,1.1 0.9,1.1 0.8,1.1 0.9,1.1 0.8,1 0.7,1 0.8,1 0.7,1 0.6,1 0.7,0.9 0.6,0.9 0.6,0.9 0.6,0.9 0.6,0.9 0.5,0.8 0.5,0.8 0.5,0.8 0.5,0.8 0.5,0.8 0.4,0.7 0.5,0.7 0.4,0.7 0.4,0.7 0.4,0.7 0.4,0.6 0.4,0.6 0.4,0.6 0.4,0.6 0.4,0.5 0.3,0.6 0.4,0.5 0.4,0.4 0.7,0.9 0.7,0.8 0.7,0.7 0.7,0.6 0.7,0.4 0.7,0.4 0.8,0.2 0.7,0.1 0.8,-0.1 0.8,-0.2 0.9,-0.3 0.8,-0.5 0.9,-0.6 1,-0.8 1,-1 1,-1.2 1.1,-1.3 1.2,-1.6 1.2,-1.8 1.2,-1.9 1.3,-2.2 1.4,-2.3 1.4,-2.6 1.5,-2.8 1.5,-3 1.6,-3.1 1.7,-3.4 1.6,-3.5 1.8,-3.6 1.7,-3.8 1.8,-3.8 1.9,-3.9 1.8,-3.9 1.8,-4 1.8,-3.8 1.7,-3.8 1.7,-3.6 1.6,-3.5 1.5,-3.2 1.3,-2.7 1.1,-2.4 1.1,-2.2 0.8,-1.9 0.8,-1.6 0.5,-1.3 0.4,-1 0.3,-0.7 0,-0.4 -0.1,0 -0.4,0.2 -0.5,0.5 -0.7,0.8 -0.8,1 -1,1.2 -1.2,1.4 -1.2,1.6 -1.4,1.8 -1.5,1.9 -1.6,2 -1.7,2.1 -1.7,2.2 -1.8,2.2 -1.8,2.3 -1.9,2.4 -1.8,2.3 -1.8,2.4 -1.8,2.4 -1.8,2.4 -1.8,2.3 -1.7,2.4 -1.7,2.3 -1.6,2.3 -1.5,2.2 -1.5,2.3 -1.4,2.2 -1.4,2.1 -1.3,2.1 -1.2,2.1 -1.2,2.1 -1,2 -1.1,1.9 -0.9,1.9 -0.9,1.9 -0.8,1.8 -0.7,1.8 -0.7,1.8 -0.6,1.7 -0.6,1.6 -0.5,1.6 -0.5,1.6 -0.3,1.5 -0.4,1.4 -0.5,2.8 -0.3,2.3 -0.2,2.1 0,2 0.1,1.7 0.2,1.5 0.4,1.3 0.5,1 0.6,0.7 0.8,0.5 0.9,0.1 1,-0.3 1.1,-0.7 1.3,-1 1.5,-1.6 1.6,-2 1.8,-2.6 1.8,-2.9 1.9,-3.3 2.1,-3.8 2.2,-4.3 2.1,-4.4 2.3,-4.7 2.1,-4.5 2.2,-4.8 2.3,-5 2.4,-5.2 2.4,-5.3 2.4,-5.4 2.4,-5.3 2.4,-5.2 2.3,-5 2,-4.3 1.8,-3.9 1.7,-3.6 1.4,-2.9 1.2,-2.6 1,-2.1 0.8,-1.7 0.6,-1.4 0.4,-0.9 0.1,-0.4 -0.1,-0.1 -0.4,0.3 -0.6,0.7 -0.9,1 -1,1.3 -1.2,1.5 -1.3,1.6 -1.4,1.8 -1.6,2 -1.6,2.1 -1.8,2.2 -1.9,2.3 -1.9,2.4 -1.9,2.4 -2,2.5 -2,2.5 -2,2.5 -2,2.5 -2,2.5 -1.9,2.5 -1.9,2.5 -1.9,2.4 -1.8,2.5 -1.7,2.4 -1.7,2.3 -1.7,2.4 -1.5,2.2 -1.5,2.3 -1.4,2.2 -1.4,2.2 -1.2,2.1 -1.2,2.1 -1.2,2.1 -1,2 -1,1.9 -0.9,2 -0.9,1.8 -0.8,1.9 -0.7,1.8 -0.7,1.8 -0.6,1.7 -0.6,1.7 -0.5,1.6 -0.4,1.6 -0.4,1.6 -0.4,1.5 -0.5,2.9 -0.4,2.5 -0.2,2.3 -0.1,2.2 0,2 0.2,1.8 0.2,1.6 0.3,1.5 0.5,1.2 0.5,1 0.7,0.8 0.8,0.5 0.9,0.2 1,-0.2 1.1,-0.5 1.1,-0.8 1.3,-1.1 1.4,-1.6 1.5,-1.9 1.6,-2.4 1.8,-2.9 1.9,-3.4 2.1,-3.9 2,-4 2.2,-4.5 2.3,-4.9 2.2,-4.7 2.3,-5.1 2.4,-5.5 2.5,-5.6 2.6,-5.9 2.6,-6 2.4,-5.5 2.5,-5.4 2.4,-5.4 2.4,-5.2 2.3,-5 2.2,-4.8 2.1,-4.3 1.7,-3.6 1.5,-3.1 1.3,-2.5 1,-2.1 0.9,-1.8 0.7,-1.4 0.4,-0.9 0.3,-0.6 0,-0.2 -0.2,0.1 -0.4,0.5 -0.7,0.8 -0.8,1.1 -1.1,1.4 -1.2,1.7 -1.5,1.8 -1.4,1.8 -1.5,2 -1.7,2.1 -1.7,2.2 -1.8,2.2 -1.9,2.3 -1.9,2.4 -2,2.4 -2,2.4 -2,2.5 -2,2.4 -2,2.5 -2,2.4 -2,2.4 -1.9,2.4 -2,2.4 -1.8,2.3 -1.9,2.4 -1.7,2.2 -1.7,2.3 -1.7,2.2 -1.6,2.2 -1.6,2.2 -1.4,2.1 -1.5,2.1 -1.3,2 -1.3,2 -1.2,2 -1.2,1.9 -1.1,1.9 -1.1,1.9 -0.9,1.9 -1,1.8 -0.9,1.8 -0.8,1.7 -0.7,1.7 -0.8,1.7 -0.6,1.7 -0.7,1.6 -1.1,3.2 -0.8,2.7 -0.7,2.4 -0.5,2.4 -0.5,2.2 -0.4,2.2 -0.3,2.1 -0.3,2.1 -0.2,2 -0.1,1.9 0,1.8 0,1.7 0,1.7 0.1,1.6 0.2,1.5 0.2,1.4 0.2,1.3 0.3,1.2 0.4,1.1 0.4,1 0.5,0.8 0.5,0.8 0.5,0.6 0.6,0.4 0.7,0.3 0.8,0.1 0.8,-0.1 0.9,-0.3 0.9,-0.6 1,-0.8 1.2,-1 1.2,-1.4 1.3,-1.7 1.4,-2.1 1.5,-2.5 1.7,-2.9 1.8,-3.3 1.9,-3.8 2.1,-4.3 2.3,-4.9 2.4,-5.3 2.5,-5.9 2.5,-5.7 2.6,-6.2 2.7,-6.5 2.6,-6.1 2.7,-6.3 2.7,-6.5 2.8,-6.5 2.9,-6.6 2.8,-6.5 2.9,-6.3 2.8,-6.1 2.7,-5.8 2.3,-4.8 2.2,-4.4 1.7,-3.5 1.7,-3.2 1.4,-2.7 1.2,-2.2 1,-1.8 0.8,-1.3 0.5,-0.9 0.2,-0.3 -0.3,0.5 -0.6,0.9 -0.9,1.3 -1.1,1.6 -1.2,1.6 -1.3,1.9 -1.6,2.1 -1.7,2.3 -1.8,2.3 -2,2.5 -2,2.6 -2.2,2.7 -2.2,2.7 -2.3,2.7 -2.3,2.8 -2.4,2.7 -2.1,2.5 -2.2,2.5 -2.1,2.5 -2.1,2.4 -2.1,2.4 -2.1,2.4 -2.1,2.4 -2,2.3 -1.9,2.3 -1.9,2.2 -1.9,2.2 -1.8,2.2 -1.8,2.2 -1.7,2.1 -1.7,2.1 -1.6,2 -1.5,2 -1.5,2 -1.4,1.9 -1.3,1.9 -1.3,1.9 -1.3,1.8 -1.2,1.8 -2.2,3.5 -1.8,3.1 -1.7,3 -1.5,2.9 -1.4,2.9 -1.2,2.7 -1.1,2.7 -1,2.7 -0.9,2.5 -0.8,2.5 -0.7,2.5 -0.6,2.4 -0.6,2.3 -0.5,2.3 -0.4,2.3 -0.4,2.2 -0.4,2.1 -0.2,2.1 -0.3,2.1 -0.2,2 -0.2,1.9 -0.2,2 -0.1,1.8 -0.1,1.9 -0.1,1.8 -0.1,1.7 0,1.7 -0.1,1.7 0,1.7 0,1.6 0,1.5 0,1.6 0,1.5 0,1.4 0,1.4 0.1,1.4 0,1.4 0.1,1.3 0.1,1.3 0,1.2 0.1,1.3 0.1,1.1 0.1,1.2 0.2,1.1 0.1,1.1 0.1,1 0.2,1 0.1,1 0.2,0.9 0.2,0.9 0.2,0.9 0.2,0.8 0.3,0.7 0.2,0.8 0.3,0.6 0.3,0.6 0.4,0.6 0.3,0.4 0.4,0.4 0.4,0.4 0.5,0.2 0.5,0.2 0.5,0 0.6,0 0.6,-0.2 0.7,-0.4 0.7,-0.5 0.8,-0.7 0.9,-0.9 1,-1.1 1,-1.4 1.2,-1.8 1.2,-2 1.4,-2.5 1.4,-2.9 1.7,-3.3 1.6,-3.6 1.7,-4 1.9,-4.5 2,-5.1 2.3,-5.8 2.1,-5.7 2.4,-6.3 2.5,-6.9 2.8,-7.4 2.9,-8.1 2.8,-7.7 3.1,-8.2 3.1,-8.6 3.4,-8.9 3.5,-9.2 3.7,-9.4 3.4,-8.5 3.5,-8.6 3.6,-8.4 3.6,-8.3 3.6,-8 3.6,-7.6 3.5,-7.1 3,-5.9 2.9,-5.3 2.7,-4.8 2.4,-4.1 2.2,-3.5 1.9,-2.7 1.6,-2.1 1.3,-1.4 0.9,-0.6 0.5,0 0.1,0.6 -0.3,1.2 -0.6,1.5 -0.9,1.9 -1,2.1 -1.3,2.2 -1.5,2.5 -1.7,2.7 -1.7,2.6 -1.9,2.6 -1.9,2.8 -2.1,2.8 -2.2,2.9 -2.3,2.9 -2.4,2.9 -2.5,2.9 -2.5,3 -2.6,2.9 -2.6,2.9 -2.6,2.8 -2.6,2.9 -2.7,2.7 -2.6,2.8 -2.7,2.7 -2.6,2.6 -2.6,2.5 -2.6,2.6 -2.5,2.4 -2.5,2.4 -2.5,2.3 -2.4,2.3 -2.4,2.2 -2.3,2.2 -2.3,2.1 -2.2,2 -2.1,2 -2.1,1.9 -2.1,1.9 -1.9,1.9 -2,1.7 -1.8,1.8 -1.8,1.7 -1.7,1.6 -1.7,1.7 -1.6,1.5 -1.6,1.6 -1.5,1.5 -1.4,1.5 -1.4,1.4 -1.4,1.4 -1.3,1.4 -1.2,1.4 -1.2,1.3 -1.2,1.3 -1.1,1.3 -1,1.2 -1,1.2 -1,1.2 -0.9,1.2 -0.9,1.2 -0.9,1.1 -0.8,1.1 -0.8,1.1 -0.8,1.1 -0.7,1 -0.7,1.1 -0.7,1 -0.7,1 -0.6,1 -0.6,0.9 -0.6,1 -0.6,0.9 -0.5,0.9 -0.5,0.9 -0.5,0.9 -0.5,0.9 -1,1.6 -0.8,1.6 -0.9,1.6 -0.8,1.5 -0.8,1.4 -0.7,1.3 -0.7,1.2 -0.8,1.2 -0.7,1.1 -0.7,1 -0.7,0.9 -0.7,0.9 -0.8,0.7 -0.7,0.6 -0.8,0.5 -0.8,0.4 -0.8,0.3 -0.8,0.2 -0.9,0 -0.9,-0.1 -0.9,-0.2 -1,-0.4 -1.1,-0.6 -1,-0.7 -1.2,-0.9 -1.1,-1.1 -1.2,-1.3 -1.3,-1.5 -1.3,-1.7 -1.4,-1.9 -1.4,-2 -1.5,-2.3 -1.5,-2.5 -1.6,-2.7 -1.6,-2.8 -1.6,-3 -1.7,-3.2 -1.7,-3.3 -1.6,-3.4 -1.7,-3.5 -1.7,-3.6 -1.6,-3.5 -1.6,-3.6 -1.7,-3.9 -1.6,-3.8 -1.4,-3.2 -1.2,-3.1 -1.1,-3 -0.9,-2.6 -0.8,-2.5 -0.6,-2.2 -0.4,-1.8 -0.3,-1.6 0,-1.3 0.1,-1 0.4,-0.6 0.5,-0.4 0.8,-0.1 0.9,0.2 1.1,0.5 1.2,0.7 1.4,0.9 1.5,1.2 1.6,1.3 1.6,1.4 1.8,1.6 1.8,1.8 1.8,1.8 1.9,1.9 1.9,2 1.8,2 1.9,2.1 1.8,2.1 1.7,2.2 1.8,2.2 1.6,2.1 1.6,2.2 1.6,2.2 1.4,2.2 1.4,2.1 1.4,2.1 1.2,2.2 1.2,2.1 1.1,2 1,2.1 0.9,2 0.9,2 0.7,1.9 0.8,2 0.6,1.8 0.6,1.9 0.5,1.8 0.4,1.8 0.4,1.7 0.3,1.7 0.3,1.6 0.2,1.6 0.2,1.6 0.1,2.9 0,2.4 -0.2,2.3 -0.4,2 -0.5,1.8 -0.7,1.6 -0.8,1.2 -1,0.9 -1.1,0.6 -1.2,0.1 -1.3,-0.2 -1.5,-0.7 -1.6,-1 -1.7,-1.6 -2,-2 -1.9,-2.4 -2,-2.8 -2.1,-3.3 -2.1,-3.3 -2.1,-3.8 -2.1,-3.6 -2,-4 -2.2,-4.2 -2.2,-4.5 -2.2,-4.6 -2.2,-4.7 -2.1,-4.8 -2.1,-4.7 -2.1,-4.8 -1.9,-4.5 -1.6,-3.9 -1.4,-3.7 -1.2,-3.1 -1,-2.9 -0.8,-2.5 -0.6,-2.3 -0.4,-2 -0.3,-1.6 0,-1.3 0.2,-0.9 0.4,-0.7 0.6,-0.3 0.8,0 1,0.3 1.2,0.5 1.4,0.8 1.4,1.1 1.7,1.2 1.7,1.4 1.8,1.6 1.9,1.7 1.9,1.8 2,1.9 2,2 2.1,2.1 2,2.2 2,2.1 1.9,2.2 1.9,2.3 1.9,2.2 1.8,2.3 1.8,2.2 1.6,2.3 1.7,2.2 1.5,2.2 1.4,2.2 1.4,2.2 1.3,2.2 1.2,2.1 1.2,2.1 1,2.1 1,2.1 0.9,2 0.9,2 0.7,2 0.7,1.9 0.7,1.9 0.5,1.9 0.5,1.8 0.5,1.8 0.4,1.8 0.3,1.7 0.3,1.7 0.2,1.6 0.2,1.6 0.2,3.1 0,2.6 -0.1,2.5 -0.3,2.3 -0.4,2.1 -0.5,1.9 -0.6,1.6 -0.8,1.5 -0.9,1.1 -1,0.8 -1.1,0.4 -1.2,0.2 -1.3,-0.2 -1.5,-0.6 -1.6,-1 -1.8,-1.5 -1.9,-2 -2.1,-2.6 -2.1,-2.9 -2.2,-3.3 -2.4,-3.8 -2.2,-3.9 -2.3,-4.4 -2.3,-4.2 -2.2,-4.5 -2.4,-4.8 -2.4,-5 -2.4,-5.2 -2.4,-5.3 -2.4,-5.4 -2.3,-5.3 -2.2,-5.2 -1.9,-4.6 -1.8,-4.3 -1.4,-3.7 -1.3,-3.4 -1.2,-3.2 -0.9,-2.8 -0.7,-2.5 -0.5,-2.2 -0.3,-1.7 -0.1,-1.4 0.2,-1.1 0.4,-0.7 0.6,-0.3 0.9,0 1,0.3 1.2,0.5 1.2,0.8 1.5,0.9 1.5,1.1 1.6,1.3 1.8,1.5 1.8,1.5 1.9,1.7 1.9,1.8 2,1.8 1.9,2 2,1.9 2,2.1 2,2 2,2.1 1.9,2.1 1.9,2.1 1.9,2.1 1.8,2.1 1.8,2.2 1.6,2.1 1.7,2.1 1.6,2.1 1.5,2 1.4,2.1 1.4,2 1.3,2 1.2,2 1.2,2 1.1,1.9 1,2 1,1.9 0.9,1.9 0.9,1.8 0.7,1.8 0.8,1.8 0.7,1.8 0.6,1.8 0.8,2.4 0.7,2.3 0.6,2.3 0.5,2.2 0.4,2.2 0.4,2.2 0.3,2.1 0.2,2 0.2,2 0.1,1.9 0,1.9 0,1.8 -0.1,1.8 -0.1,1.7 -0.4,3.2 -0.5,2.6 -0.7,2.4 -0.7,1.9 -0.9,1.6 -1,1.3 -1,0.9 -1.2,0.6 -1.2,0.3 -1.3,-0.1 -1.5,-0.4 -1.6,-0.9 -1.8,-1.3 -1.7,-1.6 -1.8,-2.1 -2,-2.5 -2.2,-3.1 -2.4,-3.7 -2.2,-3.8 -2.4,-4.3 -2.3,-4.2 -2.4,-4.7 -2.4,-5 -2.6,-5.3 -2.7,-5.7 -2.7,-5.9 -2.7,-6.1 -2.8,-6.3 -2.7,-6.2 -2.7,-6.2 -2.3,-5.5 -2.3,-5.3 -1.8,-4.5 -1.7,-4.3 -1.6,-3.9 -1.3,-3.6 -1.1,-3.3 -0.9,-2.8 -0.6,-2.4 -0.4,-2 -0.1,-1.5 0.2,-1.1 0.5,-0.7 0.7,-0.3 1,0.1 1.1,0.4 1.2,0.7 1.5,0.9 1.6,1.1 1.8,1.3 1.9,1.5 2,1.7 2.1,1.8 2.1,1.9 2.2,2 2.3,2 2.3,2.2 2.3,2.1 2.3,2.3 2.2,2.2 2.3,2.3 2.2,2.3 2.2,2.2 2.1,2.3 2.1,2.3 2,2.2 1.9,2.3 1.9,2.2 1.8,2.2 1.8,2.2 1.6,2.1 1.6,2.1 1.5,2.1 1.4,2.1 1.4,2.1 1.3,2 1.2,2 1.1,2 1.1,1.9 1,2 0.9,1.9 0.9,1.8 0.8,1.9 0.8,1.8 0.7,1.8 0.7,1.8 0.6,1.7 0.6,1.7 0.5,1.8 0.5,1.6 0.4,1.7 0.4,1.6 0.4,1.6 0.3,1.6 0.3,1.6 0.2,1.5 0.3,1.6 0.4,2.9 0.2,2.6 0.2,2.5 0.1,2.4 0.1,2.3 0,2.2 -0.1,2.2 -0.1,2.1 -0.2,2.1 -0.2,2 -0.2,2 -0.3,1.8 -0.4,1.8 -0.3,1.7 -0.5,1.7 -0.5,1.5 -0.5,1.5 -0.6,1.3 -0.7,1.3 -0.7,1.1 -0.9,1 -0.8,0.8 -1,0.6 -1.1,0.4 -1.1,0.1 -1.3,-0.1 -1.4,-0.4 -1.5,-0.8 -1.7,-1.3 -1.6,-1.5 -1.8,-1.9 -1.9,-2.4 -2.1,-3 -2.3,-3.5 -2.2,-3.7 -2.3,-4.2 -2.6,-4.8 -2.7,-5.4 -2.8,-5.9 -2.8,-5.8 -2.8,-6.2 -3,-6.7 -3.1,-7 -3.2,-7.3 -2.9,-6.8 -3,-6.9 -3,-6.9 -2.9,-6.9 -2.9,-6.7 -2.8,-6.6 -2.6,-6.2 -2.2,-5.3 -2,-5 -1.8,-4.5 -1.6,-4.1 -1.3,-3.6 -1,-3 -0.7,-2.6 -0.4,-2 -0.1,-1.5 0.3,-0.9 0.6,-0.5 0.9,0 1,0.3 1.2,0.6 1.3,0.8 1.6,1 1.6,1.3 1.9,1.4 1.9,1.5 2.1,1.7 2.2,1.9 2.2,1.9 2.3,2 2.4,2.1 2.4,2.1 2.4,2.1 2.5,2.2 2.5,2.3 2.4,2.2 2.5,2.2 2.4,2.2 2.4,2.2 2.3,2.2 2.3,2.2 2.3,2.2 2.1,2.1 2.2,2.1 2,2.1 2.1,2.1 1.9,2 1.9,2 1.8,2 1.7,2 1.7,1.9 1.6,1.9 1.5,1.8 1.5,1.9 1.4,1.8 1.3,1.7 1.3,1.8 1.2,1.7 1.2,1.7 1.1,1.7 1,1.7 1,1.6 0.9,1.6 0.9,1.6 0.9,1.5 0.8,1.6 0.7,1.5 0.7,1.5 0.7,1.4 0.6,1.5 0.6,1.4 0.6,1.4 0.5,1.4 1,2.7 0.8,2.4 0.8,2.3 0.6,2.3 0.6,2.2 0.6,2.1 0.5,2.1 0.5,2 0.4,2 0.4,1.9 0.4,1.8 0.4,1.8 0.4,1.7 0.3,1.7 0.4,1.6 0.4,1.5 0.3,1.5 0.4,1.4 0.4,1.3 0.4,1.3 0.4,1.1 0.4,1.1 0.5,1 0.4,1 0.5,0.8 0.6,0.7 0.5,0.6 0.6,0.5 0.7,0.3 0.7,0.2 0.7,0.1 0.8,-0.2 0.9,-0.3 0.9,-0.5 1,-0.8 1.1,-1 1.1,-1.4 1.3,-1.6 1.3,-1.9 1.5,-2.4 1.6,-2.7 1.7,-3.2 1.8,-3.7 2,-4.2 2.1,-4.7 2.4,-5.3 2.5,-5.9 2.4,-5.8 2.6,-6.3 2.7,-6.7 2.9,-7.2 2.8,-6.8 2.8,-7.1 3,-7.2 3.1,-7.5 2.8,-6.7 2.9,-6.7 2.9,-6.7 2.9,-6.4 2.9,-6.3 2.7,-5.9 2.7,-5.6 2.3,-4.5 2.1,-4.2 2,-3.7 1.8,-3.2 1.5,-2.6 1.3,-2.2 1,-1.6 0.7,-1 0.4,-0.5 0.1,0 -0.2,0.6 -0.5,0.9 -0.8,1.4 -1,1.6 -1.2,1.8 -1.4,2.1 -1.6,2.3 -1.9,2.5 -1.7,2.4 -1.9,2.4 -2,2.6 -2.1,2.6 -2.2,2.7 -2.3,2.7 -2.3,2.7 -2.1,2.5 -2.1,2.4 -2.1,2.5 -2.2,2.4 -2.2,2.4 -2.1,2.4 -2.2,2.4 -2.1,2.3 -2.1,2.3 -2.1,2.3 -2,2.2 -2,2.2 -2,2.1 -1.9,2.2 -1.7,1.8 -1.7,1.9 -1.6,1.8 -1.6,1.8 -1.5,1.7 -1.5,1.8 -1.5,1.7 -1.4,1.6 -1.4,1.7 -1.3,1.6 -1.3,1.6 -1.3,1.5 -1.2,1.6 -1.2,1.5 -1.1,1.5 -1.1,1.5 -1,1.4 -1,1.5 -1,1.4 -0.9,1.4 -0.9,1.3 -0.9,1.4 -0.8,1.3 -0.8,1.4 -0.8,1.3 -0.7,1.3 -0.7,1.2 -0.7,1.3 -0.7,1.2 -0.6,1.2 -0.6,1.3 -0.6,1.2 -0.5,1.1 -0.5,1.2 -0.5,1.2 -0.5,1.1 -0.5,1.2 -0.4,1.1 -0.4,1.1 -0.5,1.1 -0.3,1.1 -0.4,1.1 -0.4,1 -0.3,1.1 -0.3,1 -0.4,1.1 -0.3,1 -0.3,1 -0.2,1 -0.3,1 -0.3,1 -0.2,1 -0.3,0.9 -0.2,1 -0.2,0.9 -0.2,1 -0.3,0.9 -0.2,0.9 -0.2,0.9 -0.2,0.9 -0.2,0.9 -0.2,0.9 -0.1,0.9 -0.2,0.8 -0.2,0.9 -0.2,0.8 -0.2,0.9 -0.1,0.8 -0.2,0.8 -0.2,0.8 -0.2,0.8 -0.1,0.8 -0.4,1.6 -0.3,1.5 -0.4,1.5 -0.3,1.4 -0.4,1.4 -0.3,1.4 -0.4,1.3 -0.6,1.6 -0.5,1.6 -0.6,1.5 -0.7,1.4 -0.7,1.3 -0.7,1.2 -0.8,1 -0.9,0.9 -0.9,0.8 -1,0.5 -1.1,0.3 -1.2,0.1 -1.3,-0.3 -1.5,-0.5 -1.5,-0.9 -1.7,-1.4 -1.8,-1.8 -1.8,-2 -2,-2.6 -2.1,-3.1 -2.3,-3.6 -2.4,-4.2 -2.4,-4.3 -2.5,-4.9 -2.7,-5.3 -2.8,-6 -2.7,-5.7 -2.8,-6.2 -2.9,-6.5 -3.1,-6.8 -3.1,-7.1 -3.1,-7.2 -3.2,-7.4 -3.1,-7.3 -2.8,-6.5 -2.7,-6.4 -2.5,-6.1 -2.5,-5.8 -2,-4.8 -1.8,-4.5 -1.6,-4.1 -1.3,-3.7 -1.1,-3.2 -0.8,-2.7 -0.6,-2.2 -0.2,-1.7 0.1,-1.2 0.4,-0.7 0.7,-0.3 0.9,0 1.1,0.5 1.3,0.7 1.6,0.9 1.7,1.3 1.9,1.4 2,1.6 2.2,1.8 2.3,1.9 2.4,2.1 2.5,2.1 2.5,2.3 2.6,2.2 2.6,2.4 2.6,2.3 2.6,2.4 2.6,2.4 2.6,2.4 2.6,2.4 2.5,2.3 2.4,2.4 2.4,2.3 2.3,2.3 2.3,2.3 2.2,2.2 2.1,2.2 2.1,2.2 1.9,2.2 1.9,2.1 1.8,2.1 1.7,2 1.7,2.1 1.5,1.9 1.5,2 1.4,1.9 1.4,1.9 1.2,1.9 1.2,1.8 1.2,1.8 1.1,1.8 1,1.8 0.9,1.7 0.9,1.7 0.9,1.7 0.8,1.6 0.8,1.7 0.7,1.6 0.6,1.5 0.7,1.6 0.5,1.5 0.6,1.5 0.5,1.5 0.5,1.5 0.5,1.4 0.4,1.4 0.8,2.8 0.6,2.4 0.6,2.3 0.5,2.2 0.5,2.2 0.4,2.1 0.4,2 0.4,2 0.3,1.9 0.4,1.8 0.3,1.8 0.3,1.7 0.4,1.7 0.3,1.6 0.3,1.5 0.4,1.4 0.3,1.4 0.4,1.3 0.4,1.3 0.4,1.1 0.4,1.1 0.5,1 0.5,0.8 0.5,0.8 0.5,0.7 0.6,0.5 0.7,0.4 0.7,0.2 0.7,0.1 0.8,-0.1 0.9,-0.3 0.9,-0.6 1,-0.8 1.1,-1 1.2,-1.4 1.3,-1.7 1.5,-2.1 1.5,-2.5 1.7,-3 1.8,-3.5 1.9,-4.1 2,-4.1 2,-4.7 2.3,-5.2 2.4,-5.7 2.6,-6.4 2.5,-6.1 2.6,-6.6 2.8,-7.1 3,-7.4 3.1,-7.8 2.9,-7.2 3,-7.4 3.2,-7.5 3.1,-7.4 3.2,-7.4 3.2,-7.3 3.2,-6.9 3.1,-6.6 2.7,-5.5 2.5,-5.1 2.4,-4.5 2.1,-4 2,-3.4 1.4,-2.5 1.3,-2 1,-1.5 0.7,-0.9 0.4,-0.4 0.1,0 -0.1,0.6 -0.5,0.9 -0.8,1.4 -1,1.7 -1.2,1.9 -1.4,2 -1.5,2.3 -1.8,2.5 -1.9,2.6 -2.1,2.7 -2.2,2.8 -2.3,2.9 -2.4,2.9 -2.5,3 -2.5,3 -2.6,3 -2.6,3 -2.7,2.9 -2.6,3 -2.7,2.9 -2.6,2.8 -2.6,2.8 -2.6,2.8 -2.5,2.7 -2.5,2.6 -2.4,2.6 -2.4,2.5 -2.2,2.5 -2.3,2.4 -2.1,2.3 -2.1,2.3 -2,2.3 -1.9,2.2 -1.9,2.2 -1.8,2.1 -1.7,2 -1.6,2 -1.6,2 -1.5,1.9 -1.4,1.9 -1.3,1.9 -1.3,1.8 -1.2,1.8 -1.2,1.8 -1.1,1.7 -1.1,1.7 -1,1.7 -0.9,1.6 -0.9,1.6 -0.8,1.6 -0.8,1.6 -0.8,1.5 -0.7,1.5 -0.7,1.5 -0.6,1.5 -1.2,2.9 -1,2.5 -0.9,2.5 -0.8,2.4 -0.7,2.3 -0.7,2.3 -0.6,2.2 -0.6,2.2 -0.6,2.1 -0.5,2 -0.6,2 -0.5,2 -0.5,1.9 -0.4,1.8 -0.5,1.8 -0.5,1.7 -0.5,1.6 -0.6,1.6 -0.5,1.5 -0.6,1.4 -0.5,1.3 -0.7,1.3 -0.6,1.2 -0.7,1 -0.7,0.9 -0.8,0.9 -0.9,0.6 -0.9,0.6 -0.9,0.3 -1,0.2 -1.1,0 -1.2,-0.3 -1.3,-0.5 -1.4,-0.8 -1.4,-1.1 -1.6,-1.5 -1.7,-1.9 -1.8,-2.2 -2,-2.7 -2.1,-3.2 -2.2,-3.7 -2.4,-4.2 -2.6,-4.7 -2.4,-4.8 -2.6,-5.2 -2.7,-5.6 -2.8,-6 -2.9,-6.4 -2.7,-6 -2.8,-6.2 -2.7,-6.3 -2.8,-6.4 -2.8,-6.4 -2.7,-6.3 -2.6,-6.1 -2.4,-5.9 -2.1,-5 -1.9,-4.7 -1.6,-4.3 -1.5,-3.8 -1.2,-3.4 -0.9,-3 -0.6,-2.4 -0.3,-1.9 0,-1.5 0.3,-0.9 0.6,-0.5 0.9,0 1,0.3 1.3,0.6 1.5,0.9 1.7,1.1 1.7,1.3 1.8,1.4 1.9,1.5 2,1.7 2.1,1.8 2.2,1.9 2.2,2 2.3,2 2.3,2.1 2.3,2.1 2.3,2.1 2.3,2.2 2.3,2.2 2.2,2.1 2.3,2.2 2.1,2.2 2.2,2.2 2.1,2.1 2,2.1 2,2.2 1.9,2.1 1.9,2 1.8,2.1 1.7,2 1.7,2 1.6,2 1.5,1.9 1.5,2 1.3,1.9 1.4,1.8 1.2,1.9 1.2,1.8 1.2,1.8 1.1,1.8 1,1.7 0.9,1.8 1,1.7 0.8,1.7 0.8,1.6 0.8,1.7 0.7,1.6 0.7,1.6 0.6,1.6 0.6,1.5 0.6,1.6 0.5,1.5 0.5,1.5 0.4,1.5 0.5,1.4 0.4,1.5 0.3,1.4 0.4,1.4 0.3,1.4 0.3,1.4 0.5,2.7 0.5,2.3 0.3,2.3 0.3,2.3 0.3,2.2 0.3,2.2 0.2,2.1 0.1,2 0.2,2 0.1,2 0.1,1.9 0.1,1.9 0.1,1.9 0,1.8 0.1,1.7 0,1.8 0,1.7 0,1.6 0,1.6 0,1.6 0,1.5 0,1.6 0,1.4 0,1.5 -0.1,1.4 0,1.4 -0.1,1.3 0,1.4 -0.1,1.3 0,1.3 -0.1,1.2 -0.1,1.2 -0.1,1.2 -0.1,1.2 -0.1,1.2 -0.1,1.1 -0.1,1.1 -0.2,1.1 -0.1,1.1 -0.2,1 -0.1,1 -0.2,1.1 -0.2,0.9 -0.3,1 -0.2,0.9 -0.3,1 -0.3,0.9 -0.3,0.8 -0.3,0.9 -0.4,0.8 -0.4,0.8 -0.5,0.7 -0.5,0.7 -0.5,0.6 -0.6,0.6 -0.7,0.5 -0.7,0.4 -0.8,0.3 -0.8,0.2 -0.9,0 -1.1,-0.2 -1.1,-0.4 -1.2,-0.6 -1.4,-1 -1.3,-1.2 -1.5,-1.5 -1.6,-1.9 -1.8,-2.4 -1.8,-2.7 -1.9,-3.1 -1.8,-3.2 -2,-3.8 -2.2,-4.3 -2.3,-4.8 -2.5,-5.4 -2.7,-6.1 -2.9,-6.7 -3.2,-7.4 -3,-7.3 -3.2,-7.7 -3.4,-8.3 -3.5,-8.7 -3.8,-9.2 -3.8,-9.5 -3.6,-8.7 -3.7,-8.9 -3.7,-9 -3.7,-8.8 -3.7,-8.8 -3.6,-8.4 -3.5,-8.1 -3,-6.9 -2.9,-6.5 -2.6,-6 -2.4,-5.4 -2.1,-4.8 -1.6,-3.8 -1.4,-3.3 -1,-2.7 -0.8,-2.2 -0.4,-1.7 -0.1,-1.2 0.2,-0.6 0.5,-0.3 0.7,0.2 1,0.5 1.2,0.8 1.5,1.1 1.7,1.3 1.6,1.4 1.8,1.5 2,1.7 2.1,1.8 2.2,1.9 2.3,2 2.4,2.1 2.4,2.1 2.6,2.2 2.6,2.2 2.6,2.2 2.7,2.2 2.7,2.3 2.7,2.2 2.7,2.2 2.7,2.2 2.7,2.2 2.7,2.1 2.7,2.1 2.6,2.1 2.6,2.1 2.6,2 2.5,1.9 2.5,2 2.4,1.9 2.4,1.8 2.3,1.8 2.3,1.8 2.2,1.7 4.2,3.3 3.6,2.9 3.4,2.7 3.3,2.6 3,2.5 2.9,2.5 2.6,2.3 2.5,2.2 2.4,2.1 2.1,2.1 2.1,1.9 1.9,1.9 1.7,1.8 1.7,1.8 1.5,1.7 1.5,1.6 1.3,1.5 1.2,1.5 1.2,1.4 1.1,1.4 1,1.2 1,1.3 0.9,1.1 0.8,1.1 0.9,1.1 0.7,0.9 0.8,0.9 0.7,0.8 0.7,0.8 0.7,0.7 1.3,1.1 1.2,0.8 1.2,0.5 1.2,0.3 1.2,-0.1 1.2,-0.4 1.4,-0.6 1.3,-1.1 1.5,-1.4 1.5,-1.7 1.6,-2.1 1.8,-2.6 1.8,-2.8 1.9,-3.3 2,-3.6 1.9,-3.6 1.9,-3.7 1.8,-3.6 1.8,-3.7 1.8,-3.7 1.8,-3.8 1.8,-3.8 1.8,-3.7 1.7,-3.6 1.6,-3.4 1.4,-3.1 1.4,-2.9 1,-2.3 0.9,-2 0.7,-1.6 0.6,-1.4 0.3,-1 0.1,-0.6 -0.1,-0.3 -0.2,0.1 -0.5,0.4 -0.7,0.7 -0.9,1 -1.1,1.2 -1.2,1.5 -1.2,1.5 -1.3,1.7 -1.4,1.8 -1.5,1.9 -1.5,2 -1.6,2 -1.6,2.1 -1.6,2.2 -1.6,2.2 -1.7,2.2 -1.6,2.2 -1.5,2.2 -1.6,2.2 -1.4,2.2 -1.5,2.2 -1.4,2.1 -1.3,2.1 -1.2,2.1 -1.2,2.1 -1.2,2 -1,1.9 -1,1.9 -0.9,1.9 -0.9,1.8 -0.7,1.8 -0.7,1.7 -0.7,1.7 -0.5,1.6 -0.5,1.5 -0.5,1.5 -0.4,1.4 -0.3,1.3 -0.2,1.3 -0.2,1.2 -0.1,1.1 -0.1,1.1 0,1 0,0.8 0.1,0.8 0.1,0.8 0.2,0.6 0.3,0.5 0.3,0.4 0.3,0.3 0.4,0.2 0.5,0 0.5,0 0.5,-0.2 0.6,-0.4 0.7,-0.4 0.7,-0.6 0.8,-0.8 0.8,-1 0.9,-1.1 0.9,-1.2 1,-1.5 1.1,-1.6 1.1,-1.8 1.1,-2 1.3,-2.2 1.2,-2.3 1.4,-2.5 1.3,-2.7 1.5,-2.8 1.5,-3 1.5,-3.1 1.5,-3.3 1.6,-3.3 1.6,-3.4 1.6,-3.4 1.6,-3.4 1.6,-3.5 1.5,-3.3 1.5,-3.3 1.5,-3.1 1.4,-3 1.3,-2.8 1.1,-2.5 1.1,-2.3 0.9,-2 0.8,-1.7 0.5,-1.4 0.5,-1.1 0.2,-0.7 0,-0.5 -0.1,-0.1 -0.4,0.2 -0.5,0.5 -0.8,0.8 -0.9,1 -1,1.3 -1.2,1.5 -1.3,1.6 -1.5,1.9 -1.5,1.9 -1.7,2.1 -1.7,2.2 -1.7,2.2 -1.8,2.3 -1.8,2.4 -1.8,2.4 -1.8,2.4 -1.8,2.4 -1.7,2.3 -1.7,2.4 -1.6,2.4 -1.6,2.3 -1.5,2.3 -1.5,2.3 -1.3,2.2 -1.4,2.2 -1.2,2.2 -1.1,2.1 -1.1,2 -1,2 -0.9,2 -0.9,1.9 -0.8,1.8 -0.7,1.8 -0.6,1.8 -0.5,1.6 -0.5,1.6 -0.5,1.6 -0.3,1.5 -0.3,1.4 -0.2,1.3 -0.2,1.3 -0.1,1.2 -0.1,1.1 0,1.1 0.1,1 0.1,0.8 0.1,0.8 0.2,0.7 0.3,0.6 0.3,0.5 0.4,0.3 0.4,0.3 0.4,0.1 0.6,0 0.5,-0.1 0.7,-0.2 0.6,-0.5 0.8,-0.5 0.8,-0.8 0.8,-0.9 0.9,-1 1,-1.3 1,-1.4 1.1,-1.7 1.1,-1.8 1.2,-2.1 1.3,-2.2 1.3,-2.5 1.4,-2.6 1.5,-2.9 1.5,-3 1.6,-3.2 1.6,-3.4 1.7,-3.5 1.7,-3.7 1.8,-3.8 1.7,-3.8 1.8,-3.9 1.8,-3.8 1.8,-3.9 1.7,-3.7 1.7,-3.6 1.6,-3.5 1.5,-3.3 1.4,-3 1.3,-2.8 1.1,-2.4 1,-2.1 0.8,-1.7 0.6,-1.4 0.3,-1 0.2,-0.6 -0.1,-0.3 -0.3,0.2 -0.5,0.4 -0.7,0.8 -0.9,1.1 -1.2,1.4 -1.3,1.6 -1.4,1.8 -1.6,2 -1.7,2.2 -1.8,2.2 -1.9,2.4 -1.9,2.5 -2,2.5 -2,2.6 -2.1,2.6 -2,2.6 -1.9,2.6 -2,2.6 -1.9,2.6 -1.8,2.6 -1.8,2.5 -1.6,2.5 -1.7,2.5 -1.5,2.4 -1.5,2.3 -1.3,2.4 -1.3,2.2 -1.2,2.2 -1.1,2.2 -1.1,2.1 -0.9,2.1 -0.9,2 -0.8,1.9 -0.7,1.9 -0.6,1.8 -0.6,1.8 -0.5,1.7 -0.4,1.7 -0.3,1.6 -0.3,1.5 -0.3,1.5 -0.2,1.3 -0.1,1.4 0,1.2 0,1.2 0.1,2.1 0.3,1.6 0.5,1.2 0.6,1 0.8,0.6 0.9,0.1 1,-0.2 1.2,-0.6 1.2,-1 1.2,-1.3 1.4,-1.7 1.6,-2.1 1.7,-2.6 1.8,-3.1 2,-3.5 2.1,-4.1 2.1,-4.1 2.2,-4.4 2,-4.4 2.2,-4.6 2.2,-4.8 2.3,-5 2.4,-5.2 2.3,-5.3 2.4,-5.2 2.4,-5.1 2.3,-5 2.2,-4.8 1.8,-4 1.7,-3.6 1.5,-3 1.2,-2.6 1.1,-2.2 0.8,-1.9 0.7,-1.4 0.4,-1.1 0.2,-0.6 -0.1,-0.2 -0.3,0.2 -0.5,0.5 -0.7,0.9 -0.9,1 -1.1,1.3 -1.2,1.6 -1.3,1.6 -1.5,1.9 -1.6,2 -1.7,2.1 -1.7,2.3 -1.9,2.3 -1.9,2.3 -1.9,2.5 -2,2.4 -1.9,2.5 -2,2.5 -1.9,2.5 -2,2.4 -1.9,2.5 -1.8,2.4 -1.8,2.4 -1.8,2.4 -1.7,2.4 -1.6,2.3 -1.5,2.3 -1.5,2.2 -1.4,2.3 -1.3,1.9 -1.1,1.9 -1.1,1.9 -1.1,1.9 -1,1.8 -0.9,1.8 -0.9,1.7 -0.8,1.8 -0.7,1.7 -0.8,1.6 -0.6,1.6 -0.6,1.6 -0.6,1.6 -0.5,1.5 -0.5,1.5 -0.4,1.5 -0.4,1.4 -0.4,1.4 -0.3,1.3 -0.2,1.3 -0.3,1.3 -0.1,1.2 -0.2,1.2 -0.1,1.2 -0.1,1.1 -0.1,1.1 0,1.1 0,1 0,0.9 0.1,0.9 0.1,0.9 0.1,0.8 0.3,1.5 0.3,1.1 0.4,0.8 0.5,0.7 0.5,0.5 0.5,0.4 0.7,0.2 0.7,0.1 0.8,-0.2 0.8,-0.4 0.9,-0.6 1,-0.8 1.1,-1.1 1.2,-1.4 1.2,-1.7 1.4,-2 1.5,-2.3 1.5,-2.7 1.7,-3 1.8,-3.4 1.9,-3.8 2,-4.1 2.1,-4.6 2.3,-4.8 2.4,-5.3 2.4,-5.5 2.3,-5.2 2.4,-5.3 2.4,-5.5 2.5,-5.5 2.4,-5.4 2.4,-5.4 2.4,-5.2 2.3,-4.9 2.2,-4.7 1.8,-3.8 1.7,-3.4 1.3,-2.8 1.2,-2.3 1,-2.1 0.8,-1.6 0.6,-1.2 0.3,-0.8 0.1,-0.4 -0.1,0 -0.3,0.3 -0.6,0.7 -0.8,1 -1,1.3 -1.2,1.5 -1.3,1.8 -1.6,2 -1.7,2.2 -1.9,2.3 -1.9,2.5 -2.1,2.5 -2.1,2.7 -2.2,2.7 -2.2,2.7 -2.3,2.7 -2.2,2.8 -2.3,2.7 -2.2,2.8 -2.2,2.7 -2.2,2.7 -2.1,2.7 -1.8,2.3 -1.8,2.4 -1.7,2.2 -1.7,2.3 -1.6,2.2 -1.5,2.2 -1.5,2.2 -1.4,2.1 -1.4,2.1 -1.3,2 -1.2,2 -1.2,2 -1,2 -1.1,1.9 -0.9,1.8 -0.9,1.9 -0.9,1.8 -0.8,1.7 -0.7,1.8 -0.7,1.7 -0.6,1.7 -0.6,1.6 -0.6,1.6 -0.5,1.6 -0.4,1.6 -0.4,1.5 -0.4,1.5 -0.3,1.4 -0.3,1.5 -0.3,1.3 -0.2,1.4 -0.2,1.4 -0.2,1.3 -0.1,1.2 -0.1,1.3 -0.1,1.2 -0.1,1.6 0,1.5 0,1.5 0.1,1.4 0.1,1.4 0.2,1.3 0.2,1.1 0.2,1.2 0.3,1 0.3,0.9 0.4,0.8 0.4,0.8 0.5,0.6 0.5,0.5 0.5,0.4 0.6,0.3 0.7,0.1 0.7,-0.1 0.8,-0.2 0.8,-0.4 0.9,-0.6 0.9,-0.8 1,-1 1.1,-1.3 1.2,-1.5 1.3,-1.8 1.3,-2.1 1.4,-2.5 1.6,-2.7 1.6,-3.2 1.8,-3.5 1.8,-3.8 2,-4.3 2.2,-4.7 2.2,-5.1 2.4,-5.4 2.5,-5.8 2.6,-6.2 2.7,-6.4 2.9,-6.6 2.6,-6.1 2.6,-6.2 2.7,-6.2 2.7,-6 2.7,-6 2.6,-5.7 2.5,-5.3 2.4,-5 2,-4 1.8,-3.6 1.7,-3.2 1.4,-2.6 1.1,-2.1 0.9,-1.6 0.6,-1.1 0.2,-0.5 -0.3,0.5 -0.7,0.9 -0.8,1.2 -1.1,1.5 -1.1,1.6 -1.3,1.7 -1.5,2 -1.6,2.1 -1.7,2.2 -1.8,2.4 -2,2.4 -2,2.5 -2.1,2.6 -2.2,2.6 -2.2,2.6 -2.2,2.6 -2.2,2.6 -2.3,2.7 -2.2,2.6 -2.2,2.6 -2.2,2.5 -2.2,2.6 -2.1,2.5 -2.1,2.5 -2.1,2.4 -1.9,2.4 -2,2.3 -1.8,2.3 -1.8,2.3 -1.7,2.2 -1.7,2.2 -1.6,2.2 -1.6,2.1 -1.4,2 -1.4,2.1 -1.3,2 -1.3,1.9 -1.2,2 -1.2,1.9 -1.1,1.8 -1,1.9 -0.9,1.8 -1,1.7 -0.8,1.8 -0.8,1.7 -0.8,1.7 -0.7,1.6 -0.7,1.7 -0.6,1.6 -0.6,1.6 -0.5,1.6 -0.5,1.5 -0.5,1.5 -0.4,1.5 -0.4,1.5 -0.4,1.5 -0.4,1.4 -0.3,1.4 -0.3,1.4 -0.3,1.4 -0.4,2.7 -0.4,2.3 -0.3,2.2 -0.2,2.1 -0.2,2.1 -0.2,2 -0.1,2 0,1.9 -0.1,1.9 0,1.8 0,1.8 0,1.7 0.1,1.7 0.1,1.6 0.1,1.5 0.1,1.5 0.2,1.5 0.2,1.4 0.2,1.3 0.2,1.2 0.3,1.2 0.3,1.2 0.3,1 0.3,1 0.4,0.9 0.4,0.9 0.4,0.7 0.5,0.6 0.5,0.6 0.6,0.4 0.6,0.3 0.7,0.1 0.7,0 0.7,-0.2 0.9,-0.4 0.9,-0.7 1,-0.9 1.1,-1.1 1.2,-1.5 1.3,-1.8 1.4,-2.2 1.5,-2.7 1.7,-3.1 1.8,-3.7 1.8,-3.8 2,-4.4 2.1,-4.8 2.2,-5.5 2.3,-5.5 2.3,-5.9 2.6,-6.5 2.7,-7 2.9,-7.5 3.1,-7.9 2.9,-7.5 3.1,-7.8 3.2,-8.1 3.3,-8.2 3.4,-8.3 3.5,-8.2 3.5,-8.1 3.5,-7.9 3.2,-6.8 3,-6.3 2.9,-6 2.8,-5.3 2.3,-4.4 2.2,-3.8 1.9,-3.2 1.6,-2.6 1.4,-2.1 1.1,-1.4 0.7,-0.9 0.4,-0.2 0.1,0.3 -0.2,0.8 -0.6,1.2 -0.8,1.6 -1.1,1.8 -1.1,1.9 -1.4,2.1 -1.5,2.3 -1.7,2.5 -1.9,2.5 -1.8,2.4 -1.9,2.5 -2,2.5 -2,2.6 -2.2,2.6 -2.2,2.6 -2.2,2.7 -2.3,2.6 -2.3,2.6 -2.3,2.6 -2.4,2.6 -2.3,2.5 -2.4,2.6 -2.3,2.4 -2.3,2.5 -2.4,2.4 -2.2,2.4 -2.3,2.3 -2.2,2.2 -2.2,2.3 -2.1,2.1 -2.1,2.2 -2,2.1 -2,2 -1.9,2 -1.9,2 -1.8,1.9 -1.8,1.9 -1.7,1.8 -1.7,1.8 -1.6,1.8 -1.6,1.7 -1.5,1.7 -1.4,1.7 -1.4,1.6 -1.4,1.6 -1.3,1.6 -1.2,1.5 -1.2,1.5 -1.2,1.5 -1.1,1.5 -1.1,1.4 -1,1.4 -1,1.4 -0.9,1.4 -0.9,1.3 -0.9,1.4 -0.8,1.3 -0.8,1.3 -0.7,1.2 -0.7,1.3 -0.7,1.2 -0.7,1.3 -0.6,1.2 -0.6,1.1 -0.6,1.2 -0.6,1.2 -0.5,1.1 -0.5,1.1 -0.5,1.1 -0.5,1.1 -0.5,1.1 -0.4,1.1 -0.4,1 -0.5,1.1 -0.7,2 -0.8,2 -0.7,1.9 -0.6,1.9 -0.6,1.8 -0.6,1.7 -0.6,1.7 -0.6,1.7 -0.6,1.6 -0.5,1.5 -0.6,1.4 -0.6,1.4 -0.6,1.3 -0.6,1.2 -0.6,1.2 -0.6,1 -0.7,1 -0.7,0.8 -0.7,0.8 -0.8,0.6 -0.8,0.6 -0.9,0.3 -0.9,0.3 -0.9,0.1 -1,-0.1 -1.1,-0.3 -1.1,-0.5 -1.2,-0.7 -1.3,-0.9 -1.3,-1.2 -1.4,-1.5 -1.6,-1.7 -1.6,-2 -1.6,-2.4 -1.8,-2.7 -1.9,-3 -2,-3.4 -2.1,-3.7 -2.2,-4.1 -2.2,-4.4 -2.4,-4.8 -2.4,-5 -2.5,-5.3 -2.6,-5.5 -2.5,-5.6 -2.6,-5.8 -2.5,-5.8 -2.5,-5.7 -2.4,-5.6 -2.2,-5.3 -1.8,-4.6 -1.7,-4.2 -1.4,-3.6 -1.1,-3.2 -1,-2.9 -0.7,-2.5 -0.5,-2.2 -0.3,-1.7 -0.1,-1.4 0.2,-1 0.5,-0.6 0.7,-0.3 0.9,0.1 1.1,0.4 1.2,0.6 1.4,0.8 1.5,1 1.6,1.2 1.8,1.4 1.8,1.5 1.9,1.6 2,1.8 2,1.8 2.1,1.9 2.1,2 2.1,2.1 2.2,2 2.1,2.1 2.1,2.2 2.1,2.1 2,2.1 2,2.2 2,2.1 1.9,2.2 1.8,2.1 1.8,2.1 1.7,2.1 1.7,2.1 1.6,2.1 1.5,2 1.4,2.1 1.4,2 1.4,2 1.2,1.9 1.2,2 1.1,1.9 1.1,1.9 1,1.8 0.9,1.9 0.9,1.8 0.8,1.8 0.8,1.8 0.7,1.7 0.7,1.8 0.6,1.7 0.6,1.7 0.5,1.6 0.5,1.7 0.4,1.6 0.4,1.6 0.4,1.5 0.3,1.6 0.6,3 0.4,2.7 0.3,2.5 0.2,2.4 0.2,2.3 0.1,2.3 0,2.2 0,2.1 -0.1,2.1 -0.2,2 -0.2,2 -0.2,1.9 -0.3,1.8 -0.4,1.7 -0.4,1.7 -0.4,1.5 -0.5,1.5 -0.6,1.3 -0.6,1.3 -0.7,1.1 -0.8,1 -0.9,0.8 -0.9,0.6 -1,0.5 -1.1,0.2 -1.2,0 -1.3,-0.4 -1.4,-0.6 -1.5,-1 -1.7,-1.4 -1.8,-1.9 -2,-2.4 -2.2,-3 -2.1,-3.1 -2.2,-3.7 -2.5,-4.3 -2.6,-4.8 -2.4,-4.9 -2.7,-5.3 -2.4,-5.2 -2.6,-5.5 -2.7,-5.9 -2.8,-6.1 -2.8,-6.4 -2.9,-6.6 -2.9,-6.7 -3,-6.8 -2.8,-6.7 -2.8,-6.5 -2.7,-6.4 -2.3,-5.4 -2.1,-5.1 -1.7,-4.3 -1.5,-4 -1.3,-3.5 -1.2,-3.2 -0.8,-2.7 -0.6,-2.3 -0.4,-1.9 0,-1.4 0.2,-1 0.4,-0.6 0.8,-0.2 1,0.2 1.1,0.4 1.3,0.7 1.4,1 1.7,1.1 1.8,1.4 1.9,1.5 2,1.7 2.2,1.8 2.2,1.9 2.3,2 2.3,2 2.4,2.2 2.4,2.2 2.4,2.2 2.4,2.2 2.5,2.2 2.4,2.3 2.3,2.2 2.3,2.3 2.3,2.2 2.2,2.2 2.2,2.2 2.1,2.2 2.1,2.2 2,2.1 1.9,2.1 1.8,2.1 1.8,2.1 1.7,2 1.6,2 1.6,1.9 1.5,2 1.4,1.9 1.3,1.9 1.3,1.9 1.2,1.8 1.2,1.8 1.1,1.8 1,1.7 1,1.8 0.9,1.7 0.9,1.7 0.8,1.6 0.8,1.7 0.7,1.6 0.7,1.6 0.7,1.6 0.6,1.5 0.5,1.6 0.6,1.5 0.5,1.5 0.4,1.4 0.5,1.5 0.4,1.4 0.4,1.4 0.7,2.8 0.5,2.4 0.5,2.4 0.4,2.3 0.4,2.3 0.4,2.2 0.3,2.1 0.3,2.1 0.2,2.1 0.3,2 0.2,1.9 0.2,1.9 0.2,1.8 0.2,1.8 0.1,1.8 0.2,1.7 0.2,1.6 0.2,1.6 0.1,1.6 0.2,1.5 0.2,1.4 0.2,1.4 0.2,1.4 0.2,1.3 0.2,1.2 0.3,1.2 0.2,1.2 0.3,1.1 0.3,1 0.3,0.9 0.4,0.9 0.3,0.8 0.4,0.8 0.5,0.6 0.4,0.6 0.5,0.4 0.6,0.4 0.6,0.2 0.6,0 0.7,-0.1 0.8,-0.2 0.8,-0.5 1,-0.7 1,-0.9 1,-1.3 1.2,-1.5 1.3,-2 1.5,-2.3 1.5,-2.8 1.6,-3 1.6,-3.5 1.8,-4 2,-4.5 2,-4.6 2.1,-5.2 2.2,-5.7 2.5,-6.3 2.6,-6.9 2.5,-6.7 2.8,-7.2 2.9,-7.6 3,-8.1 3.3,-8.5 3.4,-8.8 3.2,-8.2 3.3,-8.3 3.4,-8.3 3.5,-8.3 3.5,-8.1 3.5,-7.9 3.5,-7.6 3.4,-7.1 3,-6 2.8,-5.4 2.7,-4.8 2.4,-4.2 1.9,-3.2 1.7,-2.7 1.5,-2.1 1.2,-1.5 0.9,-0.9 0.5,-0.4 0.3,0.2 -0.1,0.6 -0.4,1.2 -0.6,1.3 -0.9,1.7 -1.1,2 -1.3,2.3 -1.6,2.4 -1.6,2.4 -1.7,2.5 -1.9,2.6 -2,2.7 -2.1,2.8 -2.2,2.8 -2.3,2.9 -2.4,2.9 -2.5,2.9 -2.5,2.9 -2.5,2.8 -2.6,2.9 -2.6,2.8 -2.6,2.8 -2.6,2.8 -2.6,2.7 -2.6,2.6 -2.6,2.6 -2.5,2.5 -2.5,2.5 -2.4,2.5 -2.4,2.3 -2.4,2.3 -2.3,2.3 -2.3,2.2 -2.1,2.2 -2.2,2.1 -2.1,2 -2,2 -1.9,1.9 -1.9,2 -1.8,1.8 -1.8,1.8 -1.7,1.8 -1.6,1.7 -1.6,1.7 -1.5,1.7 -1.5,1.6 -1.4,1.6 -1.4,1.5 -1.3,1.6 -1.2,1.5 -1.2,1.4 -1.1,1.5 -1.1,1.4 -1.1,1.4 -1,1.3 -0.9,1.4 -1,1.3 -0.8,1.3 -0.9,1.3 -0.8,1.2 -0.8,1.2 -0.7,1.2 -0.7,1.2 -0.7,1.2 -0.6,1.2 -0.7,1.1 -0.7,1.3 -0.6,1.3 -0.7,1.3 -0.6,1.3 -0.6,1.2 -0.6,1.3 -0.5,1.1 -1.1,2.4 -0.9,2.2 -0.9,2.1 -0.9,2 -0.8,1.9 -0.9,1.8 -0.8,1.7 -0.8,1.5 -0.8,1.4 -1,1.5 -1,1.3 -1,1 -1,0.7 -1.1,0.6 -1.1,0.3 -1.2,0.1 -1.3,-0.2 -1.3,-0.5 -1.5,-0.8 -1.6,-1.1 -1.6,-1.6 -1.8,-1.9 -1.9,-2.4 -2.1,-2.8 -2.1,-3.2 -2.3,-3.8 -2.2,-3.7 -2.2,-4.1 -2.1,-4 -2.2,-4.3 -2.2,-4.5 -2.2,-4.6 -2.3,-4.8 -2.2,-4.9 -2.2,-5 -2.2,-4.9 -2,-4.8 -2,-4.6 -1.8,-4.5 -1.4,-3.7 -1.3,-3.4 -1.1,-3.1 -0.8,-2.8 -0.7,-2.4 -0.4,-2 -0.1,-1.6 0.1,-1.2 0.4,-0.8 0.6,-0.4 0.9,-0.1 1.1,0.3 1.2,0.6 1.3,0.7 1.5,1.1 1.6,1.2 1.7,1.3 1.8,1.6 1.9,1.6 2,1.8 2,1.9 2,2 2.1,2 2,2.1 2.1,2.2 2,2.1 2,2.2 2,2.3 1.9,2.2 1.8,2.2 1.8,2.2 1.7,2.2 1.7,2.2 1.6,2.2 1.5,2.2 1.4,2.1 1.4,2.2 1.3,2.1 1.2,2 1.1,2.1 1.1,2"
         id="path30"
         style="stroke:#000000;stroke-width:0.2;stroke-miterlimit:4;stroke-opacity:1;stroke-dasharray:none"
         inkscape:connector-curvature="0" />
    </g>
  </a>
  <path
     style="fill:#ffffff;fill-opacity:1;stroke:#000000;stroke-width:1px;stroke-linecap:butt;stroke-linejoin:miter;stroke-opacity:1"
     d="m 112.89161,119.30031 c -7.71093,22.7718 -14.60225,50.41775 -20.014067,72.58864 -1.93608,9.08799 -5.786731,18.02733 -5.556361,27.31641 0.0649,2.61851 -0.58377,6.93437 1.94606,7.61313 2.529831,0.67877 4.128441,-3.38231 5.495618,-5.61649 6.04397,-9.87679 7.6543,-21.86331 11.05197,-32.93291 4.31251,-14.05008 7.71438,-28.36549 11.83861,-42.47199 4.5145,-15.44142 0.002,-0.55092 5.8661,-21.47028 0.75314,-2.68699 3.47819,-12.48674 -0.94492,-14.21553 -4.14439,-1.61984 -8.16299,4.70011 -9.68301,9.18902 z"
     id="path3779"
     inkscape:connector-curvature="0"
     sodipodi:nodetypes="scaaaassas" />
  <path
     style="fill:none;stroke:#000000;stroke-width:0.5;stroke-linecap:butt;stroke-linejoin:miter;stroke-miterlimit:4;stroke-opacity:1;stroke-dasharray:none"
     d="m 123.14407,112.4778 c 0,0 0.97632,-3.17619 1.926,-4.50471 1.23466,-1.7272 4.73095,-4.26454 4.73095,-4.26454"
     id="path3791"
     inkscape:connector-curvature="0"
     sodipodi:nodetypes="cac" />
  <path
     style="fill:none;stroke:#000000;stroke-width:0.5;stroke-linecap:butt;stroke-linejoin:miter;stroke-miterlimit:4;stroke-opacity:1;stroke-dasharray:none"
     d="m 119.92643,113.10209 c 0,0 0.48197,-2.76032 0.28683,-4.12467 -0.23453,-1.6402 -1.72071,-4.66331 -1.72071,-4.66331"
     id="path3793"
     inkscape:connector-curvature="0"
     sodipodi:nodetypes="cac" />
  <path
     sodipodi:type="arc"
     style="fill:#ffffff;fill-opacity:1;fill-rule:nonzero;stroke:#000000;stroke-width:0.2;stroke-linecap:square;stroke-miterlimit:4;stroke-opacity:1;stroke-dasharray:none;stroke-dashoffset:0"
     id="path3795"
     sodipodi:cx="296.90155"
     sodipodi:cy="215.61746"
     sodipodi:rx="0.66261292"
     sodipodi:ry="0.66261292"
     d="m 297.56416,215.61746 a 0.66261292,0.66261292 0 1 1 -1.32522,0 0.66261292,0.66261292 0 1 1 1.32522,0 z"
     transform="matrix(0.99402307,0.10917013,-0.10917013,0.99402307,-151.8823,-129.96082)" />
  <path
     transform="matrix(1.0754884,0.11811719,-0.11811719,1.0754884,-170.65357,-149.9568)"
     d="m 297.56416,215.61746 a 0.66261292,0.66261292 0 1 1 -1.32522,0 0.66261292,0.66261292 0 1 1 1.32522,0 z"
     sodipodi:ry="0.66261292"
     sodipodi:rx="0.66261292"
     sodipodi:cy="215.61746"
     sodipodi:cx="296.90155"
     id="path3797"
     style="fill:#ffffff;fill-opacity:1;fill-rule:nonzero;stroke:#000000;stroke-width:0.18485054;stroke-linecap:square;stroke-miterlimit:4;stroke-opacity:1;stroke-dasharray:none;stroke-dashoffset:0"
     sodipodi:type="arc" />
  <path
     style="fill:none;stroke:#000000;stroke-width:0.25;stroke-linecap:butt;stroke-linejoin:miter;stroke-miterlimit:4;stroke-opacity:1;stroke-dasharray:none"
     d="m 121.55001,117.87965 c 0,0 1.57002,1.44027 1.10585,2.06997 -0.37422,0.50768 -1.85793,-0.35788 -1.85793,-0.35788"
     id="path3799"
     inkscape:connector-curvature="0"
     sodipodi:nodetypes="cac" />
  <g
     id="g3823"
     transform="translate(-183.69329,-94.997179)">
    <path
       sodipodi:nodetypes="caac"
       inkscape:connector-curvature="0"
       id="path3801"
       d="m 302.93625,216.05399 c 0,0 0.93594,0.93255 1.54647,1.09282 0.47057,0.12351 1.00052,0.0331 1.45203,-0.14815 0.39581,-0.15897 1.00936,-0.78648 1.00936,-0.78648"
       style="fill:none;stroke:#000000;stroke-width:0.25;stroke-linecap:butt;stroke-linejoin:miter;stroke-miterlimit:4;stroke-opacity:1;stroke-dasharray:none" />
    <path
       sodipodi:nodetypes="cac"
       inkscape:connector-curvature="0"
       id="path3803"
       d="m 302.60018,216.25423 c 0,0 0.28609,-0.12832 0.37962,-0.24673 0.0798,-0.10113 0.12971,-0.36394 0.12971,-0.36394"
       style="fill:none;stroke:#000000;stroke-width:0.1;stroke-linecap:butt;stroke-linejoin:miter;stroke-miterlimit:4;stroke-opacity:1;stroke-dasharray:none" />
    <path
       sodipodi:nodetypes="cac"
       inkscape:connector-curvature="0"
       id="path3803-8"
       d="m 306.73712,215.85673 c 0,0 0.11826,0.29038 0.23338,0.38799 0.0983,0.0833 0.35916,0.1423 0.35916,0.1423"
       style="fill:none;stroke:#000000;stroke-width:0.1;stroke-linecap:butt;stroke-linejoin:miter;stroke-miterlimit:4;stroke-opacity:1;stroke-dasharray:none" />
  </g>
</svg>
