<?xml version="1.0" encoding="UTF-8" standalone="no"?>
<!-- Created with Inkscape (http://www.inkscape.org/) -->

<svg
   xmlns:dc="http://purl.org/dc/elements/1.1/"
   xmlns:cc="http://creativecommons.org/ns#"
   xmlns:rdf="http://www.w3.org/1999/02/22-rdf-syntax-ns#"
   xmlns:svg="http://www.w3.org/2000/svg"
   xmlns="http://www.w3.org/2000/svg"
   xmlns:sodipodi="http://sodipodi.sourceforge.net/DTD/sodipodi-0.dtd"
   xmlns:inkscape="http://www.inkscape.org/namespaces/inkscape"
   width="1225.7533"
   height="570.50012"
   id="svg2"
   version="1.1"
   inkscape:version="0.48.5 r10040"
   sodipodi:docname="New document 1">
  <defs
     id="defs4" />
  <sodipodi:namedview
     id="base"
     pagecolor="#ffffff"
     bordercolor="#666666"
     borderopacity="1.0"
     inkscape:pageopacity="0.0"
     inkscape:pageshadow="2"
     inkscape:zoom="0.7"
     inkscape:cx="638.84746"
     inkscape:cy="485.6609"
     inkscape:document-units="px"
     inkscape:current-layer="layer1"
     showgrid="false"
     fit-margin-top="0"
     fit-margin-left="0"
     fit-margin-right="0"
     fit-margin-bottom="0"
     inkscape:window-width="1920"
     inkscape:window-height="1025"
     inkscape:window-x="-4"
     inkscape:window-y="-3"
     inkscape:window-maximized="1" />
  <metadata
     id="metadata7">
    <rdf:RDF>
      <cc:Work
         rdf:about="">
        <dc:format>image/svg+xml</dc:format>
        <dc:type
           rdf:resource="http://purl.org/dc/dcmitype/StillImage" />
        <dc:title></dc:title>
      </cc:Work>
    </rdf:RDF>
  </metadata>
  <g
     inkscape:label="Layer 1"
     inkscape:groupmode="layer"
     id="layer1"
     transform="translate(135.81951,-478.76197)">
    <path
       style="fill:#000000"
       d="m 183.81634,1047.0988 c -2.4569,-3.7673 -3.5344,-10.3392 -2.4736,-15.0868 0.9128,-4.0849 3.5941,-9.3269 4.3726,-8.5484 0.2063,0.2062 -0.2599,2.1578 -1.036,4.3367 -1.8565,5.2126 -1.8522,11.2087 0.012,16.492 1.7376,4.925 1.3396,6.202 -0.8748,2.8065 z m 112.0548,-1.0867 c 1.144,-2.1343 1.742,-5.4814 1.742,-9.75 0,-4.2687 -0.598,-7.6158 -1.742,-9.7501 -0.9581,-1.7875 -1.2896,-3.25 -0.7366,-3.25 1.9426,0 5.0463,7.8519 5.024,12.7102 -0.023,5.0139 -3.1085,13.2899 -4.9548,13.2899 -0.6292,0 -0.3526,-1.3471 0.6674,-3.25 z m 119.2824,-1 c -2.5348,-5.5843 -2.5157,-12.766 0.047,-17.7899 1.1113,-2.1781 2.4728,-3.9602 3.0258,-3.9602 0.5529,0 0.2214,1.4625 -0.7367,3.25 -1.144,2.1343 -1.742,5.4814 -1.742,9.7501 0,4.2686 0.598,7.6157 1.742,9.75 1.02,1.9029 1.2966,3.25 0.6674,3.25 -0.591,0 -1.9426,-1.9125 -3.0037,-4.25 z m 129.7222,0.5 c 0.8763,-2.0625 1.5932,-6.225 1.5932,-9.25 0,-3.025 -0.7169,-7.1876 -1.5932,-9.2501 -0.9019,-2.1229 -1.1571,-3.75 -0.588,-3.75 0.5529,0 1.9349,2.1018 3.0713,4.6707 2.4323,5.4987 2.0792,13.3916 -0.8186,18.2971 -2.5082,4.2461 -3.5777,3.785 -1.6647,-0.7177 z m 135.27781,-0.5 c -2.5348,-5.5843 -2.5157,-12.766 0.047,-17.7899 1.1113,-2.1781 2.4728,-3.9602 3.0258,-3.9602 0.5529,0 0.2214,1.4625 -0.7367,3.25 -1.144,2.1343 -1.742,5.4814 -1.742,9.7501 0,4.2686 0.598,7.6157 1.742,9.75 1.02,1.9029 1.2966,3.25 0.6674,3.25 -0.591,0 -1.9426,-1.9125 -3.0037,-4.25 z m 129.7222,0.5 c 0.8763,-2.0625 1.5932,-6.225 1.5932,-9.25 0,-3.025 -0.7169,-7.1876 -1.5932,-9.2501 -0.9019,-2.1229 -1.1571,-3.75 -0.588,-3.75 0.5529,0 1.9349,2.1018 3.0713,4.6707 2.4323,5.4987 2.0792,13.3916 -0.8186,18.2971 -2.5082,4.2461 -3.5777,3.785 -1.6647,-0.7177 z m -887.6563,-3.4386 c -2.56934,-2.7578 -2.86121,-12.1925 -0.48226,-15.589 1.92201,-2.744 6.47665,-2.9481 8.78831,-0.3937 2.52611,2.7913 2.29702,13.5292 -0.34501,16.1713 -2.60282,2.6028 -5.42271,2.536 -7.96104,-0.1886 z m 7.33945,-4.6211 c 1.38196,-4.8393 -0.2546,-10.6018 -3.1268,-11.0097 -1.66171,-0.236 -2.50974,0.3681 -3.25,2.3151 -2.21764,5.8329 -0.38783,12.8433 3.21663,12.3236 1.52709,-0.2201 2.50855,-1.3472 3.16017,-3.629 z m 124.6035,4.9961 c -4.60788,-3.7312 -3.32804,-17.0782 1.76534,-18.4101 5.38989,-1.4095 8.73009,3.4776 7.96942,11.6601 -0.45714,4.9174 -3.10406,8.5636 -6.21667,8.5636 -0.70314,0 -2.28628,-0.8161 -3.51809,-1.8136 z m 6.59252,-3.6269 c 1.80874,-7.2067 -1.3764,-14.6287 -4.99061,-11.6291 -2.13914,1.7753 -2.17812,11.3324 -0.0549,13.4557 1.92923,1.9292 4.32007,1.0636 5.04549,-1.8266 z m 69.20072,3.8817 c -3.4519,-1.8733 -4.7751,-4.3511 -4.7751,-8.9412 0,-6.879 3.2674,-10.4194 9.6611,-10.4683 3.4393,-0.026 4.6101,0.5019 6.75,3.045 4.3306,5.1467 3.0185,13.6155 -2.5562,16.4983 -3.4443,1.7811 -5.6099,1.7492 -9.0798,-0.1338 z m 9.6682,-3.6637 c 2.2312,-3.1856 1.9997,-9.3345 -0.4433,-11.7776 -6.8513,-6.8512 -15.6257,4.8271 -9.204,12.2501 2.2126,2.5576 7.7136,2.2882 9.6473,-0.4725 z m 51.0112,2.7679 c -1.9912,-1.9912 -2.4545,-3.4593 -2.4545,-7.7775 0,-7.8417 3.4243,-11.6348 8.7312,-9.6717 4.6292,1.7125 5.441,13.7316 1.213,17.9596 -2.5837,2.5836 -4.5282,2.4511 -7.4897,-0.5104 z m 6.9152,-2.7954 c 0.9333,-3.4827 0.7388,-8.6788 -0.4049,-10.8158 -1.2489,-2.3335 -4.5152,-2.5484 -5.3579,-0.3525 -0.8196,2.1359 -0.7738,11.9181 0.06,12.7516 1.578,1.578 5.1194,0.5948 5.7031,-1.5833 z m 34.0848,2.7954 c -1.9912,-1.9912 -2.4545,-3.4593 -2.4545,-7.7775 0,-7.8417 3.4243,-11.6348 8.7312,-9.6717 4.6292,1.7125 5.441,13.7316 1.213,17.9596 -2.5837,2.5836 -4.5282,2.4511 -7.4897,-0.5104 z m 6.9152,-2.7954 c 0.9333,-3.4827 0.7388,-8.6788 -0.4049,-10.8158 -1.2489,-2.3335 -4.5152,-2.5484 -5.3579,-0.3525 -0.8196,2.1359 -0.7738,11.9181 0.06,12.7516 1.578,1.578 5.1194,0.5948 5.7031,-1.5833 z m 33.6692,3.0614 c -2.5693,-2.7578 -2.8612,-12.1925 -0.4822,-15.589 1.922,-2.744 6.4766,-2.9481 8.7883,-0.3937 2.5261,2.7913 2.297,13.5292 -0.345,16.1713 -2.6029,2.6028 -5.4228,2.536 -7.9611,-0.1886 z m 7.3395,-4.6211 c 1.3819,-4.8393 -0.2546,-10.6018 -3.1268,-11.0097 -1.6617,-0.236 -2.5098,0.3681 -3.25,2.3151 -2.2177,5.8329 -0.3879,12.8433 3.2166,12.3236 1.5271,-0.2201 2.5085,-1.3472 3.1602,-3.629 z m 159.7585,4.9467 c -4.1336,-4.1337 -3.4105,-15.7802 1.1077,-17.8387 2.7794,-1.2663 6.2558,-0.1002 7.69,2.5795 0.5859,1.0949 1.0654,4.2907 1.0654,7.1019 0,4.0934 -0.4888,5.6 -2.4546,7.5657 -2.9372,2.9373 -4.9056,3.0944 -7.4085,0.5916 z m 7.0237,-5.137 c 1.0376,-4.9425 -0.7048,-11.0001 -3.164,-11.0001 -2.4613,0 -3.9966,2.8812 -3.9966,7.5001 0,4.9349 1.6169,7.6964 4.2806,7.3107 1.546,-0.2239 2.3505,-1.2884 2.88,-3.8107 z m 33.9763,5.137 c -4.1336,-4.1337 -3.4105,-15.7802 1.1077,-17.8387 2.7794,-1.2663 6.2558,-0.1002 7.69,2.5795 0.5859,1.0949 1.0654,4.2907 1.0654,7.1019 0,4.0934 -0.4888,5.6 -2.4546,7.5657 -2.9372,2.9373 -4.9056,3.0944 -7.4085,0.5916 z m 7.0237,-5.137 c 1.0376,-4.9425 -0.7048,-11.0001 -3.164,-11.0001 -2.4613,0 -3.9966,2.8812 -3.9966,7.5001 0,4.9349 1.6169,7.6964 4.2806,7.3107 1.546,-0.2239 2.3505,-1.2884 2.88,-3.8107 z m 33.9763,5.137 c -4.1336,-4.1337 -3.4105,-15.7802 1.1077,-17.8387 2.7794,-1.2663 6.2558,-0.1002 7.69,2.5795 0.5859,1.0949 1.0654,4.2907 1.0654,7.1019 0,4.0934 -0.4888,5.6 -2.4546,7.5657 -2.9372,2.9373 -4.9056,3.0944 -7.4085,0.5916 z m 7.0237,-5.137 c 1.0376,-4.9425 -0.7048,-11.0001 -3.164,-11.0001 -2.4613,0 -3.9966,2.8812 -3.9966,7.5001 0,4.9349 1.6169,7.6964 4.2806,7.3107 1.546,-0.2239 2.3505,-1.2884 2.88,-3.8107 z m 175.87831,4.8114 c -2.5693,-2.7578 -2.8612,-12.1925 -0.4822,-15.589 1.922,-2.744 6.4766,-2.9481 8.7883,-0.3937 2.5261,2.7913 2.297,13.5292 -0.345,16.1713 -2.6029,2.6028 -5.4228,2.536 -7.9611,-0.1886 z m 7.3395,-4.6211 c 1.3819,-4.8393 -0.2546,-10.6018 -3.1268,-11.0097 -1.6617,-0.236 -2.5098,0.3681 -3.25,2.3151 -2.2177,5.8329 -0.3879,12.8433 3.2166,12.3236 1.5271,-0.2201 2.5085,-1.3472 3.1602,-3.629 z m 33.8441,5.253 c -2.2767,-1.5947 -3.0404,-4.4433 -1.1912,-4.4433 0.5673,0 1.2904,0.675 1.607,1.5 0.741,1.9309 4.7523,1.9391 6.3509,0.013 1.6144,-1.9453 0.5026,-6.2585 -1.7399,-6.7502 -0.9622,-0.2109 -2.7637,0.054 -4.0036,0.5893 -3.1042,1.3396 -3.4583,0.6391 -2.5163,-4.9793 l 0.8169,-4.8729 4.8935,0 c 3.0259,0 5.0525,0.4771 5.3102,1.25 0.2929,0.8788 -0.9445,1.25 -4.1667,1.25 -4.1313,0 -4.5833,0.2296 -4.5833,2.3269 0,1.9902 0.4129,2.2662 2.8548,1.9077 2.2186,-0.3256 3.3456,0.2049 5.0566,2.38 2.5634,3.2589 2.1603,6.9064 -1.0649,9.6355 -2.5542,2.1613 -4.7354,2.2166 -7.624,0.1933 z m 41,0 c -2.2767,-1.5947 -3.0404,-4.4433 -1.1912,-4.4433 0.5673,0 1.2904,0.675 1.607,1.5 0.741,1.9309 4.7523,1.9391 6.3509,0.013 1.6144,-1.9453 0.5026,-6.2585 -1.7399,-6.7502 -0.9622,-0.2109 -2.7637,0.054 -4.0036,0.5893 -3.1042,1.3396 -3.4583,0.6391 -2.5163,-4.9793 l 0.8169,-4.8729 4.8935,0 c 3.0259,0 5.0525,0.4771 5.3102,1.25 0.2929,0.8788 -0.9445,1.25 -4.1667,1.25 -4.1313,0 -4.5833,0.2296 -4.5833,2.3269 0,1.9902 0.4129,2.2662 2.8548,1.9077 2.2186,-0.3256 3.3456,0.2049 5.0566,2.38 2.5634,3.2589 2.1603,6.9064 -1.0649,9.6355 -2.5542,2.1613 -4.7354,2.2166 -7.624,0.1933 z m -922.22256,-9.4433 c 0,-8.2223 0.26667,-10.0001 1.5,-10.0001 1.23333,0 1.5,1.7778 1.5,10.0001 0,8.2222 -0.26667,10 -1.5,10 -1.23333,0 -1.5,-1.7778 -1.5,-10 z m 39,8.7225 c 0,-2.0978 2.77663,-5.4213 6.40003,-7.6607 3.9198,-2.4227 5.12342,-4.7262 3.49478,-6.6886 -1.65406,-1.993 -4.68441,-1.683 -6.12688,0.6267 -1.55197,2.4851 -2.76793,2.573 -2.76793,0.2 0,-2.7685 2.04489,-4.2 6,-4.2 4.27157,0 6,1.4478 6,5.0257 0,2.6581 -2.19297,5.1725 -7.25,8.3128 -4.06401,2.5237 -3.36476,3.6616 2.25,3.6616 2.75,0 5,0.45 5,1 0,0.5641 -2.83333,1 -6.5,1 -4.60794,0 -6.5,-0.3719 -6.5,-1.2775 z m 34,-0.2225 c 0,-0.825 0.675,-1.5 1.5,-1.5 0.825,0 1.5,0.675 1.5,1.5 0,0.825 -0.675,1.5 -1.5,1.5 -0.825,0 -1.5,-0.675 -1.5,-1.5 z m 49,-8.5 c 0,-8.2223 0.26667,-10.0001 1.5,-10.0001 1.04831,0 1.5,1.0565 1.5,3.5085 0,3.2132 0.16211,3.4072 1.92591,2.3057 1.48171,-0.9253 2.51959,-0.9322 4.5,-0.03 2.38242,1.0855 2.57409,1.6585 2.57409,7.6943 0,5.1302 -0.32001,6.5215 -1.5,6.5215 -1.16501,0 -1.5,-1.3268 -1.5,-5.941 0,-6.4407 -0.85367,-7.7429 -3.97933,-6.0701 -1.64913,0.8826 -2.02067,2.0863 -2.02067,6.5463 0,4.1909 -0.34966,5.4648 -1.5,5.4648 -1.23333,0 -1.5,-1.7778 -1.5,-10 z m 54.79569,3.25 c -0.26867,-6.1333 -0.50129,-6.7793 -2.54569,-7.0696 -2.71593,-0.3857 -3.0221,-2.1805 -0.37197,-2.1805 1.03291,0 2.58431,-1.0125 3.44755,-2.25 1.47143,-2.1093 1.57279,-1.6094 1.62197,8.0001 0.0585,11.4293 -1.6806,14.2579 -2.15186,3.5 z m 28.20431,5.25 c 0,-0.825 0.675,-1.5 1.5,-1.5 0.825,0 1.5,0.675 1.5,1.5 0,0.825 -0.675,1.5 -1.5,1.5 -0.825,0 -1.5,-0.675 -1.5,-1.5 z m 136.00005,0 c 0,-0.825 0.675,-1.5 1.5,-1.5 0.825,0 1.5,0.675 1.5,1.5 0,0.825 -0.675,1.5 -1.5,1.5 -0.825,0 -1.5,-0.675 -1.5,-1.5 z m 41,0 c 0,-0.825 0.675,-1.5 1.5,-1.5 0.825,0 1.5,0.675 1.5,1.5 0,0.825 -0.675,1.5 -1.5,1.5 -0.825,0 -1.5,-0.675 -1.5,-1.5 z m 41,0 c 0,-0.825 0.675,-1.5 1.5,-1.5 0.825,0 1.5,0.675 1.5,1.5 0,0.825 -0.675,1.5 -1.5,1.5 -0.825,0 -1.5,-0.675 -1.5,-1.5 z m 75.5179,-8.1193 c 1.9151,-5.2907 3.4821,-9.7907 3.4821,-10.0001 0,-0.2093 0.8638,-0.3807 1.9196,-0.3807 1.4308,0 2.3574,1.337 3.6388,5.25 0.9455,2.8875 2.5501,7.3876 3.5657,10.0001 1.634,4.2029 1.6656,4.75 0.2744,4.75 -0.8648,0 -2.0818,-1.35 -2.7046,-3 -0.9759,-2.5853 -1.6415,-3 -4.8154,-3 -3.193,0 -3.822,0.399 -4.7287,3 -0.5752,1.65 -1.7361,3 -2.5799,3 -1.2437,0 -0.8751,-1.8205 1.948,-9.6193 z m 7.4276,-1.1307 c -0.5527,-1.5126 -1.2676,-3.4251 -1.5886,-4.2501 -0.4003,-1.0285 -0.9956,-0.4 -1.8943,2 -1.8371,4.9065 -1.8088,5.0001 1.5126,5.0001 2.8227,0 2.9237,-0.141 1.9703,-2.75 z m 50.0545,8.9371 c 0,-1.9595 4.087,-6.2152 7.8099,-8.1322 3.3774,-1.7391 2.7106,-6.4369 -0.9741,-6.8631 -1.9689,-0.2277 -2.8346,0.2289 -3.3174,1.75 -0.3593,1.132 -1.2979,2.0581 -2.0858,2.0581 -1.9173,0 -1.8063,-1.3398 0.3174,-3.8325 3.8562,-4.5265 11.25,-2.2882 11.25,3.4056 0,1.7707 -1.3571,3.4052 -5,6.0224 -2.75,1.9757 -5,4 -5,4.4984 0,0.4984 2.25,0.9062 5,0.9062 2.75,0 5,0.45 5,1 0,0.5641 -2.8334,1 -6.5,1 -5.6098,0 -6.5,-0.2483 -6.5,-1.8129 z m 34,0.3129 c 0,-0.825 0.675,-1.5 1.5,-1.5 0.825,0 1.5,0.675 1.5,1.5 0,0.825 -0.675,1.5 -1.5,1.5 -0.825,0 -1.5,-0.675 -1.5,-1.5 z m 41,0 c 0,-0.825 0.675,-1.5 1.5,-1.5 0.825,0 1.5,0.675 1.5,1.5 0,0.825 -0.675,1.5 -1.5,1.5 -0.825,0 -1.5,-0.675 -1.5,-1.5 z m 41,0 c 0,-0.825 0.675,-1.5 1.5,-1.5 0.825,0 1.5,0.675 1.5,1.5 0,0.825 -0.675,1.5 -1.5,1.5 -0.825,0 -1.5,-0.675 -1.5,-1.5 z m 90,-8.5 0,-10.0001 4.9182,0 c 6.3498,0 7.8393,0.6305 9.6187,4.0716 2.6933,5.2082 0.9734,13.7512 -3.0817,15.3073 -0.8904,0.3416 -3.832,0.6212 -6.537,0.6212 l -4.9182,0 0,-10 z m 10.7774,6.4433 c 1.7811,-1.2476 2.2226,-2.5273 2.2226,-6.4433 0,-5.5166 -2.2421,-8.0001 -7.2226,-8.0001 l -2.7774,0 0,8.0001 0,8 2.7774,0 c 1.5277,0 3.7777,-0.7005 5,-1.5567 z m 48.22261,1.7438 c 0,-1.9595 4.087,-6.2152 7.8099,-8.1322 3.3774,-1.7391 2.7106,-6.4369 -0.9741,-6.8631 -1.9689,-0.2277 -2.8346,0.2289 -3.3174,1.75 -0.3593,1.132 -1.2979,2.0581 -2.0858,2.0581 -1.9173,0 -1.8063,-1.3398 0.3174,-3.8325 3.8562,-4.5265 11.25,-2.2882 11.25,3.4056 0,1.7707 -1.3571,3.4052 -5,6.0224 -2.75,1.9757 -5,4 -5,4.4984 0,0.4984 2.25,0.9062 5,0.9062 2.75,0 5,0.45 5,1 0,0.5641 -2.8334,1 -6.5,1 -5.6098,0 -6.5,-0.2483 -6.5,-1.8129 z m 34,0.3129 c 0,-0.825 0.675,-1.5 1.5,-1.5 0.825,0 1.5,0.675 1.5,1.5 0,0.825 -0.675,1.5 -1.5,1.5 -0.825,0 -1.5,-0.675 -1.5,-1.5 z m 41,0 c 0,-0.825 0.675,-1.5 1.5,-1.5 0.825,0 1.5,0.675 1.5,1.5 0,0.825 -0.675,1.5 -1.5,1.5 -0.825,0 -1.5,-0.675 -1.5,-1.5 z m 41,0 c 0,-0.825 0.675,-1.5 1.5,-1.5 0.825,0 1.5,0.675 1.5,1.5 0,0.825 -0.675,1.5 -1.5,1.5 -0.825,0 -1.5,-0.675 -1.5,-1.5 z m -922.00006,-2.5 c 0,-0.5641 2.83333,-1 6.5,-1 3.66667,0 6.5,0.4359 6.5,1 0,0.5641 -2.83333,1 -6.5,1 -3.66667,0 -6.5,-0.4359 -6.5,-1 z m 131,0 c 0,-0.5715 3,-1 7,-1 4,0 7,0.4285 7,1 0,0.5714 -3,1 -7,1 -4,0 -7,-0.4286 -7,-1 z m 145.00005,0 c 0,-0.5641 2.8333,-1 6.5,-1 3.6666,0 6.5,0.4359 6.5,1 0,0.5641 -2.8334,1 -6.5,1 -3.6667,0 -6.5,-0.4359 -6.5,-1 z m 232,0 c 0,-0.5715 3,-1 7,-1 4,0 7,0.4285 7,1 0,0.5714 -3,1 -7,1 -4,0 -7,-0.4286 -7,-1 z m 266,0 c 0,-0.5641 2.8333,-1 6.5,-1 3.66661,0 6.50001,0.4359 6.50001,1 0,0.5641 -2.8334,1 -6.50001,1 -3.6667,0 -6.5,-0.4359 -6.5,-1 z m -774.00005,-5 c 0,-0.5641 2.83333,-1 6.5,-1 3.66667,0 6.5,0.4359 6.5,1 0,0.5641 -2.83333,1 -6.5,1 -3.66667,0 -6.5,-0.4359 -6.5,-1 z m 131,0 c 0,-0.5715 3,-1 7,-1 4,0 7,0.4285 7,1 0,0.5714 -3,1 -7,1 -4,0 -7,-0.4286 -7,-1 z m 145.00005,0 c 0,-0.5641 2.8333,-1 6.5,-1 3.6666,0 6.5,0.4359 6.5,1 0,0.5641 -2.8334,1 -6.5,1 -3.6667,0 -6.5,-0.4359 -6.5,-1 z m 232,0 c 0,-0.5715 3,-1 7,-1 4,0 7,0.4285 7,1 0,0.5714 -3,1 -7,1 -4,0 -7,-0.4286 -7,-1 z m 266,0 c 0,-0.5641 2.8333,-1 6.5,-1 3.66661,0 6.50001,0.4359 6.50001,1 0,0.5641 -2.8334,1 -6.50001,1 -3.6667,0 -6.5,-0.4359 -6.5,-1 z m 69.00001,-59.5183 c 0,-0.4809 16.7788,-24.5133 18.0956,-25.9185 0.5349,-0.5708 1.7622,-0.1122 3.1411,1.1735 l 2.2633,2.1104 45.5,-33.4817 c 25.025,-18.4149 45.8928,-33.8709 46.373,-34.3465 0.4957,-0.4912 -0.044,-2.1531 -1.25,-3.8463 -1.1677,-1.6398 -2.123,-3.2121 -2.123,-3.494 0,-0.6719 31.0081,-11.0039 31.512,-10.5 0.3542,0.3542 -6.851,8.807 -16.7742,19.6789 l -3.9773,4.3575 -2.5315,-2.5315 c -2.423,-2.423 -2.6,-2.4543 -4.1303,-0.7288 -2.2514,2.5387 -88.8918,66.0452 -90.1038,66.0452 -1.4606,0 -1.2357,0.8532 1.0835,4.1102 1.1432,1.6055 1.9247,3.3803 1.7368,3.9442 -0.4194,1.258 -28.8152,14.49 -28.8152,13.4274 z m -650.54,-15.7302 c -0.2631,-0.6884 -0.36174,-30.0141 -0.21921,-65.1683 0.20296,-50.0589 0.53016,-64.0071 1.50915,-64.3334 0.99133,-0.3303 1.25,12.8446 1.25,63.6668 l 0,64.0833 315.00005,0 c 175.5238,0 315.00001,-0.3813 315.00001,-0.8613 0,-0.4737 -1.125,-0.6463 -2.5,-0.3834 -3.181,0.6081 -3.181,-0.4318 0,-2.9339 l 2.5,-1.9665 0,-89.9274 c 0,-59.285 -0.3408,-89.9275 -1,-89.9275 -0.55,0 -1,-0.675 -1,-1.5 0,-0.825 0.45,-1.5 1,-1.5 0.6463,0 1.0054,-11.7602 1.0153,-33.25 0.01,-19.74 0.4092,-33.8594 0.9847,-34.75 0.6287,-0.9728 0.9747,42.547 0.9846,123.8334 0.01,77.3714 0.3734,125.2057 0.951,125 0.5146,-0.1834 33.8092,-22.8334 73.988,-50.3334 l 73.0525,-50 -0.2381,-38.5 -0.238,-38.5 -34.75,-0.2629 c -22.0183,-0.1666 -34.75,-0.6246 -34.75,-1.25 0,-0.6306 12.6396,-0.9871 35,-0.9871 l 35,0 0,-91.5851 0,-91.5852 -4.75,3.4625 c -14.114,10.2885 -140.6632,98.8262 -141.5047,99.001 -5.2205,1.0846 8.1402,-8.8967 70.7554,-52.8592 l 72.5448,-50.934 -312.71281,-0.2515 c -175.7633,-0.1415 -312.958,0.1281 -313.2727,0.6155 -0.8774,1.3587 -51.2474,37.136 -52.2829,37.136 -3.3014,0 2.7809,-5.0709 25.7213,-21.4441 l 25.9985,-18.5559 316.2515,0 316.25151,0 0,93.5 0,93.5 32.25,0.014 c 17.7376,0.01 33.2626,0.285 34.5,0.6167 l 2.25,0.6029 0,-77.1166 0,-77.1166 -3.5,0 c -2.1477,0 -3.4894,-0.483 -3.4728,-1.25 0.074,-3.4001 7.7967,-31.047 8.3105,-29.75 0.6363,1.6057 7.6623,29.5265 7.6623,30.4491 0,0.303 -1.5749,0.5509 -3.5,0.5509 l -3.5,0 0,77 0,77 38.75,0 c 21.3125,0.001 50.56265,0.2983 65.00015,0.6605 l 26.25,0.6584 0,-3.6605 c 0,-2.0132 0.2513,-3.6605 0.5585,-3.6605 0.6201,0 22.6608,5.4835 28.9415,7.2003 3.9944,1.0919 3.9789,1.0988 -11,4.9195 -8.25,2.1044 -15.7875,3.8383 -16.75,3.8532 -1.3795,0.021 -1.75,-0.8198 -1.75,-3.973 l 0,-4 -65.00005,0 -65,0 0,23.5 0,23.5 3.6166,0 c 2.9512,0 3.5329,0.3221 3.1615,1.75 -0.2503,0.9625 -1.9734,7.9375 -3.8292,15.5 -1.8556,7.5625 -3.6327,13.75 -3.9489,13.75 -0.3162,0 -2.0933,-6.1875 -3.949,-13.75 -1.8557,-7.5625 -3.5788,-14.5375 -3.8291,-15.5 -0.3714,-1.4279 0.2103,-1.75 3.1615,-1.75 l 3.6166,0 0,-23.5 0,-23.5 -34.5,0 -34.5,0 0,38.5 c 0,25 -0.3506,38.5 -1,38.5 -0.55,0 -1.0141,0.5625 -1.0313,1.25 -0.017,0.6875 -33.5183,24.1495 -74.4469,52.1378 -69.6815,47.6503 -74.435,51.0857 -74.7188,54 l -0.303,3.1123 -316.78081,0.2516 c -252.8993,0.2008 -316.87729,-8e-4 -317.25919,-1 z m 731.54,-18.7516 c 0,-6 0.4,-10 1,-10 0.55,0 1,1.665 1,3.7 0,2.8778 0.2666,3.4334 1.2,2.5 0.66,-0.66 2.145,-1.2 3.3,-1.2 1.155,0 2.64,0.54 3.3,1.2 1.4546,1.4547 1.6335,13.8 0.2,13.8 -0.55,0 -1,-2.385 -1,-5.3 0,-4.8006 -1.1781,-7.7 -3.1286,-7.7 -2.1767,0 -3.8714,3.5333 -3.8714,8.0715 0,2.7107 -0.45,4.9285 -1,4.9285 -0.6,0 -1,-4 -1,-10 z M 15.18049,894.1964 c 0,-0.5861 2.69927,-4.5236 5.99839,-8.75 l 5.99838,-7.6844 -5.49838,-0.2999 c -8.22439,-0.4486 -6.6309,-2.2001 2.00161,-2.2001 4.125,0 7.5,0.3906 7.5,0.8679 0,0.4774 -2.7436,4.4149 -6.09689,8.75 l -6.0969,7.8821 6.0969,0.2978 c 8.95809,0.4374 7.43299,2.2022 -1.90311,2.2022 -4.99521,0 -8,-0.4002 -8,-1.0656 z M -0.10079997,861.0535 12.1077,848.845 l 2.44158,2.2938 2.44157,2.2937 22.44004,-14.5852 c 12.34202,-8.0219 22.95969,-14.5853 23.59482,-14.5853 3.22884,0 -0.24245,2.9219 -14.59522,12.2852 -8.6625,5.6511 -18.99584,12.2863 -22.96298,14.7448 -4.4886,2.7817 -7.03651,4.9773 -6.74574,5.8129 2.12089,6.0956 2.80915,5.5411 -13.71144,11.0472 -8.43248,2.8105 -15.77905,5.1099 -16.32571,5.1099 -0.54666,0 4.4999,-5.4938 11.21458003,-12.2085 z M 65.74614,822.3346 c -3.786,-4.1835 3.55875,-10.704 7.95102,-7.0587 0.76764,0.6371 1.86543,0.868 2.43953,0.5132 1.66542,-1.0293 1.21536,1.0678 -1.05498,4.9158 -2.43392,4.1252 -6.4437,4.8252 -9.33557,1.6297 z m -17.73463,-9.6021 c -5.22586,-2.838 -6.1384,-12.3855 -1.64132,-17.1724 3.01003,-3.204 10.03201,-3.2473 12.2536,-0.076 0.85618,1.2224 1.5567,2.5724 1.5567,3 0,1.5544 -2.55051,0.7269 -3.76793,-1.2225 -1.42173,-2.2766 -5.01038,-2.6138 -7.60727,-0.7149 -2.56494,1.8755 -3.28918,9.052 -1.23059,12.1938 2.25632,3.4436 6.94821,3.4543 9.19775,0.021 1.99709,-3.048 4.44667,-3.3637 3.69148,-0.4759 -0.69466,2.6564 -4.99662,5.9864 -7.6683,5.9359 -1.16333,-0.022 -3.31618,-0.6923 -4.78412,-1.4895 z m 35.16898,0.5647 c 0,-0.891 3.13247,-3.0352 4.43426,-3.0352 1.29051,0 0.44201,2.8335 -1.01605,3.393 -2.26867,0.8706 -3.41821,0.7503 -3.41821,-0.3578 z m 978.20561,-6.9711 2.2653,-3.936 -2.2653,-3.064 c -1.7304,-2.3404 -1.9174,-3.0641 -0.7921,-3.0641 0.8102,0 2.1737,1.0002 3.0299,2.2225 l 1.5567,2.2225 1.5567,-2.2225 c 0.8562,-1.2223 2.2197,-2.2225 3.0299,-2.2225 1.1253,0 0.9383,0.7237 -0.7921,3.0641 l -2.2653,3.064 2.2653,3.936 c 1.8702,3.2496 1.9947,3.9359 0.7139,3.9359 -0.8532,0 -2.0639,-1.125 -2.6904,-2.5 -0.6264,-1.375 -1.4408,-2.5 -1.8095,-2.5 -0.3688,0 -1.2726,1.125 -2.0085,2.5 -0.7359,1.375 -1.9504,2.5 -2.6988,2.5 -0.9947,0 -0.7513,-1.0592 0.9043,-3.9359 z m -988.96381,2.0855 c -0.99237,-0.6134 -1.20365,-13.0176 -1,-58.7092 l 0.2582,-57.9315 40.86905,-29.3354 c 30.2206,-21.6919 41.1616,-29.0428 41.9917,-28.2127 0.8003,0.8003 0.8118,1.3259 0.04,1.8309 -0.5954,0.3896 -18.0781,12.8583 -38.8504,27.7083 l -37.76778,27 304.10878,0.2517 c 269.3937,0.2229 304.10871,0.4226 304.10871,1.75 0,1.3279 -34.81311,1.4983 -305.99191,1.4983 l -305.9919,0 -0.25813,57.4637 c -0.20602,45.8648 -0.51208,57.3067 -1.51632,56.6859 z m 18.7582,-0.989 c 0,-0.727 4.27122,-3.1606 5.54705,-3.1606 1.20718,0 0.25501,2.862 -1.12884,3.393 -2.25254,0.8644 -4.41821,0.7505 -4.41821,-0.2324 z m 688.98596,-0.9106 c -0.01,-0.4125 1.4482,-4.9299 3.2353,-10.0387 2.7044,-7.7308 3.5731,-9.2403 5.1794,-9 2.5516,0.3817 9.3934,19.7887 6.9764,19.7887 -0.8146,0 -1.9517,-1.35 -2.5269,-3 -0.9067,-2.6009 -1.5356,-3 -4.7287,-3 -3.1739,0 -3.8395,0.4147 -4.8153,3 -1.0068,2.6674 -3.2835,4.2102 -3.3202,2.25 z m 10.938,-8 c -0.042,-0.4125 -0.6658,-2.325 -1.3866,-4.25 -0.8987,-2.4 -1.494,-3.0285 -1.8943,-2 -2.7955,7.1838 -2.8055,7 0.3817,7 1.6364,0 2.941,-0.3375 2.8992,-0.75 z m -688.92396,3.7286 c 0,-1.3642 4.80846,-3.5034 5.75265,-2.5592 0.8629,0.8628 -2.51002,3.5806 -4.44378,3.5806 -0.71988,0 -1.30887,-0.4596 -1.30887,-1.0214 z m 61.11005,-0.3244 c -5.5581,-3.1962 -6.8168,-11.4724 -2.5212,-16.5774 2.1782,-2.5886 3.2964,-3.0768 7.0478,-3.0768 3.5372,0 4.9657,0.547 6.9111,2.6461 3.3502,3.6148 3.4521,11.0917 0.2023,14.8319 -2.7024,3.1101 -8.2215,4.142 -11.64,2.1762 z m 9.4622,-3.734 c 2.7885,-3.0812 2.5414,-9.6 -0.4558,-12.0269 -5.0841,-4.1169 -11.1164,-0.9238 -11.1164,5.8842 0,2.0777 0.7005,4.7777 1.5567,6 2.0586,2.9391 7.4157,3.0154 10.0155,0.1427 z m -61.5722,-1.885 c 0,-1.1758 3.9577,-3.4108 4.7091,-2.6593 0.2959,0.2958 0.2715,1.2323 -0.054,2.081 -0.6399,1.6676 -4.6549,2.1664 -4.6549,0.5783 z m 10,-5 c 0,-1.0517 3.2244,-3.0352 4.9342,-3.0352 1.6634,0 1.2504,2.7152 -0.516,3.393 -2.3522,0.9027 -4.4182,0.7353 -4.4182,-0.3578 z m 9,-6 c 0,-1.1758 3.9577,-3.4108 4.7091,-2.6593 0.2959,0.2958 0.2715,1.2323 -0.054,2.081 -0.6399,1.6676 -4.6549,2.1664 -4.6549,0.5783 z m 11,-5.4282 c 0,-1.3102 2.0303,-2.607 4.0817,-2.607 1.5528,0 1.0153,2.7488 -0.6635,3.393 -2.4643,0.9457 -3.4182,0.7263 -3.4182,-0.786 z m 8,-5.3769 c 0,-0.5 1.1591,-1.4372 2.5758,-2.0827 2.2629,-1.031 2.535,-0.9594 2.2398,0.5895 -0.3401,1.7841 -4.8156,3.1718 -4.8156,1.4932 z m 623.56731,-1.1557 c -2.2549,-2.4915 -1.7309,-4.8675 1.6254,-7.3709 2.5516,-1.9032 2.8269,-1.9206 5.25,-0.3329 3.0286,1.9844 3.3584,5.5945 0.7285,7.9744 -2.4318,2.2008 -5.4651,2.0928 -7.6039,-0.2706 z M 160.18054,769.762 c 0,-0.825 0.675,-1.5 1.5,-1.5 0.825,0 1.5,0.675 1.5,1.5 0,0.825 -0.675,1.5 -1.5,1.5 -0.825,0 -1.5,-0.675 -1.5,-1.5 z m 5,0 c 0,-0.825 0.675,-1.5 1.5,-1.5 0.825,0 1.5,0.675 1.5,1.5 0,0.825 -0.675,1.5 -1.5,1.5 -0.825,0 -1.5,-0.675 -1.5,-1.5 z m 11,0 c 0,-0.825 0.675,-1.5 1.5,-1.5 0.825,0 1.5,0.675 1.5,1.5 0,0.825 -0.675,1.5 -1.5,1.5 -0.825,0 -1.5,-0.675 -1.5,-1.5 z m 11,0 c 0,-0.825 0.675,-1.5 1.5,-1.5 0.825,0 1.5,0.675 1.5,1.5 0,0.825 -0.675,1.5 -1.5,1.5 -0.825,0 -1.5,-0.675 -1.5,-1.5 z m 11,0 c 0,-0.825 0.675,-1.5 1.5,-1.5 0.825,0 1.5,0.675 1.5,1.5 0,0.825 -0.675,1.5 -1.5,1.5 -0.825,0 -1.5,-0.675 -1.5,-1.5 z m 11,0 c 0,-0.825 0.675,-1.5 1.5,-1.5 0.825,0 1.5,0.675 1.5,1.5 0,0.825 -0.675,1.5 -1.5,1.5 -0.825,0 -1.5,-0.675 -1.5,-1.5 z m 11,0 c 0,-0.825 0.675,-1.5 1.5,-1.5 0.825,0 1.5,0.675 1.5,1.5 0,0.825 -0.675,1.5 -1.5,1.5 -0.825,0 -1.5,-0.675 -1.5,-1.5 z m 11,0 c 0,-0.825 0.675,-1.5 1.5,-1.5 0.825,0 1.5,0.675 1.5,1.5 0,0.825 -0.675,1.5 -1.5,1.5 -0.825,0 -1.5,-0.675 -1.5,-1.5 z m 11,0 c 0,-0.825 0.675,-1.5 1.5,-1.5 0.825,0 1.5,0.675 1.5,1.5 0,0.825 -0.675,1.5 -1.5,1.5 -0.825,0 -1.5,-0.675 -1.5,-1.5 z m 11,0 c 0,-0.825 0.675,-1.5 1.5,-1.5 0.825,0 1.5,0.675 1.5,1.5 0,0.825 -0.675,1.5 -1.5,1.5 -0.825,0 -1.5,-0.675 -1.5,-1.5 z m 11,0 c 0,-0.825 0.45,-1.5 1,-1.5 0.55,0 1,0.675 1,1.5 0,0.825 -0.45,1.5 -1,1.5 -0.55,0 -1,-0.675 -1,-1.5 z m 11,0 c 0,-0.825 0.45,-1.5 1,-1.5 0.55,0 1,0.675 1,1.5 0,0.825 -0.45,1.5 -1,1.5 -0.55,0 -1,-0.675 -1,-1.5 z m 11,0 c 0,-0.825 0.45,-1.5 1,-1.5 0.55,0 1,0.675 1,1.5 0,0.825 -0.45,1.5 -1,1.5 -0.55,0 -1,-0.675 -1,-1.5 z m 11,0 c 0,-0.825 0.675,-1.5 1.5,-1.5 0.825,0 1.5,0.675 1.5,1.5 0,0.825 -0.675,1.5 -1.5,1.5 -0.825,0 -1.5,-0.675 -1.5,-1.5 z m 11,0 c 0,-0.825 0.675,-1.5 1.5,-1.5 0.825,0 1.5,0.675 1.5,1.5 0,0.825 -0.675,1.5 -1.5,1.5 -0.825,0 -1.5,-0.675 -1.5,-1.5 z m 11,0 c 0,-0.825 0.45,-1.5 1,-1.5 0.55,0 1,0.675 1,1.5 0,0.825 -0.45,1.5 -1,1.5 -0.55,0 -1,-0.675 -1,-1.5 z m 10,0 c 0,-0.825 0.675,-1.5 1.5,-1.5 0.825,0 1.5,0.675 1.5,1.5 0,0.825 -0.675,1.5 -1.5,1.5 -0.825,0 -1.5,-0.675 -1.5,-1.5 z m 11,0 c 0,-0.825 0.675,-1.5 1.5,-1.5 0.825,0 1.5,0.675 1.5,1.5 0,0.825 -0.675,1.5 -1.5,1.5 -0.825,0 -1.5,-0.675 -1.5,-1.5 z m 11,0 c 0,-0.825 0.675,-1.5 1.5,-1.5 0.825,0 1.5,0.675 1.5,1.5 0,0.825 -0.675,1.5 -1.5,1.5 -0.825,0 -1.5,-0.675 -1.5,-1.5 z m 12,0 c 0,-0.825 0.45,-1.5 1,-1.5 0.55,0 1,0.675 1,1.5 0,0.825 -0.45,1.5 -1,1.5 -0.55,0 -1,-0.675 -1,-1.5 z m 11,0 c 0,-0.825 0.45,-1.5 1,-1.5 0.55,0 1,0.675 1,1.5 0,0.825 -0.45,1.5 -1,1.5 -0.55,0 -1,-0.675 -1,-1.5 z m 10,0 c 0,-0.825 0.675,-1.5 1.5,-1.5 0.825,0 1.5,0.675 1.5,1.5 0,0.825 -0.675,1.5 -1.5,1.5 -0.825,0 -1.5,-0.675 -1.5,-1.5 z m 11,0 c 0,-0.825 0.675,-1.5 1.5,-1.5 0.825,0 1.5,0.675 1.5,1.5 0,0.825 -0.675,1.5 -1.5,1.5 -0.825,0 -1.5,-0.675 -1.5,-1.5 z m 11,0 c 0,-0.825 0.675,-1.5 1.5,-1.5 0.825,0 1.5,0.675 1.5,1.5 0,0.825 -0.675,1.5 -1.5,1.5 -0.825,0 -1.5,-0.675 -1.5,-1.5 z m 11,0 c 0,-0.825 0.675,-1.5 1.5,-1.5 0.825,0 1.5,0.675 1.5,1.5 0,0.825 -0.675,1.5 -1.5,1.5 -0.825,0 -1.5,-0.675 -1.5,-1.5 z m 11,0 c 0,-0.825 0.675,-1.5 1.5,-1.5 0.825,0 1.5,0.675 1.5,1.5 0,0.825 -0.675,1.5 -1.5,1.5 -0.825,0 -1.5,-0.675 -1.5,-1.5 z m 11,0 c 0,-0.825 0.675,-1.5 1.5,-1.5 0.825,0 1.5,0.675 1.5,1.5 0,0.825 -0.675,1.5 -1.5,1.5 -0.825,0 -1.5,-0.675 -1.5,-1.5 z m 11,0 c 0,-0.825 0.675,-1.5 1.5,-1.5 0.825,0 1.5,0.675 1.5,1.5 0,0.825 -0.675,1.5 -1.5,1.5 -0.825,0 -1.5,-0.675 -1.5,-1.5 z m 11,0 c 0,-0.825 0.675,-1.5 1.5,-1.5 0.825,0 1.5,0.675 1.5,1.5 0,0.825 -0.675,1.5 -1.5,1.5 -0.825,0 -1.5,-0.675 -1.5,-1.5 z m 11,0 c 0,-0.825 0.675,-1.5 1.5,-1.5 0.825,0 1.5,0.675 1.5,1.5 0,0.825 -0.675,1.5 -1.5,1.5 -0.825,0 -1.5,-0.675 -1.5,-1.5 z m 11,0 c 0,-0.825 0.675,-1.5 1.5,-1.5 0.825,0 1.5,0.675 1.5,1.5 0,0.825 -0.675,1.5 -1.5,1.5 -0.825,0 -1.5,-0.675 -1.5,-1.5 z m 11,0 c 0,-0.825 0.675,-1.5 1.5,-1.5 0.825,0 1.5,0.675 1.5,1.5 0,0.825 -0.675,1.5 -1.5,1.5 -0.825,0 -1.5,-0.675 -1.5,-1.5 z m 11,0 c 0,-0.825 0.675,-1.5 1.5,-1.5 0.825,0 1.5,0.675 1.5,1.5 0,0.825 -0.675,1.5 -1.5,1.5 -0.825,0 -1.5,-0.675 -1.5,-1.5 z m 11,0 c 0,-0.825 0.675,-1.5 1.5,-1.5 0.825,0 1.5,0.675 1.5,1.5 0,0.825 -0.675,1.5 -1.5,1.5 -0.825,0 -1.5,-0.675 -1.5,-1.5 z m 11,0 c 0,-0.825 0.45,-1.5 1,-1.5 0.55,0 1,0.675 1,1.5 0,0.825 -0.45,1.5 -1,1.5 -0.55,0 -1,-0.675 -1,-1.5 z m 11,0 c 0,-0.825 0.45,-1.5 1,-1.5 0.55,0 1,0.675 1,1.5 0,0.825 -0.45,1.5 -1,1.5 -0.55,0 -1,-0.675 -1,-1.5 z m 11,0 c 0,-0.825 0.45,-1.5 1,-1.5 0.55,0 1,0.675 1,1.5 0,0.825 -0.45,1.5 -1,1.5 -0.55,0 -1,-0.675 -1,-1.5 z m 11,0 c 0,-0.825 0.675,-1.5 1.5,-1.5 0.825,0 1.5,0.675 1.5,1.5 0,0.825 -0.675,1.5 -1.5,1.5 -0.825,0 -1.5,-0.675 -1.5,-1.5 z m 11,0 c 0,-0.825 0.675,-1.5 1.5,-1.5 0.825,0 1.5,0.675 1.5,1.5 0,0.825 -0.675,1.5 -1.5,1.5 -0.825,0 -1.5,-0.675 -1.5,-1.5 z m 11,0 c 0,-0.825 0.45,-1.5 1,-1.5 0.55,0 1,0.675 1,1.5 0,0.825 -0.45,1.5 -1,1.5 -0.55,0 -1,-0.675 -1,-1.5 z m 10,0 c 0,-0.825 0.675,-1.5 1.5,-1.5 0.825,0 1.5,0.675 1.5,1.5 0,0.825 -0.675,1.5 -1.5,1.5 -0.825,0 -1.5,-0.675 -1.5,-1.5 z m 11,0 c 0,-0.825 0.675,-1.5 1.5,-1.5 0.825,0 1.5,0.675 1.5,1.5 0,0.825 -0.675,1.5 -1.5,1.5 -0.825,0 -1.5,-0.675 -1.5,-1.5 z m 11,0 c 0,-0.825 0.675,-1.5 1.5,-1.5 0.825,0 1.5,0.675 1.5,1.5 0,0.825 -0.675,1.5 -1.5,1.5 -0.825,0 -1.5,-0.675 -1.5,-1.5 z m 12,0 c 0,-0.825 0.45,-1.5 1,-1.5 0.55,0 1,0.675 1,1.5 0,0.825 -0.45,1.5 -1,1.5 -0.55,0 -1,-0.675 -1,-1.5 z m 11,0 c 0,-0.825 0.45,-1.5 1,-1.5 0.55,0 1,0.675 1,1.5 0,0.825 -0.45,1.5 -1,1.5 -0.55,0 -1,-0.675 -1,-1.5 z m 10,0 c 0,-0.825 0.675,-1.5 1.5,-1.5 0.825,0 1.5,0.675 1.5,1.5 0,0.825 -0.675,1.5 -1.5,1.5 -0.825,0 -1.5,-0.675 -1.5,-1.5 z m 11,0 c 0,-0.825 0.675,-1.5 1.5,-1.5 0.825,0 1.5,0.675 1.5,1.5 0,0.825 -0.675,1.5 -1.5,1.5 -0.825,0 -1.5,-0.675 -1.5,-1.5 z m 11.00001,0 c 0,-0.825 0.675,-1.5 1.5,-1.5 0.825,0 1.5,0.675 1.5,1.5 0,0.825 -0.675,1.5 -1.5,1.5 -0.825,0 -1.5,-0.675 -1.5,-1.5 z m 11,0 c 0,-0.825 0.675,-1.5 1.5,-1.5 0.825,0 1.5,0.675 1.5,1.5 0,0.825 -0.675,1.5 -1.5,1.5 -0.825,0 -1.5,-0.675 -1.5,-1.5 z m 11,0 c 0,-0.825 0.675,-1.5 1.5,-1.5 0.825,0 1.5,0.675 1.5,1.5 0,0.825 -0.675,1.5 -1.5,1.5 -0.825,0 -1.5,-0.675 -1.5,-1.5 z m 22,0 c 0,-0.825 0.675,-1.5 1.5,-1.5 0.825,0 1.5,0.675 1.5,1.5 0,0.825 -0.675,1.5 -1.5,1.5 -0.825,0 -1.5,-0.675 -1.5,-1.5 z m 11,0 c 0,-0.825 0.675,-1.5 1.5,-1.5 0.825,0 1.5,0.675 1.5,1.5 0,0.825 -0.675,1.5 -1.5,1.5 -0.825,0 -1.5,-0.675 -1.5,-1.5 z m 11,0 c 0,-0.825 0.675,-1.5 1.5,-1.5 0.825,0 1.5,0.675 1.5,1.5 0,0.825 -0.675,1.5 -1.5,1.5 -0.825,0 -1.5,-0.675 -1.5,-1.5 z m 11,0 c 0,-0.825 0.675,-1.5 1.5,-1.5 0.825,0 1.5,0.675 1.5,1.5 0,0.825 -0.675,1.5 -1.5,1.5 -0.825,0 -1.5,-0.675 -1.5,-1.5 z m 11,0 c 0,-0.825 0.675,-1.5 1.5,-1.5 0.825,0 1.5,0.675 1.5,1.5 0,0.825 -0.675,1.5 -1.5,1.5 -0.825,0 -1.5,-0.675 -1.5,-1.5 z m -596.00001,-7.5 c 0,-1.1111 0.6666,-2 1.5,-2 0.8333,0 1.5,0.8889 1.5,2 0,1.1111 -0.6667,2 -1.5,2 -0.8334,0 -1.5,-0.8889 -1.5,-2 z m 0,-11 c 0,-1.1111 0.6666,-2 1.5,-2 0.8333,0 1.5,0.8889 1.5,2 0,1.1111 -0.6667,2 -1.5,2 -0.8334,0 -1.5,-0.8889 -1.5,-2 z m 0,-10.5 c 0,-0.825 0.675,-1.5 1.5,-1.5 0.825,0 1.5,0.675 1.5,1.5 0,0.825 -0.675,1.5 -1.5,1.5 -0.825,0 -1.5,-0.675 -1.5,-1.5 z m 0,-11 c 0,-0.825 0.675,-1.5 1.5,-1.5 0.825,0 1.5,0.675 1.5,1.5 0,0.825 -0.675,1.5 -1.5,1.5 -0.825,0 -1.5,-0.675 -1.5,-1.5 z m 0,-11 c 0,-0.825 0.675,-1.5 1.5,-1.5 0.825,0 1.5,0.675 1.5,1.5 0,0.825 -0.675,1.5 -1.5,1.5 -0.825,0 -1.5,-0.675 -1.5,-1.5 z m 0,-11 c 0,-0.825 0.675,-1.5 1.5,-1.5 0.825,0 1.5,0.675 1.5,1.5 0,0.825 -0.675,1.5 -1.5,1.5 -0.825,0 -1.5,-0.675 -1.5,-1.5 z m 0,-11 c 0,-0.825 0.675,-1.5 1.5,-1.5 0.825,0 1.5,0.675 1.5,1.5 0,0.825 -0.675,1.5 -1.5,1.5 -0.825,0 -1.5,-0.675 -1.5,-1.5 z m 531.40801,-1 c -1.4863,-2.2683 -1.4944,-2.7192 -0.087,-4.8665 1.9847,-3.029 4.9896,-3.8049 7.6147,-1.9662 2.297,1.6089 2.7863,6.2111 0.8647,8.1327 -2.1192,2.1192 -6.6072,1.424 -8.392,-1.3 z m 247.592,-13.5 c 0,-6 0.4,-10 1,-10 0.55,0 1,1.665 1,3.7 0,2.8778 0.2667,3.4334 1.2,2.5 0.66,-0.66 2.145,-1.2 3.3,-1.2 1.155,0 2.64,0.54 3.3,1.2 1.4547,1.4547 1.6336,13.8 0.2,13.8 -0.55,0 -1,-2.385 -1,-5.3 0,-4.8006 -1.178,-7.7 -3.1286,-7.7 -2.1767,0 -3.8714,3.5333 -3.8714,8.0715 0,2.7107 -0.45,4.9285 -1,4.9285 -0.6,0 -1,-4 -1,-10 z m -779.00001,3.5 c 0,-0.825 0.675,-1.5 1.5,-1.5 0.825,0 1.5,0.675 1.5,1.5 0,0.825 -0.675,1.5 -1.5,1.5 -0.825,0 -1.5,-0.675 -1.5,-1.5 z m 0,-11 c 0,-0.825 0.675,-1.5 1.5,-1.5 0.825,0 1.5,0.675 1.5,1.5 0,0.825 -0.675,1.5 -1.5,1.5 -0.825,0 -1.5,-0.675 -1.5,-1.5 z m 522.00001,-8.5 0,-10 5.3256,0 c 7.1992,0 10.059,2.8431 10.059,10 0,7.157 -2.8598,10 -10.059,10 l -5.3256,0 0,-10 z m 11.1779,5.7855 c 2.2068,-3.3781 2.1836,-8.2211 -0.056,-11.6614 -0.4926,-0.7567 -2.6341,-1.4317 -4.7589,-1.5 l -3.8631,-0.1241 -0.3015,6.3947 c -0.4096,8.6883 0,9.4964 4.4883,8.7687 2.0082,-0.3259 4.0292,-1.1709 4.4911,-1.8779 z m 358.82215,0.8312 0,-3.6167 -29,0 c -18.6667,0 -29.00005,-0.3563 -29.00005,-1 0,-0.6436 10.33335,-1 29.00005,-1 l 29,0 0,-3.6166 c 0,-2.9511 0.322,-3.5329 1.75,-3.1615 0.9625,0.2503 7.9375,1.9734 15.5,3.8291 7.5625,1.8557 13.75,3.6328 13.75,3.949 0,0.3163 -6.1875,2.0933 -13.75,3.949 -7.5625,1.8557 -14.5375,3.5789 -15.5,3.8292 -1.428,0.3713 -1.75,-0.2104 -1.75,-3.1615 z M 161.18054,663.762 c 0,-0.825 0.675,-1.5 1.5,-1.5 0.825,0 1.5,0.675 1.5,1.5 0,0.825 -0.675,1.5 -1.5,1.5 -0.825,0 -1.5,-0.675 -1.5,-1.5 z m 0,-10.5 c 0,-1.1111 0.6666,-2 1.5,-2 0.8333,0 1.5,0.8889 1.5,2 0,1.1111 -0.6667,2 -1.5,2 -0.8334,0 -1.5,-0.8889 -1.5,-2 z m 892.00006,-4.6195 0,-3.3805 -30.5,0 c -26.44445,0 -30.50005,-0.1994 -30.50005,-1.5 0,-1.3005 4.0556,-1.5 30.50005,-1.5 l 30.5,0 0,-3.5674 c 0,-2.9296 0.3128,-3.474 1.75,-3.0454 0.9625,0.287 7.375,1.9022 14.25,3.5892 6.875,1.6871 13.3753,3.4295 14.4451,3.8722 1.409,0.583 -2.5188,1.9222 -14.25,4.8586 l -16.1951,4.0539 0,-3.3806 z M 161.18054,642.262 c 0,-1.1111 0.6666,-2 1.5,-2 0.8333,0 1.5,0.8889 1.5,2 0,1.1111 -0.6667,2 -1.5,2 -0.8334,0 -1.5,-0.8889 -1.5,-2 z m -1.4703,-10.9689 c -2.5335,-2.6444 -2.6305,-3.0486 -1.365,-5.6889 1.099,-2.293 2.0148,-2.8422 4.7397,-2.8422 2.0047,0 3.7866,0.6484 4.3838,1.5953 1.4475,2.2947 0.1236,6.4049 -2.648,8.2209 -2.2575,1.4791 -2.5271,1.4113 -5.1105,-1.2851 z m -19.5297,-15.0311 0,-10 5.4285,0 c 3.6018,0 5.9574,0.5289 7,1.5715 1.7933,1.7933 2.0727,5.5273 0.5291,7.0709 -0.7232,0.7232 -0.5701,1.4344 0.5,2.3225 2.0867,1.7318 1.9459,5.3599 -0.2864,7.3801 -1.2491,1.1305 -3.6261,1.655 -7.5,1.655 l -5.6712,0 0,-10 z m 10.8374,7.1216 c 0.7357,-0.4662 1.1857,-1.9219 1,-3.2347 -0.2868,-2.0284 -0.9756,-2.433 -4.5874,-2.6944 l -4.25,-0.3075 0,3.5575 c 0,3.3501 0.1895,3.5566 3.25,3.5422 1.7875,-0.01 3.8518,-0.3968 4.5874,-0.8631 z m -2.0874,-8.7519 c 1.4978,-0.4013 2.25,-1.3639 2.25,-2.8793 0,-2.4335 -1.6902,-3.4904 -5.5818,-3.4904 -2.097,0 -2.4182,0.4649 -2.4182,3.5 0,3.693 0.9355,4.16 5.75,2.8697 z m 907.25006,6.1303 0,-3.5 -30.5,0 c -19.6667,0 -30.50005,-0.3552 -30.50005,-1 0,-0.6448 10.83335,-1 30.50005,-1 l 30.5,0 0,-3.5 c 0,-2.1477 0.4829,-3.4895 1.25,-3.4729 3.4001,0.074 31.047,7.7967 29.75,8.3106 -1.6057,0.6362 -29.5265,7.6623 -30.4491,7.6623 -0.3031,0 -0.5509,-1.575 -0.5509,-3.5 z m -895.00006,-55 0,-53.50003 -3,0 c -3.8317,0 -3.8322,0.012 0.84,-18.5 l 3.7859,-15 3.7277,15 c 2.0502,8.25 3.9647,15.7875 4.2544,16.75 0.4328,1.4381 -0.1092,1.75 -3.0407,1.75 l -3.5673,0 0,53.50003 c 0,46.8889 -0.1854,53.5 -1.5,53.5 -1.3147,0 -1.5,-6.6111 -1.5,-53.5 z m 895.00006,27.8868 0,-3.3868 -30.5,0 c -26.44445,0 -30.50005,-0.1994 -30.50005,-1.5 0,-1.3005 4.0556,-1.5 30.50005,-1.5 l 30.5,0 0,-3.3805 0,-3.3805 16.0337,4.0134 c 8.8186,2.2074 15.901,4.1463 15.7386,4.3087 -0.1624,0.1623 -7.3776,2.0765 -16.0338,4.2538 l -15.7385,3.9586 0,-3.3867 z m -40,-28.4306 c 0,-7.47873 0.3191,-9.99103 1.25,-9.83713 0.6875,0.1137 2.5645,-0.1597 4.1713,-0.6076 2.4764,-0.6903 3.2762,-0.4019 5.25,1.8929 3.0682,3.567 3.0181,7.99703 -0.1259,11.14113 -2.719,2.7189 -3.7638,2.9432 -6.6112,1.4194 -1.7428,-0.9328 -1.9342,-0.6853 -1.9342,2.5 0,1.9443 -0.4501,3.5351 -1,3.5351 -0.6004,0 -1,-4.0146 -1,-10.0438 z m 9.5894,-0.4562 c 1.0667,-4.25013 -0.291,-7.50003 -3.1332,-7.50003 -3.1268,0 -4.8697,3.7821 -3.4562,7.50003 0.6648,1.7487 1.7036,2.5 3.4562,2.5 1.8388,0 2.6727,-0.6654 3.1332,-2.5 z m -771.58956,-4.41683 c -7.9749,-2.0543 -15.1596,-3.9583 -15.9658,-4.2311 -0.8061,-0.2728 5.2689,-2.1694 13.5,-4.2147 8.2312,-2.0452 15.7534,-3.9557 16.7158,-4.2454 1.4381,-0.4329 1.75,0.1091 1.75,3.0406 l 0,3.5674 274.9397,0 274.93961,0 0.3104,-3.3139 0.3104,-3.314 16.5,4.1241 16.5,4.124 -15,3.7306 c -8.25,2.0518 -15.7875,3.9676 -16.75,4.25733 -1.4381,0.4328 -1.75,-0.1092 -1.75,-3.04073 l 0,-3.5674 -275.00001,0 -275,0 0,3.5 c 0,1.925 -0.3375,3.45913 -0.75,3.40923 -0.4125,-0.05 -7.275,-1.77173 -15.25,-3.82603 z m 259,-31.0832 c 0,-8.2222 0.2667,-10 1.5,-10 1.2334,0 1.5,1.7778 1.5,10 0,8.2223 -0.2666,10 -1.5,10 -1.2333,0 -1.5,-1.7777 -1.5,-10 z m -324,-21.0314 c 0,-0.5672 0.6751,-1.2904 1.5,-1.6069 2.0309,-0.7793 1.886,-3.9269 -0.5,-10.8617 -2.3775,-6.9106 -2.3377,-6.5 -0.6299,-6.5 0.7704,0 1.9214,1.9695 2.6299,4.5 0.693,2.475 1.593,4.5 2,4.5 0.4071,0 1.3071,-2.025 2,-4.5 0.7086,-2.5305 1.8596,-4.5 2.63,-4.5 0.7535,0 1.37,0.1943 1.37,0.4318 0,1.2303 -6.2587,17.1751 -7.175,18.2792 -1.279,1.541 -3.825,1.7125 -3.825,0.2576 z"
       id="path3002"
       inkscape:connector-curvature="0" />
  </g>
</svg>
