DBRep_DrawableShape

CASCADE Topology V3, (c) Open Cascade
Locations 7
1
              1               0               0               0 
              0               1               0               0 
              0               0               1             340 
2  1 -1 0
1
              1               0               0               0 
              0               1               0               0 
              0               0               1             340 
2  3 -1 0
2  3 1 1 -1 0
1
              1               0               0               0 
              0               1               0               0 
              0               0               1             380 
2  6 -1 0
Curve2ds 380
1 20 0 0 -1 
1 0 0 0 -1 
1 150 -20 0 -1 
1 50 0 0 -1 
1 62.833333333333329 -87.166666666666671 0 1 
1 0 0 1 0 
1 0 -340 1 0 
1 62.833333333333329 -37.166666666666671 -1 0 
1 42.833333333333329 -37.166666666666671 0 1 
1 42.833333333333329 2.8333333333333286 -1 0 
1 22.833333333333329 2.8333333333333286 0 1 
1 22.833333333333329 22.833333333333329 -1 0 
1 2.8333333333333286 22.833333333333329 0 1 
1 2.8333333333333286 42.833333333333329 -1 0 
1 0 -0 0 -1 
1 -37.166666666666671 42.833333333333329 0 1 
1 0 0 0 -1 
1 50 0 0 -1 
1 20 -20 0 -1 
1 -37.166666666666671 62.833333333333329 -1 0 
1 0 -0 1 0 
1 0 -340 1 0 
1 0 0 1 0 
1 0 -340 1 0 
1 -87.166666666666671 62.833333333333329 0 -1 
1 20 -360 1 0 
1 20 -20 1 0 
1 20 0 0 -1 
1 0 0 0 -1 
1 40 -20 0 -1 
1 130 0 0 -1 
1 30 0 0 -1 
1 0 0 0 -1 
1 55.769230769230766 74.230769230769226 -1 0 
1 0 0 1 0 
1 0 -340 1 0 
1 0 0 1 0 
1 0 -340 1 0 
1 -87.166666666666671 42.833333333333329 1 0 
1 55.769230769230766 74.230769230769226 -1 0 
1 20 0 0 -1 
1 0 0 0 -1 
1 25.769230769230766 74.230769230769226 0 -1 
1 0 0 1 0 
1 0 -340 1 0 
1 0 0 1 0 
1 0 -340 1 0 
1 -57.166666666666671 42.833333333333329 0 -1 
1 25.769230769230766 74.230769230769226 0 -1 
1 40 0 0 -1 
1 0 0 0 -1 
1 25.769230769230766 54.230769230769234 -1 0 
1 0 0 1 0 
1 0 -340 1 0 
1 0 0 1 0 
1 0 -340 1 0 
1 -57.166666666666671 22.833333333333329 1 0 
1 25.769230769230766 54.230769230769234 -1 0 
1 20 0 0 -1 
1 0 0 0 -1 
1 0 -20 1 0 
1 0 0 1 0 
1 -14.230769230769234 54.230769230769234 0 -1 
1 0 0 1 0 
1 0 -340 1 0 
1 0 0 1 0 
1 0 -340 1 0 
1 -17.166666666666671 22.833333333333329 0 -1 
1 -14.230769230769234 54.230769230769234 0 -1 
1 20 0 0 -1 
1 0 0 0 -1 
1 0 -20 1 0 
1 0 20 1 0 
1 -14.230769230769234 34.230769230769234 -1 0 
1 0 0 1 0 
1 0 -340 1 0 
1 0 0 1 0 
1 0 -340 1 0 
1 -17.166666666666671 2.8333333333333286 1 0 
1 0 0 0 1 
1 -14.230769230769234 34.230769230769234 -1 0 
1 340 0 0 1 
1 20 0 0 -1 
1 0 0 0 -1 
1 0 0 1 0 
1 0 20 1 0 
1 -34.230769230769234 34.230769230769234 0 -1 
1 0 0 1 0 
1 0 -340 1 0 
1 0 0 1 0 
1 0 -340 1 0 
1 2.8333333333333286 2.8333333333333286 0 -1 
1 0 -20 0 1 
1 -34.230769230769234 34.230769230769234 0 -1 
1 340 -20 0 1 
1 20 0 0 -1 
1 0 0 0 -1 
1 -34.230769230769234 14.230769230769234 -1 0 
1 0 0 1 0 
1 0 -340 1 0 
1 0 0 1 0 
1 0 -340 1 0 
1 2.8333333333333286 -17.166666666666671 1 0 
1 -34.230769230769234 14.230769230769234 -1 0 
1 40 0 0 -1 
1 0 0 0 -1 
1 -54.230769230769234 14.230769230769234 0 -1 
1 0 0 1 0 
1 0 -340 1 0 
1 0 0 1 0 
1 0 -340 1 0 
1 22.833333333333329 -17.166666666666671 0 -1 
1 -54.230769230769234 14.230769230769234 0 -1 
1 20 0 0 -1 
1 0 0 0 -1 
1 -54.230769230769234 -25.769230769230766 -1 0 
1 0 0 1 0 
1 0 -340 1 0 
1 0 0 1 0 
1 0 -340 1 0 
1 22.833333333333329 -57.166666666666671 1 0 
1 -54.230769230769234 -25.769230769230766 -1 0 
1 30 0 0 -1 
1 0 0 0 -1 
1 130 -20 0 -1 
1 0 -0 0 -1 
1 -74.230769230769226 -25.769230769230766 0 -1 
1 0 0 1 0 
1 0 -340 1 0 
1 0 0 1 0 
1 0 -340 1 0 
1 42.833333333333329 -57.166666666666671 0 -1 
1 -74.230769230769226 -25.769230769230766 0 -1 
1 0 0 1 0 
1 0 -340 1 0 
1 42.833333333333329 -87.166666666666671 1 0 
1 130 -20 1 0 
1 130 -360 1 0 
1 0 0 1 0 
1 0 -380 1 0 
1 -77.941176470588232 -77.941176470588232 1 0 
1 170 0 0 -1 
1 0 0 1 0 
1 0 20 1 0 
1 90 -20 0 -1 
1 -74.230769230769226 -55.769230769230766 1 0 
1 0 -0 1 0 
1 0 -340 1 0 
1 130 -360 -1 0 
1 130 -20 -1 0 
1 0 0 0 1 
1 0 0 1 0 
1 70 -20 1 0 
1 60 0 -1 0 
1 -14.230769230769234 -55.769230769230766 -1 0 
1 130 -20 -1 0 
1 130 -20 -1 0 
1 0 130 0 -1 
1 0 0 0 -1 
1 170 0 0 -1 
1 92.058823529411768 -77.941176470588232 0 1 
1 92.058823529411768 -7.941176470588232 -1 0 
1 72.058823529411768 -7.941176470588232 0 1 
1 72.058823529411768 32.058823529411768 -1 0 
1 52.058823529411768 32.058823529411768 0 1 
1 52.058823529411768 52.058823529411768 -1 0 
1 32.058823529411768 52.058823529411768 0 1 
1 32.058823529411768 72.058823529411768 -1 0 
1 -7.941176470588232 72.058823529411768 0 1 
1 -7.941176470588232 92.058823529411768 -1 0 
1 0 0 1 0 
1 0 -380 1 0 
1 -77.941176470588232 92.058823529411768 0 -1 
1 360 0 0 -1 
1 10 0 0 1 
1 -67.941176470588232 -77.941176470588232 0 1 
1 360 0 0 1 
1 0 10 1 0 
1 -77.941176470588232 -67.941176470588232 1 0 
1 360 0 0 1 
1 0 0 1 0 
1 -77.941176470588232 -7.941176470588232 1 0 
1 360 0 0 -1 
1 10 0 0 1 
1 -67.941176470588232 -7.941176470588232 0 1 
1 360 0 0 1 
1 0 20 1 0 
1 -77.941176470588232 12.058823529411768 1 0 
1 360 0 0 -1 
1 20 0 0 1 
1 12.058823529411768 -77.941176470588232 0 1 
1 360 0 0 1 
1 0 10 1 0 
1 -7.941176470588232 -67.941176470588232 1 0 
1 360 0 0 -1 
1 0 0 0 1 
1 -7.941176470588232 -77.941176470588232 0 1 
1 100 0 0 -1 
1 0 0 0 1 
1 -47.941176470588232 -47.941176470588232 0 1 
1 100 0 0 1 
1 0 0 1 0 
1 -47.941176470588232 -47.941176470588232 1 0 
1 100 0 0 -1 
1 20 0 0 1 
1 -27.941176470588232 -47.941176470588232 0 1 
1 100 0 0 1 
1 0 20 1 0 
1 -47.941176470588232 -27.941176470588232 1 0 
1 360 0 0 -1 
1 0 0 0 1 
1 -7.941176470588232 -7.941176470588232 0 1 
1 360 0 0 1 
1 0 0 1 0 
1 -7.941176470588232 -7.941176470588232 1 0 
1 360 0 0 -1 
1 20 0 0 1 
1 12.058823529411768 -7.941176470588232 0 1 
1 360 0 0 1 
1 0 20 1 0 
1 -7.941176470588232 12.058823529411768 1 0 
1 0 -10 1 0 
1 0 20 1 0 
8 17.884615384615383 27.884615384615383
1 -34.230769230769234 -27.884615384615383 0 -1 
8 17.884615384615383 27.884615384615383
1 340 -27.884615384615383 0 1 
8 7.1153846153846132 27.115384615384613
1 -7.1153846153846203 14.230769230769234 -1 0 
8 7.1153846153846132 27.115384615384613
1 340 -7.1153846153846132 0 1 
8 -27.115384615384613 -7.1153846153846132
1 -14.230769230769234 7.1153846153846203 0 -1 
8 -27.115384615384613 -7.1153846153846132
1 340 7.1153846153846132 0 1 
1 55.769230769230766 -55.769230769230766 0 1 
1 0 0 1 0 
1 0 -340 1 0 
1 170 -360 -1 0 
8 -27.884615384615383 -17.884615384615383
1 27.884615384615383 34.230769230769234 -1 0 
8 -27.884615384615383 -17.884615384615383
1 340 27.884615384615383 0 1 
8 -27.115384615384613 -7.1153846153846132
1 45.769230769230766 7.1153846153846203 0 -1 
8 -27.115384615384613 -7.1153846153846132
1 340 7.1153846153846132 0 1 
8 -27.884615384615383 -17.884615384615383
1 27.884615384615383 14.230769230769234 -1 0 
8 -27.884615384615383 -17.884615384615383
1 340 27.884615384615383 0 1 
1 170 -360 -1 0 
8 -27.884615384615383 -17.884615384615383
1 27.884615384615383 -45.769230769230766 -1 0 
8 -27.884615384615383 -17.884615384615383
1 340 27.884615384615383 0 1 
8 17.884615384615383 27.884615384615383
1 45.769230769230766 -27.884615384615383 0 -1 
8 17.884615384615383 27.884615384615383
1 340 -27.884615384615383 0 1 
1 130 -360 -1 0 
8 17.884615384615383 27.884615384615383
1 -14.230769230769234 -27.884615384615383 0 -1 
8 17.884615384615383 27.884615384615383
1 340 -27.884615384615383 0 1 
8 7.1153846153846132 27.115384615384613
1 -7.1153846153846203 -45.769230769230766 -1 0 
8 7.1153846153846132 27.115384615384613
1 340 -7.1153846153846132 0 1 
8 -12.884615384615387 7.1153846153846132
1 12.88461538461538 -5.7692307692307665 -1 0 
8 -12.884615384615387 7.1153846153846132
1 80 12.884615384615387 0 1 
8 -7.1153846153846132 12.884615384615387
1 5.7692307692307665 -12.88461538461538 0 -1 
8 -7.1153846153846132 12.884615384615387
1 80 -12.884615384615387 0 1 
8 -12.884615384615387 7.1153846153846132
1 12.88461538461538 -25.769230769230766 -1 0 
8 -12.884615384615387 7.1153846153846132
1 80 12.884615384615387 0 1 
8 -7.1153846153846132 12.884615384615387
1 25.769230769230766 -12.88461538461538 0 -1 
8 -7.1153846153846132 12.884615384615387
1 80 -12.884615384615387 0 1 
1 0 0 0 1 
1 0 0 1 0 
1 -14.230769230769234 14.230769230769234 -1 0 
1 0 0 0 -1 
1 0 0 0 1 
1 -14.230769230769234 14.230769230769234 0 1 
1 170 -20 -1 0 
1 0 0 0 1 
1 0 20 1 0 
1 55.769230769230766 34.230769230769234 -1 0 
1 0 0 0 -1 
1 10 0 0 1 
1 45.769230769230766 14.230769230769234 0 1 
1 0 0 0 1 
1 0 0 1 0 
1 55.769230769230766 14.230769230769234 -1 0 
1 170 -20 -1 0 
1 0 0 0 1 
1 0 10 1 0 
1 55.769230769230766 -45.769230769230766 -1 0 
1 0 0 0 -1 
1 10 0 0 1 
1 45.769230769230766 -55.769230769230766 0 1 
1 0 0 0 -1 
1 0 0 0 1 
1 -14.230769230769234 -55.769230769230766 0 1 
1 0 0 0 1 
1 0 10 1 0 
1 -14.230769230769234 -45.769230769230766 -1 0 
1 0 0 0 -1 
1 20 0 0 1 
1 -34.230769230769234 -55.769230769230766 0 1 
1 170 -20 -1 0 
1 0 0 0 -1 
1 0 0 0 -1 
1 0 0 0 1 
1 100 -20 -1 -0 
1 70 0 1 0 
1 55.769230769230766 14.230769230769234 0 1 
1 0 -20 1 0 
1 0 0 1 0 
1 80 -20 0 -1 
1 0 0 0 -1 
1 0 0 1 0 
1 0 10 1 0 
1 10 -20 0 -1 
1 0 -10 1 0 
1 0 10 1 0 
1 0 -10 1 0 
1 0 0 1 0 
1 160 -20 0 -1 
1 0 0 1 0 
1 0 0 1 0 
1 100 -20 0 -1 
1 0 0 1 0 
1 0 10 1 0 
1 0 -20 1 0 
1 0 10 1 0 
1 0 -10 1 0 
1 0 0 1 0 
1 0 0 1 0 
1 0 0 1 0 
1 70 -20 0 -1 
1 0 0 1 0 
1 0 0 1 0 
1 0 -20 1 0 
1 0 0 1 0 
1 0 0 1 0 
1 0 20 1 0 
1 0 -20 1 0 
1 0 20 1 0 
1 0 0 1 0 
1 0 0 1 0 
1 0 -20 1 0 
1 0 0 1 0 
1 0 0 1 0 
1 0 20 1 0 
1 0 -20 1 0 
1 0 20 1 0 
1 360 0 0 1 
1 0 0 1 0 
1 70 -380 1 0 
1 -7.941176470588232 -77.941176470588232 1 0 
1 130 -360 -1 0 
1 340 60 0 -1 
1 90 -20 0 -1 
1 40 0 0 -1 
1 80 -20 0 -1 
1 90 0 0 -1 
1 100 -20 0 -1 
1 70 0 0 -1 
1 160 -20 0 -1 
1 10 0 0 -1 
1 10 -20 0 -1 
1 120 0 0 -1 
1 70 -20 0 -1 
1 60 0 0 -1 
1 0 0 0 1 
1 0 20 1 0 
1 0 0 0 -1 
1 20 0 0 1 
1 0 0 0 1 
1 0 0 1 0 
1 0 0 0 -1 
1 0 0 0 1 
1 130 -360 -1 0 
1 340 130 0 -1 
1 130 20 0 -1 
1 0 20 0 -1 
1 -20 0 1 0 
1 -20 0 1 0 
1 170 -360 -1 0 
1 340 0 0 -1 
1 360 -170 0 1 
1 360 0 0 1 
1 -20 0 1 0 
1 -20 0 1 0 
1 360 0 0 -1 
1 0 0 0 1 
1 100 -380 -1 -0 
1 -77.941176470588232 -7.941176470588232 0 1 
1 170 -360 -1 0 
1 340 70 0 -1 
Curves 137
1 150 0 20 0 0 1 
1 150 50 20 0 0 1 
1 150 0 20 0 1 0 
1 130 50 20 0 0 1 
1 150 50 20 -1 0 0 
1 130 90 20 0 0 1 
1 130 50 20 0 1 0 
1 110 90 20 0 0 1 
1 130 90 20 -1 0 0 
1 110 110 20 0 0 1 
1 110 90 20 0 1 0 
1 90 110 20 0 0 1 
1 110 110 20 -1 0 0 
1 90 130 20 0 0 1 
1 90 110 20 0 1 0 
1 50 130 20 0 0 1 
1 90 130 20 -1 0 0 
1 50 150 20 0 0 1 
1 50 130 20 0 1 0 
1 0 150 20 0 0 1 
1 50 150 20 -1 0 0 
1 0 150 20 0 -1 0 
1 0 130 20 0 0 1 
1 30 130 20 0 0 1 
1 0 130 20 1 0 0 
1 30 110 20 0 0 1 
1 30 130 20 0 -1 0 
1 70 110 20 0 0 1 
1 30 110 20 1 0 0 
1 70 90 20 0 0 1 
1 70 110 20 0 -1 0 
1 90 90 20 0 0 1 
1 70 90 20 1 0 0 
1 90 70 20 0 0 1 
1 90 90 20 0 -1 0 
1 110 70 20 0 0 1 
1 90 70 20 1 0 0 
1 110 30 20 0 0 1 
1 110 70 20 0 -1 0 
1 130 30 20 0 0 1 
1 110 30 20 1 0 0 
1 130 0 20 0 0 1 
1 130 30 20 0 -1 0 
1 130 0 20 1 0 0 
1 0 0 0 1 0 0 
1 170 0 0 0 0 1 
1 90 0 20 0 0 1 
1 130 0 20 -1 0 0 
1 70 0 20 1 0 -0 
1 0 0 0 0 0 1 
1 170 0 0 0 1 0 
1 170 70 0 -1 0 0 
1 150 70 0 0 1 0 
1 150 110 0 -1 0 0 
1 130 110 0 0 1 0 
1 130 130 0 -1 0 0 
1 110 130 0 0 1 0 
1 110 150 0 -1 0 0 
1 70 150 0 0 1 0 
1 70 170 0 -1 0 0 
1 0 170 0 0 -1 0 
1 170 70 0 0 0 1 
1 10 0 380 -0 1 0 
1 0 10 380 1 0 -0 
1 0 70 380 1 0 -0 
1 10 70 380 -0 1 0 
1 0 90 380 1 0 -0 
1 90 0 380 -0 1 0 
1 70 10 380 1 0 -0 
1 70 0 380 -0 1 0 
1 30 30 380 -0 1 0 
1 30 30 380 1 0 -0 
1 50 30 380 -0 1 0 
1 30 50 380 1 0 -0 
1 70 70 380 -0 1 0 
1 70 70 380 1 0 -0 
1 90 70 380 -0 1 0 
1 70 90 380 1 0 -0 
1 90 10 20 0 0 1 
1 90 27.884615384615383 360 0 -1 0 
1 62.884615384615387 70 360 1 0 -0 
1 70 62.884615384615387 360 0 -1 0 
1 0 0 20 0 1 0 
1 27.884615384615383 90 360 1 0 -0 
1 10 62.884615384615387 360 0 -1 0 
1 27.884615384615383 70 360 1 0 -0 
1 27.884615384615383 10 360 1 0 -0 
1 10 27.884615384615383 360 0 -1 0 
1 70 27.884615384615383 360 0 -1 0 
1 62.884615384615387 10 360 1 0 -0 
1 42.884615384615387 50 360 1 0 -0 
1 50 42.884615384615387 360 0 -1 0 
1 42.884615384615387 30 360 1 0 -0 
1 30 42.884615384615387 360 0 -1 0 
1 70 70 20 1 0 -0 
1 70 70 20 -0 1 0 
1 0 90 20 1 0 -0 
1 10 70 20 -0 1 0 
1 0 70 20 1 0 -0 
1 0 10 20 1 0 -0 
1 10 0 20 -0 1 0 
1 70 0 20 -0 1 0 
1 70 10 20 1 0 -0 
1 90 0 20 -0 1 0 
1 0 70 20 -0 1 0 
1 0 90 20 0 0 1 
1 0 170 0 0 0 1 
1 150 70 0 0 0 1 
1 150 110 0 0 0 1 
1 130 110 0 0 0 1 
1 130 130 0 0 0 1 
1 110 130 0 0 0 1 
1 110 150 0 0 0 1 
1 70 150 0 0 0 1 
1 70 170 0 0 0 1 
1 10 0 20 0 0 1 
1 10 10 20 0 0 1 
1 0 10 20 0 0 1 
1 0 70 20 0 0 1 
1 10 70 20 0 0 1 
1 10 90 20 0 0 1 
1 70 10 20 0 0 1 
1 70 0 20 0 0 1 
1 30 30 280 0 0 1 
1 30 50 280 0 0 1 
1 50 30 280 0 0 1 
1 50 50 280 0 0 1 
1 70 70 20 0 0 1 
1 70 90 20 0 0 1 
1 90 70 20 0 0 1 
1 90 90 20 0 0 1 
1 70 0 380 1 0 -0 
1 30 50 280 1 0 -0 
1 50 30 280 -0 1 0 
1 30 30 280 1 0 -0 
1 30 30 280 -0 1 0 
1 0 70 380 -0 1 0 
Polygon3D 0
PolygonOnTriangulations 0
Surfaces 79
1 150 0 20 -1 0 0 0 1 0 0 0 -1 
1 130 0 20 0 1 0 1 0 0 0 0 -1 
1 0 0 0 0 1 0 1 0 0 0 0 -1 
1 87.166666666666671 87.166666666666671 20 0 0 1 1 0 -0 -0 1 0 
1 150 50 20 0 -1 0 -1 0 0 -0 -0 -1 
1 130 50 20 -1 0 0 0 1 0 0 0 -1 
1 130 90 20 0 -1 0 -1 0 0 -0 -0 -1 
1 110 90 20 -1 0 0 0 1 0 0 0 -1 
1 110 110 20 0 -1 0 -1 0 0 -0 -0 -1 
1 90 110 20 -1 0 0 0 1 0 0 0 -1 
1 90 130 20 0 -1 0 -1 0 0 -0 -0 -1 
1 50 130 20 -1 0 0 0 1 0 0 0 -1 
1 50 150 20 0 -1 0 -1 0 0 -0 -0 -1 
1 0 150 20 1 0 -0 0 -1 0 0 -0 -1 
1 0 170 0 1 0 -0 0 -1 0 0 -0 -1 
1 0 130 20 0 1 0 1 0 0 0 0 -1 
1 0 0 20 -1 0 0 0 1 0 0 0 -1 
1 30 130 20 1 0 -0 0 -1 0 0 -0 -1 
1 55.769230769230766 55.769230769230766 20 -0 -0 -1 -1 0 0 0 1 -0 
1 0 130 20 0 1 0 1 0 0 0 0 -1 
1 30 110 20 0 1 0 1 0 0 0 0 -1 
1 30 130 20 1 0 -0 0 -1 0 0 -0 -1 
1 70 110 20 1 0 -0 0 -1 0 0 -0 -1 
1 30 110 20 0 1 0 1 0 0 0 0 -1 
1 70 90 20 0 1 0 1 0 0 0 0 -1 
1 70 70 20 1 0 -0 0 0 1 0 -1 0 
1 70 90 20 -0 1 0 0 0 1 1 0 -0 
1 70 110 20 1 0 -0 0 -1 0 0 -0 -1 
1 90 90 20 1 0 -0 0 -1 0 0 -0 -1 
1 90 70 20 1 0 -0 0 0 1 0 -1 0 
1 70 90 20 0 1 0 1 0 0 0 0 -1 
1 90 70 20 0 1 0 1 0 0 0 0 -1 
1 70 70 20 -0 1 0 0 0 1 1 0 -0 
1 90 90 20 1 0 -0 0 -1 0 0 -0 -1 
1 110 70 20 1 0 -0 0 -1 0 0 -0 -1 
1 90 70 20 0 1 0 1 0 0 0 0 -1 
1 110 30 20 0 1 0 1 0 0 0 0 -1 
1 110 70 20 1 0 -0 0 -1 0 0 -0 -1 
1 130 30 20 1 0 -0 0 -1 0 0 -0 -1 
1 110 30 20 0 1 0 1 0 0 0 0 -1 
1 130 0 20 0 -1 0 -1 0 0 -0 -0 -1 
1 130 30 20 1 0 -0 0 -1 0 0 -0 -1 
1 77.941176470588232 77.941176470588232 0 0 0 1 1 0 -0 -0 1 0 
1 90 0 20 1 0 -0 0 0 1 0 -1 0 
1 70 0 20 -0 1 0 0 0 1 1 0 -0 
1 70 0 20 0 0 1 1 0 -0 -0 1 0 
1 0 0 20 -0 1 0 0 0 1 1 0 -0 
1 170 0 0 -1 0 0 0 1 0 0 0 -1 
1 10 0 20 1 0 -0 0 0 1 0 -1 0 
1 0 0 380 0 0 1 1 0 -0 -0 1 0 
1 0 10 20 -0 1 0 0 0 1 1 0 -0 
1 0 70 20 -0 1 0 0 0 1 1 0 -0 
1 0 70 380 0 0 1 1 0 -0 -0 1 0 
1 10 70 20 1 0 -0 0 0 1 0 -1 0 
1 0 90 20 -0 1 0 0 0 1 1 0 -0 
1 70 0 380 0 0 1 1 0 -0 -0 1 0 
1 70 10 20 -0 1 0 0 0 1 1 0 -0 
1 70 0 20 1 0 -0 0 0 1 0 -1 0 
1 30 30 280 1 0 -0 0 0 1 0 -1 0 
1 30 30 380 0 0 1 1 0 -0 -0 1 0 
1 30 30 280 -0 1 0 0 0 1 1 0 -0 
1 50 30 280 1 0 -0 0 0 1 0 -1 0 
1 30 50 280 -0 1 0 0 0 1 1 0 -0 
1 70 70 380 0 0 1 1 0 -0 -0 1 0 
1 70 70 20 0 0 1 1 0 -0 -0 1 0 
1 0 70 20 0 0 1 1 0 -0 -0 1 0 
1 0 0 20 0 0 1 1 0 -0 -0 1 0 
1 0 0 20 1 0 -0 0 0 1 0 -1 0 
1 0 70 20 1 0 -0 0 0 1 0 -1 0 
1 170 70 0 0 -1 0 -1 0 0 -0 -0 -1 
1 150 70 0 -1 0 0 0 1 0 0 0 -1 
1 150 110 0 0 -1 0 -1 0 0 -0 -0 -1 
1 130 110 0 -1 0 0 0 1 0 0 0 -1 
1 130 130 0 0 -1 0 -1 0 0 -0 -0 -1 
1 110 130 0 -1 0 0 0 1 0 0 0 -1 
1 110 150 0 0 -1 0 -1 0 0 -0 -0 -1 
1 70 150 0 -1 0 0 0 1 0 0 0 -1 
1 70 170 0 0 -1 0 -1 0 0 -0 -0 -1 
1 30 30 280 0 0 1 1 0 -0 -0 1 0 
Triangulations 0

TShapes 512
Ve
1e-07
150 0 20
0 0

0101101
*
Ed
 1e-07 1 1 0
1  1 0 0 340
2  1 2 0 0 340
2  2 1 0 0 340
2  3 3 0 0 340
0

0101000
+512 0 -512 1 *
Ve
1e-07
150 50 20
0 0

0101101
*
Ed
 1e-07 1 1 0
1  2 0 0 340
2  4 1 0 0 340
0

0101000
+510 0 -510 1 *
Ed
 1e-07 1 1 0
1  3 0 0 50
2  5 4 0 0 50
2  6 1 0 0 50
2  7 1 2 0 50
0

0101000
+512 0 -510 0 *
Wi

0101100
+511 0 -509 0 -508 0 +508 1 *
Fa
0  1e-07 1 0

0101000
+507 0 *
Ve
1e-07
130 50 20
0 0

0101101
*
Ed
 1e-07 1 1 0
1  4 0 0 340
0

0101000
+505 0 -505 1 *
Ed
 1e-07 1 1 0
1  5 0 0 20
2  8 4 0 0 20
0

0101000
+510 0 -505 0 *
Wi

0101100
+509 0 -504 0 -503 0 +503 1 *
Fa
0  1e-07 5 0

0101000
+502 0 *
Ve
1e-07
130 90 20
0 0

0101101
*
Ed
 1e-07 1 1 0
1  6 0 0 340
0

0101000
+500 0 -500 1 *
Ed
 1e-07 1 1 0
1  7 0 0 40
2  9 4 0 0 40
0

0101000
+505 0 -500 0 *
Wi

0101100
+504 0 -499 0 -498 0 +498 1 *
Fa
0  1e-07 6 0

0101000
+497 0 *
Ve
1e-07
110 90 20
0 0

0101101
*
Ed
 1e-07 1 1 0
1  8 0 0 340
0

0101000
+495 0 -495 1 *
Ed
 1e-07 1 1 0
1  9 0 0 20
2  10 4 0 0 20
0

0101000
+500 0 -495 0 *
Wi

0101100
+499 0 -494 0 -493 0 +493 1 *
Fa
0  1e-07 7 0

0101000
+492 0 *
Ve
1e-07
110 110 20
0 0

0101101
*
Ed
 1e-07 1 1 0
1  10 0 0 340
0

0101000
+490 0 -490 1 *
Ed
 1e-07 1 1 0
1  11 0 0 20
2  11 4 0 0 20
0

0101000
+495 0 -490 0 *
Wi

0101100
+494 0 -489 0 -488 0 +488 1 *
Fa
0  1e-07 8 0

0101000
+487 0 *
Ve
1e-07
90 110 20
0 0

0101101
*
Ed
 1e-07 1 1 0
1  12 0 0 340
0

0101000
+485 0 -485 1 *
Ed
 1e-07 1 1 0
1  13 0 0 20
2  12 4 0 0 20
0

0101000
+490 0 -485 0 *
Wi

0101100
+489 0 -484 0 -483 0 +483 1 *
Fa
0  1e-07 9 0

0101000
+482 0 *
Ve
1e-07
90 130 20
0 0

0101101
*
Ed
 1e-07 1 1 0
1  14 0 0 340
0

0101000
+480 0 -480 1 *
Ed
 1e-07 1 1 0
1  15 0 0 20
2  13 4 0 0 20
0

0101000
+485 0 -480 0 *
Wi

0101100
+484 0 -479 0 -478 0 +478 1 *
Fa
0  1e-07 10 0

0101000
+477 0 *
Ve
1e-07
50 130 20
0 0

0101101
*
Ed
 1e-07 1 1 0
1  16 0 0 340
0

0101000
+475 0 -475 1 *
Ed
 1e-07 1 1 0
1  17 0 0 40
2  14 4 0 0 40
0

0101000
+480 0 -475 0 *
Wi

0101100
+479 0 -474 0 -473 0 +473 1 *
Fa
0  1e-07 11 0

0101000
+472 0 *
Ve
1e-07
50 150 20
0 0

0101101
*
Ed
 1e-07 1 1 0
1  18 0 0 340
2  15 13 0 0 340
0

0101000
+470 0 -470 1 *
Ed
 1e-07 1 1 0
1  19 0 0 20
2  16 4 0 0 20
0

0101000
+475 0 -470 0 *
Wi

0101100
+474 0 -469 0 -468 0 +468 1 *
Fa
0  1e-07 12 0

0101000
+467 0 *
Ve
1e-07
0 150 20
0 0

0101101
*
Ed
 1e-07 1 1 0
1  20 0 0 340
2  17 14 0 0 340
2  18 13 0 0 340
2  19 15 0 0 340
0

0101000
+465 0 -465 1 *
Ed
 1e-07 1 1 0
1  21 0 0 50
2  20 4 0 0 50
2  21 13 0 0 50
2  22 13 2 0 50
0

0101000
+470 0 -465 0 *
Wi

0101100
+469 0 -464 0 -463 0 +463 1 *
Fa
0  1e-07 13 0

0101000
+462 0 *
Ve
1e-07
0 130 360
0 0

0101101
*
Ed
 1e-07 1 1 0
1  22 0 0 20
2  23 14 0 0 20
2  24 14 2 0 20
2  25 4 0 0 20
2  26 15 2 0 20
0

0101000
+465 0 -460 2 *
Ve
1e-07
0 130 20
0 0

0101101
*
Ed
 1e-07 1 1 0
1  22 0 0 20
2  23 14 0 0 20
2  24 14 2 0 20
2  25 4 0 0 20
2  27 15 0 0 20
0

0101000
+465 0 -458 0 *
Ed
 1e-07 1 1 0
1  23 0 0 340
2  28 14 0 0 340
2  29 16 0 0 340
2  30 15 0 0 340
2  31 17 0 0 340
0

0101000
+458 0 -460 0 *
Wi

0101100
+459 1 +464 0 -457 0 -456 0 *
Fa
0  1e-07 15 0

0101000
+455 0 *
Ve
1e-07
30 130 20
0 0

0101101
*
Ve
1e-07
30 130 360
0 0

0101101
*
Ed
 1e-07 1 1 0
1  24 0 0 340
2  32 16 0 0 340
2  33 18 0 0 340
0

0101000
+453 0 -452 0 *
Ed
 1e-07 1 1 0
1  25 0 0 30
2  34 19 0 0 30
2  35 20 0 0 30
2  36 20 4 0 30
2  37 16 0 0 30
2  38 16 2 0 30
2  39 4 0 0 30
0

0101000
+458 0 -453 0 *
Ed
 1e-07 1 1 0
1  25 0 0 30
2  34 19 0 0 30
2  35 20 0 0 30
2  36 20 4 0 30
2  37 16 0 0 30
2  38 16 2 0 30
2  39 4 0 0 30
2  40 19 5 0 30
0

0101000
+460 2 -452 2 *
Wi

0101100
+456 0 -451 0 -450 0 +449 1 *
Fa
0  1e-07 16 0

0101000
+448 0 *
Ve
1e-07
30 110 20
0 0

0101101
*
Ve
1e-07
30 110 360
0 0

0101101
*
Ed
 1e-07 1 1 0
1  26 0 0 340
2  41 18 0 0 340
2  42 21 0 0 340
0

0101000
+446 0 -445 0 *
Ed
 1e-07 1 1 0
1  27 0 0 20
2  43 19 0 0 20
2  44 22 0 0 20
2  45 22 4 0 20
2  46 18 0 0 20
2  47 18 2 0 20
2  48 4 0 0 20
0

0101000
+453 0 -446 0 *
Ed
 1e-07 1 1 0
1  27 0 0 20
2  43 19 0 0 20
2  44 22 0 0 20
2  45 22 4 0 20
2  46 18 0 0 20
2  47 18 2 0 20
2  48 4 0 0 20
2  49 19 5 0 20
0

0101000
+452 2 -445 2 *
Wi

0101100
+451 0 -444 0 -443 0 +442 1 *
Fa
0  1e-07 18 0

0101000
+441 0 *
Ve
1e-07
70 110 20
0 0

0101101
*
Ve
1e-07
70 110 360
0 0

0101101
*
Ed
 1e-07 1 1 0
1  28 0 0 340
2  50 21 0 0 340
2  51 23 0 0 340
0

0101000
+439 0 -438 0 *
Ed
 1e-07 1 1 0
1  29 0 0 40
2  52 19 0 0 40
2  53 24 0 0 40
2  54 24 4 0 40
2  55 21 0 0 40
2  56 21 2 0 40
2  57 4 0 0 40
0

0101000
+446 0 -439 0 *
Ed
 1e-07 1 1 0
1  29 0 0 40
2  52 19 0 0 40
2  53 24 0 0 40
2  54 24 4 0 40
2  55 21 0 0 40
2  56 21 2 0 40
2  57 4 0 0 40
2  58 19 5 0 40
0

0101000
+445 2 -438 2 *
Wi

0101100
+444 0 -437 0 -436 0 +435 1 *
Fa
0  1e-07 21 0

0101000
+434 0 *
Ve
1e-07
70 90 20
0 0

0101101
*
Ve
1.5e-07
70 90 360
0 0

0101101
*
Ed
 1e-07 1 1 0
1  30 0 0 340
2  59 23 0 0 340
2  60 25 0 0 340
2  61 26 0 0 340
2  62 27 0 0 340
0

0101000
+432 0 -431 0 *
Ed
 1e-07 1 1 0
1  31 0 0 20
2  63 19 0 0 20
2  64 28 0 0 20
2  65 28 4 0 20
2  66 23 0 0 20
2  67 23 2 0 20
2  68 4 0 0 20
0

0101000
+439 0 -432 0 *
Ed
 1e-07 1 1 0
1  31 0 0 20
2  63 19 0 0 20
2  64 28 0 0 20
2  65 28 4 0 20
2  66 23 0 0 20
2  67 23 2 0 20
2  68 4 0 0 20
2  69 19 5 0 20
0

0101000
+438 2 -431 2 *
Wi

0101100
+437 0 -430 0 -429 0 +428 1 *
Fa
0  1e-07 23 0

0101000
+427 0 *
Ve
1e-07
90 90 20
0 0

0101101
*
Ve
1e-07
90 90 360
0 0

0101101
*
Ed
 1e-07 1 1 0
1  32 0 0 340
2  70 25 0 0 340
2  71 29 0 0 340
2  72 30 0 0 340
2  73 27 0 0 340
0

0101000
+425 0 -424 0 *
Ed
 1e-07 1 1 0
1  33 0 0 20
2  74 19 0 0 20
2  75 31 0 0 20
2  76 31 4 0 20
2  77 25 0 0 20
2  78 25 2 0 20
2  79 4 0 0 20
2  80 27 0 0 20
0

0101000
+432 0 -425 0 *
Ed
 1e-07 1 1 0
1  33 0 0 20
2  74 19 0 0 20
2  75 31 0 0 20
2  76 31 4 0 20
2  77 25 0 0 20
2  78 25 2 0 20
2  79 4 0 0 20
2  81 19 5 0 20
2  82 27 2 0 20
0

0101000
+431 2 -424 2 *
Wi

0101100
+430 0 -423 0 -422 0 +421 1 *
Fa
0  1e-07 25 0

0101000
+420 0 *
Ve
1e-07
90 70 20
0 0

0101101
*
Ve
1.5e-07
90 70 360
0 0

0101101
*
Ed
 1e-07 1 1 0
1  34 0 0 340
2  83 29 0 0 340
2  84 32 0 0 340
2  85 30 0 0 340
2  86 33 0 0 340
0

0101000
+418 0 -417 0 *
Ed
 1e-07 1 1 0
1  35 0 0 20
2  87 19 0 0 20
2  88 34 0 0 20
2  89 34 4 0 20
2  90 29 0 0 20
2  91 29 2 0 20
2  92 4 0 0 20
2  93 30 0 0 20
0

0101000
+425 0 -418 0 *
Ed
 1e-07 1 1 0
1  35 0 0 20
2  87 19 0 0 20
2  88 34 0 0 20
2  89 34 4 0 20
2  90 29 0 0 20
2  91 29 2 0 20
2  92 4 0 0 20
2  94 19 5 0 20
2  95 30 2 0 20
0

0101000
+424 2 -417 2 *
Wi

0101100
+423 0 -416 0 -415 0 +414 1 *
Fa
0  1e-07 29 0

0101000
+413 0 *
Ve
1e-07
110 70 20
0 0

0101101
*
Ve
1e-07
110 70 360
0 0

0101101
*
Ed
 1e-07 1 1 0
1  36 0 0 340
2  96 32 0 0 340
2  97 35 0 0 340
0

0101000
+411 0 -410 0 *
Ed
 1e-07 1 1 0
1  37 0 0 20
2  98 19 0 0 20
2  99 36 0 0 20
2  100 36 4 0 20
2  101 32 0 0 20
2  102 32 2 0 20
2  103 4 0 0 20
0

0101000
+418 0 -411 0 *
Ed
 1e-07 1 1 0
1  37 0 0 20
2  98 19 0 0 20
2  99 36 0 0 20
2  100 36 4 0 20
2  101 32 0 0 20
2  102 32 2 0 20
2  103 4 0 0 20
2  104 19 5 0 20
0

0101000
+417 2 -410 2 *
Wi

0101100
+416 0 -409 0 -408 0 +407 1 *
Fa
0  1e-07 32 0

0101000
+406 0 *
Ve
1e-07
110 30 20
0 0

0101101
*
Ve
1e-07
110 30 360
0 0

0101101
*
Ed
 1e-07 1 1 0
1  38 0 0 340
2  105 35 0 0 340
2  106 37 0 0 340
0

0101000
+404 0 -403 0 *
Ed
 1e-07 1 1 0
1  39 0 0 40
2  107 19 0 0 40
2  108 38 0 0 40
2  109 38 4 0 40
2  110 35 0 0 40
2  111 35 2 0 40
2  112 4 0 0 40
0

0101000
+411 0 -404 0 *
Ed
 1e-07 1 1 0
1  39 0 0 40
2  107 19 0 0 40
2  108 38 0 0 40
2  109 38 4 0 40
2  110 35 0 0 40
2  111 35 2 0 40
2  112 4 0 0 40
2  113 19 5 0 40
0

0101000
+410 2 -403 2 *
Wi

0101100
+409 0 -402 0 -401 0 +400 1 *
Fa
0  1e-07 35 0

0101000
+399 0 *
Ve
1e-07
130 30 20
0 0

0101101
*
Ve
1e-07
130 30 360
0 0

0101101
*
Ed
 1e-07 1 1 0
1  40 0 0 340
2  114 37 0 0 340
2  115 39 0 0 340
0

0101000
+397 0 -396 0 *
Ed
 1e-07 1 1 0
1  41 0 0 20
2  116 19 0 0 20
2  117 40 0 0 20
2  118 40 4 0 20
2  119 37 0 0 20
2  120 37 2 0 20
2  121 4 0 0 20
0

0101000
+404 0 -397 0 *
Ed
 1e-07 1 1 0
1  41 0 0 20
2  116 19 0 0 20
2  117 40 0 0 20
2  118 40 4 0 20
2  119 37 0 0 20
2  120 37 2 0 20
2  121 4 0 0 20
2  122 19 5 0 20
0

0101000
+403 2 -396 2 *
Wi

0101100
+402 0 -395 0 -394 0 +393 1 *
Fa
0  1e-07 37 0

0101000
+392 0 *
Ve
1e-07
130 0 20
0 0

0101101
*
Ve
1e-07
130 0 360
0 0

0101101
*
Ed
 1e-07 1 1 0
1  42 0 0 340
2  123 39 0 0 340
2  124 2 0 0 340
2  125 3 0 0 340
2  126 41 0 0 340
0

0101000
+390 0 -389 0 *
Ed
 1e-07 1 1 0
1  43 0 0 30
2  127 19 0 0 30
2  128 42 0 0 30
2  129 42 4 0 30
2  130 39 0 0 30
2  131 39 2 0 30
2  132 4 0 0 30
0

0101000
+397 0 -390 0 *
Ed
 1e-07 1 1 0
1  43 0 0 30
2  127 19 0 0 30
2  128 42 0 0 30
2  129 42 4 0 30
2  130 39 0 0 30
2  131 39 2 0 30
2  132 4 0 0 30
2  133 19 5 0 30
0

0101000
+396 2 -389 2 *
Wi

0101100
+395 0 -388 0 -387 0 +386 1 *
Fa
0  1e-07 39 0

0101000
+385 0 *
Ed
 1e-07 1 1 0
1  44 0 0 20
2  134 2 0 0 20
2  135 2 2 0 20
2  136 4 0 0 20
2  137 3 0 0 20
0

0101000
+390 0 -512 0 *
Ed
 1e-07 1 1 0
1  44 0 0 20
2  134 2 0 0 20
2  135 2 2 0 20
2  136 4 0 0 20
2  138 3 2 0 20
0

0101000
+389 2 -512 0 *
Wi

0101100
-383 0 -511 0 +382 1 +388 0 *
Fa
0  1e-07 3 0

0101000
+381 0 *
Wi

0101100
+508 0 +503 0 +498 0 +493 0 +488 0 +483 0 +478 0 +473 0 +468 0 +463 0 
+457 0 +450 0 +443 0 +436 0 +429 0 +422 0 +415 0 +408 0 +401 0 +394 0 
+387 0 +383 0 *
Fa
0  1e-07 4 0

0101000
+379 0 *
Wi

0101100
+508 1 +503 1 +498 1 +493 1 +488 1 +483 1 +478 1 +473 1 +468 1 +463 1 
+459 1 +449 1 +442 1 +435 1 +428 1 +421 1 +414 1 +407 1 +400 1 +393 1 
+386 1 +382 1 *
Fa
0  1e-07 4 1

0101000
+377 0 *
Sh

0101100
+506 0 +501 0 +496 0 +491 0 +486 0 +481 0 +476 0 +471 0 +466 0 +461 0 
+454 0 +447 0 +440 0 +433 0 +426 0 +419 0 +412 0 +405 0 +398 0 +391 0 
+384 0 +380 0 +378 0 -376 0 *
So

0100000
-375 0 *
Ve
1e-07
0 0 0
0 0

0101101
*
Ve
1e-07
170 0 0
0 0

0101101
*
Ed
 1e-07 1 1 0
1  45 0 0 170
2  139 3 0 0 170
2  140 3 7 0 170
2  141 43 0 0 170
0

0101000
+373 0 -372 0 *
Ed
 1e-07 1 1 0
1  46 0 0 380
2  142 3 0 0 380
0

0101000
+372 0 -372 6 *
Ve
1e-07
90 0 380
0 0

0101101
*
Ed
 1e-07 1 1 0
1  45 0 90 170
2  139 3 0 90 170
2  140 3 7 90 170
2  141 43 0 90 170
0

0101000
+369 7 -372 0 *
Ve
1.5e-07
90 0 360
0 0

0101101
*
Ed
 1e-07 1 1 0
1  47 0 340 360
2  143 44 0 340 360
2  144 45 0 340 360
2  145 3 0 340 360
0

0101000
+367 0 -369 0 *
Ed
 1e-07 1 1 0
1  48 0 0 40
2  146 19 0 0 40
2  147 41 0 0 40
2  148 41 4 0 40
2  149 3 4 0 40
0

0101000
+389 4 -367 4 *
Ve
1e-07
90 0 20
0 0

0101101
*
Ed
 1e-07 1 1 0
1  48 0 0 40
2  146 19 0 0 40
2  147 41 0 0 40
2  148 41 4 0 40
2  150 3 0 0 40
0

0101000
+390 0 -364 0 *
Ve
1e-07
70 0 20
0 0

0101101
*
Ed
 1e-07 1 1 0
1  49 0 0 20
2  151 45 0 0 20
2  152 46 0 0 20
2  153 3 0 0 20
2  154 41 0 0 20
2  155 19 0 0 20
0

0101000
-364 0 +362 0 *
Ve
1e-07
10 0 20
0 0

0101101
*
Ed
 1e-07 1 1 0
1  48 0 60 120
2  146 19 0 60 120
2  147 41 0 60 120
2  148 41 4 60 120
2  156 3 0 60 120
0

0101000
+362 0 -360 0 *
Ve
1e-07
0 0 20
0 0

0101101
*
Ed
 1e-07 1 1 0
1  48 0 120 130
2  146 19 0 120 130
2  147 41 0 120 130
2  148 41 4 120 130
2  157 3 0 120 130
2  158 47 0 120 130
0

0101000
+360 0 -358 0 *
Ed
 1e-07 1 1 0
1  50 0 0 20
2  159 3 0 0 20
2  160 15 0 0 20
0

0101000
+373 0 -358 0 *
Wi

0101100
-371 0 -370 0 +368 6 +366 0 +365 3 -382 1 +511 0 +383 0 -363 0 +361 0 
-359 0 -357 0 +356 0 *
Fa
0  1e-07 3 0

0101000
+355 0 *
Ve
1e-07
170 70 0
0 0

0101101
*
Ed
 1e-07 1 1 0
1  51 0 0 70
2  161 43 0 0 70
0

0101000
+372 0 -353 0 *
Ve
1e-07
150 70 0
0 0

0101101
*
Ed
 1e-07 1 1 0
1  52 0 0 20
2  162 43 0 0 20
0

0101000
+353 0 -351 0 *
Ve
1e-07
150 110 0
0 0

0101101
*
Ed
 1e-07 1 1 0
1  53 0 0 40
2  163 43 0 0 40
0

0101000
+351 0 -349 0 *
Ve
1e-07
130 110 0
0 0

0101101
*
Ed
 1e-07 1 1 0
1  54 0 0 20
2  164 43 0 0 20
0

0101000
+349 0 -347 0 *
Ve
1e-07
130 130 0
0 0

0101101
*
Ed
 1e-07 1 1 0
1  55 0 0 20
2  165 43 0 0 20
0

0101000
+347 0 -345 0 *
Ve
1e-07
110 130 0
0 0

0101101
*
Ed
 1e-07 1 1 0
1  56 0 0 20
2  166 43 0 0 20
0

0101000
+345 0 -343 0 *
Ve
1e-07
110 150 0
0 0

0101101
*
Ed
 1e-07 1 1 0
1  57 0 0 20
2  167 43 0 0 20
0

0101000
+343 0 -341 0 *
Ve
1e-07
70 150 0
0 0

0101101
*
Ed
 1e-07 1 1 0
1  58 0 0 40
2  168 43 0 0 40
0

0101000
+341 0 -339 0 *
Ve
1e-07
70 170 0
0 0

0101101
*
Ed
 1e-07 1 1 0
1  59 0 0 20
2  169 43 0 0 20
0

0101000
+339 0 -337 0 *
Ve
1e-07
0 170 0
0 0

0101101
*
Ed
 1e-07 1 1 0
1  60 0 0 70
2  170 43 0 0 70
0

0101000
+337 0 -335 0 *
Ed
 1e-07 1 1 0
1  61 0 0 170
2  171 15 0 0 170
2  172 15 7 0 170
2  173 43 0 0 170
0

0101000
+335 0 -373 0 *
Wi

0101100
+371 0 +352 0 +350 0 +348 0 +346 0 +344 0 +342 0 +340 0 +338 0 +336 0 
+334 0 +333 0 *
Fa
0  1e-07 43 0

0111000
+332 0 *
Ed
 1e-07 1 1 0
1  62 0 0 380
0

0101000
+353 0 -353 6 *
Wi

0101100
+370 0 -330 0 -352 0 +352 6 *
Fa
0  1e-07 48 0

0101000
+329 0 *
Ve
1e-07
10 10 380
0 0

0101101
*
Ve
1e-07
10 0 380
0 0

0101101
*
Ed
 1e-07 1 1 0
1  63 0 0 10
2  174 49 0 0 10
2  175 50 0 0 10
2  176 43 6 0 10
0

0101000
-327 0 +326 0 *
Ve
1e-07
0 10 380
0 0

0101101
*
Ed
 1e-07 1 1 0
1  64 0 0 10
2  177 51 0 0 10
2  178 50 0 0 10
2  179 43 6 0 10
0

0101000
-327 0 +324 0 *
Ve
1e-07
0 70 380
0 0

0101101
*
Ed
 1e-07 1 1 0
1  61 0 100 160
2  171 15 0 100 160
2  172 15 7 100 160
2  173 43 0 100 160
0

0101000
+322 7 -324 7 *
Ve
1e-07
10 70 380
0 0

0101101
*
Ed
 1e-07 1 1 0
1  65 0 0 10
2  180 52 0 0 10
2  181 53 0 0 10
2  182 43 6 0 10
0

0101000
-320 0 +322 0 *
Ve
1e-07
10 90 380
0 0

0101101
*
Ed
 1e-07 1 1 0
1  66 0 0 20
2  183 54 0 0 20
2  184 53 0 0 20
2  185 43 6 0 20
0

0101000
-318 0 +320 0 *
Ve
1e-07
0 90 380
0 0

0101101
*
Ed
 1e-07 1 1 0
1  67 0 0 10
2  186 55 0 0 10
2  187 53 0 0 10
2  188 43 6 0 10
0

0101000
-318 0 +316 0 *
Ed
 1e-07 1 1 0
1  61 0 0 80
2  171 15 0 0 80
2  172 15 7 0 80
2  173 43 0 0 80
0

0101000
+335 0 -316 7 *
Ve
1e-07
90 10 380
0 0

0101101
*
Ed
 1e-07 1 1 0
1  68 0 0 10
2  189 44 0 0 10
2  190 56 0 0 10
2  191 43 6 0 10
0

0101000
-313 0 +369 0 *
Ve
1e-07
70 10 380
0 0

0101101
*
Ed
 1e-07 1 1 0
1  69 0 0 20
2  192 57 0 0 20
2  193 56 0 0 20
2  194 43 6 0 20
0

0101000
-313 0 +311 0 *
Ve
1e-07
70 0 380
0 0

0101101
*
Ed
 1e-07 1 1 0
1  70 0 0 10
2  195 58 0 0 10
2  196 56 0 0 10
2  197 43 6 0 10
0

0101000
-311 0 +309 0 *
Ed
 1e-07 1 1 0
1  45 0 10 70
2  139 3 0 10 70
2  140 3 7 10 70
2  141 43 0 10 70
0

0101000
+326 7 -309 7 *
Wi

0101100
-325 0 +323 0 +321 6 -319 0 -317 0 +315 0 +314 6 +334 6 +336 6 +338 6 
+340 6 +342 6 +344 6 +346 6 +348 6 +350 6 +352 6 +368 6 -312 0 +310 0 
+308 0 +307 6 *
Ve
1e-07
30 50 380
0 0

0101101
*
Ve
1e-07
30 30 380
0 0

0101101
*
Ed
 1e-07 1 1 0
1  71 0 0 20
2  198 59 0 0 20
2  199 60 0 0 20
2  200 43 6 0 20
0

0101000
-305 0 +304 0 *
Ve
1e-07
50 30 380
0 0

0101101
*
Ed
 1e-07 1 1 0
1  72 0 0 20
2  201 61 0 0 20
2  202 60 0 0 20
2  203 43 6 0 20
0

0101000
-302 0 +304 0 *
Ve
1e-07
50 50 380
0 0

0101101
*
Ed
 1e-07 1 1 0
1  73 0 0 20
2  204 62 0 0 20
2  205 60 0 0 20
2  206 43 6 0 20
0

0101000
-300 0 +302 0 *
Ed
 1e-07 1 1 0
1  74 0 0 20
2  207 63 0 0 20
2  208 60 0 0 20
2  209 43 6 0 20
0

0101000
-300 0 +305 0 *
Wi

0101100
+303 0 -301 0 -299 0 +298 0 *
Ve
1e-07
70 90 380
0 0

0101101
*
Ve
1e-07
70 70 380
0 0

0101101
*
Ed
 1e-07 1 1 0
1  75 0 0 20
2  210 26 0 0 20
2  211 64 0 0 20
2  212 43 6 0 20
0

0101000
-296 0 +295 0 *
Ve
1e-07
90 70 380
0 0

0101101
*
Ed
 1e-07 1 1 0
1  76 0 0 20
2  213 33 0 0 20
2  214 64 0 0 20
2  215 43 6 0 20
0

0101000
-293 0 +295 0 *
Ve
1e-07
90 90 380
0 0

0101101
*
Ed
 1e-07 1 1 0
1  77 0 0 20
2  216 30 0 0 20
2  217 64 0 0 20
2  218 43 6 0 20
0

0101000
-291 0 +293 0 *
Ed
 1e-07 1 1 0
1  78 0 0 20
2  219 27 0 0 20
2  220 64 0 0 20
2  221 43 6 0 20
0

0101000
-291 0 +296 0 *
Wi

0101100
+294 0 -292 0 -290 0 +289 0 *
Fa
0  1e-07 43 6

0101000
+306 0 +297 0 +288 0 *
Ve
1.5e-07
90 10 360
0 0

0101101
*
Ed
 1e-07 1 1 0
1  79 0 340 360
2  222 44 0 340 360
2  223 57 0 340 360
0

0101000
+286 0 -313 0 *
Ed
 1.5e-07 1 1 0
1  80 0 17.8846153846154 27.8846153846154
2  224 19 3 17.8846153846154 27.8846153846154
2  225 44 0 17.8846153846154 27.8846153846154
0

0101000
+286 0 -367 0 *
Wi

0101100
-366 0 -312 0 +285 0 -284 0 *
Fa
0  1e-07 44 0

0101000
+283 0 *
Ve
1.5e-07
70 70 360
0 0

0101101
*
Ed
 1.5e-07 1 1 0
1  81 0 7.11538461538461 27.1153846153846
2  226 19 3 7.11538461538461 27.1153846153846
2  227 33 0 7.11538461538461 27.1153846153846
0

0101000
+281 0 -417 0 *
Ed
 1.5e-07 1 1 0
1  82 0 -27.1153846153846 -7.11538461538461
2  228 19 3 -27.1153846153846 -7.11538461538461
2  229 26 0 -27.1153846153846 -7.11538461538461
0

0101000
+431 0 -281 0 *
Ve
1.5e-07
0 90 360
0 0

0101101
*
Ed
 1e-07 1 1 0
1  83 0 90 130
2  230 19 0 90 130
2  231 17 0 90 130
2  232 17 4 90 130
2  233 15 4 90 130
0

0101000
+278 4 -460 4 *
Ve
1.5e-07
10 90 360
0 0

0101101
*
Ed
 1.5e-07 1 1 0
1  84 0 -27.8846153846154 -17.8846153846154
2  234 19 3 -27.8846153846154 -17.8846153846154
2  235 55 0 -27.8846153846154 -17.8846153846154
0

0101000
+278 0 -276 0 *
Ve
1.5e-07
10 70 360
0 0

0101101
*
Ed
 1.5e-07 1 1 0
1  85 0 -27.1153846153846 -7.11538461538461
2  236 19 3 -27.1153846153846 -7.11538461538461
2  237 54 0 -27.1153846153846 -7.11538461538461
0

0101000
+276 0 -274 0 *
Ve
1.5e-07
0 70 360
0 0

0101101
*
Ed
 1.5e-07 1 1 0
1  86 0 -27.8846153846154 -17.8846153846154
2  238 19 3 -27.8846153846154 -17.8846153846154
2  239 52 0 -27.8846153846154 -17.8846153846154
0

0101000
+272 0 -274 0 *
Ve
1.5e-07
0 10 360
0 0

0101101
*
Ed
 1e-07 1 1 0
1  83 0 10 70
2  230 19 0 10 70
2  231 17 0 10 70
2  232 17 4 10 70
2  240 15 4 10 70
0

0101000
+270 4 -272 4 *
Ve
1.5e-07
10 10 360
0 0

0101101
*
Ed
 1.5e-07 1 1 0
1  87 0 -27.8846153846154 -17.8846153846154
2  241 19 3 -27.8846153846154 -17.8846153846154
2  242 51 0 -27.8846153846154 -17.8846153846154
0

0101000
+270 0 -268 0 *
Ve
1.5e-07
10 0 360
0 0

0101101
*
Ed
 1.5e-07 1 1 0
1  88 0 17.8846153846154 27.8846153846154
2  243 19 3 17.8846153846154 27.8846153846154
2  244 49 0 17.8846153846154 27.8846153846154
0

0101000
+268 0 -266 0 *
Ve
1.5e-07
70 0 360
0 0

0101101
*
Ed
 1e-07 1 1 0
1  48 0 60 120
2  146 19 0 60 120
2  147 41 0 60 120
2  148 41 4 60 120
2  245 3 4 60 120
0

0101000
+264 4 -266 4 *
Ve
1.5e-07
70 10 360
0 0

0101101
*
Ed
 1.5e-07 1 1 0
1  89 0 17.8846153846154 27.8846153846154
2  246 19 3 17.8846153846154 27.8846153846154
2  247 58 0 17.8846153846154 27.8846153846154
0

0101000
+262 0 -264 0 *
Ed
 1.5e-07 1 1 0
1  90 0 7.11538461538461 27.1153846153846
2  248 19 3 7.11538461538461 27.1153846153846
2  249 57 0 7.11538461538461 27.1153846153846
0

0101000
+262 0 -286 0 *
Wi

0101100
+386 1 +393 1 +400 1 +407 1 +280 0 +279 0 +428 1 +435 1 +442 1 +449 1 
+277 3 -275 0 -273 0 +271 0 +269 3 -267 0 -265 0 +263 3 +261 0 -260 0 
-284 0 +365 3 *
Ve
1.5e-07
30 50 360
0 0

0101101
*
Ve
1.5e-07
50 50 360
0 0

0101101
*
Ed
 1.5e-07 1 1 0
1  91 0 -12.8846153846154 7.11538461538461
2  250 19 3 -12.8846153846154 7.11538461538461
2  251 63 0 -12.8846153846154 7.11538461538461
0

0101000
+258 0 -257 0 *
Ve
1.5e-07
50 30 360
0 0

0101101
*
Ed
 1.5e-07 1 1 0
1  92 0 -7.11538461538461 12.8846153846154
2  252 19 3 -7.11538461538461 12.8846153846154
2  253 62 0 -7.11538461538461 12.8846153846154
0

0101000
+257 0 -255 0 *
Ve
1.5e-07
30 30 360
0 0

0101101
*
Ed
 1.5e-07 1 1 0
1  93 0 -12.8846153846154 7.11538461538461
2  254 19 3 -12.8846153846154 7.11538461538461
2  255 61 0 -12.8846153846154 7.11538461538461
0

0101000
+253 0 -255 0 *
Ed
 1.5e-07 1 1 0
1  94 0 -7.11538461538461 12.8846153846154
2  256 19 3 -7.11538461538461 12.8846153846154
2  257 59 0 -7.11538461538461 12.8846153846154
0

0101000
+258 0 -253 0 *
Wi

0101100
-256 0 -254 0 +252 0 +251 0 *
Fa
0  1e-07 19 3

0101000
+259 0 +250 0 *
Ve
1e-07
70 70 20
0 0

0101101
*
Ed
 1e-07 1 1 0
1  95 0 0 20
2  258 33 0 0 20
2  259 65 0 0 20
2  260 19 0 0 20
0

0101000
+248 0 -418 0 *
Ed
 1e-07 1 1 0
1  96 0 0 20
2  261 26 0 0 20
2  262 65 0 0 20
2  263 19 0 0 20
0

0101000
+248 0 -432 0 *
Ve
1e-07
0 90 20
0 0

0101101
*
Ed
 1e-07 1 1 0
1  83 0 90 130
2  230 19 0 90 130
2  231 17 0 90 130
2  232 17 4 90 130
2  264 15 0 90 130
0

0101000
+245 0 -458 0 *
Ve
1e-07
10 90 20
0 0

0101101
*
Ed
 1e-07 1 1 0
1  97 0 0 10
2  265 55 0 0 10
2  266 66 0 0 10
2  267 19 0 0 10
0

0101000
-243 0 +245 0 *
Ve
1e-07
10 70 20
0 0

0101101
*
Ed
 1e-07 1 1 0
1  98 0 0 20
2  268 54 0 0 20
2  269 66 0 0 20
2  270 19 0 0 20
0

0101000
-243 0 +241 0 *
Ve
1e-07
0 70 20
0 0

0101101
*
Ed
 1e-07 1 1 0
1  99 0 0 10
2  271 52 0 0 10
2  272 66 0 0 10
2  273 19 0 0 10
0

0101000
-241 0 +239 0 *
Ve
1e-07
0 10 20
0 0

0101101
*
Ed
 1e-07 1 1 0
1  83 0 10 70
2  230 19 0 10 70
2  231 17 0 10 70
2  232 17 4 10 70
2  274 15 0 10 70
0

0101000
+237 0 -239 0 *
Ve
1e-07
10 10 20
0 0

0101101
*
Ed
 1e-07 1 1 0
1  100 0 0 10
2  275 51 0 0 10
2  276 67 0 0 10
2  277 19 0 0 10
0

0101000
-235 0 +237 0 *
Ed
 1e-07 1 1 0
1  101 0 0 10
2  278 49 0 0 10
2  279 67 0 0 10
2  280 19 0 0 10
0

0101000
-235 0 +360 0 *
Ve
1e-07
70 10 20
0 0

0101101
*
Ed
 1e-07 1 1 0
1  102 0 0 10
2  281 58 0 0 10
2  282 46 0 0 10
2  283 19 0 0 10
0

0101000
-232 0 +362 0 *
Ve
1e-07
90 10 20
0 0

0101101
*
Ed
 1e-07 1 1 0
1  103 0 0 20
2  284 57 0 0 20
2  285 46 0 0 20
2  286 19 0 0 20
0

0101000
-230 0 +232 0 *
Ed
 1e-07 1 1 0
1  104 0 0 10
2  287 44 0 0 10
2  288 46 0 0 10
2  289 19 0 0 10
0

0101000
-230 0 +364 0 *
Wi

0101100
+387 0 +394 0 +401 0 +408 0 +247 0 -246 0 +429 0 +436 0 +443 0 +450 0 
+244 0 -242 0 +240 0 +238 0 +236 0 -234 0 +233 0 +359 0 -231 0 -229 0 
+228 0 +363 0 *
Fa
0  1e-07 19 0

0101000
+227 0 *
Wi

0101100
-231 0 -229 0 +228 0 +361 0 *
Fa
0  1e-07 46 0

0111000
+225 0 *
Ed
 1e-07 1 1 0
1  83 0 0 10
2  230 19 0 0 10
2  231 17 0 0 10
2  232 17 4 0 10
2  290 15 0 0 10
2  291 68 0 0 10
0

0101000
+358 0 -237 0 *
Wi

0101100
-233 0 +234 0 +223 0 +357 0 *
Fa
0  1e-07 19 0

0101000
+222 0 *
Ed
 1e-07 1 1 0
1  105 0 0 20
2  292 69 0 0 20
2  293 66 0 0 20
2  294 15 0 0 20
2  295 17 0 0 20
2  296 19 0 0 20
0

0101000
-245 0 +239 0 *
Ed
 1e-07 1 1 0
1  106 0 340 360
2  297 69 0 340 360
2  298 55 0 340 360
2  299 15 0 340 360
0

0101000
+278 0 -316 0 *
Ed
 1e-07 1 1 0
1  107 0 0 380
2  300 15 0 0 380
0

0101000
+335 0 -335 6 *
Wi

0101100
-333 0 -356 0 -223 0 -236 0 -220 0 -244 0 +457 0 -464 0 -459 1 +277 3 
-219 0 +314 6 +218 0 *
Fa
0  1e-07 15 0

0101000
+217 0 *
Ed
 1e-07 1 1 0
1  108 0 0 380
0

0101000
+351 0 -351 6 *
Wi

0101100
+330 0 -215 0 -350 0 +350 6 *
Fa
0  1e-07 70 0

0101000
+214 0 *
Ed
 1e-07 1 1 0
1  109 0 0 380
0

0101000
+349 0 -349 6 *
Wi

0101100
+215 0 -212 0 -348 0 +348 6 *
Fa
0  1e-07 71 0

0101000
+211 0 *
Ed
 1e-07 1 1 0
1  110 0 0 380
0

0101000
+347 0 -347 6 *
Wi

0101100
+212 0 -209 0 -346 0 +346 6 *
Fa
0  1e-07 72 0

0101000
+208 0 *
Ed
 1e-07 1 1 0
1  111 0 0 380
0

0101000
+345 0 -345 6 *
Wi

0101100
+209 0 -206 0 -344 0 +344 6 *
Fa
0  1e-07 73 0

0101000
+205 0 *
Ed
 1e-07 1 1 0
1  112 0 0 380
0

0101000
+343 0 -343 6 *
Wi

0101100
+206 0 -203 0 -342 0 +342 6 *
Fa
0  1e-07 74 0

0101000
+202 0 *
Ed
 1e-07 1 1 0
1  113 0 0 380
0

0101000
+341 0 -341 6 *
Wi

0101100
+203 0 -200 0 -340 0 +340 6 *
Fa
0  1e-07 75 0

0101000
+199 0 *
Ed
 1e-07 1 1 0
1  114 0 0 380
0

0101000
+339 0 -339 6 *
Wi

0101100
+200 0 -197 0 -338 0 +338 6 *
Fa
0  1e-07 76 0

0101000
+196 0 *
Ed
 1e-07 1 1 0
1  115 0 0 380
0

0101000
+337 0 -337 6 *
Wi

0101100
+197 0 -194 0 -336 0 +336 6 *
Fa
0  1e-07 77 0

0101000
+193 0 *
Wi

0101100
+194 0 -218 0 -334 0 +334 6 *
Fa
0  1e-07 78 0

0101000
+191 0 *
Ed
 1e-07 1 1 0
1  116 0 340 360
2  301 49 0 340 360
2  302 47 0 340 360
2  303 3 0 340 360
0

0101000
+266 0 -326 0 *
Ed
 1e-07 1 1 0
1  117 0 340 360
2  304 49 0 340 360
2  305 51 0 340 360
0

0101000
+268 0 -327 0 *
Wi

0101100
-189 0 -325 0 +188 0 -265 0 *
Fa
0  1e-07 49 0

0101000
+187 0 *
Ed
 1e-07 1 1 0
1  118 0 340 360
2  306 68 0 340 360
2  307 51 0 340 360
2  308 15 0 340 360
0

0101000
+270 0 -324 0 *
Wi

0101100
-188 0 +323 0 +185 0 -267 0 *
Fa
0  1e-07 51 0

0101000
+184 0 *
Ed
 1e-07 1 1 0
1  119 0 340 360
2  309 69 0 340 360
2  310 52 0 340 360
2  311 15 0 340 360
0

0101000
+272 0 -322 0 *
Wi

0101100
+182 0 +269 3 -185 0 +321 6 *
Fa
0  1e-07 15 0

0101000
+181 0 *
Ed
 1e-07 1 1 0
1  120 0 340 360
2  312 54 0 340 360
2  313 52 0 340 360
0

0101000
+274 0 -320 0 *
Wi

0101100
-179 0 +319 0 +182 0 -271 0 *
Fa
0  1e-07 52 0

0101000
+178 0 *
Ed
 1e-07 1 1 0
1  121 0 340 360
2  314 54 0 340 360
2  315 55 0 340 360
0

0101000
+276 0 -318 0 *
Wi

0101100
-179 0 -317 0 +176 0 -273 0 *
Fa
0  1e-07 54 0

0101000
+175 0 *
Wi

0101100
-176 0 +315 0 +219 0 -275 0 *
Fa
0  1e-07 55 0

0101000
+173 0 *
Ed
 1e-07 1 1 0
1  122 0 340 360
2  316 58 0 340 360
2  317 57 0 340 360
0

0101000
+262 0 -311 0 *
Wi

0101100
-285 0 +310 0 +171 0 -260 0 *
Fa
0  1e-07 57 0

0101000
+170 0 *
Ed
 1e-07 1 1 0
1  123 0 340 360
2  318 58 0 340 360
2  319 45 0 340 360
2  320 3 0 340 360
0

0101000
+264 0 -309 0 *
Wi

0101100
-168 0 -308 0 +171 0 -261 0 *
Fa
0  1e-07 58 0

0101000
+167 0 *
Wi

0101100
+263 3 -168 0 +307 6 +189 0 *
Fa
0  1e-07 3 0

0101000
+165 0 *
Ed
 1e-07 1 1 0
1  124 0 80 100
2  321 59 0 80 100
2  322 61 0 80 100
0

0101000
+253 0 -304 0 *
Ed
 1e-07 1 1 0
1  125 0 80 100
2  323 59 0 80 100
2  324 63 0 80 100
0

0101000
+258 0 -305 0 *
Wi

0101100
-163 0 -303 0 +162 0 -251 0 *
Fa
0  1e-07 59 0

0101000
+161 0 *
Ed
 1e-07 1 1 0
1  126 0 80 100
2  325 62 0 80 100
2  326 61 0 80 100
0

0101000
+255 0 -302 0 *
Wi

0101100
-159 0 +301 0 +163 0 -252 0 *
Fa
0  1e-07 61 0

0101000
+158 0 *
Ed
 1e-07 1 1 0
1  127 0 80 100
2  327 62 0 80 100
2  328 63 0 80 100
0

0101000
+257 0 -300 0 *
Wi

0101100
-159 0 -299 0 +156 0 -254 0 *
Fa
0  1e-07 62 0

0101000
+155 0 *
Wi

0101100
-156 0 +298 0 +162 0 -256 0 *
Fa
0  1e-07 63 0

0101000
+153 0 *
Ed
 1e-07 1 1 0
1  128 0 340 360
2  329 26 0 340 360
2  330 33 0 340 360
0

0101000
+281 0 -295 0 *
Ed
 1e-07 1 1 0
1  129 0 340 360
2  331 26 0 340 360
2  332 27 0 340 360
0

0101000
+431 0 -296 0 *
Wi

0101100
-151 0 -294 0 +150 0 -279 0 *
Fa
0  1e-07 26 0

0101000
+149 0 *
Ed
 1e-07 1 1 0
1  130 0 340 360
2  333 30 0 340 360
2  334 33 0 340 360
0

0101000
+417 0 -293 0 *
Wi

0101100
-280 0 -147 0 +292 0 +151 0 *
Fa
0  1e-07 33 0

0101000
+146 0 *
Ed
 1e-07 1 1 0
1  131 0 340 360
2  335 30 0 340 360
2  336 27 0 340 360
0

0101000
+424 0 -291 0 *
Wi

0101100
-147 0 -290 0 +144 0 -414 1 *
Fa
0  1e-07 30 0

0101000
+143 0 *
Wi

0101100
-421 1 -144 0 +289 0 +150 0 *
Fa
0  1e-07 27 0

0101000
+141 0 *
Wi

0101100
+415 0 +422 0 +246 0 -247 0 *
Fa
0  1e-07 19 0

0101000
+139 0 *
Wi

0101100
-220 0 -242 0 +240 0 +238 0 *
Fa
0  1e-07 66 0

0111000
+137 0 *
Sh

0101100
-354 0 -331 0 -328 0 +287 0 -282 0 +249 0 -376 0 +506 0 +378 0 -226 0 
+224 0 -221 0 -216 0 -213 0 -210 0 -207 0 -204 0 -201 0 -198 0 -195 0 
-192 0 -190 0 -186 0 -183 0 -180 0 +177 0 -174 0 -172 0 -169 0 +166 0 
-164 0 +160 0 +157 0 -154 0 -152 0 +148 0 +145 0 -142 0 -140 0 +501 0 
+496 0 +491 0 +486 0 +481 0 +476 0 +471 0 +466 0 +461 0 -138 0 +136 0 
*
So

0100000
+135 0 *
Ed
 1e-07 1 1 0
1  132 0 0 20
2  337 45 0 0 20
2  338 56 0 0 20
2  339 3 0 0 20
2  340 43 6 0 20
0

0101000
-369 0 +309 0 *
Ed
 1e-07 1 1 0
1  48 0 40 60
2  146 19 0 40 60
2  147 41 0 40 60
2  148 41 4 40 60
2  341 3 4 40 60
2  342 45 4 40 60
0

0101000
+367 4 -264 4 *
Wi

0101100
+133 0 +168 0 +132 3 -366 0 *
Fa
0  1e-07 3 0

0101000
+131 0 *
Wi

0101100
-308 0 -310 0 +312 0 +133 0 *
Fa
0  1e-07 56 0

0111000
+129 0 *
Wi

0101100
+284 0 +260 0 -261 0 +132 3 *
Fa
0  1e-07 19 3

0101000
+127 0 *
Sh

0101100
-130 0 +128 0 -166 0 +126 0 +282 0 +169 0 *
So

0100000
+125 0 *
Ed
 1e-07 1 1 0
1  47 0 0 340
2  143 44 0 0 340
2  144 45 0 0 340
2  343 3 0 0 340
2  344 41 0 0 340
0

0101000
+364 0 -367 0 *
Wi

0101100
+363 0 -388 0 -365 3 +123 0 *
Fa
0  1e-07 3 0

0101000
+122 0 *
Ed
 1e-07 1 1 0
1  79 0 0 340
2  222 44 0 0 340
2  223 57 0 0 340
0

0101000
+230 0 -286 0 *
Wi

0101100
-123 0 +284 0 +120 0 +228 0 *
Fa
0  1e-07 44 0

0101000
+119 0 *
Ed
 1e-07 1 1 0
1  128 0 0 340
2  329 26 0 0 340
2  330 33 0 0 340
0

0101000
+248 0 -281 0 *
Wi

0101100
-247 0 -416 0 +280 0 +117 0 *
Fa
0  1e-07 33 0

0101000
+116 0 *
Wi

0101100
-117 0 +279 0 +430 0 +246 0 *
Fa
0  1e-07 26 0

0101000
+114 0 *
Ed
 1e-07 1 1 0
1  106 0 0 340
2  297 69 0 0 340
2  298 55 0 0 340
2  345 15 0 0 340
2  346 17 0 0 340
0

0101000
+245 0 -278 0 *
Wi

0101100
-277 3 +456 0 +244 0 -112 0 *
Fa
0  1e-07 15 0

0101000
+111 0 *
Ed
 1e-07 1 1 0
1  121 0 0 340
2  314 54 0 0 340
2  315 55 0 0 340
0

0101000
+243 0 -276 0 *
Wi

0101100
-109 0 +275 0 +112 0 -242 0 *
Fa
0  1e-07 55 0

0101000
+108 0 *
Ed
 1e-07 1 1 0
1  120 0 0 340
2  312 54 0 0 340
2  313 52 0 0 340
0

0101000
+241 0 -274 0 *
Wi

0101100
-106 0 +273 0 +109 0 +240 0 *
Fa
0  1e-07 54 0

0101000
+105 0 *
Ed
 1e-07 1 1 0
1  119 0 0 340
2  309 69 0 0 340
2  310 52 0 0 340
2  347 15 0 0 340
2  348 17 0 0 340
0

0101000
+239 0 -272 0 *
Wi

0101100
-106 0 +271 0 +103 0 -238 0 *
Fa
0  1e-07 52 0

0101000
+102 0 *
Ed
 1e-07 1 1 0
1  118 0 0 340
2  306 68 0 0 340
2  307 51 0 0 340
2  349 15 0 0 340
2  350 17 0 0 340
0

0101000
+237 0 -270 0 *
Wi

0101100
-100 0 -269 3 +103 0 +236 0 *
Fa
0  1e-07 15 0

0101000
+99 0 *
Ed
 1e-07 1 1 0
1  117 0 0 340
2  304 49 0 0 340
2  305 51 0 0 340
0

0101000
+235 0 -268 0 *
Wi

0101100
-97 0 +267 0 +100 0 -234 0 *
Fa
0  1e-07 51 0

0101000
+96 0 *
Ed
 1e-07 1 1 0
1  116 0 0 340
2  301 49 0 0 340
2  302 47 0 0 340
2  351 3 0 0 340
2  352 41 0 0 340
0

0101000
+360 0 -266 0 *
Wi

0101100
-94 0 +265 0 +97 0 +233 0 *
Fa
0  1e-07 49 0

0101000
+93 0 *
Ed
 1e-07 1 1 0
1  123 0 0 340
2  318 58 0 0 340
2  319 45 0 0 340
2  353 3 0 0 340
2  354 41 0 0 340
0

0101000
+362 0 -264 0 *
Wi

0101100
+359 0 -91 0 -263 3 +94 0 *
Fa
0  1e-07 3 0

0101000
+90 0 *
Ed
 1e-07 1 1 0
1  122 0 0 340
2  316 58 0 0 340
2  317 57 0 0 340
0

0101000
+232 0 -262 0 *
Wi

0101100
-91 0 +261 0 +88 0 +231 0 *
Fa
0  1e-07 58 0

0101000
+87 0 *
Wi

0101100
-120 0 +260 0 +88 0 -229 0 *
Fa
0  1e-07 57 0

0101000
+85 0 *
Ve
1e-07
50 50 280
0 0

0101101
*
Ed
 1e-07 1 1 0
1  127 0 0 80
2  327 62 0 0 80
2  328 63 0 0 80
0

0101000
+83 0 -257 0 *
Ve
1e-07
30 50 280
0 0

0101101
*
Ed
 1e-07 1 1 0
1  125 0 0 80
2  323 59 0 0 80
2  324 63 0 0 80
0

0101000
+81 0 -258 0 *
Ed
 1e-07 1 1 0
1  133 0 0 20
2  355 63 0 0 20
2  356 79 0 0 20
0

0101000
-83 0 +81 0 *
Wi

0101100
-82 0 +256 0 +80 0 -79 0 *
Fa
0  1e-07 63 0

0101000
+78 0 *
Ve
1e-07
50 30 280
0 0

0101101
*
Ed
 1e-07 1 1 0
1  126 0 0 80
2  325 62 0 0 80
2  326 61 0 0 80
0

0101000
+76 0 -255 0 *
Ed
 1e-07 1 1 0
1  134 0 0 20
2  357 62 0 0 20
2  358 79 0 0 20
0

0101000
-83 0 +76 0 *
Wi

0101100
-75 0 +254 0 +82 0 +74 0 *
Fa
0  1e-07 62 0

0101000
+73 0 *
Ve
1e-07
30 30 280
0 0

0101101
*
Ed
 1e-07 1 1 0
1  124 0 0 80
2  321 59 0 0 80
2  322 61 0 0 80
0

0101000
+71 0 -253 0 *
Ed
 1e-07 1 1 0
1  135 0 0 20
2  359 61 0 0 20
2  360 79 0 0 20
0

0101000
-76 0 +71 0 *
Wi

0101100
-75 0 +252 0 +70 0 -69 0 *
Fa
0  1e-07 61 0

0101000
+68 0 *
Ed
 1e-07 1 1 0
1  136 0 0 20
2  361 59 0 0 20
2  362 79 0 0 20
0

0101000
-81 0 +71 0 *
Wi

0101100
-70 0 +251 0 +80 0 +66 0 *
Fa
0  1e-07 59 0

0101000
+65 0 *
Wi

0101100
-66 0 -79 0 +74 0 +69 0 *
Fa
0  1e-07 79 0

0111000
+63 0 *
Sh

0101100
-121 0 +226 0 +384 0 -249 0 -118 0 +391 0 +398 0 +405 0 +115 0 +113 0 
+426 0 +433 0 +440 0 +447 0 -110 0 -107 0 -104 0 +101 0 -98 0 -95 0 
-92 0 -89 0 +86 0 -84 0 -77 0 -72 0 +67 0 +64 0 +62 0 *
So

0100000
+61 0 *
Wi

0101100
-361 0 -123 0 -132 3 +91 0 *
Fa
0  1e-07 3 0

0101000
+59 0 *
Sh

0101100
-58 0 -224 0 +118 0 -126 0 -86 0 +84 0 *
So

0100000
+57 0 *
Ve
1e-07
0 0 20
0 0

0101101
*
Ed
 1e-07 1 1 0
1  48 0 120 130
2  146 19 0 120 130
2  147 41 0 120 130
2  148 41 4 120 130
2  363 3 4 120 130
2  364 47 4 120 130
0

0101000
+266 4 -55 0 *
Ed
 1e-07 1 1 0
1  50 0 20 360
2  159 3 0 20 360
2  160 15 0 20 360
2  365 41 0 20 360
2  366 17 0 20 360
2  367 68 0 20 360
2  368 47 0 20 360
0

0101000
+358 0 -55 3 *
Wi

0101100
+357 0 -94 0 -54 3 +53 0 *
Fa
0  1e-07 3 0

0101000
+52 0 *
Ed
 1e-07 1 1 0
1  83 0 0 10
2  230 19 0 0 10
2  231 17 0 0 10
2  232 17 4 0 10
2  369 15 4 0 10
2  370 68 4 0 10
0

0101000
+55 0 -270 4 *
Wi

0101100
+265 0 +267 0 +50 3 +54 3 *
Fa
0  1e-07 19 3

0101000
+49 0 *
Wi

0101100
-53 0 -50 3 +100 0 +223 0 *
Fa
0  1e-07 15 0

0101000
+47 0 *
Sh

0101100
-51 0 +221 0 +92 0 -48 0 -46 0 +95 0 *
So

0100000
+45 0 *
Ve
1e-07
0 0 380
0 0

0101101
*
Ed
 1e-07 1 1 0
1  61 0 160 170
2  171 15 0 160 170
2  172 15 7 160 170
2  173 43 0 160 170
2  371 68 7 160 170
0

0101000
+324 7 -43 7 *
Ed
 1e-07 1 1 0
1  45 0 0 10
2  139 3 0 0 10
2  140 3 7 0 10
2  141 43 0 0 10
2  372 47 7 0 10
0

0101000
+43 7 -326 7 *
Wi

0101100
+42 6 -323 0 +325 0 +41 6 *
Fa
0  1e-07 43 6

0101000
+40 0 *
Ed
 1e-07 1 1 0
1  50 0 360 380
2  159 3 0 360 380
2  160 15 0 360 380
2  373 68 0 360 380
2  374 47 0 360 380
0

0101000
+55 3 -43 0 *
Wi

0101100
-38 0 +42 6 +185 0 +50 3 *
Fa
0  1e-07 15 0

0101000
+37 0 *
Wi

0101100
+54 3 -189 0 +41 6 +38 0 *
Fa
0  1e-07 3 0

0101000
+35 0 *
Sh

0101100
+39 0 -36 0 +183 0 +186 0 -34 0 +48 0 *
So

0100000
+33 0 *
Ed
 1e-07 1 1 0
1  137 0 0 20
2  375 69 0 0 20
2  376 53 0 0 20
2  377 15 0 0 20
2  378 43 6 0 20
0

0101000
-316 0 +322 0 *
Wi

0101100
-31 0 -315 0 +317 0 +319 0 *
Fa
0  1e-07 53 0

0111000
+30 0 *
Ed
 1e-07 1 1 0
1  83 0 70 90
2  230 19 0 70 90
2  231 17 0 70 90
2  232 17 4 70 90
2  379 15 4 70 90
2  380 69 4 70 90
0

0101000
+272 4 -278 4 *
Wi

0101100
+219 0 +28 3 -182 0 -31 0 *
Fa
0  1e-07 15 0

0101000
+27 0 *
Wi

0101100
-271 0 +273 0 +275 0 +28 3 *
Fa
0  1e-07 19 3

0101000
+25 0 *
Sh

0101100
+29 0 -26 0 +172 0 +174 0 -177 0 +24 0 *
So

0100000
+23 0 *
Wi

0101100
-303 0 -298 0 +299 0 +301 0 *
Fa
0  1e-07 60 0

0111000
+21 0 *
Wi

0101100
-251 0 -252 0 +254 0 +256 0 *
Fa
0  1e-07 19 3

0101000
+19 0 *
Sh

0101100
+20 0 -160 0 +152 0 +154 0 -157 0 +18 0 *
So

0100000
+17 0 *
Wi

0101100
-294 0 -289 0 +290 0 +292 0 *
Fa
0  1e-07 64 0

0111000
+15 0 *
Wi

0101100
+414 1 +421 1 -279 0 -280 0 *
Fa
0  1e-07 19 3

0101000
+13 0 *
Sh

0101100
+14 0 -148 0 +140 0 +142 0 -145 0 +12 0 *
So

0100000
+11 0 *
Sh

0101100
-12 0 +412 0 +419 0 -113 0 -115 0 +138 0 *
So

0100000
+9 0 *
Wi

0101100
+112 0 +220 0 -103 0 -28 3 *
Fa
0  1e-07 15 0

0101000
+7 0 *
Sh

0101100
+107 0 +104 0 -24 0 -6 0 -136 0 -101 0 *
So

0100000
+5 0 *
Sh

0101100
-18 0 -64 0 -67 0 +72 0 +77 0 -62 0 *
So

0100000
+3 0 *
Co

1100000
+374 0 +134 0 +124 0 +60 0 +56 0 +44 0 +32 0 +22 0 +16 0 +10 0 
+8 0 +4 0 +2 0 *

+1 0 