<?xml version="1.0" encoding="UTF-8" standalone="no"?>
<!-- Created with Inkscape (http://www.inkscape.org/) -->

<svg
   width="560.22388"
   height="183.33333"
   id="svg3087"
   version="1.1"
   inkscape:version="1.2.2 (b0a8486541, 2022-12-01)"
   sodipodi:docname="reed-problem.svg"
   viewBox="0 0 525.20988 171.87501"
   xmlns:inkscape="http://www.inkscape.org/namespaces/inkscape"
   xmlns:sodipodi="http://sodipodi.sourceforge.net/DTD/sodipodi-0.dtd"
   xmlns:xlink="http://www.w3.org/1999/xlink"
   xmlns="http://www.w3.org/2000/svg"
   xmlns:svg="http://www.w3.org/2000/svg"
   xmlns:rdf="http://www.w3.org/1999/02/22-rdf-syntax-ns#"
   xmlns:cc="http://creativecommons.org/ns#"
   xmlns:dc="http://purl.org/dc/elements/1.1/"
   xmlns:ns0="http://www.iki.fi/pav/software/textext/">
  <sodipodi:namedview
     id="base"
     pagecolor="#ffffff"
     bordercolor="#666666"
     borderopacity="1.0"
     inkscape:pageopacity="0.0"
     inkscape:pageshadow="2"
     inkscape:zoom="2.2832031"
     inkscape:cx="239.7947"
     inkscape:cy="84.96835"
     inkscape:document-units="px"
     inkscape:current-layer="layer1"
     showgrid="true"
     inkscape:window-width="1920"
     inkscape:window-height="1051"
     inkscape:window-x="1920"
     inkscape:window-y="0"
     inkscape:window-maximized="1"
     showguides="true"
     inkscape:guide-bbox="true"
     inkscape:showpageshadow="2"
     inkscape:pagecheckerboard="0"
     inkscape:deskcolor="#d1d1d1">
    <inkscape:grid
       type="xygrid"
       id="grid3095"
       originx="-143.39999"
       originy="-93.812187"
       spacingx="1.0666667"
       spacingy="1.0666667" />
  </sodipodi:namedview>
  <defs
     id="defs3089">
    <linearGradient
       id="linearGradient4781">
      <stop
         style="stop-color:#eaee32;stop-opacity:1;"
         offset="0"
         id="stop4783" />
      <stop
         style="stop-color:#e3e6a9;stop-opacity:0;"
         offset="1"
         id="stop4785" />
    </linearGradient>
    <marker
       inkscape:stockid="Arrow1Lend"
       orient="auto"
       refY="0"
       refX="0"
       id="Arrow1Lend"
       style="overflow:visible">
      <path
         id="path3902"
         d="M 0,0 5,-5 -12.5,0 5,5 Z"
         style="fill-rule:evenodd;stroke:#000000;stroke-width:1pt"
         transform="matrix(-0.8,0,0,-0.8,-10,0)" />
    </marker>
    <linearGradient
       inkscape:collect="always"
       xlink:href="#linearGradient3073"
       id="linearGradient4779"
       x1="45"
       y1="297.36218"
       x2="45"
       y2="162.36218"
       gradientUnits="userSpaceOnUse"
       gradientTransform="translate(208.4,-48.549997)" />
    <linearGradient
       inkscape:collect="always"
       xlink:href="#linearGradient4781"
       id="linearGradient4787"
       x1="120"
       y1="302.36218"
       x2="120"
       y2="172.36218"
       gradientUnits="userSpaceOnUse"
       gradientTransform="translate(208.02793,-48.549997)" />
    <linearGradient
       inkscape:collect="always"
       xlink:href="#linearGradient3065"
       id="linearGradient4809"
       x1="270"
       y1="297.36218"
       x2="270"
       y2="162.36218"
       gradientUnits="userSpaceOnUse"
       gradientTransform="translate(208.54355,-48.549997)" />
    <linearGradient
       inkscape:collect="always"
       xlink:href="#linearGradient3083"
       id="linearGradient4817"
       x1="350"
       y1="297.36218"
       x2="350"
       y2="167.36218"
       gradientUnits="userSpaceOnUse"
       gradientTransform="translate(208.4,-48.549997)" />
    <marker
       inkscape:stockid="Arrow1Lstart"
       orient="auto"
       refY="0"
       refX="0"
       id="Arrow1Lstart"
       style="overflow:visible">
      <path
         inkscape:connector-curvature="0"
         id="path3987"
         d="M 0,0 5,-5 -12.5,0 5,5 Z"
         style="fill-rule:evenodd;stroke:#000000;stroke-width:1pt"
         transform="matrix(0.8,0,0,0.8,10,0)" />
    </marker>
    <marker
       inkscape:stockid="Arrow1Lend"
       orient="auto"
       refY="0"
       refX="0"
       id="Arrow1Lend-8"
       style="overflow:visible">
      <path
         inkscape:connector-curvature="0"
         id="path3990"
         d="M 0,0 5,-5 -12.5,0 5,5 Z"
         style="fill-rule:evenodd;stroke:#000000;stroke-width:1pt"
         transform="matrix(-0.8,0,0,-0.8,-10,0)" />
    </marker>
    <marker
       inkscape:stockid="Arrow1Lstart"
       orient="auto"
       refY="0"
       refX="0"
       id="marker3128"
       style="overflow:visible">
      <path
         inkscape:connector-curvature="0"
         id="path3130"
         d="M 0,0 5,-5 -12.5,0 5,5 Z"
         style="fill-rule:evenodd;stroke:#000000;stroke-width:1pt"
         transform="matrix(0.8,0,0,0.8,10,0)" />
    </marker>
    <marker
       inkscape:stockid="Arrow1Lend"
       orient="auto"
       refY="0"
       refX="0"
       id="marker3132"
       style="overflow:visible">
      <path
         inkscape:connector-curvature="0"
         id="path3134"
         d="M 0,0 5,-5 -12.5,0 5,5 Z"
         style="fill-rule:evenodd;stroke:#000000;stroke-width:1pt"
         transform="matrix(-0.8,0,0,-0.8,-10,0)" />
    </marker>
    <marker
       inkscape:stockid="Arrow1Lstart"
       orient="auto"
       refY="0"
       refX="0"
       id="marker3136"
       style="overflow:visible">
      <path
         inkscape:connector-curvature="0"
         id="path3138"
         d="M 0,0 5,-5 -12.5,0 5,5 Z"
         style="fill-rule:evenodd;stroke:#000000;stroke-width:1pt"
         transform="matrix(0.8,0,0,0.8,10,0)" />
    </marker>
    <marker
       inkscape:stockid="Arrow1Lend"
       orient="auto"
       refY="0"
       refX="0"
       id="marker3140"
       style="overflow:visible">
      <path
         inkscape:connector-curvature="0"
         id="path3142"
         d="M 0,0 5,-5 -12.5,0 5,5 Z"
         style="fill-rule:evenodd;stroke:#000000;stroke-width:1pt"
         transform="matrix(-0.8,0,0,-0.8,-10,0)" />
    </marker>
    <linearGradient
       inkscape:collect="always"
       xlink:href="#linearGradient3083"
       id="linearGradient3937"
       gradientUnits="userSpaceOnUse"
       gradientTransform="translate(-885,-871.63781)"
       x1="370"
       y1="684"
       x2="730"
       y2="54" />
    <linearGradient
       id="linearGradient3083">
      <stop
         style="stop-color:#4fd74c;stop-opacity:1;"
         offset="0"
         id="stop3085" />
      <stop
         style="stop-color:#52da1f;stop-opacity:0.20210527;"
         offset="1"
         id="stop3087" />
    </linearGradient>
    <linearGradient
       inkscape:collect="always"
       xlink:href="#linearGradient3073"
       id="linearGradient3940"
       gradientUnits="userSpaceOnUse"
       gradientTransform="translate(-890,-871.63781)"
       x1="390"
       y1="394"
       x2="660"
       y2="124" />
    <linearGradient
       id="linearGradient3073">
      <stop
         style="stop-color:#1ca9e7;stop-opacity:1;"
         offset="0"
         id="stop3075" />
      <stop
         style="stop-color:#3adcff;stop-opacity:0.25052631;"
         offset="1"
         id="stop3077" />
    </linearGradient>
    <linearGradient
       inkscape:collect="always"
       xlink:href="#linearGradient3065"
       id="linearGradient3943"
       gradientUnits="userSpaceOnUse"
       gradientTransform="translate(-890,-871.63781)"
       x1="390"
       y1="614"
       x2="660"
       y2="394" />
    <linearGradient
       id="linearGradient3065">
      <stop
         style="stop-color:#d183ba;stop-opacity:1;"
         offset="0"
         id="stop3067" />
      <stop
         style="stop-color:#ce53ca;stop-opacity:0.19578947;"
         offset="1"
         id="stop3069" />
    </linearGradient>
    <linearGradient
       inkscape:collect="always"
       xlink:href="#linearGradient3963"
       id="linearGradient3969"
       x1="205"
       y1="684"
       x2="385"
       y2="44"
       gradientUnits="userSpaceOnUse"
       gradientTransform="translate(-15,40)" />
    <linearGradient
       id="linearGradient3963">
      <stop
         style="stop-color:#a57e14;stop-opacity:1;"
         offset="0"
         id="stop3965" />
      <stop
         style="stop-color:#daaa52;stop-opacity:0.23157895;"
         offset="1"
         id="stop3967" />
    </linearGradient>
    <linearGradient
       y2="44"
       x2="385"
       y1="684"
       x1="205"
       gradientTransform="translate(-895,-871.63781)"
       gradientUnits="userSpaceOnUse"
       id="linearGradient3188"
       xlink:href="#linearGradient3963"
       inkscape:collect="always" />
    <linearGradient
       inkscape:collect="always"
       xlink:href="#linearGradient3963"
       id="linearGradient4946"
       x1="-30"
       y1="297.36218"
       x2="-30"
       y2="162.36218"
       gradientUnits="userSpaceOnUse"
       gradientTransform="translate(208.4,-48.549997)" />
  </defs>
  <metadata
     id="metadata3092">
    <rdf:RDF>
      <cc:Work
         rdf:about="">
        <dc:format>image/svg+xml</dc:format>
        <dc:type
           rdf:resource="http://purl.org/dc/dcmitype/StillImage" />
      </cc:Work>
    </rdf:RDF>
  </metadata>
  <g
     inkscape:label="Layer 1"
     inkscape:groupmode="layer"
     id="layer1"
     transform="translate(-143.4,-93.812183)">
    <path
       style="fill:url(#linearGradient4779);fill-opacity:1;stroke:none"
       d="m 303.4,248.81218 v -120 c 0,0 -5.26844,-8.31436 -15,-10 -9.73156,-1.68564 -27.6124,11.35981 -40,10 -12.3876,-1.35981 -22.15543,-16.273 -30,-15 -7.84457,1.273 -10,10 -10,10 v 125 z"
       id="path4763"
       inkscape:connector-curvature="0"
       sodipodi:nodetypes="cczzzccc" />
    <path
       style="fill:url(#linearGradient4787);fill-opacity:1;stroke:none"
       d="m 303.02793,128.81218 c 0,0 5.83408,5.67604 10,5 4.16592,-0.67604 4.41725,-8.45367 10,-10 5.58275,-1.54633 14.93564,4.37655 20,5 5.06436,0.62345 10,0 10,0 v 120 h -50 v -120 0"
       id="path4765"
       inkscape:connector-curvature="0"
       sodipodi:nodetypes="czzzccccc" />
    <path
       inkscape:connector-curvature="0"
       id="path3115"
       d="m 303.4,123.81218 v 125"
       style="fill:none;stroke:#000000;stroke-width:1px;stroke-linecap:butt;stroke-linejoin:miter;stroke-opacity:1"
       sodipodi:nodetypes="cc" />
    <path
       style="fill:none;stroke:#000000;stroke-width:1px;stroke-linecap:butt;stroke-linejoin:miter;stroke-opacity:1"
       d="m 353.4,123.81218 v 125"
       id="path3117"
       inkscape:connector-curvature="0"
       sodipodi:nodetypes="cc" />
    <path
       style="fill:url(#linearGradient4817);fill-opacity:1;stroke:none"
       d="m 503.4,128.81218 c 0,0 6.32323,8.03187 15,10 8.67677,1.96813 24.1356,-2.43526 35,-5 10.8644,-2.56474 21.30003,-9.66588 30,-10 8.69997,-0.33412 20,5 20,5 v 120 h -100 z"
       id="path4771"
       inkscape:connector-curvature="0"
       sodipodi:nodetypes="czzzcccc" />
    <path
       style="fill:url(#linearGradient4809);fill-opacity:1;stroke:none"
       d="m 453.54355,128.81218 c 0,0 7.55039,5.81776 15,5 7.44961,-0.81776 17.83792,-15.88169 25,-15 7.16208,0.88169 10,10 10,10 v 120 h -50 z"
       id="path4769"
       inkscape:connector-curvature="0"
       sodipodi:nodetypes="czzcccc" />
    <path
       inkscape:connector-curvature="0"
       id="path3119"
       d="m 453.4,123.81218 v 125"
       style="fill:none;stroke:#000000;stroke-width:1px;stroke-linecap:butt;stroke-linejoin:miter;stroke-opacity:1"
       sodipodi:nodetypes="cc" />
    <path
       style="fill:none;stroke:#000000;stroke-width:1px;stroke-linecap:butt;stroke-linejoin:miter;stroke-opacity:1"
       d="m 503.4,123.81218 v 125"
       id="path3121"
       inkscape:connector-curvature="0"
       sodipodi:nodetypes="cc" />
    <path
       inkscape:connector-curvature="0"
       id="path3123"
       d="m 603.4,123.81218 v 125"
       style="fill:none;stroke:#000000;stroke-width:1px;stroke-linecap:butt;stroke-linejoin:miter;stroke-opacity:1"
       sodipodi:nodetypes="cc" />
    <path
       style="fill:none;stroke:#000000;stroke-width:1px;stroke-linecap:butt;stroke-linejoin:miter;stroke-opacity:1;marker-end:url(#Arrow1Lend)"
       d="m 208.4,248.81218 h 440"
       id="path3125"
       inkscape:connector-curvature="0" />
    <g
       style="font-style:normal;font-variant:normal;font-weight:normal;font-stretch:normal;letter-spacing:normal;word-spacing:normal;text-anchor:start;fill:none;stroke:#000000;stroke-linecap:butt;stroke-linejoin:miter;stroke-miterlimit:10.433;stroke-dasharray:none;stroke-dashoffset:0;stroke-opacity:1"
       id="content"
       transform="matrix(2.3052618,0,0,-2.3052618,141.44262,1767.68)"
       xml:space="preserve"
       stroke-miterlimit="10.433"
       font-style="normal"
       font-variant="normal"
       font-weight="normal"
       font-stretch="normal"
       font-size-adjust="none"
       letter-spacing="normal"
       word-spacing="normal"
       ns0:text="$x$"
       ns0:preamble="/home/jeremy/papers/2011-enief/inkscape.tex"><path
         style="fill:#000000;stroke-width:0"
         inkscape:connector-curvature="0"
         d="m 226.76,660.23 v 0.03 l 0.01,0.03 0.01,0.03 0.01,0.04 0.01,0.04 0.01,0.04 0.01,0.04 0.02,0.05 0.01,0.04 0.02,0.05 0.02,0.05 0.02,0.05 0.02,0.05 0.03,0.05 0.02,0.05 0.03,0.05 0.03,0.05 0.03,0.04 0.03,0.05 0.04,0.04 0.04,0.05 0.04,0.04 0.04,0.04 0.04,0.03 0.05,0.03 0.05,0.03 0.02,0.01 0.03,0.02 0.02,0.01 0.03,0.01 0.03,0.01 h 0.03 l 0.03,0.01 0.02,0.01 h 0.04 0.03 l 0.03,0.01 h 0.03 c 0.05,0 0.29,0 0.5,-0.13 -0.28,-0.05 -0.48,-0.3 -0.48,-0.54 0,-0.16 0.11,-0.35 0.38,-0.35 0.22,0 0.54,0.18 0.54,0.58 0,0.52 -0.59,0.66 -0.93,0.66 -0.58,0 -0.93,-0.53 -1.04,-0.76 -0.25,0.66 -0.79,0.76 -1.08,0.76 -1.03,0 -1.6,-1.29 -1.6,-1.53 0,-0.1 0.1,-0.1 0.12,-0.1 0.08,0 0.11,0.02 0.13,0.11 0.34,1.05 0.99,1.3 1.33,1.3 0.19,0 0.54,-0.09 0.54,-0.67 0,-0.31 -0.17,-0.97 -0.54,-2.36 -0.16,-0.62 -0.51,-1.04 -0.94,-1.04 -0.06,0 -0.29,0 -0.5,0.13 0.25,0.05 0.47,0.26 0.47,0.54 0,0.27 -0.22,0.35 -0.37,0.35 -0.3,0 -0.55,-0.26 -0.55,-0.58 0,-0.46 0.5,-0.65 0.94,-0.65 0.65,0 1.01,0.69 1.04,0.75 0.12,-0.37 0.48,-0.75 1.07,-0.75 1.03,0 1.6,1.28 1.6,1.53 0,0.1 -0.09,0.1 -0.12,0.1 -0.09,0 -0.11,-0.04 -0.13,-0.11 -0.33,-1.07 -1.01,-1.31 -1.33,-1.31 -0.38,0 -0.54,0.32 -0.54,0.66 0,0.22 0.06,0.44 0.17,0.87 z"
         id="path4355" /></g>
    <g
       ns0:preamble="/home/jeremy/papers/2011-enief/inkscape.tex"
       ns0:text="$x=2$"
       word-spacing="normal"
       letter-spacing="normal"
       font-size-adjust="none"
       font-stretch="normal"
       font-weight="normal"
       font-variant="normal"
       font-style="normal"
       stroke-miterlimit="10.433"
       xml:space="preserve"
       transform="matrix(1,0,0,-1,68.1,922.76218)"
       id="g4396"
       style="font-style:normal;font-variant:normal;font-weight:normal;font-stretch:normal;letter-spacing:normal;word-spacing:normal;text-anchor:start;fill:none;stroke:#000000;stroke-linecap:butt;stroke-linejoin:miter;stroke-miterlimit:10.433;stroke-dasharray:none;stroke-dashoffset:0;stroke-opacity:1"><path
         id="path4398"
         d="m 226.76,660.23 v 0.03 l 0.01,0.03 0.01,0.03 0.01,0.04 0.01,0.04 0.01,0.04 0.01,0.04 0.02,0.05 0.01,0.04 0.02,0.05 0.02,0.05 0.02,0.05 0.02,0.05 0.03,0.05 0.02,0.05 0.03,0.05 0.03,0.05 0.03,0.04 0.03,0.05 0.04,0.04 0.04,0.05 0.04,0.04 0.04,0.04 0.04,0.03 0.05,0.03 0.05,0.03 0.02,0.01 0.03,0.02 0.02,0.01 0.03,0.01 0.03,0.01 h 0.03 l 0.03,0.01 0.02,0.01 h 0.04 0.03 l 0.03,0.01 h 0.03 c 0.05,0 0.29,0 0.5,-0.13 -0.28,-0.05 -0.48,-0.3 -0.48,-0.54 0,-0.16 0.11,-0.35 0.38,-0.35 0.22,0 0.54,0.18 0.54,0.58 0,0.52 -0.59,0.66 -0.93,0.66 -0.58,0 -0.93,-0.53 -1.04,-0.76 -0.25,0.66 -0.79,0.76 -1.08,0.76 -1.03,0 -1.6,-1.29 -1.6,-1.53 0,-0.1 0.1,-0.1 0.12,-0.1 0.08,0 0.11,0.02 0.13,0.11 0.34,1.05 0.99,1.3 1.33,1.3 0.19,0 0.54,-0.09 0.54,-0.67 0,-0.31 -0.17,-0.97 -0.54,-2.36 -0.16,-0.62 -0.51,-1.04 -0.94,-1.04 -0.06,0 -0.29,0 -0.5,0.13 0.25,0.05 0.47,0.26 0.47,0.54 0,0.27 -0.22,0.35 -0.37,0.35 -0.3,0 -0.55,-0.26 -0.55,-0.58 0,-0.46 0.5,-0.65 0.94,-0.65 0.65,0 1.01,0.69 1.04,0.75 0.12,-0.37 0.48,-0.75 1.07,-0.75 1.03,0 1.6,1.28 1.6,1.53 0,0.1 -0.09,0.1 -0.12,0.1 -0.09,0 -0.11,-0.04 -0.13,-0.11 -0.33,-1.07 -1.01,-1.31 -1.33,-1.31 -0.38,0 -0.54,0.32 -0.54,0.66 0,0.22 0.06,0.44 0.17,0.87 z"
         inkscape:connector-curvature="0"
         style="fill:#000000;stroke-width:0" /><path
         id="path4400"
         d="m 238.73,660.48 h 0.03 0.03 0.02 l 0.02,0.01 h 0.01 0.02 0.01 0.02 0.01 l 0.01,0.01 h 0.02 0.01 l 0.01,0.01 h 0.01 l 0.02,0.01 h 0.01 l 0.01,0.01 0.01,0.01 0.01,0.01 0.01,0.01 v 0.01 h 0.01 v 0.01 0 l 0.01,0.01 v 0.01 0 l 0.01,0.01 v 0.01 0 0.01 0.01 0.01 0.01 h 0.01 v 0.01 0.01 c 0,0.2 -0.19,0.2 -0.33,0.2 h -5.96 c -0.14,0 -0.33,0 -0.33,-0.2 0,-0.2 0.19,-0.2 0.34,-0.2 z"
         inkscape:connector-curvature="0"
         style="fill:#000000;stroke-width:0" /><path
         id="path4402"
         d="m 238.74,658.56 h 0.01 0.01 0.03 0.03 0.01 0.02 0.01 0.02 0.01 l 0.01,0.01 h 0.02 0.01 l 0.01,0.01 h 0.01 l 0.02,0.01 h 0.01 l 0.01,0.01 H 239 l 0.01,0.01 0.01,0.01 0.01,0.01 v 0 0.01 l 0.01,0.01 v 0 0.01 h 0.01 v 0.01 0.01 h 0.01 v 0.01 0.01 0 0.01 0.01 0.01 l 0.01,0.01 v 0.01 0.01 c 0,0.19 -0.19,0.19 -0.34,0.19 h -5.94 c -0.15,0 -0.34,0 -0.34,-0.19 0,-0.2 0.19,-0.2 0.33,-0.2 z"
         inkscape:connector-curvature="0"
         style="fill:#000000;stroke-width:0" /><path
         id="path4404"
         d="m 243.68,658 1.05,1.02 c 1.55,1.37 2.15,1.91 2.15,2.9 0,1.14 -0.9,1.93 -2.11,1.93 -1.12,0 -1.86,-0.91 -1.86,-1.8 0,-0.55 0.5,-0.55 0.53,-0.55 0.16,0 0.51,0.12 0.51,0.52 0,0.26 -0.18,0.52 -0.52,0.52 -0.08,0 -0.1,0 -0.13,-0.01 0.23,0.64 0.76,1.01 1.34,1.01 0.9,0 1.33,-0.8 1.33,-1.62 0,-0.79 -0.49,-1.58 -1.04,-2.19 l -1.91,-2.13 c -0.11,-0.11 -0.11,-0.13 -0.11,-0.37 h 3.69 l 0.28,1.73 h -0.25 c -0.05,-0.3 -0.12,-0.73 -0.22,-0.88 C 246.34,658 245.68,658 245.47,658 Z"
         inkscape:connector-curvature="0"
         style="fill:#000000;stroke-width:0" /></g>
    <g
       id="g4458"
       transform="matrix(1,0,0,-1,118.06,922.70718)"
       xml:space="preserve"
       stroke-miterlimit="10.433"
       font-style="normal"
       font-variant="normal"
       font-weight="normal"
       font-stretch="normal"
       font-size-adjust="none"
       letter-spacing="normal"
       word-spacing="normal"
       ns0:text="$x=3$"
       ns0:preamble="/home/jeremy/papers/2011-enief/inkscape.tex"
       style="font-style:normal;font-variant:normal;font-weight:normal;font-stretch:normal;letter-spacing:normal;word-spacing:normal;text-anchor:start;fill:none;stroke:#000000;stroke-linecap:butt;stroke-linejoin:miter;stroke-miterlimit:10.433;stroke-dasharray:none;stroke-dashoffset:0;stroke-opacity:1"><path
         d="m 226.76,660.23 v 0.03 l 0.01,0.03 0.01,0.03 0.01,0.04 0.01,0.04 0.01,0.04 0.01,0.04 0.02,0.05 0.01,0.04 0.02,0.05 0.02,0.05 0.02,0.05 0.02,0.05 0.03,0.05 0.02,0.05 0.03,0.05 0.03,0.05 0.03,0.04 0.03,0.05 0.04,0.04 0.04,0.05 0.04,0.04 0.04,0.04 0.04,0.03 0.05,0.03 0.05,0.03 0.02,0.01 0.03,0.02 0.02,0.01 0.03,0.01 0.03,0.01 h 0.03 l 0.03,0.01 0.02,0.01 h 0.04 0.03 l 0.03,0.01 h 0.03 c 0.05,0 0.29,0 0.5,-0.13 -0.28,-0.05 -0.48,-0.3 -0.48,-0.54 0,-0.16 0.11,-0.35 0.38,-0.35 0.22,0 0.54,0.18 0.54,0.58 0,0.52 -0.59,0.66 -0.93,0.66 -0.58,0 -0.93,-0.53 -1.04,-0.76 -0.25,0.66 -0.79,0.76 -1.08,0.76 -1.03,0 -1.6,-1.29 -1.6,-1.53 0,-0.1 0.1,-0.1 0.12,-0.1 0.08,0 0.11,0.02 0.13,0.11 0.34,1.05 0.99,1.3 1.33,1.3 0.19,0 0.54,-0.09 0.54,-0.67 0,-0.31 -0.17,-0.97 -0.54,-2.36 -0.16,-0.62 -0.51,-1.04 -0.94,-1.04 -0.06,0 -0.29,0 -0.5,0.13 0.25,0.05 0.47,0.26 0.47,0.54 0,0.27 -0.22,0.35 -0.37,0.35 -0.3,0 -0.55,-0.26 -0.55,-0.58 0,-0.46 0.5,-0.65 0.94,-0.65 0.65,0 1.01,0.69 1.04,0.75 0.12,-0.37 0.48,-0.75 1.07,-0.75 1.03,0 1.6,1.28 1.6,1.53 0,0.1 -0.09,0.1 -0.12,0.1 -0.09,0 -0.11,-0.04 -0.13,-0.11 -0.33,-1.07 -1.01,-1.31 -1.33,-1.31 -0.38,0 -0.54,0.32 -0.54,0.66 0,0.22 0.06,0.44 0.17,0.87 z"
         id="path4460"
         inkscape:connector-curvature="0"
         style="fill:#000000;stroke-width:0" /><path
         d="m 238.73,660.48 h 0.03 0.03 0.02 l 0.02,0.01 h 0.01 0.02 0.01 0.02 0.01 l 0.01,0.01 h 0.02 0.01 l 0.01,0.01 h 0.01 l 0.02,0.01 h 0.01 l 0.01,0.01 0.01,0.01 0.01,0.01 0.01,0.01 v 0.01 h 0.01 v 0.01 0 l 0.01,0.01 v 0.01 0 l 0.01,0.01 v 0.01 0 0.01 0.01 0.01 0.01 h 0.01 v 0.01 0.01 c 0,0.2 -0.19,0.2 -0.33,0.2 h -5.96 c -0.14,0 -0.33,0 -0.33,-0.2 0,-0.2 0.19,-0.2 0.34,-0.2 z"
         id="path4462"
         inkscape:connector-curvature="0"
         style="fill:#000000;stroke-width:0" /><path
         d="m 238.74,658.56 h 0.01 0.01 0.03 0.03 0.01 0.02 0.01 0.02 0.01 l 0.01,0.01 h 0.02 0.01 l 0.01,0.01 h 0.01 l 0.02,0.01 h 0.01 l 0.01,0.01 H 239 l 0.01,0.01 0.01,0.01 0.01,0.01 v 0 0.01 l 0.01,0.01 v 0 0.01 h 0.01 v 0.01 0.01 h 0.01 v 0.01 0.01 0 0.01 0.01 0.01 l 0.01,0.01 v 0.01 0.01 c 0,0.19 -0.19,0.19 -0.34,0.19 h -5.94 c -0.15,0 -0.34,0 -0.34,-0.19 0,-0.2 0.19,-0.2 0.33,-0.2 z"
         id="path4464"
         inkscape:connector-curvature="0"
         style="fill:#000000;stroke-width:0" /><path
         d="m 245.3,660.73 0.07,0.03 0.08,0.03 0.07,0.03 0.07,0.03 0.07,0.04 0.07,0.04 0.06,0.04 0.07,0.04 0.06,0.04 0.06,0.05 0.06,0.05 0.06,0.05 0.05,0.05 0.05,0.05 0.05,0.06 0.05,0.05 0.04,0.06 0.05,0.06 0.04,0.06 0.03,0.06 0.04,0.07 0.03,0.06 0.03,0.07 0.03,0.06 0.02,0.07 0.02,0.07 0.02,0.07 0.01,0.07 0.02,0.07 v 0.07 l 0.01,0.08 v 0.07 c 0,0.81 -0.88,1.37 -1.83,1.37 -1.01,0 -1.76,-0.59 -1.76,-1.35 0,-0.33 0.22,-0.52 0.5,-0.52 0.31,0 0.51,0.22 0.51,0.51 0,0.5 -0.46,0.5 -0.61,0.5 0.3,0.48 0.96,0.61 1.32,0.61 0.41,0 0.95,-0.22 0.95,-1.11 0,-0.12 -0.02,-0.7 -0.27,-1.13 -0.3,-0.48 -0.64,-0.51 -0.89,-0.52 -0.08,-0.01 -0.32,-0.03 -0.39,-0.03 -0.08,-0.01 -0.15,-0.02 -0.15,-0.12 0,-0.11 0.07,-0.11 0.24,-0.11 h 0.44 c 0.82,0 1.18,-0.67 1.18,-1.65 0,-1.35 -0.68,-1.64 -1.12,-1.64 -0.43,0 -1.18,0.17 -1.52,0.76 0.34,-0.05 0.65,0.17 0.65,0.55 0,0.35 -0.26,0.55 -0.55,0.55 -0.24,0 -0.56,-0.14 -0.56,-0.57 0,-0.91 0.93,-1.56 2.01,-1.56 1.21,0 2.12,0.9 2.12,1.91 0,0.82 -0.63,1.59 -1.66,1.8 z"
         id="path4466"
         inkscape:connector-curvature="0"
         style="fill:#000000;stroke-width:0" /></g>
    <g
       style="font-style:normal;font-variant:normal;font-weight:normal;font-stretch:normal;letter-spacing:normal;word-spacing:normal;text-anchor:start;fill:none;stroke:#000000;stroke-linecap:butt;stroke-linejoin:miter;stroke-miterlimit:10.433;stroke-dasharray:none;stroke-dashoffset:0;stroke-opacity:1"
       ns0:preamble="/home/jeremy/papers/2011-enief/inkscape.tex"
       ns0:text="$x=5$"
       word-spacing="normal"
       letter-spacing="normal"
       font-size-adjust="none"
       font-stretch="normal"
       font-weight="normal"
       font-variant="normal"
       font-style="normal"
       stroke-miterlimit="10.433"
       xml:space="preserve"
       transform="matrix(1,0,0,-1,218.1,922.70718)"
       id="g4530"><path
         id="path4532"
         d="m 226.76,660.23 v 0.03 l 0.01,0.03 0.01,0.03 0.01,0.04 0.01,0.04 0.01,0.04 0.01,0.04 0.02,0.05 0.01,0.04 0.02,0.05 0.02,0.05 0.02,0.05 0.02,0.05 0.03,0.05 0.02,0.05 0.03,0.05 0.03,0.05 0.03,0.04 0.03,0.05 0.04,0.04 0.04,0.05 0.04,0.04 0.04,0.04 0.04,0.03 0.05,0.03 0.05,0.03 0.02,0.01 0.03,0.02 0.02,0.01 0.03,0.01 0.03,0.01 h 0.03 l 0.03,0.01 0.02,0.01 h 0.04 0.03 l 0.03,0.01 h 0.03 c 0.05,0 0.29,0 0.5,-0.13 -0.28,-0.05 -0.48,-0.3 -0.48,-0.54 0,-0.16 0.11,-0.35 0.38,-0.35 0.22,0 0.54,0.18 0.54,0.58 0,0.52 -0.59,0.66 -0.93,0.66 -0.58,0 -0.93,-0.53 -1.04,-0.76 -0.25,0.66 -0.79,0.76 -1.08,0.76 -1.03,0 -1.6,-1.29 -1.6,-1.53 0,-0.1 0.1,-0.1 0.12,-0.1 0.08,0 0.11,0.02 0.13,0.11 0.34,1.05 0.99,1.3 1.33,1.3 0.19,0 0.54,-0.09 0.54,-0.67 0,-0.31 -0.17,-0.97 -0.54,-2.36 -0.16,-0.62 -0.51,-1.04 -0.94,-1.04 -0.06,0 -0.29,0 -0.5,0.13 0.25,0.05 0.47,0.26 0.47,0.54 0,0.27 -0.22,0.35 -0.37,0.35 -0.3,0 -0.55,-0.26 -0.55,-0.58 0,-0.46 0.5,-0.65 0.94,-0.65 0.65,0 1.01,0.69 1.04,0.75 0.12,-0.37 0.48,-0.75 1.07,-0.75 1.03,0 1.6,1.28 1.6,1.53 0,0.1 -0.09,0.1 -0.12,0.1 -0.09,0 -0.11,-0.04 -0.13,-0.11 -0.33,-1.07 -1.01,-1.31 -1.33,-1.31 -0.38,0 -0.54,0.32 -0.54,0.66 0,0.22 0.06,0.44 0.17,0.87 z"
         inkscape:connector-curvature="0"
         style="fill:#000000;stroke-width:0" /><path
         id="path4534"
         d="m 238.73,660.48 h 0.03 0.03 0.02 l 0.02,0.01 h 0.01 0.02 0.01 0.02 0.01 l 0.01,0.01 h 0.02 0.01 l 0.01,0.01 h 0.01 l 0.02,0.01 h 0.01 l 0.01,0.01 0.01,0.01 0.01,0.01 0.01,0.01 v 0.01 h 0.01 v 0.01 0 l 0.01,0.01 v 0.01 0 l 0.01,0.01 v 0.01 0 0.01 0.01 0.01 0.01 h 0.01 v 0.01 0.01 c 0,0.2 -0.19,0.2 -0.33,0.2 h -5.96 c -0.14,0 -0.33,0 -0.33,-0.2 0,-0.2 0.19,-0.2 0.34,-0.2 z"
         inkscape:connector-curvature="0"
         style="fill:#000000;stroke-width:0" /><path
         id="path4536"
         d="m 238.74,658.56 h 0.01 0.01 0.03 0.03 0.01 0.02 0.01 0.02 0.01 l 0.01,0.01 h 0.02 0.01 l 0.01,0.01 h 0.01 l 0.02,0.01 h 0.01 l 0.01,0.01 H 239 l 0.01,0.01 0.01,0.01 0.01,0.01 v 0 0.01 l 0.01,0.01 v 0 0.01 h 0.01 v 0.01 0.01 h 0.01 v 0.01 0.01 0 0.01 0.01 0.01 l 0.01,0.01 v 0.01 0.01 c 0,0.19 -0.19,0.19 -0.34,0.19 h -5.94 c -0.15,0 -0.34,0 -0.34,-0.19 0,-0.2 0.19,-0.2 0.33,-0.2 z"
         inkscape:connector-curvature="0"
         style="fill:#000000;stroke-width:0" /><path
         id="path4538"
         d="m 246.88,659.23 v 0.11 l -0.01,0.11 -0.01,0.11 -0.02,0.1 -0.02,0.11 -0.02,0.1 -0.03,0.1 -0.04,0.1 -0.03,0.1 -0.04,0.09 -0.05,0.09 -0.05,0.09 -0.05,0.09 -0.05,0.08 -0.06,0.08 -0.06,0.07 -0.07,0.08 -0.07,0.06 -0.07,0.07 -0.07,0.06 -0.08,0.06 -0.08,0.05 -0.08,0.05 -0.08,0.04 -0.09,0.04 -0.09,0.04 -0.09,0.03 -0.09,0.02 -0.1,0.02 -0.09,0.02 h -0.1 l -0.1,0.01 c -0.48,0 -0.91,-0.16 -1.26,-0.51 v 1.94 c 0.19,-0.06 0.52,-0.13 0.84,-0.13 1.22,0 1.92,0.9 1.92,1.03 0,0.06 -0.03,0.11 -0.1,0.11 -0.01,0 -0.03,0 -0.08,-0.03 -0.2,-0.09 -0.69,-0.29 -1.35,-0.29 -0.4,0 -0.86,0.07 -1.33,0.28 -0.07,0.03 -0.09,0.03 -0.11,0.03 -0.1,0 -0.1,-0.08 -0.1,-0.24 v -2.94 c 0,-0.18 0,-0.26 0.14,-0.26 0.06,0 0.09,0.03 0.12,0.09 0.11,0.16 0.48,0.7 1.29,0.7 0.52,0 0.77,-0.46 0.84,-0.64 0.16,-0.37 0.18,-0.75 0.18,-1.25 0,-0.35 0,-0.94 -0.24,-1.36 -0.23,-0.39 -0.6,-0.65 -1.06,-0.65 -0.73,0 -1.29,0.53 -1.46,1.12 0.03,-0.01 0.06,-0.02 0.17,-0.02 0.33,0 0.49,0.25 0.49,0.48 0,0.24 -0.16,0.49 -0.49,0.49 -0.14,0 -0.49,-0.07 -0.49,-0.53 0,-0.85 0.69,-1.81 1.8,-1.81 1.15,0 2.17,0.95 2.17,2.21 z"
         inkscape:connector-curvature="0"
         style="fill:#000000;stroke-width:0" /></g>
    <g
       id="g4612"
       transform="matrix(1,0,0,-1,268.06,922.70718)"
       xml:space="preserve"
       stroke-miterlimit="10.433"
       font-style="normal"
       font-variant="normal"
       font-weight="normal"
       font-stretch="normal"
       font-size-adjust="none"
       letter-spacing="normal"
       word-spacing="normal"
       ns0:text="$x=6$"
       ns0:preamble="/home/jeremy/papers/2011-enief/inkscape.tex"
       style="font-style:normal;font-variant:normal;font-weight:normal;font-stretch:normal;letter-spacing:normal;word-spacing:normal;text-anchor:start;fill:none;stroke:#000000;stroke-linecap:butt;stroke-linejoin:miter;stroke-miterlimit:10.433;stroke-dasharray:none;stroke-dashoffset:0;stroke-opacity:1"><path
         style="fill:#000000;stroke-width:0"
         inkscape:connector-curvature="0"
         d="m 226.76,660.23 v 0.03 l 0.01,0.03 0.01,0.03 0.01,0.04 0.01,0.04 0.01,0.04 0.01,0.04 0.02,0.05 0.01,0.04 0.02,0.05 0.02,0.05 0.02,0.05 0.02,0.05 0.03,0.05 0.02,0.05 0.03,0.05 0.03,0.05 0.03,0.04 0.03,0.05 0.04,0.04 0.04,0.05 0.04,0.04 0.04,0.04 0.04,0.03 0.05,0.03 0.05,0.03 0.02,0.01 0.03,0.02 0.02,0.01 0.03,0.01 0.03,0.01 h 0.03 l 0.03,0.01 0.02,0.01 h 0.04 0.03 l 0.03,0.01 h 0.03 c 0.05,0 0.29,0 0.5,-0.13 -0.28,-0.05 -0.48,-0.3 -0.48,-0.54 0,-0.16 0.11,-0.35 0.38,-0.35 0.22,0 0.54,0.18 0.54,0.58 0,0.52 -0.59,0.66 -0.93,0.66 -0.58,0 -0.93,-0.53 -1.04,-0.76 -0.25,0.66 -0.79,0.76 -1.08,0.76 -1.03,0 -1.6,-1.29 -1.6,-1.53 0,-0.1 0.1,-0.1 0.12,-0.1 0.08,0 0.11,0.02 0.13,0.11 0.34,1.05 0.99,1.3 1.33,1.3 0.19,0 0.54,-0.09 0.54,-0.67 0,-0.31 -0.17,-0.97 -0.54,-2.36 -0.16,-0.62 -0.51,-1.04 -0.94,-1.04 -0.06,0 -0.29,0 -0.5,0.13 0.25,0.05 0.47,0.26 0.47,0.54 0,0.27 -0.22,0.35 -0.37,0.35 -0.3,0 -0.55,-0.26 -0.55,-0.58 0,-0.46 0.5,-0.65 0.94,-0.65 0.65,0 1.01,0.69 1.04,0.75 0.12,-0.37 0.48,-0.75 1.07,-0.75 1.03,0 1.6,1.28 1.6,1.53 0,0.1 -0.09,0.1 -0.12,0.1 -0.09,0 -0.11,-0.04 -0.13,-0.11 -0.33,-1.07 -1.01,-1.31 -1.33,-1.31 -0.38,0 -0.54,0.32 -0.54,0.66 0,0.22 0.06,0.44 0.17,0.87 z"
         id="path4614" /><path
         style="fill:#000000;stroke-width:0"
         inkscape:connector-curvature="0"
         d="m 238.73,660.48 h 0.03 0.03 0.02 l 0.02,0.01 h 0.01 0.02 0.01 0.02 0.01 l 0.01,0.01 h 0.02 0.01 l 0.01,0.01 h 0.01 l 0.02,0.01 h 0.01 l 0.01,0.01 0.01,0.01 0.01,0.01 0.01,0.01 v 0.01 h 0.01 v 0.01 0 l 0.01,0.01 v 0.01 0 l 0.01,0.01 v 0.01 0 0.01 0.01 0.01 0.01 h 0.01 v 0.01 0.01 c 0,0.2 -0.19,0.2 -0.33,0.2 h -5.96 c -0.14,0 -0.33,0 -0.33,-0.2 0,-0.2 0.19,-0.2 0.34,-0.2 z"
         id="path4616" /><path
         style="fill:#000000;stroke-width:0"
         inkscape:connector-curvature="0"
         d="m 238.74,658.56 h 0.01 0.01 0.03 0.03 0.01 0.02 0.01 0.02 0.01 l 0.01,0.01 h 0.02 0.01 l 0.01,0.01 h 0.01 l 0.02,0.01 h 0.01 l 0.01,0.01 H 239 l 0.01,0.01 0.01,0.01 0.01,0.01 v 0 0.01 l 0.01,0.01 v 0 0.01 h 0.01 v 0.01 0.01 h 0.01 v 0.01 0.01 0 0.01 0.01 0.01 l 0.01,0.01 v 0.01 0.01 c 0,0.19 -0.19,0.19 -0.34,0.19 h -5.94 c -0.15,0 -0.34,0 -0.34,-0.19 0,-0.2 0.19,-0.2 0.33,-0.2 z"
         id="path4618" /><path
         style="fill:#000000;stroke-width:0"
         inkscape:connector-curvature="0"
         d="m 243.73,660.49 v 0.24 c 0,2.51 1.23,2.87 1.74,2.87 0.24,0 0.65,-0.06 0.87,-0.39 -0.15,0 -0.55,0 -0.55,-0.45 0,-0.31 0.24,-0.46 0.46,-0.46 0.16,0 0.46,0.09 0.46,0.48 0,0.59 -0.44,1.07 -1.26,1.07 -1.28,0 -2.62,-1.28 -2.62,-3.48 0,-2.65 1.15,-3.35 2.08,-3.35 1.1,0 2.05,0.93 2.05,2.24 0,1.26 -0.89,2.22 -1.99,2.22 l -0.01,-0.23 c 0.16,0 0.61,0 0.92,-0.62 0.18,-0.36 0.18,-0.87 0.18,-1.36 0,-0.48 0,-0.97 -0.17,-1.33 -0.29,-0.6 -0.75,-0.65 -0.98,-0.65 v 0 c -0.63,0 -0.93,0.6 -0.99,0.75 -0.18,0.47 -0.18,1.26 -0.18,1.44 0,0.78 0.32,1.77 1.22,1.77 l 0.01,0.23 c -0.68,0 -1.05,-0.51 -1.24,-0.99 z"
         id="path4620" /></g>
    <g
       style="font-style:normal;font-variant:normal;font-weight:normal;font-stretch:normal;letter-spacing:normal;word-spacing:normal;text-anchor:start;fill:none;stroke:#000000;stroke-linecap:butt;stroke-linejoin:miter;stroke-miterlimit:10.433;stroke-dasharray:none;stroke-dashoffset:0;stroke-opacity:1"
       ns0:preamble="/home/jeremy/papers/2011-enief/inkscape.tex"
       ns0:text="$x=8$"
       word-spacing="normal"
       letter-spacing="normal"
       font-size-adjust="none"
       font-stretch="normal"
       font-weight="normal"
       font-variant="normal"
       font-style="normal"
       stroke-miterlimit="10.433"
       xml:space="preserve"
       transform="matrix(1,0,0,-1,368.06,922.70718)"
       id="g4711"><path
         id="path4713"
         d="m 226.76,660.23 v 0.03 l 0.01,0.03 0.01,0.03 0.01,0.04 0.01,0.04 0.01,0.04 0.01,0.04 0.02,0.05 0.01,0.04 0.02,0.05 0.02,0.05 0.02,0.05 0.02,0.05 0.03,0.05 0.02,0.05 0.03,0.05 0.03,0.05 0.03,0.04 0.03,0.05 0.04,0.04 0.04,0.05 0.04,0.04 0.04,0.04 0.04,0.03 0.05,0.03 0.05,0.03 0.02,0.01 0.03,0.02 0.02,0.01 0.03,0.01 0.03,0.01 h 0.03 l 0.03,0.01 0.02,0.01 h 0.04 0.03 l 0.03,0.01 h 0.03 c 0.05,0 0.29,0 0.5,-0.13 -0.28,-0.05 -0.48,-0.3 -0.48,-0.54 0,-0.16 0.11,-0.35 0.38,-0.35 0.22,0 0.54,0.18 0.54,0.58 0,0.52 -0.59,0.66 -0.93,0.66 -0.58,0 -0.93,-0.53 -1.04,-0.76 -0.25,0.66 -0.79,0.76 -1.08,0.76 -1.03,0 -1.6,-1.29 -1.6,-1.53 0,-0.1 0.1,-0.1 0.12,-0.1 0.08,0 0.11,0.02 0.13,0.11 0.34,1.05 0.99,1.3 1.33,1.3 0.19,0 0.54,-0.09 0.54,-0.67 0,-0.31 -0.17,-0.97 -0.54,-2.36 -0.16,-0.62 -0.51,-1.04 -0.94,-1.04 -0.06,0 -0.29,0 -0.5,0.13 0.25,0.05 0.47,0.26 0.47,0.54 0,0.27 -0.22,0.35 -0.37,0.35 -0.3,0 -0.55,-0.26 -0.55,-0.58 0,-0.46 0.5,-0.65 0.94,-0.65 0.65,0 1.01,0.69 1.04,0.75 0.12,-0.37 0.48,-0.75 1.07,-0.75 1.03,0 1.6,1.28 1.6,1.53 0,0.1 -0.09,0.1 -0.12,0.1 -0.09,0 -0.11,-0.04 -0.13,-0.11 -0.33,-1.07 -1.01,-1.31 -1.33,-1.31 -0.38,0 -0.54,0.32 -0.54,0.66 0,0.22 0.06,0.44 0.17,0.87 z"
         inkscape:connector-curvature="0"
         style="fill:#000000;stroke-width:0" /><path
         id="path4715"
         d="m 238.73,660.48 h 0.03 0.03 0.02 l 0.02,0.01 h 0.01 0.02 0.01 0.02 0.01 l 0.01,0.01 h 0.02 0.01 l 0.01,0.01 h 0.01 l 0.02,0.01 h 0.01 l 0.01,0.01 0.01,0.01 0.01,0.01 0.01,0.01 v 0.01 h 0.01 v 0.01 0 l 0.01,0.01 v 0.01 0 l 0.01,0.01 v 0.01 0 0.01 0.01 0.01 0.01 h 0.01 v 0.01 0.01 c 0,0.2 -0.19,0.2 -0.33,0.2 h -5.96 c -0.14,0 -0.33,0 -0.33,-0.2 0,-0.2 0.19,-0.2 0.34,-0.2 z"
         inkscape:connector-curvature="0"
         style="fill:#000000;stroke-width:0" /><path
         id="path4717"
         d="m 238.74,658.56 h 0.01 0.01 0.03 0.03 0.01 0.02 0.01 0.02 0.01 l 0.01,0.01 h 0.02 0.01 l 0.01,0.01 h 0.01 l 0.02,0.01 h 0.01 l 0.01,0.01 H 239 l 0.01,0.01 0.01,0.01 0.01,0.01 v 0 0.01 l 0.01,0.01 v 0 0.01 h 0.01 v 0.01 0.01 h 0.01 v 0.01 0.01 0 0.01 0.01 0.01 l 0.01,0.01 v 0.01 0.01 c 0,0.19 -0.19,0.19 -0.34,0.19 h -5.94 c -0.15,0 -0.34,0 -0.34,-0.19 0,-0.2 0.19,-0.2 0.33,-0.2 z"
         inkscape:connector-curvature="0"
         style="fill:#000000;stroke-width:0" /><path
         id="path4719"
         d="m 245.49,660.83 0.06,0.04 0.07,0.03 0.06,0.04 0.06,0.04 0.06,0.03 0.06,0.04 0.06,0.04 0.06,0.04 0.05,0.05 0.05,0.04 0.05,0.04 0.05,0.05 0.05,0.04 0.04,0.05 0.05,0.05 0.04,0.04 0.04,0.05 0.03,0.05 0.04,0.05 0.03,0.05 0.03,0.05 0.02,0.06 0.03,0.05 0.02,0.06 0.02,0.05 0.02,0.06 0.02,0.05 0.01,0.06 0.01,0.06 v 0.06 l 0.01,0.06 v 0.06 c 0,0.91 -0.89,1.48 -1.79,1.48 l -0.01,-0.25 c 0.73,0 1.36,-0.51 1.36,-1.23 0,-0.57 -0.39,-1.04 -0.98,-1.39 l -1.24,0.8 c -0.45,0.29 -0.49,0.63 -0.49,0.8 0,0.6 0.64,1.02 1.35,1.02 l 0.01,0.25 c -1,0 -1.8,-0.73 -1.8,-1.66 0,-0.18 0.02,-0.62 0.44,-1.09 0.11,-0.12 0.47,-0.37 0.72,-0.54 l 0.23,-0.15 1.22,-0.77 c 0.28,-0.19 0.75,-0.49 0.75,-1.09 0,-0.74 -0.75,-1.26 -1.56,-1.26 -0.86,0 -1.57,0.62 -1.57,1.44 0,0.58 0.32,1.22 1.16,1.68 v 0 l -0.23,0.15 c -0.58,-0.28 -1.43,-0.84 -1.43,-1.83 0,-1.05 1.01,-1.71 2.06,-1.71 1.12,0 2.07,0.82 2.07,1.88 0,0.36 -0.11,0.81 -0.49,1.23 -0.19,0.2 -0.35,0.3 -0.98,0.7 z"
         inkscape:connector-curvature="0"
         style="fill:#000000;stroke-width:0" /></g>
    <path
       style="fill:url(#linearGradient4946);fill-opacity:1;stroke:none"
       d="m 208.4,123.81218 c 0,0 -2.83792,4.11831 -10,5 -7.16208,0.8817 -15.98619,-15.46499 -25,-15 -9.01381,0.46499 -14.48201,7.34421 -20,15 -5.51799,7.6558 -10,16.82385 -10,30 0,13.17616 14.43289,30.23335 15,45 0.56711,14.76665 -14.42871,30.37102 -10,40 4.42871,9.62899 12.09461,8.94133 20,10 7.90539,1.05868 18.34622,-3.23299 25,-5 6.65378,-1.76701 15,0 15,0 z"
       id="path4938"
       inkscape:connector-curvature="0"
       sodipodi:nodetypes="czzzzzzzzcc" />
    <path
       sodipodi:nodetypes="cc"
       inkscape:connector-curvature="0"
       id="path3888"
       d="M 208.4,93.812183 V 263.81218"
       style="fill:none;stroke:#000000;stroke-width:4;stroke-linecap:butt;stroke-linejoin:miter;stroke-miterlimit:4;stroke-dasharray:32, 8, 4, 8;stroke-dashoffset:0;stroke-opacity:1" />
    <text
       xml:space="preserve"
       style="font-style:normal;font-variant:normal;font-weight:normal;font-stretch:normal;line-height:0%;font-family:Carlito;-inkscape-font-specification:Carlito;text-align:center;letter-spacing:0px;word-spacing:0px;text-anchor:middle;fill:#000000;fill-opacity:1;stroke:none"
       x="-183.68509"
       y="183.39999"
       id="text4948"
       transform="rotate(-90)"><tspan
         style="font-style:normal;font-variant:normal;font-weight:normal;font-stretch:normal;font-size:12px;line-height:1.25;font-family:Carlito;-inkscape-font-specification:Carlito;text-align:center;text-anchor:middle"
         sodipodi:role="line"
         id="tspan4950"
         x="-183.68509"
         y="183.39999">Symmetry</tspan></text>
    <text
       transform="rotate(-90)"
       id="text4952"
       y="628.40002"
       x="-183.68802"
       style="font-style:normal;font-variant:normal;font-weight:normal;font-stretch:normal;line-height:0%;font-family:Carlito;-inkscape-font-specification:Carlito;text-align:center;letter-spacing:0px;word-spacing:0px;text-anchor:middle;fill:#000000;fill-opacity:1;stroke:none"
       xml:space="preserve"><tspan
         y="628.40002"
         x="-183.68802"
         id="tspan4954"
         sodipodi:role="line"
         style="font-style:normal;font-variant:normal;font-weight:normal;font-stretch:normal;font-size:12px;line-height:1.25;font-family:Carlito;-inkscape-font-specification:Carlito;text-align:center;text-anchor:middle">Vacuum</tspan></text>
    <text
       xml:space="preserve"
       style="font-style:normal;font-variant:normal;font-weight:normal;font-stretch:normal;line-height:0%;font-family:Carlito;-inkscape-font-specification:Carlito;text-align:center;letter-spacing:0px;word-spacing:0px;text-anchor:middle;fill:#000000;fill-opacity:1;stroke:none"
       x="403.39999"
       y="163.81218"
       id="text4956"><tspan
         style="font-style:normal;font-variant:normal;font-weight:normal;font-stretch:normal;font-size:12px;line-height:1.25;font-family:Carlito;-inkscape-font-specification:Carlito;text-align:center;text-anchor:middle"
         sodipodi:role="line"
         id="tspan4958"
         x="403.39999"
         y="163.81218">Vacuum</tspan></text>
    <text
       id="text4960"
       y="163.81218"
       x="255.77109"
       style="font-style:normal;font-variant:normal;font-weight:normal;font-stretch:normal;line-height:0%;font-family:Carlito;-inkscape-font-specification:Carlito;text-align:center;letter-spacing:0px;word-spacing:0px;text-anchor:middle;fill:#000000;fill-opacity:1;stroke:none"
       xml:space="preserve"><tspan
         y="163.81218"
         x="255.77109"
         id="tspan4962"
         sodipodi:role="line"
         style="font-style:normal;font-variant:normal;font-weight:normal;font-stretch:normal;font-size:12px;line-height:1.25;font-family:Carlito;-inkscape-font-specification:Carlito;text-align:center;text-anchor:middle">Source 1</tspan></text>
    <text
       xml:space="preserve"
       style="font-style:normal;font-variant:normal;font-weight:normal;font-stretch:normal;line-height:0%;font-family:Carlito;-inkscape-font-specification:Carlito;text-align:center;letter-spacing:0px;word-spacing:0px;text-anchor:middle;fill:#000000;fill-opacity:1;stroke:none"
       x="328.39999"
       y="163.81218"
       id="text4964"><tspan
         style="font-style:normal;font-variant:normal;font-weight:normal;font-stretch:normal;font-size:12px;line-height:1.25;font-family:Carlito;-inkscape-font-specification:Carlito;text-align:center;text-anchor:middle"
         sodipodi:role="line"
         id="tspan4966"
         x="328.39999"
         y="163.81218">Absorb.</tspan></text>
    <text
       xml:space="preserve"
       style="font-style:normal;font-variant:normal;font-weight:normal;font-stretch:normal;line-height:0%;font-family:Carlito;-inkscape-font-specification:Carlito;text-align:center;letter-spacing:0px;word-spacing:0px;text-anchor:middle;fill:#000000;fill-opacity:1;stroke:none"
       x="478.39999"
       y="163.81218"
       id="text4968"><tspan
         style="font-style:normal;font-variant:normal;font-weight:normal;font-stretch:normal;font-size:12px;line-height:1.25;font-family:Carlito;-inkscape-font-specification:Carlito;text-align:center;text-anchor:middle"
         sodipodi:role="line"
         id="tspan4970"
         x="478.39999"
         y="163.81218">Source 2</tspan></text>
    <text
       id="text4972"
       y="163.81218"
       x="553.09241"
       style="font-style:normal;font-variant:normal;font-weight:normal;font-stretch:normal;line-height:0%;font-family:Carlito;-inkscape-font-specification:Carlito;text-align:center;letter-spacing:0px;word-spacing:0px;text-anchor:middle;fill:#000000;fill-opacity:1;stroke:none"
       xml:space="preserve"><tspan
         y="163.81218"
         x="553.09241"
         id="tspan4974"
         sodipodi:role="line"
         style="font-style:normal;font-variant:normal;font-weight:normal;font-stretch:normal;font-size:12px;line-height:1.25;font-family:Carlito;-inkscape-font-specification:Carlito;text-align:center;text-anchor:middle">Reflector</tspan></text>
    <g
       ns0:preamble="/home/jeremy/papers/2011-enief/inkscape.tex"
       ns0:text="\\begin{align*}\nS &amp;= 50 \\\\\n\\Sigma_t &amp;= 50 \\\\\n\\Sigma_s &amp;= 0\n\\end{align*}\n"
       word-spacing="normal"
       letter-spacing="normal"
       font-size-adjust="none"
       font-stretch="normal"
       font-weight="normal"
       font-variant="normal"
       font-style="normal"
       stroke-miterlimit="10.433"
       xml:space="preserve"
       transform="matrix(1,0,0,-1,-139.46,849.38218)"
       id="g5430"
       style="font-style:normal;font-variant:normal;font-weight:normal;font-stretch:normal;letter-spacing:normal;word-spacing:normal;text-anchor:start;fill:none;stroke:#000000;stroke-linecap:butt;stroke-linejoin:miter;stroke-miterlimit:10.433;stroke-dasharray:none;stroke-dashoffset:0;stroke-opacity:1"><path
         id="path5432"
         d="m 389.12,664.14 v 0 0.01 0 0 0.01 0 0 0.01 0 0.01 0 h -0.01 v 0.01 0 0.01 h -0.01 v 0 0.01 h -0.01 v 0 0.01 h -0.01 v 0 l -0.01,0.01 v 0 h -0.01 v 0 0 h -0.01 v 0 0 l -0.01,0.01 v 0 0 h -0.01 v 0 h -0.01 v 0 0 c -0.05,0 -0.06,-0.01 -0.18,-0.15 l -0.48,-0.57 c -0.26,0.47 -0.78,0.72 -1.42,0.72 -1.27,0 -2.46,-1.14 -2.46,-2.35 0,-0.8 0.53,-1.26 1.03,-1.41 l 1.07,-0.27 c 0.37,-0.09 0.91,-0.24 0.91,-1.06 0,-0.89 -0.81,-1.83 -1.79,-1.83 -0.63,0 -1.74,0.22 -1.74,1.46 0,0.23 0.05,0.47 0.06,0.53 0.01,0.04 0.02,0.05 0.02,0.07 0,0.1 -0.07,0.11 -0.12,0.11 -0.05,0 -0.07,-0.01 -0.1,-0.04 -0.04,-0.04 -0.59,-2.3 -0.59,-2.33 0,-0.06 0.04,-0.1 0.1,-0.1 0.06,0 0.06,0.01 0.18,0.14 l 0.49,0.57 c 0.43,-0.57 1.11,-0.71 1.68,-0.71 1.36,0 2.53,1.32 2.53,2.55 0,0.69 -0.34,1.02 -0.49,1.16 -0.23,0.23 -0.38,0.27 -1.26,0.5 -0.22,0.06 -0.58,0.16 -0.67,0.18 -0.27,0.09 -0.61,0.37 -0.61,0.9 0,0.81 0.8,1.65 1.75,1.65 0.82,0 1.43,-0.43 1.43,-1.54 0,-0.32 -0.04,-0.5 -0.04,-0.56 0,-0.01 0,-0.09 0.12,-0.09 0.1,0 0.11,0.02 0.15,0.19 z"
         inkscape:connector-curvature="0"
         style="fill:#000000;stroke-width:0" /><path
         id="path5434"
         d="m 398.99,660.48 h 0.03 0.03 0.03 l 0.02,0.01 h 0.01 0.01 0.02 0.01 0.02 l 0.01,0.01 h 0.01 0.02 l 0.01,0.01 h 0.01 l 0.01,0.01 h 0.01 l 0.01,0.01 0.01,0.01 0.01,0.01 0.01,0.01 0.01,0.01 v 0 l 0.01,0.01 v 0 0.01 l 0.01,0.01 v 0 0.01 0.01 h 0.01 v 0.01 0.01 0.01 0.01 0 0.01 0.01 c 0,0.2 -0.19,0.2 -0.33,0.2 h -5.96 c -0.14,0 -0.32,0 -0.32,-0.2 0,-0.2 0.18,-0.2 0.33,-0.2 z"
         inkscape:connector-curvature="0"
         style="fill:#000000;stroke-width:0" /><path
         id="path5436"
         d="m 399,658.56 h 0.02 0.01 0.03 0.03 0.01 0.01 0.02 0.01 0.02 l 0.01,0.01 h 0.01 0.02 l 0.01,0.01 h 0.01 l 0.01,0.01 h 0.01 l 0.01,0.01 h 0.01 l 0.01,0.01 0.01,0.01 0.01,0.01 h 0.01 v 0.01 0.01 h 0.01 v 0.01 0 l 0.01,0.01 v 0.01 0 0.01 l 0.01,0.01 v 0 0.01 0.01 0.01 0.01 0.01 0.01 c 0,0.19 -0.19,0.19 -0.34,0.19 h -5.94 c -0.15,0 -0.33,0 -0.33,-0.19 0,-0.2 0.18,-0.2 0.32,-0.2 z"
         inkscape:connector-curvature="0"
         style="fill:#000000;stroke-width:0" /><path
         id="path5438"
         d="m 407.14,659.23 v 0.11 0.11 l -0.02,0.11 -0.01,0.1 -0.02,0.11 -0.03,0.1 -0.03,0.1 -0.03,0.1 -0.04,0.1 -0.04,0.09 -0.04,0.09 -0.05,0.09 -0.05,0.09 -0.06,0.08 -0.06,0.08 -0.06,0.07 -0.06,0.08 -0.07,0.06 -0.07,0.07 -0.08,0.06 -0.07,0.06 -0.08,0.05 -0.08,0.05 -0.09,0.04 -0.08,0.04 -0.09,0.04 -0.09,0.03 -0.1,0.02 -0.09,0.02 -0.1,0.02 h -0.1 l -0.1,0.01 c -0.47,0 -0.9,-0.16 -1.26,-0.51 v 1.94 c 0.2,-0.06 0.53,-0.13 0.85,-0.13 1.22,0 1.92,0.9 1.92,1.03 0,0.06 -0.03,0.11 -0.1,0.11 -0.01,0 -0.03,0 -0.08,-0.03 -0.2,-0.09 -0.69,-0.29 -1.36,-0.29 -0.39,0 -0.85,0.07 -1.32,0.28 -0.08,0.03 -0.1,0.03 -0.12,0.03 -0.1,0 -0.1,-0.08 -0.1,-0.24 v -2.94 c 0,-0.18 0,-0.26 0.14,-0.26 0.07,0 0.09,0.03 0.13,0.09 0.11,0.16 0.48,0.7 1.28,0.7 0.52,0 0.77,-0.46 0.85,-0.64 0.16,-0.37 0.18,-0.75 0.18,-1.25 0,-0.35 0,-0.94 -0.24,-1.36 -0.24,-0.39 -0.61,-0.65 -1.06,-0.65 -0.73,0 -1.3,0.53 -1.47,1.12 0.03,-0.01 0.06,-0.02 0.17,-0.02 0.33,0 0.5,0.25 0.5,0.48 0,0.24 -0.17,0.49 -0.5,0.49 -0.14,0 -0.49,-0.07 -0.49,-0.53 0,-0.85 0.69,-1.81 1.81,-1.81 1.15,0 2.16,0.95 2.16,2.21 z"
         inkscape:connector-curvature="0"
         style="fill:#000000;stroke-width:0" /><path
         id="path5440"
         d="m 412.23,660.41 v 0.15 0.15 0.15 l -0.01,0.15 -0.01,0.15 -0.01,0.14 -0.01,0.15 -0.02,0.15 -0.03,0.14 -0.02,0.15 -0.04,0.14 -0.03,0.15 -0.05,0.14 -0.05,0.14 -0.05,0.14 -0.03,0.07 -0.03,0.07 c -0.46,0.95 -1.28,1.11 -1.69,1.11 -0.6,0 -1.33,-0.26 -1.73,-1.18 -0.32,-0.69 -0.37,-1.46 -0.37,-2.26 0,-0.74 0.04,-1.63 0.44,-2.39 0.43,-0.8 1.16,-1 1.65,-1 v 0.21 c -0.39,0 -0.98,0.25 -1.16,1.21 -0.11,0.59 -0.11,1.51 -0.11,2.09 0,0.64 0,1.29 0.08,1.83 0.19,1.18 0.94,1.27 1.19,1.27 0.32,0 0.98,-0.18 1.17,-1.16 0.1,-0.56 0.1,-1.31 0.1,-1.94 0,-0.74 0,-1.42 -0.11,-2.05 -0.15,-0.95 -0.72,-1.25 -1.16,-1.25 v 0 -0.21 c 0.53,0 1.29,0.2 1.73,1.15 0.32,0.68 0.36,1.46 0.36,2.24 z"
         inkscape:connector-curvature="0"
         style="fill:#000000;stroke-width:0" /><path
         id="path5442"
         d="m 382.39,645.53 v 0 l 0.01,0.01 v 0 0.01 h 0.01 v 0.01 h 0.01 v 0 0.01 0 l 0.01,0.01 0.01,0.01 v 0 l 0.01,0.01 v 0.01 0 l 0.01,0.01 v 0 0.01 h 0.01 v 0.01 0 0.01 0 0.01 h 0.01 v 0 0.01 0 0 0 0.01 0 0 0 0.01 c 0,0.05 -0.04,0.1 -0.07,0.14 l -2.04,2.94 h 2.3 c 1.68,0 2.18,-0.36 2.38,-1.93 h 0.25 l -0.27,2.24 h -5.53 c -0.23,0 -0.26,0 -0.26,-0.23 l 2.48,-3.6 -2.36,-2.69 c -0.1,-0.11 -0.1,-0.13 -0.1,-0.16 0,-0.11 0.1,-0.11 0.24,-0.11 h 5.53 l 0.27,2.35 h -0.25 c -0.17,-1.66 -0.85,-1.93 -2.41,-1.93 h -2.75 z"
         inkscape:connector-curvature="0"
         style="fill:#000000;stroke-width:0" /><path
         id="path5444"
         d="m 387.6,643.54 h 0.71 c 0.13,0 0.22,0 0.22,0.16 0,0.09 -0.09,0.09 -0.21,0.09 h -0.66 l 0.26,1.03 c 0,0.04 0.02,0.07 0.02,0.1 0,0.13 -0.1,0.22 -0.24,0.22 -0.17,0 -0.28,-0.11 -0.33,-0.3 -0.04,-0.17 0.05,0.16 -0.26,-1.05 h -0.71 c -0.13,0 -0.22,0 -0.22,-0.15 0,-0.1 0.08,-0.1 0.21,-0.1 h 0.66 l -0.41,-1.64 c -0.05,-0.17 -0.11,-0.42 -0.11,-0.51 0,-0.41 0.35,-0.66 0.75,-0.66 0.77,0 1.21,0.97 1.21,1.06 0,0.09 -0.09,0.09 -0.11,0.09 -0.09,0 -0.09,-0.01 -0.15,-0.13 -0.19,-0.44 -0.55,-0.83 -0.93,-0.83 -0.15,0 -0.25,0.09 -0.25,0.34 0,0.07 0.03,0.22 0.05,0.29 z"
         inkscape:connector-curvature="0"
         style="fill:#000000;stroke-width:0" /><path
         id="path5446"
         d="m 398.99,645.54 h 0.03 0.03 0.03 0.02 0.01 0.01 l 0.02,0.01 h 0.01 0.02 0.01 l 0.01,0.01 h 0.02 0.01 l 0.01,0.01 h 0.01 l 0.01,0.01 0.01,0.01 0.01,0.01 h 0.01 l 0.01,0.01 0.01,0.01 v 0.01 h 0.01 v 0.01 0.01 h 0.01 v 0.01 0.01 0 l 0.01,0.01 v 0.01 0 0.01 0.01 0.01 0.01 0.01 c 0,0.2 -0.19,0.2 -0.33,0.2 h -5.96 c -0.14,0 -0.32,0 -0.32,-0.2 0,-0.2 0.18,-0.2 0.33,-0.2 z"
         inkscape:connector-curvature="0"
         style="fill:#000000;stroke-width:0" /><path
         id="path5448"
         d="m 399,643.61 h 0.02 0.01 0.03 0.03 0.01 l 0.01,0.01 h 0.02 0.01 0.02 0.01 l 0.01,0.01 h 0.02 0.01 l 0.01,0.01 h 0.01 l 0.01,0.01 h 0.01 l 0.01,0.01 0.01,0.01 0.01,0.01 0.01,0.01 h 0.01 v 0.01 0 l 0.01,0.01 v 0 0.01 l 0.01,0.01 v 0 0.01 0.01 h 0.01 v 0.01 0.01 0.01 0 0.01 0.01 0.01 c 0,0.2 -0.19,0.2 -0.34,0.2 h -5.94 c -0.15,0 -0.33,0 -0.33,-0.2 0,-0.2 0.18,-0.2 0.32,-0.2 z"
         inkscape:connector-curvature="0"
         style="fill:#000000;stroke-width:0" /><path
         id="path5450"
         d="m 407.14,644.29 v 0.11 0.11 l -0.02,0.1 -0.01,0.11 -0.02,0.11 -0.03,0.1 -0.03,0.1 -0.03,0.1 -0.04,0.09 -0.04,0.1 -0.04,0.09 -0.05,0.09 -0.05,0.08 -0.06,0.08 -0.06,0.08 -0.06,0.08 -0.06,0.07 -0.07,0.07 -0.07,0.07 -0.08,0.06 -0.07,0.05 -0.08,0.06 -0.08,0.05 -0.09,0.04 -0.08,0.04 -0.09,0.03 -0.09,0.03 -0.1,0.03 -0.09,0.02 -0.1,0.01 -0.1,0.01 h -0.1 c -0.47,0 -0.9,-0.16 -1.26,-0.5 v 1.93 c 0.2,-0.06 0.53,-0.12 0.85,-0.12 1.22,0 1.92,0.9 1.92,1.03 0,0.06 -0.03,0.11 -0.1,0.11 -0.01,0 -0.03,0 -0.08,-0.03 -0.2,-0.09 -0.69,-0.29 -1.36,-0.29 -0.39,0 -0.85,0.07 -1.32,0.28 -0.08,0.03 -0.1,0.03 -0.12,0.03 -0.1,0 -0.1,-0.08 -0.1,-0.24 v -2.94 c 0,-0.18 0,-0.26 0.14,-0.26 0.07,0 0.09,0.03 0.13,0.09 0.11,0.16 0.48,0.69 1.28,0.69 0.52,0 0.77,-0.45 0.85,-0.63 0.16,-0.37 0.18,-0.76 0.18,-1.25 0,-0.35 0,-0.95 -0.24,-1.36 -0.24,-0.39 -0.61,-0.65 -1.06,-0.65 -0.73,0 -1.3,0.53 -1.47,1.11 0.03,-0.01 0.06,-0.02 0.17,-0.02 0.33,0 0.5,0.25 0.5,0.49 0,0.24 -0.17,0.49 -0.5,0.49 -0.14,0 -0.49,-0.07 -0.49,-0.53 0,-0.85 0.69,-1.82 1.81,-1.82 1.15,0 2.16,0.96 2.16,2.22 z"
         inkscape:connector-curvature="0"
         style="fill:#000000;stroke-width:0" /><path
         id="path5452"
         d="m 412.23,645.47 v 0.15 0.15 0.15 l -0.01,0.15 -0.01,0.14 -0.01,0.15 -0.01,0.15 -0.02,0.14 -0.03,0.15 -0.02,0.15 -0.04,0.14 -0.03,0.14 -0.05,0.14 -0.05,0.15 -0.05,0.14 -0.03,0.06 -0.03,0.07 c -0.46,0.96 -1.28,1.12 -1.69,1.12 -0.6,0 -1.33,-0.26 -1.73,-1.19 -0.32,-0.68 -0.37,-1.45 -0.37,-2.25 0,-0.75 0.04,-1.64 0.44,-2.39 0.43,-0.81 1.16,-1.01 1.65,-1.01 v 0.22 c -0.39,0 -0.98,0.25 -1.16,1.2 -0.11,0.6 -0.11,1.51 -0.11,2.1 0,0.63 0,1.29 0.08,1.83 0.19,1.18 0.94,1.27 1.19,1.27 0.32,0 0.98,-0.18 1.17,-1.16 0.1,-0.56 0.1,-1.31 0.1,-1.94 0,-0.75 0,-1.42 -0.11,-2.06 -0.15,-0.94 -0.72,-1.24 -1.16,-1.24 v 0 -0.22 c 0.53,0 1.29,0.21 1.73,1.15 0.32,0.69 0.36,1.46 0.36,2.25 z"
         inkscape:connector-curvature="0"
         style="fill:#000000;stroke-width:0" /><path
         id="path5454"
         d="m 381.64,630.59 v 0 l 0.01,0.01 v 0 0 l 0.01,0.01 v 0 l 0.01,0.01 v 0 0 0.01 l 0.01,0.01 h 0.01 v 0.01 l 0.01,0.01 v 0 0.01 h 0.01 v 0.01 0 l 0.01,0.01 v 0 0.01 0 0.01 0 h 0.01 v 0.01 0 0 0.01 0 0 0.01 0 0 0 c 0,0.05 -0.04,0.1 -0.07,0.14 l -2.04,2.94 h 2.3 c 1.68,0 2.18,-0.35 2.38,-1.92 h 0.25 l -0.27,2.23 h -5.53 c -0.23,0 -0.26,0 -0.26,-0.23 l 2.48,-3.59 -2.36,-2.7 c -0.1,-0.1 -0.1,-0.12 -0.1,-0.15 0,-0.11 0.1,-0.11 0.24,-0.11 h 5.53 l 0.27,2.34 h -0.25 c -0.17,-1.66 -0.85,-1.93 -2.41,-1.93 h -2.75 z"
         inkscape:connector-curvature="0"
         style="fill:#000000;stroke-width:0" /><path
         id="path5456"
         d="m 388.14,628.47 -0.02,-0.01 h -0.02 l -0.01,-0.01 h -0.02 l -0.01,-0.01 -0.02,-0.01 h -0.01 l -0.02,-0.01 -0.01,-0.01 -0.01,-0.01 -0.02,-0.01 -0.01,-0.01 -0.01,-0.01 -0.01,-0.01 -0.01,-0.01 -0.01,-0.01 -0.01,-0.01 -0.01,-0.01 -0.01,-0.01 v -0.02 l -0.01,-0.01 -0.01,-0.01 v -0.01 l -0.01,-0.02 v -0.01 l -0.01,-0.01 v -0.01 -0.02 l -0.01,-0.01 v -0.01 -0.02 -0.01 c 0,-0.16 0.14,-0.22 0.23,-0.22 0.07,0 0.34,0.04 0.34,0.4 0,0.45 -0.51,0.6 -0.93,0.6 -1.09,0 -1.28,-0.8 -1.28,-1.02 0,-0.25 0.15,-0.42 0.24,-0.5 0.18,-0.14 0.31,-0.17 0.79,-0.25 0.15,-0.03 0.59,-0.12 0.59,-0.46 0,-0.12 -0.08,-0.39 -0.37,-0.56 -0.27,-0.15 -0.61,-0.15 -0.69,-0.15 -0.28,0 -0.68,0.06 -0.84,0.29 0.23,0.03 0.38,0.2 0.38,0.4 0,0.17 -0.12,0.25 -0.27,0.25 -0.2,0 -0.4,-0.16 -0.4,-0.46 0,-0.42 0.44,-0.68 1.12,-0.68 1.28,0 1.52,0.88 1.52,1.15 0,0.64 -0.71,0.77 -0.96,0.81 -0.07,0.02 -0.24,0.05 -0.28,0.06 -0.26,0.05 -0.39,0.19 -0.39,0.35 0,0.16 0.13,0.34 0.28,0.44 0.19,0.12 0.44,0.13 0.55,0.13 0.15,0 0.51,-0.02 0.67,-0.25 z"
         inkscape:connector-curvature="0"
         style="fill:#000000;stroke-width:0" /><path
         id="path5458"
         d="m 398.99,630.59 0.03,0.01 h 0.03 0.03 0.02 0.01 0.01 0.02 0.01 l 0.02,0.01 h 0.01 0.01 l 0.02,0.01 h 0.01 0.01 l 0.01,0.01 0.01,0.01 h 0.01 l 0.01,0.01 0.01,0.01 0.01,0.01 0.01,0.01 v 0 l 0.01,0.01 v 0.01 0 l 0.01,0.01 v 0 0.01 0.01 l 0.01,0.01 v 0 0.01 0.01 0.01 0.01 0 0.01 c 0,0.2 -0.19,0.2 -0.33,0.2 h -5.96 c -0.14,0 -0.32,0 -0.32,-0.2 0,-0.2 0.18,-0.2 0.33,-0.2 z"
         inkscape:connector-curvature="0"
         style="fill:#000000;stroke-width:0" /><path
         id="path5460"
         d="m 399,628.67 h 0.02 0.01 0.03 0.03 0.01 0.01 0.02 0.01 l 0.02,0.01 h 0.01 0.01 0.02 l 0.01,0.01 h 0.01 l 0.01,0.01 h 0.01 l 0.01,0.01 0.01,0.01 h 0.01 l 0.01,0.01 0.01,0.01 0.01,0.01 v 0 0.01 h 0.01 v 0.01 0 l 0.01,0.01 v 0.01 0 0.01 l 0.01,0.01 v 0.01 0 0.01 0.01 0.01 0.01 0.01 c 0,0.2 -0.19,0.2 -0.34,0.2 h -5.94 c -0.15,0 -0.33,0 -0.33,-0.2 0,-0.2 0.18,-0.2 0.32,-0.2 z"
         inkscape:connector-curvature="0"
         style="fill:#000000;stroke-width:0" /><path
         id="path5462"
         d="m 407.25,630.53 v 0.15 0.14 0.15 l -0.01,0.15 -0.01,0.15 -0.01,0.15 -0.02,0.14 -0.01,0.15 -0.03,0.15 -0.03,0.14 -0.03,0.15 -0.04,0.14 -0.04,0.14 -0.05,0.14 -0.05,0.14 -0.03,0.07 -0.03,0.07 c -0.46,0.95 -1.28,1.11 -1.69,1.11 -0.6,0 -1.33,-0.25 -1.74,-1.18 -0.32,-0.69 -0.36,-1.46 -0.36,-2.25 0,-0.75 0.04,-1.64 0.44,-2.4 0.43,-0.8 1.16,-1 1.64,-1 v 0.22 c -0.38,0 -0.97,0.24 -1.15,1.2 -0.11,0.6 -0.11,1.51 -0.11,2.1 0,0.63 0,1.29 0.08,1.82 0.19,1.19 0.94,1.27 1.18,1.27 0.33,0 0.99,-0.17 1.18,-1.16 0.1,-0.55 0.1,-1.31 0.1,-1.93 0,-0.75 0,-1.43 -0.11,-2.06 -0.15,-0.94 -0.72,-1.24 -1.17,-1.24 v 0 -0.22 c 0.54,0 1.3,0.21 1.74,1.15 0.31,0.69 0.36,1.46 0.36,2.25 z"
         inkscape:connector-curvature="0"
         style="fill:#000000;stroke-width:0" /></g>
    <g
       id="g5935"
       transform="matrix(1,0,0,-1,-67.33207,849.38218)"
       xml:space="preserve"
       stroke-miterlimit="10.433"
       font-style="normal"
       font-variant="normal"
       font-weight="normal"
       font-stretch="normal"
       font-size-adjust="none"
       letter-spacing="normal"
       word-spacing="normal"
       ns0:text="\\begin{align*}\nS &amp;= 0 \\\\\n\\Sigma_t &amp;= 5 \\\\\n\\Sigma_s &amp;= 0\n\\end{align*}\n"
       ns0:preamble="/home/jeremy/papers/2011-enief/inkscape.tex"
       style="font-style:normal;font-variant:normal;font-weight:normal;font-stretch:normal;letter-spacing:normal;word-spacing:normal;text-anchor:start;fill:none;stroke:#000000;stroke-linecap:butt;stroke-linejoin:miter;stroke-miterlimit:10.433;stroke-dasharray:none;stroke-dashoffset:0;stroke-opacity:1"><path
         d="m 391.62,664.14 v 0 0.01 0 h -0.01 v 0.01 0 0 0.01 0 0.01 0 h -0.01 v 0.01 0 0.01 h -0.01 v 0 0.01 h -0.01 v 0 0.01 h -0.01 v 0 l -0.01,0.01 v 0 h -0.01 v 0 0 h -0.01 v 0 0 l -0.01,0.01 v 0 0 h -0.01 v 0 0 h -0.01 v 0 c -0.05,0 -0.06,-0.01 -0.18,-0.15 l -0.48,-0.57 c -0.26,0.47 -0.78,0.72 -1.42,0.72 -1.27,0 -2.46,-1.14 -2.46,-2.35 0,-0.8 0.53,-1.26 1.04,-1.41 l 1.06,-0.27 c 0.37,-0.09 0.91,-0.24 0.91,-1.06 0,-0.89 -0.81,-1.83 -1.79,-1.83 -0.63,0 -1.74,0.22 -1.74,1.46 0,0.23 0.05,0.47 0.06,0.53 0.01,0.04 0.02,0.05 0.02,0.07 0,0.1 -0.07,0.11 -0.12,0.11 -0.05,0 -0.07,-0.01 -0.1,-0.04 -0.04,-0.04 -0.59,-2.3 -0.59,-2.33 0,-0.06 0.05,-0.1 0.11,-0.1 0.05,0 0.06,0.01 0.18,0.14 l 0.48,0.57 c 0.43,-0.57 1.11,-0.71 1.68,-0.71 1.36,0 2.53,1.32 2.53,2.55 0,0.69 -0.34,1.02 -0.49,1.16 -0.23,0.23 -0.38,0.27 -1.26,0.5 -0.22,0.06 -0.58,0.16 -0.67,0.18 -0.26,0.09 -0.6,0.37 -0.6,0.9 0,0.81 0.79,1.65 1.74,1.65 0.82,0 1.43,-0.43 1.43,-1.54 0,-0.32 -0.04,-0.5 -0.04,-0.56 0,-0.01 0,-0.09 0.12,-0.09 0.1,0 0.11,0.02 0.15,0.19 z"
         id="path5937"
         inkscape:connector-curvature="0"
         style="fill:#000000;stroke-width:0" /><path
         d="m 401.48,660.48 h 0.03 0.03 0.03 l 0.02,0.01 h 0.01 0.01 0.02 0.01 0.02 l 0.01,0.01 h 0.01 0.02 l 0.01,0.01 h 0.01 l 0.01,0.01 h 0.01 l 0.01,0.01 0.01,0.01 0.01,0.01 0.01,0.01 0.01,0.01 v 0 l 0.01,0.01 v 0 0.01 l 0.01,0.01 v 0 0.01 0.01 h 0.01 v 0.01 0.01 0.01 0.01 0 0.01 0.01 c 0,0.2 -0.19,0.2 -0.33,0.2 h -5.96 c -0.14,0 -0.32,0 -0.32,-0.2 0,-0.2 0.18,-0.2 0.33,-0.2 z"
         id="path5939"
         inkscape:connector-curvature="0"
         style="fill:#000000;stroke-width:0" /><path
         d="m 401.49,658.56 h 0.02 0.01 0.03 0.03 0.01 0.01 0.02 0.01 0.02 l 0.01,0.01 h 0.01 0.02 l 0.01,0.01 h 0.01 l 0.01,0.01 h 0.01 l 0.01,0.01 h 0.01 l 0.01,0.01 0.01,0.01 0.01,0.01 h 0.01 v 0.01 0.01 h 0.01 v 0.01 0 l 0.01,0.01 v 0.01 0 0.01 l 0.01,0.01 v 0 0.01 0.01 0.01 0.01 0.01 0.01 c 0,0.19 -0.19,0.19 -0.34,0.19 h -5.94 c -0.15,0 -0.33,0 -0.33,-0.19 0,-0.2 0.18,-0.2 0.32,-0.2 z"
         id="path5941"
         inkscape:connector-curvature="0"
         style="fill:#000000;stroke-width:0" /><path
         d="m 409.74,660.41 v 0.15 0.15 0.15 l -0.01,0.15 -0.01,0.15 -0.01,0.14 -0.02,0.15 -0.01,0.15 -0.03,0.14 -0.03,0.15 -0.03,0.14 -0.03,0.15 -0.05,0.14 -0.05,0.14 -0.05,0.14 -0.03,0.07 -0.03,0.07 c -0.46,0.95 -1.28,1.11 -1.7,1.11 -0.59,0 -1.32,-0.26 -1.73,-1.18 -0.31,-0.69 -0.36,-1.46 -0.36,-2.26 0,-0.74 0.04,-1.63 0.44,-2.39 0.43,-0.8 1.16,-1 1.64,-1 v 0.21 c -0.38,0 -0.97,0.25 -1.15,1.21 -0.11,0.59 -0.11,1.51 -0.11,2.09 0,0.64 0,1.29 0.08,1.83 0.19,1.18 0.94,1.27 1.18,1.27 0.33,0 0.99,-0.18 1.18,-1.16 0.1,-0.56 0.1,-1.31 0.1,-1.94 0,-0.74 0,-1.42 -0.11,-2.05 -0.15,-0.95 -0.72,-1.25 -1.17,-1.25 v 0 -0.21 c 0.54,0 1.3,0.2 1.74,1.15 0.31,0.68 0.36,1.46 0.36,2.24 z"
         id="path5943"
         inkscape:connector-curvature="0"
         style="fill:#000000;stroke-width:0" /><path
         d="m 384.88,645.53 v 0 l 0.01,0.01 v 0 l 0.01,0.01 v 0 0.01 h 0.01 v 0 0.01 h 0.01 v 0.01 l 0.01,0.01 v 0 l 0.01,0.01 v 0.01 0 l 0.01,0.01 v 0 0.01 h 0.01 v 0.01 0 0.01 0 l 0.01,0.01 v 0 0 0.01 0 0 0 0.01 0 0 0 0.01 c 0,0.05 -0.04,0.1 -0.07,0.14 l -2.04,2.94 h 2.3 c 1.68,0 2.18,-0.36 2.39,-1.93 h 0.25 l -0.28,2.24 h -5.53 c -0.23,0 -0.25,0 -0.25,-0.23 l 2.47,-3.6 -2.36,-2.69 c -0.1,-0.11 -0.1,-0.13 -0.1,-0.16 0,-0.11 0.1,-0.11 0.24,-0.11 h 5.53 l 0.28,2.35 h -0.25 c -0.18,-1.66 -0.86,-1.93 -2.42,-1.93 h -2.75 z"
         id="path5945"
         inkscape:connector-curvature="0"
         style="fill:#000000;stroke-width:0" /><path
         d="m 390.09,643.54 h 0.71 c 0.13,0 0.22,0 0.22,0.16 0,0.09 -0.09,0.09 -0.21,0.09 h -0.66 l 0.26,1.03 c 0.01,0.04 0.02,0.07 0.02,0.1 0,0.13 -0.1,0.22 -0.24,0.22 -0.17,0 -0.28,-0.11 -0.33,-0.3 -0.04,-0.17 0.05,0.16 -0.26,-1.05 h -0.71 c -0.13,0 -0.22,0 -0.22,-0.15 0,-0.1 0.08,-0.1 0.21,-0.1 h 0.66 l -0.41,-1.64 c -0.05,-0.17 -0.11,-0.42 -0.11,-0.51 0,-0.41 0.35,-0.66 0.75,-0.66 0.77,0 1.21,0.97 1.21,1.06 0,0.09 -0.09,0.09 -0.11,0.09 -0.09,0 -0.09,-0.01 -0.15,-0.13 -0.19,-0.44 -0.55,-0.83 -0.93,-0.83 -0.15,0 -0.25,0.09 -0.25,0.34 0,0.07 0.03,0.22 0.05,0.29 z"
         id="path5947"
         inkscape:connector-curvature="0"
         style="fill:#000000;stroke-width:0" /><path
         d="m 401.48,645.54 h 0.03 0.03 0.03 0.02 0.01 0.01 l 0.02,0.01 h 0.01 0.02 0.01 l 0.01,0.01 h 0.02 0.01 l 0.01,0.01 h 0.01 l 0.01,0.01 0.01,0.01 0.01,0.01 h 0.01 l 0.01,0.01 0.01,0.01 v 0.01 h 0.01 v 0.01 0.01 h 0.01 v 0.01 0.01 0 l 0.01,0.01 v 0.01 0 0.01 0.01 0.01 0.01 0.01 c 0,0.2 -0.19,0.2 -0.33,0.2 h -5.96 c -0.14,0 -0.32,0 -0.32,-0.2 0,-0.2 0.18,-0.2 0.33,-0.2 z"
         id="path5949"
         inkscape:connector-curvature="0"
         style="fill:#000000;stroke-width:0" /><path
         d="m 401.49,643.61 h 0.02 0.01 0.03 0.03 0.01 l 0.01,0.01 h 0.02 0.01 0.02 0.01 l 0.01,0.01 h 0.02 0.01 l 0.01,0.01 h 0.01 l 0.01,0.01 h 0.01 l 0.01,0.01 0.01,0.01 0.01,0.01 0.01,0.01 h 0.01 v 0.01 0 l 0.01,0.01 v 0 0.01 l 0.01,0.01 v 0 0.01 0.01 h 0.01 v 0.01 0.01 0.01 0 0.01 0.01 0.01 c 0,0.2 -0.19,0.2 -0.34,0.2 h -5.94 c -0.15,0 -0.33,0 -0.33,-0.2 0,-0.2 0.18,-0.2 0.32,-0.2 z"
         id="path5951"
         inkscape:connector-curvature="0"
         style="fill:#000000;stroke-width:0" /><path
         d="m 409.64,644.29 -0.01,0.11 v 0.11 l -0.02,0.1 -0.01,0.11 -0.02,0.11 -0.03,0.1 -0.03,0.1 -0.03,0.1 -0.04,0.09 -0.04,0.1 -0.04,0.09 -0.05,0.09 -0.05,0.08 -0.06,0.08 -0.06,0.08 -0.06,0.08 -0.06,0.07 -0.07,0.07 -0.07,0.07 -0.08,0.06 -0.07,0.05 -0.08,0.06 -0.08,0.05 -0.09,0.04 -0.08,0.04 -0.09,0.03 -0.09,0.03 -0.1,0.03 -0.09,0.02 -0.1,0.01 -0.1,0.01 h -0.1 c -0.47,0 -0.9,-0.16 -1.26,-0.5 v 1.93 c 0.2,-0.06 0.53,-0.12 0.85,-0.12 1.22,0 1.92,0.9 1.92,1.03 0,0.06 -0.03,0.11 -0.1,0.11 -0.01,0 -0.03,0 -0.08,-0.03 -0.2,-0.09 -0.69,-0.29 -1.36,-0.29 -0.39,0 -0.85,0.07 -1.32,0.28 -0.08,0.03 -0.1,0.03 -0.12,0.03 -0.1,0 -0.1,-0.08 -0.1,-0.24 v -2.94 c 0,-0.18 0,-0.26 0.14,-0.26 0.07,0 0.09,0.03 0.13,0.09 0.11,0.16 0.48,0.69 1.28,0.69 0.52,0 0.77,-0.45 0.85,-0.63 0.16,-0.37 0.18,-0.76 0.18,-1.25 0,-0.35 0,-0.95 -0.24,-1.36 -0.24,-0.39 -0.61,-0.65 -1.06,-0.65 -0.73,0 -1.3,0.53 -1.47,1.11 0.03,-0.01 0.06,-0.02 0.17,-0.02 0.33,0 0.5,0.25 0.5,0.49 0,0.24 -0.17,0.49 -0.5,0.49 -0.14,0 -0.48,-0.07 -0.48,-0.53 0,-0.85 0.68,-1.82 1.8,-1.82 1.15,0 2.17,0.96 2.17,2.22 z"
         id="path5953"
         inkscape:connector-curvature="0"
         style="fill:#000000;stroke-width:0" /><path
         d="m 384.13,630.59 v 0 l 0.01,0.01 v 0 0 l 0.01,0.01 v 0 l 0.01,0.01 v 0 0 0.01 l 0.01,0.01 h 0.01 v 0.01 l 0.01,0.01 v 0 0.01 h 0.01 v 0.01 0 l 0.01,0.01 v 0 0.01 0 0.01 0 h 0.01 v 0.01 0 0 0.01 0 0 0.01 0 0 0 c 0,0.05 -0.04,0.1 -0.07,0.14 l -2.04,2.94 h 2.3 c 1.68,0 2.18,-0.35 2.39,-1.92 h 0.24 l -0.27,2.23 h -5.53 c -0.23,0 -0.26,0 -0.26,-0.23 l 2.48,-3.59 -2.36,-2.7 c -0.11,-0.1 -0.11,-0.12 -0.11,-0.15 0,-0.11 0.11,-0.11 0.25,-0.11 h 5.53 l 0.27,2.34 h -0.24 c -0.18,-1.66 -0.86,-1.93 -2.42,-1.93 h -2.75 z"
         id="path5955"
         inkscape:connector-curvature="0"
         style="fill:#000000;stroke-width:0" /><path
         d="m 390.63,628.47 -0.02,-0.01 h -0.02 l -0.01,-0.01 h -0.02 l -0.01,-0.01 -0.02,-0.01 h -0.01 l -0.02,-0.01 -0.01,-0.01 -0.01,-0.01 -0.01,-0.01 -0.02,-0.01 -0.01,-0.01 -0.01,-0.01 -0.01,-0.01 -0.01,-0.01 -0.01,-0.01 -0.01,-0.01 v -0.01 l -0.01,-0.02 -0.01,-0.01 -0.01,-0.01 v -0.01 l -0.01,-0.02 v -0.01 l -0.01,-0.01 v -0.01 -0.02 -0.01 l -0.01,-0.01 v -0.02 -0.01 c 0,-0.16 0.14,-0.22 0.23,-0.22 0.07,0 0.34,0.04 0.34,0.4 0,0.45 -0.5,0.6 -0.93,0.6 -1.08,0 -1.28,-0.8 -1.28,-1.02 0,-0.25 0.15,-0.42 0.24,-0.5 0.18,-0.14 0.31,-0.17 0.79,-0.25 0.15,-0.03 0.59,-0.12 0.59,-0.46 0,-0.12 -0.07,-0.39 -0.37,-0.56 -0.27,-0.15 -0.61,-0.15 -0.69,-0.15 -0.28,0 -0.68,0.06 -0.84,0.29 0.23,0.03 0.38,0.2 0.38,0.4 0,0.17 -0.12,0.25 -0.27,0.25 -0.2,0 -0.4,-0.16 -0.4,-0.46 0,-0.42 0.44,-0.68 1.12,-0.68 1.28,0 1.52,0.88 1.52,1.15 0,0.64 -0.71,0.77 -0.96,0.81 -0.07,0.02 -0.24,0.05 -0.28,0.06 -0.26,0.05 -0.38,0.19 -0.38,0.35 0,0.16 0.12,0.34 0.27,0.44 0.19,0.12 0.44,0.13 0.55,0.13 0.15,0 0.51,-0.02 0.67,-0.25 z"
         id="path5957"
         inkscape:connector-curvature="0"
         style="fill:#000000;stroke-width:0" /><path
         d="m 401.48,630.59 0.03,0.01 h 0.03 0.03 0.02 0.01 0.01 0.02 0.01 l 0.02,0.01 h 0.01 0.01 l 0.02,0.01 h 0.01 0.01 l 0.01,0.01 0.01,0.01 h 0.01 l 0.01,0.01 0.01,0.01 0.01,0.01 0.01,0.01 v 0 l 0.01,0.01 v 0.01 0 l 0.01,0.01 v 0 0.01 0.01 l 0.01,0.01 v 0 0.01 0.01 0.01 0.01 0 0.01 c 0,0.2 -0.19,0.2 -0.33,0.2 h -5.96 c -0.14,0 -0.32,0 -0.32,-0.2 0,-0.2 0.18,-0.2 0.33,-0.2 z"
         id="path5959"
         inkscape:connector-curvature="0"
         style="fill:#000000;stroke-width:0" /><path
         d="m 401.49,628.67 h 0.02 0.01 0.03 0.03 0.01 0.01 0.02 0.01 l 0.02,0.01 h 0.01 0.01 0.02 l 0.01,0.01 h 0.01 l 0.01,0.01 h 0.01 l 0.01,0.01 0.01,0.01 h 0.01 l 0.01,0.01 0.01,0.01 0.01,0.01 v 0 0.01 h 0.01 v 0.01 0 l 0.01,0.01 v 0.01 0 0.01 l 0.01,0.01 v 0.01 0 0.01 0.01 0.01 0.01 0.01 c 0,0.2 -0.19,0.2 -0.34,0.2 h -5.94 c -0.15,0 -0.33,0 -0.33,-0.2 0,-0.2 0.18,-0.2 0.32,-0.2 z"
         id="path5961"
         inkscape:connector-curvature="0"
         style="fill:#000000;stroke-width:0" /><path
         d="m 409.74,630.53 v 0.15 0.14 0.15 l -0.01,0.15 -0.01,0.15 -0.01,0.15 -0.02,0.14 -0.01,0.15 -0.03,0.15 -0.03,0.14 -0.03,0.15 -0.03,0.14 -0.05,0.14 -0.05,0.14 -0.05,0.14 -0.03,0.07 -0.03,0.07 c -0.46,0.95 -1.28,1.11 -1.7,1.11 -0.59,0 -1.32,-0.25 -1.73,-1.18 -0.31,-0.69 -0.36,-1.46 -0.36,-2.25 0,-0.75 0.04,-1.64 0.44,-2.4 0.43,-0.8 1.16,-1 1.64,-1 v 0.22 c -0.38,0 -0.97,0.24 -1.15,1.2 -0.11,0.6 -0.11,1.51 -0.11,2.1 0,0.63 0,1.29 0.08,1.82 0.19,1.19 0.94,1.27 1.18,1.27 0.33,0 0.99,-0.17 1.18,-1.16 0.1,-0.55 0.1,-1.31 0.1,-1.93 0,-0.75 0,-1.43 -0.11,-2.06 -0.15,-0.94 -0.72,-1.24 -1.17,-1.24 v 0 -0.22 c 0.54,0 1.3,0.21 1.74,1.15 0.31,0.69 0.36,1.46 0.36,2.25 z"
         id="path5963"
         inkscape:connector-curvature="0"
         style="fill:#000000;stroke-width:0" /></g>
    <g
       style="font-style:normal;font-variant:normal;font-weight:normal;font-stretch:normal;letter-spacing:normal;word-spacing:normal;text-anchor:start;fill:none;stroke:#000000;stroke-linecap:butt;stroke-linejoin:miter;stroke-miterlimit:10.433;stroke-dasharray:none;stroke-dashoffset:0;stroke-opacity:1"
       ns0:preamble="/home/jeremy/papers/2011-enief/inkscape.tex"
       ns0:text="\\begin{align*}\nS &amp;= 0 \\\\\n\\Sigma_t &amp;= 0 \\\\\n\\Sigma_s &amp;= 0\n\\end{align*}\n"
       word-spacing="normal"
       letter-spacing="normal"
       font-size-adjust="none"
       font-stretch="normal"
       font-weight="normal"
       font-variant="normal"
       font-style="normal"
       stroke-miterlimit="10.433"
       xml:space="preserve"
       transform="matrix(1,0,0,-1,7.83785,849.38218)"
       id="g6364"><path
         id="path6366"
         d="m 391.62,664.14 v 0 0.01 0 h -0.01 v 0.01 0 0 0.01 0 0.01 0 h -0.01 v 0.01 0 0.01 h -0.01 v 0 0.01 h -0.01 v 0 0.01 h -0.01 v 0 l -0.01,0.01 v 0 h -0.01 v 0 0 h -0.01 v 0 0 l -0.01,0.01 v 0 0 h -0.01 v 0 0 h -0.01 v 0 c -0.05,0 -0.06,-0.01 -0.18,-0.15 l -0.48,-0.57 c -0.26,0.47 -0.78,0.72 -1.42,0.72 -1.27,0 -2.46,-1.14 -2.46,-2.35 0,-0.8 0.53,-1.26 1.04,-1.41 l 1.06,-0.27 c 0.37,-0.09 0.91,-0.24 0.91,-1.06 0,-0.89 -0.81,-1.83 -1.79,-1.83 -0.63,0 -1.74,0.22 -1.74,1.46 0,0.23 0.05,0.47 0.06,0.53 0.01,0.04 0.02,0.05 0.02,0.07 0,0.1 -0.07,0.11 -0.12,0.11 -0.05,0 -0.07,-0.01 -0.1,-0.04 -0.04,-0.04 -0.59,-2.3 -0.59,-2.33 0,-0.06 0.05,-0.1 0.11,-0.1 0.05,0 0.06,0.01 0.18,0.14 l 0.48,0.57 c 0.43,-0.57 1.11,-0.71 1.68,-0.71 1.36,0 2.53,1.32 2.53,2.55 0,0.69 -0.34,1.02 -0.49,1.16 -0.23,0.23 -0.38,0.27 -1.26,0.5 -0.22,0.06 -0.58,0.16 -0.67,0.18 -0.26,0.09 -0.6,0.37 -0.6,0.9 0,0.81 0.79,1.65 1.74,1.65 0.82,0 1.43,-0.43 1.43,-1.54 0,-0.32 -0.04,-0.5 -0.04,-0.56 0,-0.01 0,-0.09 0.12,-0.09 0.1,0 0.11,0.02 0.15,0.19 z"
         inkscape:connector-curvature="0"
         style="fill:#000000;stroke-width:0" /><path
         id="path6368"
         d="m 401.48,660.48 h 0.03 0.03 0.03 l 0.02,0.01 h 0.01 0.01 0.02 0.01 0.02 l 0.01,0.01 h 0.01 0.02 l 0.01,0.01 h 0.01 l 0.01,0.01 h 0.01 l 0.01,0.01 0.01,0.01 0.01,0.01 0.01,0.01 0.01,0.01 v 0 l 0.01,0.01 v 0 0.01 l 0.01,0.01 v 0 0.01 0.01 h 0.01 v 0.01 0.01 0.01 0.01 0 0.01 0.01 c 0,0.2 -0.19,0.2 -0.33,0.2 h -5.96 c -0.14,0 -0.32,0 -0.32,-0.2 0,-0.2 0.18,-0.2 0.33,-0.2 z"
         inkscape:connector-curvature="0"
         style="fill:#000000;stroke-width:0" /><path
         id="path6370"
         d="m 401.49,658.56 h 0.02 0.01 0.03 0.03 0.01 0.01 0.02 0.01 0.02 l 0.01,0.01 h 0.01 0.02 l 0.01,0.01 h 0.01 l 0.01,0.01 h 0.01 l 0.01,0.01 h 0.01 l 0.01,0.01 0.01,0.01 0.01,0.01 h 0.01 v 0.01 0.01 h 0.01 v 0.01 0 l 0.01,0.01 v 0.01 0 0.01 l 0.01,0.01 v 0 0.01 0.01 0.01 0.01 0.01 0.01 c 0,0.19 -0.19,0.19 -0.34,0.19 h -5.94 c -0.15,0 -0.33,0 -0.33,-0.19 0,-0.2 0.18,-0.2 0.32,-0.2 z"
         inkscape:connector-curvature="0"
         style="fill:#000000;stroke-width:0" /><path
         id="path6372"
         d="m 409.74,660.41 v 0.15 0.15 0.15 l -0.01,0.15 -0.01,0.15 -0.01,0.14 -0.02,0.15 -0.01,0.15 -0.03,0.14 -0.03,0.15 -0.03,0.14 -0.03,0.15 -0.05,0.14 -0.05,0.14 -0.05,0.14 -0.03,0.07 -0.03,0.07 c -0.46,0.95 -1.28,1.11 -1.7,1.11 -0.59,0 -1.32,-0.26 -1.73,-1.18 -0.31,-0.69 -0.36,-1.46 -0.36,-2.26 0,-0.74 0.04,-1.63 0.44,-2.39 0.43,-0.8 1.16,-1 1.64,-1 v 0.21 c -0.38,0 -0.97,0.25 -1.15,1.21 -0.11,0.59 -0.11,1.51 -0.11,2.09 0,0.64 0,1.29 0.08,1.83 0.19,1.18 0.94,1.27 1.18,1.27 0.33,0 0.99,-0.18 1.18,-1.16 0.1,-0.56 0.1,-1.31 0.1,-1.94 0,-0.74 0,-1.42 -0.11,-2.05 -0.15,-0.95 -0.72,-1.25 -1.17,-1.25 v 0 -0.21 c 0.54,0 1.3,0.2 1.74,1.15 0.31,0.68 0.36,1.46 0.36,2.24 z"
         inkscape:connector-curvature="0"
         style="fill:#000000;stroke-width:0" /><path
         id="path6374"
         d="m 384.88,645.53 v 0 l 0.01,0.01 v 0 l 0.01,0.01 v 0 0.01 h 0.01 v 0 0.01 h 0.01 v 0.01 l 0.01,0.01 v 0 l 0.01,0.01 v 0.01 0 l 0.01,0.01 v 0 0.01 h 0.01 v 0.01 0 0.01 0 l 0.01,0.01 v 0 0 0.01 0 0 0 0.01 0 0 0 0.01 c 0,0.05 -0.04,0.1 -0.07,0.14 l -2.04,2.94 h 2.3 c 1.68,0 2.18,-0.36 2.39,-1.93 h 0.25 l -0.28,2.24 h -5.53 c -0.23,0 -0.25,0 -0.25,-0.23 l 2.47,-3.6 -2.36,-2.69 c -0.1,-0.11 -0.1,-0.13 -0.1,-0.16 0,-0.11 0.1,-0.11 0.24,-0.11 h 5.53 l 0.28,2.35 h -0.25 c -0.18,-1.66 -0.86,-1.93 -2.42,-1.93 h -2.75 z"
         inkscape:connector-curvature="0"
         style="fill:#000000;stroke-width:0" /><path
         id="path6376"
         d="m 390.09,643.54 h 0.71 c 0.13,0 0.22,0 0.22,0.16 0,0.09 -0.09,0.09 -0.21,0.09 h -0.66 l 0.26,1.03 c 0.01,0.04 0.02,0.07 0.02,0.1 0,0.13 -0.1,0.22 -0.24,0.22 -0.17,0 -0.28,-0.11 -0.33,-0.3 -0.04,-0.17 0.05,0.16 -0.26,-1.05 h -0.71 c -0.13,0 -0.22,0 -0.22,-0.15 0,-0.1 0.08,-0.1 0.21,-0.1 h 0.66 l -0.41,-1.64 c -0.05,-0.17 -0.11,-0.42 -0.11,-0.51 0,-0.41 0.35,-0.66 0.75,-0.66 0.77,0 1.21,0.97 1.21,1.06 0,0.09 -0.09,0.09 -0.11,0.09 -0.09,0 -0.09,-0.01 -0.15,-0.13 -0.19,-0.44 -0.55,-0.83 -0.93,-0.83 -0.15,0 -0.25,0.09 -0.25,0.34 0,0.07 0.03,0.22 0.05,0.29 z"
         inkscape:connector-curvature="0"
         style="fill:#000000;stroke-width:0" /><path
         id="path6378"
         d="m 401.48,645.54 h 0.03 0.03 0.03 0.02 0.01 0.01 l 0.02,0.01 h 0.01 0.02 0.01 l 0.01,0.01 h 0.02 0.01 l 0.01,0.01 h 0.01 l 0.01,0.01 0.01,0.01 0.01,0.01 h 0.01 l 0.01,0.01 0.01,0.01 v 0.01 h 0.01 v 0.01 0.01 h 0.01 v 0.01 0.01 0 l 0.01,0.01 v 0.01 0 0.01 0.01 0.01 0.01 0.01 c 0,0.2 -0.19,0.2 -0.33,0.2 h -5.96 c -0.14,0 -0.32,0 -0.32,-0.2 0,-0.2 0.18,-0.2 0.33,-0.2 z"
         inkscape:connector-curvature="0"
         style="fill:#000000;stroke-width:0" /><path
         id="path6380"
         d="m 401.49,643.61 h 0.02 0.01 0.03 0.03 0.01 l 0.01,0.01 h 0.02 0.01 0.02 0.01 l 0.01,0.01 h 0.02 0.01 l 0.01,0.01 h 0.01 l 0.01,0.01 h 0.01 l 0.01,0.01 0.01,0.01 0.01,0.01 0.01,0.01 h 0.01 v 0.01 0 l 0.01,0.01 v 0 0.01 l 0.01,0.01 v 0 0.01 0.01 h 0.01 v 0.01 0.01 0.01 0 0.01 0.01 0.01 c 0,0.2 -0.19,0.2 -0.34,0.2 h -5.94 c -0.15,0 -0.33,0 -0.33,-0.2 0,-0.2 0.18,-0.2 0.32,-0.2 z"
         inkscape:connector-curvature="0"
         style="fill:#000000;stroke-width:0" /><path
         id="path6382"
         d="m 409.74,645.47 v 0.15 0.15 0.15 l -0.01,0.15 -0.01,0.14 -0.01,0.15 -0.02,0.15 -0.01,0.14 -0.03,0.15 -0.03,0.15 -0.03,0.14 -0.03,0.14 -0.05,0.14 -0.05,0.15 -0.05,0.14 -0.03,0.06 -0.03,0.07 c -0.46,0.96 -1.28,1.12 -1.7,1.12 -0.59,0 -1.32,-0.26 -1.73,-1.19 -0.31,-0.68 -0.36,-1.45 -0.36,-2.25 0,-0.75 0.04,-1.64 0.44,-2.39 0.43,-0.81 1.16,-1.01 1.64,-1.01 v 0.22 c -0.38,0 -0.97,0.25 -1.15,1.2 -0.11,0.6 -0.11,1.51 -0.11,2.1 0,0.63 0,1.29 0.08,1.83 0.19,1.18 0.94,1.27 1.18,1.27 0.33,0 0.99,-0.18 1.18,-1.16 0.1,-0.56 0.1,-1.31 0.1,-1.94 0,-0.75 0,-1.42 -0.11,-2.06 -0.15,-0.94 -0.72,-1.24 -1.17,-1.24 v 0 -0.22 c 0.54,0 1.3,0.21 1.74,1.15 0.31,0.69 0.36,1.46 0.36,2.25 z"
         inkscape:connector-curvature="0"
         style="fill:#000000;stroke-width:0" /><path
         id="path6384"
         d="m 384.13,630.59 v 0 l 0.01,0.01 v 0 0 l 0.01,0.01 v 0 l 0.01,0.01 v 0 0 0.01 l 0.01,0.01 h 0.01 v 0.01 l 0.01,0.01 v 0 0.01 h 0.01 v 0.01 0 l 0.01,0.01 v 0 0.01 0 0.01 0 h 0.01 v 0.01 0 0 0.01 0 0 0.01 0 0 0 c 0,0.05 -0.04,0.1 -0.07,0.14 l -2.04,2.94 h 2.3 c 1.68,0 2.18,-0.35 2.39,-1.92 h 0.24 l -0.27,2.23 h -5.53 c -0.23,0 -0.26,0 -0.26,-0.23 l 2.48,-3.59 -2.36,-2.7 c -0.11,-0.1 -0.11,-0.12 -0.11,-0.15 0,-0.11 0.11,-0.11 0.25,-0.11 h 5.53 l 0.27,2.34 h -0.24 c -0.18,-1.66 -0.86,-1.93 -2.42,-1.93 h -2.75 z"
         inkscape:connector-curvature="0"
         style="fill:#000000;stroke-width:0" /><path
         id="path6386"
         d="m 390.63,628.47 -0.02,-0.01 h -0.02 l -0.01,-0.01 h -0.02 l -0.01,-0.01 -0.02,-0.01 h -0.01 l -0.02,-0.01 -0.01,-0.01 -0.01,-0.01 -0.01,-0.01 -0.02,-0.01 -0.01,-0.01 -0.01,-0.01 -0.01,-0.01 -0.01,-0.01 -0.01,-0.01 -0.01,-0.01 v -0.01 l -0.01,-0.02 -0.01,-0.01 -0.01,-0.01 v -0.01 l -0.01,-0.02 v -0.01 l -0.01,-0.01 v -0.01 -0.02 -0.01 l -0.01,-0.01 v -0.02 -0.01 c 0,-0.16 0.14,-0.22 0.23,-0.22 0.07,0 0.34,0.04 0.34,0.4 0,0.45 -0.5,0.6 -0.93,0.6 -1.08,0 -1.28,-0.8 -1.28,-1.02 0,-0.25 0.15,-0.42 0.24,-0.5 0.18,-0.14 0.31,-0.17 0.79,-0.25 0.15,-0.03 0.59,-0.12 0.59,-0.46 0,-0.12 -0.07,-0.39 -0.37,-0.56 -0.27,-0.15 -0.61,-0.15 -0.69,-0.15 -0.28,0 -0.68,0.06 -0.84,0.29 0.23,0.03 0.38,0.2 0.38,0.4 0,0.17 -0.12,0.25 -0.27,0.25 -0.2,0 -0.4,-0.16 -0.4,-0.46 0,-0.42 0.44,-0.68 1.12,-0.68 1.28,0 1.52,0.88 1.52,1.15 0,0.64 -0.71,0.77 -0.96,0.81 -0.07,0.02 -0.24,0.05 -0.28,0.06 -0.26,0.05 -0.38,0.19 -0.38,0.35 0,0.16 0.12,0.34 0.27,0.44 0.19,0.12 0.44,0.13 0.55,0.13 0.15,0 0.51,-0.02 0.67,-0.25 z"
         inkscape:connector-curvature="0"
         style="fill:#000000;stroke-width:0" /><path
         id="path6388"
         d="m 401.48,630.59 0.03,0.01 h 0.03 0.03 0.02 0.01 0.01 0.02 0.01 l 0.02,0.01 h 0.01 0.01 l 0.02,0.01 h 0.01 0.01 l 0.01,0.01 0.01,0.01 h 0.01 l 0.01,0.01 0.01,0.01 0.01,0.01 0.01,0.01 v 0 l 0.01,0.01 v 0.01 0 l 0.01,0.01 v 0 0.01 0.01 l 0.01,0.01 v 0 0.01 0.01 0.01 0.01 0 0.01 c 0,0.2 -0.19,0.2 -0.33,0.2 h -5.96 c -0.14,0 -0.32,0 -0.32,-0.2 0,-0.2 0.18,-0.2 0.33,-0.2 z"
         inkscape:connector-curvature="0"
         style="fill:#000000;stroke-width:0" /><path
         id="path6390"
         d="m 401.49,628.67 h 0.02 0.01 0.03 0.03 0.01 0.01 0.02 0.01 l 0.02,0.01 h 0.01 0.01 0.02 l 0.01,0.01 h 0.01 l 0.01,0.01 h 0.01 l 0.01,0.01 0.01,0.01 h 0.01 l 0.01,0.01 0.01,0.01 0.01,0.01 v 0 0.01 h 0.01 v 0.01 0 l 0.01,0.01 v 0.01 0 0.01 l 0.01,0.01 v 0.01 0 0.01 0.01 0.01 0.01 0.01 c 0,0.2 -0.19,0.2 -0.34,0.2 h -5.94 c -0.15,0 -0.33,0 -0.33,-0.2 0,-0.2 0.18,-0.2 0.32,-0.2 z"
         inkscape:connector-curvature="0"
         style="fill:#000000;stroke-width:0" /><path
         id="path6392"
         d="m 409.74,630.53 v 0.15 0.14 0.15 l -0.01,0.15 -0.01,0.15 -0.01,0.15 -0.02,0.14 -0.01,0.15 -0.03,0.15 -0.03,0.14 -0.03,0.15 -0.03,0.14 -0.05,0.14 -0.05,0.14 -0.05,0.14 -0.03,0.07 -0.03,0.07 c -0.46,0.95 -1.28,1.11 -1.7,1.11 -0.59,0 -1.32,-0.25 -1.73,-1.18 -0.31,-0.69 -0.36,-1.46 -0.36,-2.25 0,-0.75 0.04,-1.64 0.44,-2.4 0.43,-0.8 1.16,-1 1.64,-1 v 0.22 c -0.38,0 -0.97,0.24 -1.15,1.2 -0.11,0.6 -0.11,1.51 -0.11,2.1 0,0.63 0,1.29 0.08,1.82 0.19,1.19 0.94,1.27 1.18,1.27 0.33,0 0.99,-0.17 1.18,-1.16 0.1,-0.55 0.1,-1.31 0.1,-1.93 0,-0.75 0,-1.43 -0.11,-2.06 -0.15,-0.94 -0.72,-1.24 -1.17,-1.24 v 0 -0.22 c 0.54,0 1.3,0.21 1.74,1.15 0.31,0.69 0.36,1.46 0.36,2.25 z"
         inkscape:connector-curvature="0"
         style="fill:#000000;stroke-width:0" /></g>
    <g
       id="g6789"
       transform="matrix(1,0,0,-1,83.19355,849.38218)"
       xml:space="preserve"
       stroke-miterlimit="10.433"
       font-style="normal"
       font-variant="normal"
       font-weight="normal"
       font-stretch="normal"
       font-size-adjust="none"
       letter-spacing="normal"
       word-spacing="normal"
       ns0:text="\\begin{align*}\nS &amp;= 1 \\\\\n\\Sigma_t &amp;= 1 \\\\\n\\Sigma_s &amp;= 0.9\n\\end{align*}\n"
       ns0:preamble="/home/jeremy/papers/2011-enief/inkscape.tex"
       style="font-style:normal;font-variant:normal;font-weight:normal;font-stretch:normal;letter-spacing:normal;word-spacing:normal;text-anchor:start;fill:none;stroke:#000000;stroke-linecap:butt;stroke-linejoin:miter;stroke-miterlimit:10.433;stroke-dasharray:none;stroke-dashoffset:0;stroke-opacity:1"><path
         d="m 387.74,664.14 v 0 0.01 0 0 0.01 0 0 0.01 0 l -0.01,0.01 v 0 0 0.01 0 l -0.01,0.01 v 0 0 l -0.01,0.01 v 0 0 l -0.01,0.01 v 0 h -0.01 v 0.01 h -0.01 v 0 0 h -0.01 v 0 0 h -0.01 v 0.01 0 h -0.01 v 0 h -0.01 v 0 0 h -0.01 c -0.05,0 -0.06,-0.01 -0.18,-0.15 l -0.47,-0.57 c -0.26,0.47 -0.78,0.72 -1.43,0.72 -1.26,0 -2.45,-1.14 -2.45,-2.35 0,-0.8 0.52,-1.26 1.03,-1.41 l 1.06,-0.27 c 0.37,-0.09 0.92,-0.24 0.92,-1.06 0,-0.89 -0.82,-1.83 -1.79,-1.83 -0.64,0 -1.74,0.22 -1.74,1.46 0,0.23 0.05,0.47 0.06,0.53 0.01,0.04 0.02,0.05 0.02,0.07 0,0.1 -0.07,0.11 -0.12,0.11 -0.05,0 -0.07,-0.01 -0.1,-0.04 -0.04,-0.04 -0.6,-2.3 -0.6,-2.33 0,-0.06 0.05,-0.1 0.11,-0.1 0.05,0 0.06,0.01 0.18,0.14 l 0.49,0.57 c 0.43,-0.57 1.1,-0.71 1.68,-0.71 1.35,0 2.53,1.32 2.53,2.55 0,0.69 -0.34,1.02 -0.49,1.16 -0.23,0.23 -0.38,0.27 -1.26,0.5 -0.22,0.06 -0.58,0.16 -0.67,0.18 -0.27,0.09 -0.61,0.37 -0.61,0.9 0,0.81 0.8,1.65 1.74,1.65 0.83,0 1.44,-0.43 1.44,-1.54 0,-0.32 -0.05,-0.5 -0.05,-0.56 0,-0.01 0,-0.09 0.12,-0.09 0.1,0 0.11,0.02 0.15,0.19 z"
         id="path6791"
         inkscape:connector-curvature="0"
         style="fill:#000000;stroke-width:0" /><path
         d="m 397.61,660.48 h 0.03 0.03 0.03 l 0.01,0.01 h 0.02 0.01 0.01 0.02 0.01 l 0.02,0.01 h 0.01 0.01 l 0.01,0.01 h 0.02 l 0.01,0.01 h 0.01 l 0.01,0.01 0.01,0.01 0.01,0.01 0.01,0.01 0.01,0.01 v 0 0.01 h 0.01 v 0.01 0.01 h 0.01 v 0.01 0.01 0 0.01 0.01 l 0.01,0.01 v 0.01 0 0.01 0.01 c 0,0.2 -0.19,0.2 -0.33,0.2 h -5.96 c -0.14,0 -0.33,0 -0.33,-0.2 0,-0.2 0.19,-0.2 0.34,-0.2 z"
         id="path6793"
         inkscape:connector-curvature="0"
         style="fill:#000000;stroke-width:0" /><path
         d="m 397.62,658.56 h 0.01 0.02 0.02 0.03 0.02 0.01 0.01 0.02 0.01 l 0.01,0.01 h 0.02 0.01 l 0.01,0.01 h 0.02 l 0.01,0.01 h 0.01 l 0.01,0.01 h 0.01 l 0.01,0.01 0.01,0.01 0.01,0.01 v 0 l 0.01,0.01 v 0.01 0 l 0.01,0.01 v 0 0.01 l 0.01,0.01 v 0 0.01 0.01 0 0.01 l 0.01,0.01 v 0.01 0.01 0.01 0.01 c 0,0.19 -0.19,0.19 -0.34,0.19 h -5.94 c -0.15,0 -0.34,0 -0.34,-0.19 0,-0.2 0.19,-0.2 0.33,-0.2 z"
         id="path6795"
         inkscape:connector-curvature="0"
         style="fill:#000000;stroke-width:0" /><path
         d="m 404.22,663.59 v 0.01 0.01 0.02 0.01 0 0.01 0.01 0.01 0.01 0.01 0.01 0.01 0 0.01 0.01 0 l -0.01,0.01 v 0.01 0.01 0.01 0.01 l -0.01,0.01 v 0.01 0 l -0.01,0.01 -0.01,0.01 v 0 l -0.01,0.01 h -0.01 l -0.01,0.01 v 0 h -0.01 v 0 h -0.01 v 0 h -0.01 v 0.01 h -0.01 -0.01 v 0 h -0.01 -0.01 -0.01 v 0 h -0.01 -0.01 -0.01 -0.01 -0.01 -0.01 -0.01 -0.01 c -0.62,-0.63 -1.49,-0.63 -1.81,-0.63 v -0.31 c 0.2,0 0.78,0 1.3,0.25 v -5.14 c 0,-0.36 -0.03,-0.48 -0.92,-0.48 h -0.32 v -0.31 c 0.35,0.04 1.21,0.04 1.61,0.04 0.4,0 1.26,0 1.61,-0.04 v 0.31 h -0.32 c -0.89,0 -0.92,0.11 -0.92,0.48 z"
         id="path6797"
         inkscape:connector-curvature="0"
         style="fill:#000000;stroke-width:0" /><path
         d="m 381.01,645.53 v 0 0.01 h 0.01 v 0.01 h 0.01 v 0.01 0 h 0.01 v 0.01 0 l 0.01,0.01 v 0.01 h 0.01 v 0.01 l 0.01,0.01 v 0 0.01 h 0.01 v 0.01 0 0.01 h 0.01 v 0.01 0 0.01 0 0 0.01 0 h 0.01 v 0 0.01 0 0 0 0.01 c 0,0.05 -0.04,0.1 -0.07,0.14 l -2.04,2.94 h 2.3 c 1.68,0 2.17,-0.36 2.38,-1.93 h 0.25 l -0.28,2.24 h -5.52 c -0.24,0 -0.26,0 -0.26,-0.23 l 2.48,-3.6 -2.37,-2.69 c -0.1,-0.11 -0.1,-0.13 -0.1,-0.16 0,-0.11 0.1,-0.11 0.25,-0.11 h 5.52 l 0.28,2.35 h -0.25 c -0.18,-1.66 -0.85,-1.93 -2.41,-1.93 h -2.75 z"
         id="path6799"
         inkscape:connector-curvature="0"
         style="fill:#000000;stroke-width:0" /><path
         d="m 386.21,643.54 h 0.71 c 0.14,0 0.23,0 0.23,0.16 0,0.09 -0.09,0.09 -0.21,0.09 h -0.66 l 0.25,1.03 c 0.01,0.04 0.02,0.07 0.02,0.1 0,0.13 -0.09,0.22 -0.23,0.22 -0.18,0 -0.28,-0.11 -0.33,-0.3 -0.05,-0.17 0.04,0.16 -0.26,-1.05 h -0.71 c -0.14,0 -0.23,0 -0.23,-0.15 0,-0.1 0.09,-0.1 0.21,-0.1 h 0.66 l -0.41,-1.64 c -0.04,-0.17 -0.1,-0.42 -0.1,-0.51 0,-0.41 0.35,-0.66 0.74,-0.66 0.78,0 1.22,0.97 1.22,1.06 0,0.09 -0.1,0.09 -0.12,0.09 -0.08,0 -0.09,-0.01 -0.14,-0.13 -0.2,-0.44 -0.55,-0.83 -0.94,-0.83 -0.14,0 -0.24,0.09 -0.24,0.34 0,0.07 0.03,0.22 0.04,0.29 z"
         id="path6801"
         inkscape:connector-curvature="0"
         style="fill:#000000;stroke-width:0" /><path
         d="m 397.61,645.54 h 0.03 0.03 0.03 0.01 0.02 0.01 l 0.01,0.01 h 0.02 0.01 0.02 l 0.01,0.01 h 0.01 0.01 l 0.02,0.01 h 0.01 l 0.01,0.01 0.01,0.01 0.01,0.01 h 0.01 l 0.01,0.01 0.01,0.01 v 0.01 0 l 0.01,0.01 v 0.01 0 l 0.01,0.01 v 0.01 0 0.01 0.01 0 l 0.01,0.01 v 0.01 0.01 0.01 0.01 c 0,0.2 -0.19,0.2 -0.33,0.2 h -5.96 c -0.14,0 -0.33,0 -0.33,-0.2 0,-0.2 0.19,-0.2 0.34,-0.2 z"
         id="path6803"
         inkscape:connector-curvature="0"
         style="fill:#000000;stroke-width:0" /><path
         d="m 397.62,643.61 h 0.01 0.02 0.02 0.03 0.02 l 0.01,0.01 h 0.01 0.02 0.01 0.01 l 0.02,0.01 h 0.01 0.01 l 0.02,0.01 h 0.01 l 0.01,0.01 h 0.01 l 0.01,0.01 0.01,0.01 0.01,0.01 0.01,0.01 v 0 l 0.01,0.01 v 0 0.01 h 0.01 v 0.01 0.01 h 0.01 v 0.01 0.01 0 0.01 0.01 l 0.01,0.01 v 0 0.01 0.01 0.01 c 0,0.2 -0.19,0.2 -0.34,0.2 h -5.94 c -0.15,0 -0.34,0 -0.34,-0.2 0,-0.2 0.19,-0.2 0.33,-0.2 z"
         id="path6805"
         inkscape:connector-curvature="0"
         style="fill:#000000;stroke-width:0" /><path
         d="m 404.22,648.65 v 0.01 0.01 0.01 0.01 0.01 0.01 0.01 0.01 0.01 0.01 0 0.01 0.01 0.01 0 0.01 l -0.01,0.01 v 0 0.01 0.02 0.01 h -0.01 v 0.01 0.01 l -0.01,0.01 h -0.01 v 0.01 h -0.01 l -0.01,0.01 h -0.01 v 0 l -0.01,0.01 v 0 h -0.01 v 0 h -0.01 v 0 h -0.01 -0.01 v 0 h -0.01 -0.01 l -0.01,0.01 v 0 h -0.01 -0.01 -0.01 -0.01 -0.01 -0.01 -0.01 -0.01 c -0.62,-0.64 -1.49,-0.64 -1.81,-0.64 v -0.31 c 0.2,0 0.78,0 1.3,0.26 v -5.14 c 0,-0.36 -0.03,-0.48 -0.92,-0.48 h -0.32 v -0.31 c 0.35,0.03 1.21,0.03 1.61,0.03 0.4,0 1.26,0 1.61,-0.03 v 0.31 h -0.32 c -0.89,0 -0.92,0.11 -0.92,0.48 z"
         id="path6807"
         inkscape:connector-curvature="0"
         style="fill:#000000;stroke-width:0" /><path
         d="m 380.26,630.59 v 0 0.01 h 0.01 v 0 0.01 h 0.01 v 0.01 0 h 0.01 v 0.01 l 0.01,0.01 v 0 l 0.01,0.01 v 0.01 h 0.01 v 0.01 0 l 0.01,0.01 v 0 0.01 0 l 0.01,0.01 v 0 0.01 0 0 0.01 0 0 0.01 0 0 0.01 0 0 h 0.01 c 0,0.05 -0.05,0.1 -0.08,0.14 l -2.04,2.94 h 2.3 c 1.68,0 2.18,-0.35 2.39,-1.92 h 0.25 l -0.28,2.23 h -5.52 c -0.24,0 -0.26,0 -0.26,-0.23 l 2.48,-3.59 -2.37,-2.7 c -0.1,-0.1 -0.1,-0.12 -0.1,-0.15 0,-0.11 0.1,-0.11 0.25,-0.11 h 5.52 l 0.28,2.34 h -0.25 c -0.18,-1.66 -0.85,-1.93 -2.42,-1.93 h -2.74 z"
         id="path6809"
         inkscape:connector-curvature="0"
         style="fill:#000000;stroke-width:0" /><path
         d="m 386.75,628.47 -0.02,-0.01 h -0.01 l -0.02,-0.01 h -0.01 l -0.02,-0.01 -0.01,-0.01 h -0.02 l -0.01,-0.01 -0.01,-0.01 -0.02,-0.01 -0.01,-0.01 -0.01,-0.01 -0.01,-0.01 -0.01,-0.01 -0.01,-0.01 -0.01,-0.01 -0.01,-0.01 -0.01,-0.01 -0.01,-0.01 -0.01,-0.02 v -0.01 l -0.01,-0.01 -0.01,-0.01 v -0.02 l -0.01,-0.01 v -0.01 -0.01 l -0.01,-0.02 v -0.01 -0.01 -0.02 -0.01 c 0,-0.16 0.14,-0.22 0.23,-0.22 0.07,0 0.33,0.04 0.33,0.4 0,0.45 -0.5,0.6 -0.92,0.6 -1.09,0 -1.28,-0.8 -1.28,-1.02 0,-0.25 0.14,-0.42 0.24,-0.5 0.18,-0.14 0.3,-0.17 0.79,-0.25 0.14,-0.03 0.59,-0.12 0.59,-0.46 0,-0.12 -0.08,-0.39 -0.37,-0.56 -0.27,-0.15 -0.62,-0.15 -0.7,-0.15 -0.28,0 -0.67,0.06 -0.83,0.29 0.23,0.03 0.38,0.2 0.38,0.4 0,0.17 -0.13,0.25 -0.27,0.25 -0.2,0 -0.41,-0.16 -0.41,-0.46 0,-0.42 0.45,-0.68 1.12,-0.68 1.29,0 1.52,0.88 1.52,1.15 0,0.64 -0.7,0.77 -0.96,0.81 -0.06,0.02 -0.24,0.05 -0.28,0.06 -0.25,0.05 -0.38,0.19 -0.38,0.35 0,0.16 0.13,0.34 0.28,0.44 0.19,0.12 0.43,0.13 0.55,0.13 0.14,0 0.51,-0.02 0.66,-0.25 z"
         id="path6811"
         inkscape:connector-curvature="0"
         style="fill:#000000;stroke-width:0" /><path
         d="m 397.61,630.59 0.03,0.01 h 0.03 0.03 0.01 0.02 0.01 0.01 0.02 l 0.01,0.01 h 0.02 0.01 l 0.01,0.01 h 0.01 0.02 l 0.01,0.01 0.01,0.01 h 0.01 l 0.01,0.01 0.01,0.01 0.01,0.01 0.01,0.01 v 0 0.01 l 0.01,0.01 v 0 0.01 h 0.01 v 0.01 0.01 0.01 0 0.01 l 0.01,0.01 v 0.01 0.01 0 0.01 c 0,0.2 -0.19,0.2 -0.33,0.2 h -5.96 c -0.14,0 -0.33,0 -0.33,-0.2 0,-0.2 0.19,-0.2 0.34,-0.2 z"
         id="path6813"
         inkscape:connector-curvature="0"
         style="fill:#000000;stroke-width:0" /><path
         d="m 397.62,628.67 h 0.01 0.02 0.02 0.03 0.02 0.01 0.01 0.02 l 0.01,0.01 h 0.01 0.02 0.01 l 0.01,0.01 h 0.02 l 0.01,0.01 h 0.01 l 0.01,0.01 0.01,0.01 h 0.01 l 0.01,0.01 0.01,0.01 v 0.01 h 0.01 v 0.01 0 l 0.01,0.01 v 0 0.01 l 0.01,0.01 v 0 0.01 0.01 0.01 0 l 0.01,0.01 v 0.01 0.01 0.01 0.01 c 0,0.2 -0.19,0.2 -0.34,0.2 h -5.94 c -0.15,0 -0.34,0 -0.34,-0.2 0,-0.2 0.19,-0.2 0.33,-0.2 z"
         id="path6815"
         inkscape:connector-curvature="0"
         style="fill:#000000;stroke-width:0" /><path
         d="m 405.87,630.53 v 0.15 0.14 l -0.01,0.15 v 0.15 l -0.01,0.15 -0.01,0.15 -0.02,0.14 -0.02,0.15 -0.02,0.15 -0.03,0.14 -0.03,0.15 -0.04,0.14 -0.04,0.14 -0.05,0.14 -0.06,0.14 -0.03,0.07 -0.03,0.07 c -0.45,0.95 -1.27,1.11 -1.69,1.11 -0.6,0 -1.32,-0.25 -1.73,-1.18 -0.32,-0.69 -0.37,-1.46 -0.37,-2.25 0,-0.75 0.04,-1.64 0.45,-2.4 0.43,-0.8 1.15,-1 1.64,-1 v 0.22 c -0.39,0 -0.97,0.24 -1.15,1.2 -0.11,0.6 -0.11,1.51 -0.11,2.1 0,0.63 0,1.29 0.08,1.82 0.19,1.19 0.93,1.27 1.18,1.27 0.33,0 0.99,-0.17 1.18,-1.16 0.09,-0.55 0.09,-1.31 0.09,-1.93 0,-0.75 0,-1.43 -0.11,-2.06 -0.14,-0.94 -0.71,-1.24 -1.16,-1.24 v 0 -0.22 c 0.54,0 1.29,0.21 1.73,1.15 0.32,0.69 0.37,1.46 0.37,2.25 z"
         id="path6817"
         inkscape:connector-curvature="0"
         style="fill:#000000;stroke-width:0" /><path
         d="m 408.18,627.87 v 0.03 0.03 0.02 l -0.01,0.03 V 628 l -0.01,0.03 -0.01,0.02 -0.01,0.03 -0.01,0.02 -0.01,0.02 -0.02,0.03 -0.01,0.02 -0.01,0.02 -0.02,0.02 -0.02,0.02 -0.01,0.02 -0.02,0.01 -0.02,0.02 -0.02,0.01 -0.02,0.02 -0.02,0.01 -0.03,0.02 -0.02,0.01 -0.02,0.01 -0.03,0.01 -0.02,0.01 h -0.02 l -0.03,0.01 h -0.03 l -0.02,0.01 h -0.03 -0.03 c -0.28,0 -0.52,-0.24 -0.52,-0.53 0,-0.28 0.24,-0.52 0.52,-0.52 0.29,0 0.53,0.24 0.53,0.52 z"
         id="path6819"
         inkscape:connector-curvature="0"
         style="fill:#000000;stroke-width:0" /><path
         d="m 412.69,630.51 v -0.32 c 0,-2.33 -1.03,-2.78 -1.61,-2.78 -0.17,0 -0.71,0.02 -0.97,0.35 0.43,0 0.51,0.29 0.51,0.46 0,0.31 -0.24,0.46 -0.46,0.46 -0.15,0 -0.45,-0.09 -0.45,-0.48 0,-0.66 0.53,-1.07 1.38,-1.07 1.28,0 2.5,1.35 2.5,3.48 0,2.68 -1.15,3.35 -2.03,3.35 -0.55,0 -1.04,-0.18 -1.46,-0.62 -0.41,-0.45 -0.64,-0.87 -0.64,-1.61 0,-1.24 0.87,-2.22 1.99,-2.22 l 0.01,0.23 c -0.16,0 -0.62,0 -0.93,0.63 -0.18,0.36 -0.18,0.86 -0.18,1.35 0,0.53 0,1 0.21,1.37 0.27,0.5 0.65,0.63 1,0.63 0.46,0 0.78,-0.34 0.95,-0.79 0.12,-0.32 0.16,-0.94 0.16,-1.4 0,-0.82 -0.34,-1.79 -1.21,-1.79 v 0 l -0.01,-0.23 c 0.6,0 1.01,0.42 1.24,1 z"
         id="path6821"
         inkscape:connector-curvature="0"
         style="fill:#000000;stroke-width:0" /></g>
    <g
       style="font-style:normal;font-variant:normal;font-weight:normal;font-stretch:normal;letter-spacing:normal;word-spacing:normal;text-anchor:start;fill:none;stroke:#000000;stroke-linecap:butt;stroke-linejoin:miter;stroke-miterlimit:10.433;stroke-dasharray:none;stroke-dashoffset:0;stroke-opacity:1"
       ns0:preamble="/home/jeremy/papers/2011-enief/inkscape.tex"
       ns0:text="\\begin{align*}\nS &amp;= 0 \\\\\n\\Sigma_t &amp;= 1 \\\\\n\\Sigma_s &amp;= 0.9\n\\end{align*}\n"
       word-spacing="normal"
       letter-spacing="normal"
       font-size-adjust="none"
       font-stretch="normal"
       font-weight="normal"
       font-variant="normal"
       font-style="normal"
       stroke-miterlimit="10.433"
       xml:space="preserve"
       transform="matrix(1,0,0,-1,158.05,849.38218)"
       id="g7218"><path
         id="path7220"
         d="m 387.74,664.14 v 0 0.01 0 0 0.01 0 0 0.01 0 l -0.01,0.01 v 0 0 0.01 0 l -0.01,0.01 v 0 0 l -0.01,0.01 v 0 0 l -0.01,0.01 v 0 h -0.01 v 0.01 h -0.01 v 0 0 h -0.01 v 0 0 h -0.01 v 0.01 0 h -0.01 v 0 h -0.01 v 0 0 h -0.01 c -0.05,0 -0.06,-0.01 -0.18,-0.15 l -0.47,-0.57 c -0.26,0.47 -0.78,0.72 -1.43,0.72 -1.26,0 -2.45,-1.14 -2.45,-2.35 0,-0.8 0.52,-1.26 1.03,-1.41 l 1.06,-0.27 c 0.37,-0.09 0.92,-0.24 0.92,-1.06 0,-0.89 -0.82,-1.83 -1.79,-1.83 -0.64,0 -1.74,0.22 -1.74,1.46 0,0.23 0.05,0.47 0.06,0.53 0.01,0.04 0.02,0.05 0.02,0.07 0,0.1 -0.07,0.11 -0.12,0.11 -0.05,0 -0.07,-0.01 -0.1,-0.04 -0.04,-0.04 -0.6,-2.3 -0.6,-2.33 0,-0.06 0.05,-0.1 0.11,-0.1 0.05,0 0.06,0.01 0.18,0.14 l 0.49,0.57 c 0.43,-0.57 1.1,-0.71 1.68,-0.71 1.35,0 2.53,1.32 2.53,2.55 0,0.69 -0.34,1.02 -0.49,1.16 -0.23,0.23 -0.38,0.27 -1.26,0.5 -0.22,0.06 -0.58,0.16 -0.67,0.18 -0.27,0.09 -0.61,0.37 -0.61,0.9 0,0.81 0.8,1.65 1.74,1.65 0.83,0 1.44,-0.43 1.44,-1.54 0,-0.32 -0.05,-0.5 -0.05,-0.56 0,-0.01 0,-0.09 0.12,-0.09 0.1,0 0.11,0.02 0.15,0.19 z"
         inkscape:connector-curvature="0"
         style="fill:#000000;stroke-width:0" /><path
         id="path7222"
         d="m 397.61,660.48 h 0.03 0.03 0.03 l 0.01,0.01 h 0.02 0.01 0.01 0.02 0.01 l 0.02,0.01 h 0.01 0.01 l 0.01,0.01 h 0.02 l 0.01,0.01 h 0.01 l 0.01,0.01 0.01,0.01 0.01,0.01 0.01,0.01 0.01,0.01 v 0 0.01 h 0.01 v 0.01 0.01 h 0.01 v 0.01 0.01 0 0.01 0.01 l 0.01,0.01 v 0.01 0 0.01 0.01 c 0,0.2 -0.19,0.2 -0.33,0.2 h -5.96 c -0.14,0 -0.33,0 -0.33,-0.2 0,-0.2 0.19,-0.2 0.34,-0.2 z"
         inkscape:connector-curvature="0"
         style="fill:#000000;stroke-width:0" /><path
         id="path7224"
         d="m 397.62,658.56 h 0.01 0.02 0.02 0.03 0.02 0.01 0.01 0.02 0.01 l 0.01,0.01 h 0.02 0.01 l 0.01,0.01 h 0.02 l 0.01,0.01 h 0.01 l 0.01,0.01 h 0.01 l 0.01,0.01 0.01,0.01 0.01,0.01 v 0 l 0.01,0.01 v 0.01 0 l 0.01,0.01 v 0 0.01 l 0.01,0.01 v 0 0.01 0.01 0 0.01 l 0.01,0.01 v 0.01 0.01 0.01 0.01 c 0,0.19 -0.19,0.19 -0.34,0.19 h -5.94 c -0.15,0 -0.34,0 -0.34,-0.19 0,-0.2 0.19,-0.2 0.33,-0.2 z"
         inkscape:connector-curvature="0"
         style="fill:#000000;stroke-width:0" /><path
         id="path7226"
         d="m 405.87,660.41 v 0.15 0.15 l -0.01,0.15 v 0.15 l -0.01,0.15 -0.01,0.14 -0.02,0.15 -0.02,0.15 -0.02,0.14 -0.03,0.15 -0.03,0.14 -0.04,0.15 -0.04,0.14 -0.05,0.14 -0.06,0.14 -0.03,0.07 -0.03,0.07 c -0.45,0.95 -1.27,1.11 -1.69,1.11 -0.6,0 -1.32,-0.26 -1.73,-1.18 -0.32,-0.69 -0.37,-1.46 -0.37,-2.26 0,-0.74 0.04,-1.63 0.45,-2.39 0.43,-0.8 1.15,-1 1.64,-1 v 0.21 c -0.39,0 -0.97,0.25 -1.15,1.21 -0.11,0.59 -0.11,1.51 -0.11,2.09 0,0.64 0,1.29 0.08,1.83 0.19,1.18 0.93,1.27 1.18,1.27 0.33,0 0.99,-0.18 1.18,-1.16 0.09,-0.56 0.09,-1.31 0.09,-1.94 0,-0.74 0,-1.42 -0.11,-2.05 -0.14,-0.95 -0.71,-1.25 -1.16,-1.25 v 0 -0.21 c 0.54,0 1.29,0.2 1.73,1.15 0.32,0.68 0.37,1.46 0.37,2.24 z"
         inkscape:connector-curvature="0"
         style="fill:#000000;stroke-width:0" /><path
         id="path7228"
         d="m 381.01,645.53 v 0 0.01 h 0.01 v 0.01 h 0.01 v 0.01 0 h 0.01 v 0.01 0 l 0.01,0.01 v 0.01 h 0.01 v 0.01 l 0.01,0.01 v 0 0.01 h 0.01 v 0.01 0 0.01 h 0.01 v 0.01 0 0.01 0 0 0.01 0 h 0.01 v 0 0.01 0 0 0 0.01 c 0,0.05 -0.04,0.1 -0.07,0.14 l -2.04,2.94 h 2.3 c 1.68,0 2.17,-0.36 2.38,-1.93 h 0.25 l -0.28,2.24 h -5.52 c -0.24,0 -0.26,0 -0.26,-0.23 l 2.48,-3.6 -2.37,-2.69 c -0.1,-0.11 -0.1,-0.13 -0.1,-0.16 0,-0.11 0.1,-0.11 0.25,-0.11 h 5.52 l 0.28,2.35 h -0.25 c -0.18,-1.66 -0.85,-1.93 -2.41,-1.93 h -2.75 z"
         inkscape:connector-curvature="0"
         style="fill:#000000;stroke-width:0" /><path
         id="path7230"
         d="m 386.21,643.54 h 0.71 c 0.14,0 0.23,0 0.23,0.16 0,0.09 -0.09,0.09 -0.21,0.09 h -0.66 l 0.25,1.03 c 0.01,0.04 0.02,0.07 0.02,0.1 0,0.13 -0.09,0.22 -0.23,0.22 -0.18,0 -0.28,-0.11 -0.33,-0.3 -0.05,-0.17 0.04,0.16 -0.26,-1.05 h -0.71 c -0.14,0 -0.23,0 -0.23,-0.15 0,-0.1 0.09,-0.1 0.21,-0.1 h 0.66 l -0.41,-1.64 c -0.04,-0.17 -0.1,-0.42 -0.1,-0.51 0,-0.41 0.35,-0.66 0.74,-0.66 0.78,0 1.22,0.97 1.22,1.06 0,0.09 -0.1,0.09 -0.12,0.09 -0.08,0 -0.09,-0.01 -0.14,-0.13 -0.2,-0.44 -0.55,-0.83 -0.94,-0.83 -0.14,0 -0.24,0.09 -0.24,0.34 0,0.07 0.03,0.22 0.04,0.29 z"
         inkscape:connector-curvature="0"
         style="fill:#000000;stroke-width:0" /><path
         id="path7232"
         d="m 397.61,645.54 h 0.03 0.03 0.03 0.01 0.02 0.01 l 0.01,0.01 h 0.02 0.01 0.02 l 0.01,0.01 h 0.01 0.01 l 0.02,0.01 h 0.01 l 0.01,0.01 0.01,0.01 0.01,0.01 h 0.01 l 0.01,0.01 0.01,0.01 v 0.01 0 l 0.01,0.01 v 0.01 0 l 0.01,0.01 v 0.01 0 0.01 0.01 0 l 0.01,0.01 v 0.01 0.01 0.01 0.01 c 0,0.2 -0.19,0.2 -0.33,0.2 h -5.96 c -0.14,0 -0.33,0 -0.33,-0.2 0,-0.2 0.19,-0.2 0.34,-0.2 z"
         inkscape:connector-curvature="0"
         style="fill:#000000;stroke-width:0" /><path
         id="path7234"
         d="m 397.62,643.61 h 0.01 0.02 0.02 0.03 0.02 l 0.01,0.01 h 0.01 0.02 0.01 0.01 l 0.02,0.01 h 0.01 0.01 l 0.02,0.01 h 0.01 l 0.01,0.01 h 0.01 l 0.01,0.01 0.01,0.01 0.01,0.01 0.01,0.01 v 0 l 0.01,0.01 v 0 0.01 h 0.01 v 0.01 0.01 h 0.01 v 0.01 0.01 0 0.01 0.01 l 0.01,0.01 v 0 0.01 0.01 0.01 c 0,0.2 -0.19,0.2 -0.34,0.2 h -5.94 c -0.15,0 -0.34,0 -0.34,-0.2 0,-0.2 0.19,-0.2 0.33,-0.2 z"
         inkscape:connector-curvature="0"
         style="fill:#000000;stroke-width:0" /><path
         id="path7236"
         d="m 404.22,648.65 v 0.01 0.01 0.01 0.01 0.01 0.01 0.01 0.01 0.01 0.01 0 0.01 0.01 0.01 0 0.01 l -0.01,0.01 v 0 0.01 0.02 0.01 h -0.01 v 0.01 0.01 l -0.01,0.01 h -0.01 v 0.01 h -0.01 l -0.01,0.01 h -0.01 v 0 l -0.01,0.01 v 0 h -0.01 v 0 h -0.01 v 0 h -0.01 -0.01 v 0 h -0.01 -0.01 l -0.01,0.01 v 0 h -0.01 -0.01 -0.01 -0.01 -0.01 -0.01 -0.01 -0.01 c -0.62,-0.64 -1.49,-0.64 -1.81,-0.64 v -0.31 c 0.2,0 0.78,0 1.3,0.26 v -5.14 c 0,-0.36 -0.03,-0.48 -0.92,-0.48 h -0.32 v -0.31 c 0.35,0.03 1.21,0.03 1.61,0.03 0.4,0 1.26,0 1.61,-0.03 v 0.31 h -0.32 c -0.89,0 -0.92,0.11 -0.92,0.48 z"
         inkscape:connector-curvature="0"
         style="fill:#000000;stroke-width:0" /><path
         id="path7238"
         d="m 380.26,630.59 v 0 0.01 h 0.01 v 0 0.01 h 0.01 v 0.01 0 h 0.01 v 0.01 l 0.01,0.01 v 0 l 0.01,0.01 v 0.01 h 0.01 v 0.01 0 l 0.01,0.01 v 0 0.01 0 l 0.01,0.01 v 0 0.01 0 0 0.01 0 0 0.01 0 0 0.01 0 0 h 0.01 c 0,0.05 -0.05,0.1 -0.08,0.14 l -2.04,2.94 h 2.3 c 1.68,0 2.18,-0.35 2.39,-1.92 h 0.25 l -0.28,2.23 h -5.52 c -0.24,0 -0.26,0 -0.26,-0.23 l 2.48,-3.59 -2.37,-2.7 c -0.1,-0.1 -0.1,-0.12 -0.1,-0.15 0,-0.11 0.1,-0.11 0.25,-0.11 h 5.52 l 0.28,2.34 h -0.25 c -0.18,-1.66 -0.85,-1.93 -2.42,-1.93 h -2.74 z"
         inkscape:connector-curvature="0"
         style="fill:#000000;stroke-width:0" /><path
         id="path7240"
         d="m 386.75,628.47 -0.02,-0.01 h -0.01 l -0.02,-0.01 h -0.01 l -0.02,-0.01 -0.01,-0.01 h -0.02 l -0.01,-0.01 -0.01,-0.01 -0.02,-0.01 -0.01,-0.01 -0.01,-0.01 -0.01,-0.01 -0.01,-0.01 -0.01,-0.01 -0.01,-0.01 -0.01,-0.01 -0.01,-0.01 -0.01,-0.01 -0.01,-0.02 v -0.01 l -0.01,-0.01 -0.01,-0.01 v -0.02 l -0.01,-0.01 v -0.01 -0.01 l -0.01,-0.02 v -0.01 -0.01 -0.02 -0.01 c 0,-0.16 0.14,-0.22 0.23,-0.22 0.07,0 0.33,0.04 0.33,0.4 0,0.45 -0.5,0.6 -0.92,0.6 -1.09,0 -1.28,-0.8 -1.28,-1.02 0,-0.25 0.14,-0.42 0.24,-0.5 0.18,-0.14 0.3,-0.17 0.79,-0.25 0.14,-0.03 0.59,-0.12 0.59,-0.46 0,-0.12 -0.08,-0.39 -0.37,-0.56 -0.27,-0.15 -0.62,-0.15 -0.7,-0.15 -0.28,0 -0.67,0.06 -0.83,0.29 0.23,0.03 0.38,0.2 0.38,0.4 0,0.17 -0.13,0.25 -0.27,0.25 -0.2,0 -0.41,-0.16 -0.41,-0.46 0,-0.42 0.45,-0.68 1.12,-0.68 1.29,0 1.52,0.88 1.52,1.15 0,0.64 -0.7,0.77 -0.96,0.81 -0.06,0.02 -0.24,0.05 -0.28,0.06 -0.25,0.05 -0.38,0.19 -0.38,0.35 0,0.16 0.13,0.34 0.28,0.44 0.19,0.12 0.43,0.13 0.55,0.13 0.14,0 0.51,-0.02 0.66,-0.25 z"
         inkscape:connector-curvature="0"
         style="fill:#000000;stroke-width:0" /><path
         id="path7242"
         d="m 397.61,630.59 0.03,0.01 h 0.03 0.03 0.01 0.02 0.01 0.01 0.02 l 0.01,0.01 h 0.02 0.01 l 0.01,0.01 h 0.01 0.02 l 0.01,0.01 0.01,0.01 h 0.01 l 0.01,0.01 0.01,0.01 0.01,0.01 0.01,0.01 v 0 0.01 l 0.01,0.01 v 0 0.01 h 0.01 v 0.01 0.01 0.01 0 0.01 l 0.01,0.01 v 0.01 0.01 0 0.01 c 0,0.2 -0.19,0.2 -0.33,0.2 h -5.96 c -0.14,0 -0.33,0 -0.33,-0.2 0,-0.2 0.19,-0.2 0.34,-0.2 z"
         inkscape:connector-curvature="0"
         style="fill:#000000;stroke-width:0" /><path
         id="path7244"
         d="m 397.62,628.67 h 0.01 0.02 0.02 0.03 0.02 0.01 0.01 0.02 l 0.01,0.01 h 0.01 0.02 0.01 l 0.01,0.01 h 0.02 l 0.01,0.01 h 0.01 l 0.01,0.01 0.01,0.01 h 0.01 l 0.01,0.01 0.01,0.01 v 0.01 h 0.01 v 0.01 0 l 0.01,0.01 v 0 0.01 l 0.01,0.01 v 0 0.01 0.01 0.01 0 l 0.01,0.01 v 0.01 0.01 0.01 0.01 c 0,0.2 -0.19,0.2 -0.34,0.2 h -5.94 c -0.15,0 -0.34,0 -0.34,-0.2 0,-0.2 0.19,-0.2 0.33,-0.2 z"
         inkscape:connector-curvature="0"
         style="fill:#000000;stroke-width:0" /><path
         id="path7246"
         d="m 405.87,630.53 v 0.15 0.14 l -0.01,0.15 v 0.15 l -0.01,0.15 -0.01,0.15 -0.02,0.14 -0.02,0.15 -0.02,0.15 -0.03,0.14 -0.03,0.15 -0.04,0.14 -0.04,0.14 -0.05,0.14 -0.06,0.14 -0.03,0.07 -0.03,0.07 c -0.45,0.95 -1.27,1.11 -1.69,1.11 -0.6,0 -1.32,-0.25 -1.73,-1.18 -0.32,-0.69 -0.37,-1.46 -0.37,-2.25 0,-0.75 0.04,-1.64 0.45,-2.4 0.43,-0.8 1.15,-1 1.64,-1 v 0.22 c -0.39,0 -0.97,0.24 -1.15,1.2 -0.11,0.6 -0.11,1.51 -0.11,2.1 0,0.63 0,1.29 0.08,1.82 0.19,1.19 0.93,1.27 1.18,1.27 0.33,0 0.99,-0.17 1.18,-1.16 0.09,-0.55 0.09,-1.31 0.09,-1.93 0,-0.75 0,-1.43 -0.11,-2.06 -0.14,-0.94 -0.71,-1.24 -1.16,-1.24 v 0 -0.22 c 0.54,0 1.29,0.21 1.73,1.15 0.32,0.69 0.37,1.46 0.37,2.25 z"
         inkscape:connector-curvature="0"
         style="fill:#000000;stroke-width:0" /><path
         id="path7248"
         d="m 408.18,627.87 v 0.03 0.03 0.02 l -0.01,0.03 V 628 l -0.01,0.03 -0.01,0.02 -0.01,0.03 -0.01,0.02 -0.01,0.02 -0.02,0.03 -0.01,0.02 -0.01,0.02 -0.02,0.02 -0.02,0.02 -0.01,0.02 -0.02,0.01 -0.02,0.02 -0.02,0.01 -0.02,0.02 -0.02,0.01 -0.03,0.02 -0.02,0.01 -0.02,0.01 -0.03,0.01 -0.02,0.01 h -0.02 l -0.03,0.01 h -0.03 l -0.02,0.01 h -0.03 -0.03 c -0.28,0 -0.52,-0.24 -0.52,-0.53 0,-0.28 0.24,-0.52 0.52,-0.52 0.29,0 0.53,0.24 0.53,0.52 z"
         inkscape:connector-curvature="0"
         style="fill:#000000;stroke-width:0" /><path
         id="path7250"
         d="m 412.69,630.51 v -0.32 c 0,-2.33 -1.03,-2.78 -1.61,-2.78 -0.17,0 -0.71,0.02 -0.97,0.35 0.43,0 0.51,0.29 0.51,0.46 0,0.31 -0.24,0.46 -0.46,0.46 -0.15,0 -0.45,-0.09 -0.45,-0.48 0,-0.66 0.53,-1.07 1.38,-1.07 1.28,0 2.5,1.35 2.5,3.48 0,2.68 -1.15,3.35 -2.03,3.35 -0.55,0 -1.04,-0.18 -1.46,-0.62 -0.41,-0.45 -0.64,-0.87 -0.64,-1.61 0,-1.24 0.87,-2.22 1.99,-2.22 l 0.01,0.23 c -0.16,0 -0.62,0 -0.93,0.63 -0.18,0.36 -0.18,0.86 -0.18,1.35 0,0.53 0,1 0.21,1.37 0.27,0.5 0.65,0.63 1,0.63 0.46,0 0.78,-0.34 0.95,-0.79 0.12,-0.32 0.16,-0.94 0.16,-1.4 0,-0.82 -0.34,-1.79 -1.21,-1.79 v 0 l -0.01,-0.23 c 0.6,0 1.01,0.42 1.24,1 z"
         inkscape:connector-curvature="0"
         style="fill:#000000;stroke-width:0" /></g>
  </g>
</svg>
