<?xml version="1.0" encoding="UTF-8" standalone="no"?>
<svg xmlns="http://www.w3.org/2000/svg"
     xmlns:xlink="http://www.w3.org/1999/xlink"
     width="1395pt" height="920pt" viewBox="0 0 1395 920">
<title>two-squares-triang</title>
<desc>
Creator: GL2PS 1.4.3, (C) 1999-2020 C. Geuzaine
For: Gmsh
CreationDate: Wed Jun 16 08:02:01 2021
</desc>
<defs>
</defs>
<g>
<polygon fill="#fbf54a" shape-rendering="crispEdges" points="391.287,543.888 357.567,448.34 286.234,551.726"/>
<polygon fill="#fbf54a" shape-rendering="crispEdges" points="286.234,551.726 357.567,448.34 265.802,455.988"/>
<polygon fill="#fbf54a" shape-rendering="crispEdges" points="533.455,511.735 539.886,615.348 613.154,559.27"/>
<polygon fill="#fbf54a" shape-rendering="crispEdges" points="292.995,367.947 357.567,448.34 393.181,370.361"/>
<polygon fill="#fbf54a" shape-rendering="crispEdges" points="535.845,410.074 618.3,363.1 542.719,303.161"/>
<polygon fill="#fbf54a" shape-rendering="crispEdges" points="348.807,624.719 391.287,543.888 286.234,551.726"/>
<polygon fill="#fbf54a" shape-rendering="crispEdges" points="292.995,367.947 393.181,370.361 351.723,291.476"/>
<polygon fill="#fbf54a" shape-rendering="crispEdges" points="533.455,511.735 469.217,554.51 539.886,615.348"/>
<polygon fill="#fbf54a" shape-rendering="crispEdges" points="542.719,303.161 469.256,365.464 535.845,410.074"/>
<polygon fill="#fbf54a" shape-rendering="crispEdges" points="265.802,455.988 357.567,448.34 292.995,367.947"/>
<polygon fill="#fbf54a" shape-rendering="crispEdges" points="398.571,709.107 348.807,624.719 298.929,709.107"/>
<polygon fill="#fbf54a" shape-rendering="crispEdges" points="199.286,410.179 292.995,367.947 199.286,310.536"/>
<polygon fill="#fbf54a" shape-rendering="crispEdges" points="697.5,410.179 611.677,460.814 697.5,509.821"/>
<polygon fill="#fbf54a" shape-rendering="crispEdges" points="498.214,210.893 542.719,303.161 597.857,210.893"/>
<polygon fill="#fbf54a" shape-rendering="crispEdges" points="611.677,460.814 535.845,410.074 533.455,511.735"/>
<polygon fill="#fbf54a" shape-rendering="crispEdges" points="535.845,410.074 438.62,460 533.455,511.735"/>
<polygon fill="#fbf54a" shape-rendering="crispEdges" points="697.5,509.821 613.154,559.27 697.5,609.464"/>
<polygon fill="#fbf54a" shape-rendering="crispEdges" points="398.571,210.893 444.391,292.45 498.214,210.893"/>
<polygon fill="#fbf54a" shape-rendering="crispEdges" points="199.286,509.821 265.802,455.988 199.286,410.179"/>
<polygon fill="#fbf54a" shape-rendering="crispEdges" points="611.677,460.814 533.455,511.735 613.154,559.27"/>
<polygon fill="#fbf54a" shape-rendering="crispEdges" points="498.214,709.107 442.746,627.546 398.571,709.107"/>
<polygon fill="#fbf54a" shape-rendering="crispEdges" points="442.746,627.546 348.807,624.719 398.571,709.107"/>
<polygon fill="#fbf54a" shape-rendering="crispEdges" points="265.802,455.988 292.995,367.947 199.286,410.179"/>
<polygon fill="#fbf54a" shape-rendering="crispEdges" points="611.677,460.814 613.154,559.27 697.5,509.821"/>
<polygon fill="#fbf54a" shape-rendering="crispEdges" points="444.391,292.45 542.719,303.161 498.214,210.893"/>
<polygon fill="#fbf54a" shape-rendering="crispEdges" points="298.929,210.893 351.723,291.476 398.571,210.893"/>
<polygon fill="#fbf54a" shape-rendering="crispEdges" points="597.857,709.107 539.886,615.348 498.214,709.107"/>
<polygon fill="#fbf54a" shape-rendering="crispEdges" points="199.286,609.464 286.234,551.726 199.286,509.821"/>
<polygon fill="#fbf54a" shape-rendering="crispEdges" points="611.677,460.814 618.3,363.1 535.845,410.074"/>
<polygon fill="#fbf54a" shape-rendering="crispEdges" points="697.5,310.536 618.3,363.1 697.5,410.179"/>
<polygon fill="#fbf54a" shape-rendering="crispEdges" points="697.5,410.179 618.3,363.1 611.677,460.814"/>
<polygon fill="#fbf54a" shape-rendering="crispEdges" points="199.286,509.821 286.234,551.726 265.802,455.988"/>
<polygon fill="#fbf54a" shape-rendering="crispEdges" points="498.214,709.107 539.886,615.348 442.746,627.546"/>
<polygon fill="#fbf54a" shape-rendering="crispEdges" points="398.571,210.893 351.723,291.476 444.391,292.45"/>
<polygon fill="#fbf54a" shape-rendering="crispEdges" points="442.746,627.546 391.287,543.888 348.807,624.719"/>
<polygon fill="#fbf54a" shape-rendering="crispEdges" points="697.5,709.107 624.556,636.164 597.857,709.107"/>
<polygon fill="#fbf54a" shape-rendering="crispEdges" points="199.286,210.893 272.229,283.836 298.929,210.893"/>
<polygon fill="#fbf54a" shape-rendering="crispEdges" points="199.286,709.107 272.229,636.164 199.286,609.464"/>
<polygon fill="#fbf54a" shape-rendering="crispEdges" points="697.5,210.893 624.556,283.836 697.5,310.536"/>
<polygon fill="#fbf54a" shape-rendering="crispEdges" points="199.286,310.536 272.229,283.836 199.286,210.893"/>
<polygon fill="#fbf54a" shape-rendering="crispEdges" points="597.857,210.893 624.556,283.836 697.5,210.893"/>
<polygon fill="#fbf54a" shape-rendering="crispEdges" points="697.5,609.464 624.556,636.164 697.5,709.107"/>
<polygon fill="#fbf54a" shape-rendering="crispEdges" points="298.929,709.107 272.229,636.164 199.286,709.107"/>
<polygon fill="#fbf54a" shape-rendering="crispEdges" points="438.62,460 357.567,448.34 391.287,543.888"/>
<polygon fill="#fbf54a" shape-rendering="crispEdges" points="444.391,292.45 469.256,365.464 542.719,303.161"/>
<polygon fill="#fbf54a" shape-rendering="crispEdges" points="351.723,291.476 393.181,370.361 444.391,292.45"/>
<polygon fill="#fbf54a" shape-rendering="crispEdges" points="535.845,410.074 469.256,365.464 438.62,460"/>
<polygon fill="#fbf54a" shape-rendering="crispEdges" points="438.62,460 469.217,554.51 533.455,511.735"/>
<polygon fill="#fbf54a" shape-rendering="crispEdges" points="539.886,615.348 469.217,554.51 442.746,627.546"/>
<polygon fill="#fbf54a" shape-rendering="crispEdges" points="438.62,460 469.256,365.464 393.181,370.361"/>
<polygon fill="#fbf54a" shape-rendering="crispEdges" points="391.287,543.888 469.217,554.51 438.62,460"/>
<polygon fill="#fbf54a" shape-rendering="crispEdges" points="199.286,609.464 272.229,636.164 286.234,551.726"/>
<polygon fill="#fbf54a" shape-rendering="crispEdges" points="697.5,310.536 624.556,283.836 618.3,363.1"/>
<polygon fill="#fbf54a" shape-rendering="crispEdges" points="298.929,210.893 272.229,283.836 351.723,291.476"/>
<polygon fill="#fbf54a" shape-rendering="crispEdges" points="597.857,709.107 624.556,636.164 539.886,615.348"/>
<polygon fill="#fbf54a" shape-rendering="crispEdges" points="348.807,624.719 272.229,636.164 298.929,709.107"/>
<polygon fill="#fbf54a" shape-rendering="crispEdges" points="613.154,559.27 624.556,636.164 697.5,609.464"/>
<polygon fill="#fbf54a" shape-rendering="crispEdges" points="542.719,303.161 624.556,283.836 597.857,210.893"/>
<polygon fill="#fbf54a" shape-rendering="crispEdges" points="292.995,367.947 272.229,283.836 199.286,310.536"/>
<polygon fill="#fbf54a" shape-rendering="crispEdges" points="618.3,363.1 624.556,283.836 542.719,303.161"/>
<polygon fill="#fbf54a" shape-rendering="crispEdges" points="286.234,551.726 272.229,636.164 348.807,624.719"/>
<polygon fill="#fbf54a" shape-rendering="crispEdges" points="539.886,615.348 624.556,636.164 613.154,559.27"/>
<polygon fill="#fbf54a" shape-rendering="crispEdges" points="351.723,291.476 272.229,283.836 292.995,367.947"/>
<polygon fill="#fbf54a" shape-rendering="crispEdges" points="393.181,370.361 357.567,448.34 438.62,460"/>
<polygon fill="#fbf54a" shape-rendering="crispEdges" points="442.746,627.546 469.217,554.51 391.287,543.888"/>
<polygon fill="#fbf54a" shape-rendering="crispEdges" points="393.181,370.361 469.256,365.464 444.391,292.45"/>
<polygon fill="#3cd2d2" shape-rendering="crispEdges" points="1045.88,624.761 1102.03,551.618 998.346,545.069"/>
<polygon fill="#3cd2d2" shape-rendering="crispEdges" points="1037.24,306.351 961.779,373.707 1036.07,404.962"/>
<polygon fill="#3cd2d2" shape-rendering="crispEdges" points="789.768,554.326 849.707,629.907 896.682,547.454"/>
<polygon fill="#3cd2d2" shape-rendering="crispEdges" points="1037.24,306.351 1036.07,404.962 1115.02,363.441"/>
<polygon fill="#3cd2d2" shape-rendering="crispEdges" points="1102.03,551.618 1041.14,480.864 998.346,545.069"/>
<polygon fill="#3cd2d2" shape-rendering="crispEdges" points="896.682,547.454 852.934,481.6 789.768,554.326"/>
<polygon fill="#3cd2d2" shape-rendering="crispEdges" points="792.855,357.655 892.191,346.793 847.003,284.76"/>
<polygon fill="#3cd2d2" shape-rendering="crispEdges" points="864.819,410.456 892.191,346.793 792.855,357.655"/>
<polygon fill="#3cd2d2" shape-rendering="crispEdges" points="940.698,289.651 961.779,373.707 1037.24,306.351"/>
<polygon fill="#3cd2d2" shape-rendering="crispEdges" points="996.429,709.107 947.422,623.284 896.786,709.107"/>
<polygon fill="#3cd2d2" shape-rendering="crispEdges" points="896.786,210.893 940.698,289.651 996.429,210.893"/>
<polygon fill="#3cd2d2" shape-rendering="crispEdges" points="697.5,609.464 789.768,554.326 697.5,509.821"/>
<polygon fill="#3cd2d2" shape-rendering="crispEdges" points="697.5,509.821 789.768,554.326 779.057,455.998"/>
<polygon fill="#3cd2d2" shape-rendering="crispEdges" points="896.786,210.893 847.003,284.76 940.698,289.651"/>
<polygon fill="#3cd2d2" shape-rendering="crispEdges" points="1045.88,624.761 998.346,545.069 947.422,623.284"/>
<polygon fill="#3cd2d2" shape-rendering="crispEdges" points="996.429,709.107 1045.88,624.761 947.422,623.284"/>
<polygon fill="#3cd2d2" shape-rendering="crispEdges" points="996.429,210.893 1037.24,306.351 1096.07,210.893"/>
<polygon fill="#3cd2d2" shape-rendering="crispEdges" points="697.5,509.821 779.057,455.998 697.5,410.179"/>
<polygon fill="#3cd2d2" shape-rendering="crispEdges" points="1195.71,410.179 1114.63,455.183 1195.71,509.821"/>
<polygon fill="#3cd2d2" shape-rendering="crispEdges" points="998.346,545.069 896.682,547.454 947.422,623.284"/>
<polygon fill="#3cd2d2" shape-rendering="crispEdges" points="998.346,545.069 946.607,450.227 896.682,547.454"/>
<polygon fill="#3cd2d2" shape-rendering="crispEdges" points="797.143,210.893 847.003,284.76 896.786,210.893"/>
<polygon fill="#3cd2d2" shape-rendering="crispEdges" points="1096.07,709.107 1045.88,624.761 996.429,709.107"/>
<polygon fill="#3cd2d2" shape-rendering="crispEdges" points="940.698,289.651 1037.24,306.351 996.429,210.893"/>
<polygon fill="#3cd2d2" shape-rendering="crispEdges" points="896.786,709.107 849.707,629.907 797.143,709.107"/>
<polygon fill="#3cd2d2" shape-rendering="crispEdges" points="1195.71,509.821 1102.03,551.618 1195.71,609.464"/>
<polygon fill="#3cd2d2" shape-rendering="crispEdges" points="896.682,547.454 849.707,629.907 947.422,623.284"/>
<polygon fill="#3cd2d2" shape-rendering="crispEdges" points="1195.71,310.536 1115.02,363.441 1195.71,410.179"/>
<polygon fill="#3cd2d2" shape-rendering="crispEdges" points="697.5,410.179 792.855,357.655 697.5,310.536"/>
<polygon fill="#3cd2d2" shape-rendering="crispEdges" points="1114.63,455.183 1102.03,551.618 1195.71,509.821"/>
<polygon fill="#3cd2d2" shape-rendering="crispEdges" points="947.422,623.284 849.707,629.907 896.786,709.107"/>
<polygon fill="#3cd2d2" shape-rendering="crispEdges" points="1195.71,410.179 1115.02,363.441 1114.63,455.183"/>
<polygon fill="#3cd2d2" shape-rendering="crispEdges" points="779.057,455.998 792.855,357.655 697.5,410.179"/>
<polygon fill="#3cd2d2" shape-rendering="crispEdges" points="1096.07,210.893 1122.77,283.836 1195.71,210.893"/>
<polygon fill="#3cd2d2" shape-rendering="crispEdges" points="1195.71,210.893 1122.77,283.836 1195.71,310.536"/>
<polygon fill="#3cd2d2" shape-rendering="crispEdges" points="797.143,709.107 770.444,636.164 697.5,709.107"/>
<polygon fill="#3cd2d2" shape-rendering="crispEdges" points="697.5,210.893 770.444,283.836 797.143,210.893"/>
<polygon fill="#3cd2d2" shape-rendering="crispEdges" points="697.5,709.107 770.444,636.164 697.5,609.464"/>
<polygon fill="#3cd2d2" shape-rendering="crispEdges" points="697.5,310.536 770.444,283.836 697.5,210.893"/>
<polygon fill="#3cd2d2" shape-rendering="crispEdges" points="1195.71,709.107 1122.77,636.164 1096.07,709.107"/>
<polygon fill="#3cd2d2" shape-rendering="crispEdges" points="1195.71,609.464 1122.77,636.164 1195.71,709.107"/>
<polygon fill="#3cd2d2" shape-rendering="crispEdges" points="946.607,450.227 961.779,373.707 864.819,410.456"/>
<polygon fill="#3cd2d2" shape-rendering="crispEdges" points="789.768,554.326 852.934,481.6 779.057,455.998"/>
<polygon fill="#3cd2d2" shape-rendering="crispEdges" points="779.057,455.998 864.819,410.456 792.855,357.655"/>
<polygon fill="#3cd2d2" shape-rendering="crispEdges" points="1115.02,363.441 1036.07,404.962 1114.63,455.183"/>
<polygon fill="#3cd2d2" shape-rendering="crispEdges" points="946.607,450.227 852.934,481.6 896.682,547.454"/>
<polygon fill="#3cd2d2" shape-rendering="crispEdges" points="998.346,545.069 1041.14,480.864 946.607,450.227"/>
<polygon fill="#3cd2d2" shape-rendering="crispEdges" points="961.779,373.707 892.191,346.793 864.819,410.456"/>
<polygon fill="#3cd2d2" shape-rendering="crispEdges" points="1114.63,455.183 1041.14,480.864 1102.03,551.618"/>
<polygon fill="#3cd2d2" shape-rendering="crispEdges" points="864.819,410.456 852.934,481.6 946.607,450.227"/>
<polygon fill="#3cd2d2" shape-rendering="crispEdges" points="946.607,450.227 1041.14,480.864 1036.07,404.962"/>
<polygon fill="#3cd2d2" shape-rendering="crispEdges" points="1102.03,551.618 1122.77,636.164 1195.71,609.464"/>
<polygon fill="#3cd2d2" shape-rendering="crispEdges" points="849.707,629.907 770.444,636.164 797.143,709.107"/>
<polygon fill="#3cd2d2" shape-rendering="crispEdges" points="792.855,357.655 770.444,283.836 697.5,310.536"/>
<polygon fill="#3cd2d2" shape-rendering="crispEdges" points="1195.71,310.536 1122.77,283.836 1115.02,363.441"/>
<polygon fill="#3cd2d2" shape-rendering="crispEdges" points="1037.24,306.351 1122.77,283.836 1096.07,210.893"/>
<polygon fill="#3cd2d2" shape-rendering="crispEdges" points="797.143,210.893 770.444,283.836 847.003,284.76"/>
<polygon fill="#3cd2d2" shape-rendering="crispEdges" points="697.5,609.464 770.444,636.164 789.768,554.326"/>
<polygon fill="#3cd2d2" shape-rendering="crispEdges" points="1096.07,709.107 1122.77,636.164 1045.88,624.761"/>
<polygon fill="#3cd2d2" shape-rendering="crispEdges" points="847.003,284.76 892.191,346.793 940.698,289.651"/>
<polygon fill="#3cd2d2" shape-rendering="crispEdges" points="1045.88,624.761 1122.77,636.164 1102.03,551.618"/>
<polygon fill="#3cd2d2" shape-rendering="crispEdges" points="789.768,554.326 770.444,636.164 849.707,629.907"/>
<polygon fill="#3cd2d2" shape-rendering="crispEdges" points="847.003,284.76 770.444,283.836 792.855,357.655"/>
<polygon fill="#3cd2d2" shape-rendering="crispEdges" points="1115.02,363.441 1122.77,283.836 1037.24,306.351"/>
<polygon fill="#3cd2d2" shape-rendering="crispEdges" points="1036.07,404.962 961.779,373.707 946.607,450.227"/>
<polygon fill="#3cd2d2" shape-rendering="crispEdges" points="779.057,455.998 852.934,481.6 864.819,410.456"/>
<polygon fill="#3cd2d2" shape-rendering="crispEdges" points="1036.07,404.962 1041.14,480.864 1114.63,455.183"/>
<polygon fill="#3cd2d2" shape-rendering="crispEdges" points="940.698,289.651 892.191,346.793 961.779,373.707"/>
<polyline fill="none" stroke="#060606" stroke-width="1" stroke-linecap="butt" stroke-linejoin="miter" points="391.287,543.888 357.567,448.34 286.234,551.726 391.287,543.888"/>
<polyline fill="none" stroke="#060606" stroke-width="1" stroke-linecap="butt" stroke-linejoin="miter" points="286.234,551.726 357.567,448.34 265.802,455.988 286.234,551.726"/>
<polyline fill="none" stroke="#060606" stroke-width="1" stroke-linecap="butt" stroke-linejoin="miter" points="533.455,511.735 539.886,615.348 613.154,559.27 533.455,511.735"/>
<polyline fill="none" stroke="#060606" stroke-width="1" stroke-linecap="butt" stroke-linejoin="miter" points="292.995,367.947 357.567,448.34 393.181,370.361 292.995,367.947"/>
<polyline fill="none" stroke="#060606" stroke-width="1" stroke-linecap="butt" stroke-linejoin="miter" points="535.845,410.074 618.3,363.1 542.719,303.161 535.845,410.074"/>
<polyline fill="none" stroke="#060606" stroke-width="1" stroke-linecap="butt" stroke-linejoin="miter" points="348.807,624.719 391.287,543.888 286.234,551.726 348.807,624.719"/>
<polyline fill="none" stroke="#060606" stroke-width="1" stroke-linecap="butt" stroke-linejoin="miter" points="292.995,367.947 393.181,370.361 351.723,291.476 292.995,367.947"/>
<polyline fill="none" stroke="#060606" stroke-width="1" stroke-linecap="butt" stroke-linejoin="miter" points="533.455,511.735 469.217,554.51 539.886,615.348 533.455,511.735"/>
<polyline fill="none" stroke="#060606" stroke-width="1" stroke-linecap="butt" stroke-linejoin="miter" points="542.719,303.161 469.256,365.464 535.845,410.074 542.719,303.161"/>
<polyline fill="none" stroke="#060606" stroke-width="1" stroke-linecap="butt" stroke-linejoin="miter" points="265.802,455.988 357.567,448.34 292.995,367.947 265.802,455.988"/>
<polyline fill="none" stroke="#060606" stroke-width="1" stroke-linecap="butt" stroke-linejoin="miter" points="398.571,709.107 348.807,624.719 298.929,709.107 398.571,709.107"/>
<polyline fill="none" stroke="#060606" stroke-width="1" stroke-linecap="butt" stroke-linejoin="miter" points="199.286,410.179 292.995,367.947 199.286,310.536 199.286,410.179"/>
<polyline fill="none" stroke="#060606" stroke-width="1" stroke-linecap="butt" stroke-linejoin="miter" points="697.5,410.179 611.677,460.814 697.5,509.821 697.5,410.179"/>
<polyline fill="none" stroke="#060606" stroke-width="1" stroke-linecap="butt" stroke-linejoin="miter" points="498.214,210.893 542.719,303.161 597.857,210.893 498.214,210.893"/>
<polyline fill="none" stroke="#060606" stroke-width="1" stroke-linecap="butt" stroke-linejoin="miter" points="611.677,460.814 535.845,410.074 533.455,511.735 611.677,460.814"/>
<polyline fill="none" stroke="#060606" stroke-width="1" stroke-linecap="butt" stroke-linejoin="miter" points="535.845,410.074 438.62,460 533.455,511.735 535.845,410.074"/>
<polyline fill="none" stroke="#060606" stroke-width="1" stroke-linecap="butt" stroke-linejoin="miter" points="697.5,509.821 613.154,559.27 697.5,609.464 697.5,509.821"/>
<polyline fill="none" stroke="#060606" stroke-width="1" stroke-linecap="butt" stroke-linejoin="miter" points="398.571,210.893 444.391,292.45 498.214,210.893 398.571,210.893"/>
<polyline fill="none" stroke="#060606" stroke-width="1" stroke-linecap="butt" stroke-linejoin="miter" points="199.286,509.821 265.802,455.988 199.286,410.179 199.286,509.821"/>
<polyline fill="none" stroke="#060606" stroke-width="1" stroke-linecap="butt" stroke-linejoin="miter" points="611.677,460.814 533.455,511.735 613.154,559.27 611.677,460.814"/>
<polyline fill="none" stroke="#060606" stroke-width="1" stroke-linecap="butt" stroke-linejoin="miter" points="498.214,709.107 442.746,627.546 398.571,709.107 498.214,709.107"/>
<polyline fill="none" stroke="#060606" stroke-width="1" stroke-linecap="butt" stroke-linejoin="miter" points="442.746,627.546 348.807,624.719 398.571,709.107 442.746,627.546"/>
<polyline fill="none" stroke="#060606" stroke-width="1" stroke-linecap="butt" stroke-linejoin="miter" points="265.802,455.988 292.995,367.947 199.286,410.179 265.802,455.988"/>
<polyline fill="none" stroke="#060606" stroke-width="1" stroke-linecap="butt" stroke-linejoin="miter" points="611.677,460.814 613.154,559.27 697.5,509.821 611.677,460.814"/>
<polyline fill="none" stroke="#060606" stroke-width="1" stroke-linecap="butt" stroke-linejoin="miter" points="444.391,292.45 542.719,303.161 498.214,210.893 444.391,292.45"/>
<polyline fill="none" stroke="#060606" stroke-width="1" stroke-linecap="butt" stroke-linejoin="miter" points="298.929,210.893 351.723,291.476 398.571,210.893 298.929,210.893"/>
<polyline fill="none" stroke="#060606" stroke-width="1" stroke-linecap="butt" stroke-linejoin="miter" points="597.857,709.107 539.886,615.348 498.214,709.107 597.857,709.107"/>
<polyline fill="none" stroke="#060606" stroke-width="1" stroke-linecap="butt" stroke-linejoin="miter" points="199.286,609.464 286.234,551.726 199.286,509.821 199.286,609.464"/>
<polyline fill="none" stroke="#060606" stroke-width="1" stroke-linecap="butt" stroke-linejoin="miter" points="611.677,460.814 618.3,363.1 535.845,410.074 611.677,460.814"/>
<polyline fill="none" stroke="#060606" stroke-width="1" stroke-linecap="butt" stroke-linejoin="miter" points="697.5,310.536 618.3,363.1 697.5,410.179 697.5,310.536"/>
<polyline fill="none" stroke="#060606" stroke-width="1" stroke-linecap="butt" stroke-linejoin="miter" points="697.5,410.179 618.3,363.1 611.677,460.814 697.5,410.179"/>
<polyline fill="none" stroke="#060606" stroke-width="1" stroke-linecap="butt" stroke-linejoin="miter" points="199.286,509.821 286.234,551.726 265.802,455.988 199.286,509.821"/>
<polyline fill="none" stroke="#060606" stroke-width="1" stroke-linecap="butt" stroke-linejoin="miter" points="498.214,709.107 539.886,615.348 442.746,627.546 498.214,709.107"/>
<polyline fill="none" stroke="#060606" stroke-width="1" stroke-linecap="butt" stroke-linejoin="miter" points="398.571,210.893 351.723,291.476 444.391,292.45 398.571,210.893"/>
<polyline fill="none" stroke="#060606" stroke-width="1" stroke-linecap="butt" stroke-linejoin="miter" points="442.746,627.546 391.287,543.888 348.807,624.719 442.746,627.546"/>
<polyline fill="none" stroke="#060606" stroke-width="1" stroke-linecap="butt" stroke-linejoin="miter" points="697.5,709.107 624.556,636.164 597.857,709.107 697.5,709.107"/>
<polyline fill="none" stroke="#060606" stroke-width="1" stroke-linecap="butt" stroke-linejoin="miter" points="199.286,210.893 272.229,283.836 298.929,210.893 199.286,210.893"/>
<polyline fill="none" stroke="#060606" stroke-width="1" stroke-linecap="butt" stroke-linejoin="miter" points="199.286,709.107 272.229,636.164 199.286,609.464 199.286,709.107"/>
<polyline fill="none" stroke="#060606" stroke-width="1" stroke-linecap="butt" stroke-linejoin="miter" points="697.5,210.893 624.556,283.836 697.5,310.536 697.5,210.893"/>
<polyline fill="none" stroke="#060606" stroke-width="1" stroke-linecap="butt" stroke-linejoin="miter" points="199.286,310.536 272.229,283.836 199.286,210.893 199.286,310.536"/>
<polyline fill="none" stroke="#060606" stroke-width="1" stroke-linecap="butt" stroke-linejoin="miter" points="597.857,210.893 624.556,283.836 697.5,210.893 597.857,210.893"/>
<polyline fill="none" stroke="#060606" stroke-width="1" stroke-linecap="butt" stroke-linejoin="miter" points="697.5,609.464 624.556,636.164 697.5,709.107 697.5,609.464"/>
<polyline fill="none" stroke="#060606" stroke-width="1" stroke-linecap="butt" stroke-linejoin="miter" points="298.929,709.107 272.229,636.164 199.286,709.107 298.929,709.107"/>
<polyline fill="none" stroke="#060606" stroke-width="1" stroke-linecap="butt" stroke-linejoin="miter" points="438.62,460 357.567,448.34 391.287,543.888 438.62,460"/>
<polyline fill="none" stroke="#060606" stroke-width="1" stroke-linecap="butt" stroke-linejoin="miter" points="444.391,292.45 469.256,365.464 542.719,303.161 444.391,292.45"/>
<polyline fill="none" stroke="#060606" stroke-width="1" stroke-linecap="butt" stroke-linejoin="miter" points="351.723,291.476 393.181,370.361 444.391,292.45 351.723,291.476"/>
<polyline fill="none" stroke="#060606" stroke-width="1" stroke-linecap="butt" stroke-linejoin="miter" points="535.845,410.074 469.256,365.464 438.62,460 535.845,410.074"/>
<polyline fill="none" stroke="#060606" stroke-width="1" stroke-linecap="butt" stroke-linejoin="miter" points="438.62,460 469.217,554.51 533.455,511.735 438.62,460"/>
<polyline fill="none" stroke="#060606" stroke-width="1" stroke-linecap="butt" stroke-linejoin="miter" points="539.886,615.348 469.217,554.51 442.746,627.546 539.886,615.348"/>
<polyline fill="none" stroke="#060606" stroke-width="1" stroke-linecap="butt" stroke-linejoin="miter" points="438.62,460 469.256,365.464 393.181,370.361 438.62,460"/>
<polyline fill="none" stroke="#060606" stroke-width="1" stroke-linecap="butt" stroke-linejoin="miter" points="391.287,543.888 469.217,554.51 438.62,460 391.287,543.888"/>
<polyline fill="none" stroke="#060606" stroke-width="1" stroke-linecap="butt" stroke-linejoin="miter" points="199.286,609.464 272.229,636.164 286.234,551.726 199.286,609.464"/>
<polyline fill="none" stroke="#060606" stroke-width="1" stroke-linecap="butt" stroke-linejoin="miter" points="697.5,310.536 624.556,283.836 618.3,363.1 697.5,310.536"/>
<polyline fill="none" stroke="#060606" stroke-width="1" stroke-linecap="butt" stroke-linejoin="miter" points="298.929,210.893 272.229,283.836 351.723,291.476 298.929,210.893"/>
<polyline fill="none" stroke="#060606" stroke-width="1" stroke-linecap="butt" stroke-linejoin="miter" points="597.857,709.107 624.556,636.164 539.886,615.348 597.857,709.107"/>
<polyline fill="none" stroke="#060606" stroke-width="1" stroke-linecap="butt" stroke-linejoin="miter" points="348.807,624.719 272.229,636.164 298.929,709.107 348.807,624.719"/>
<polyline fill="none" stroke="#060606" stroke-width="1" stroke-linecap="butt" stroke-linejoin="miter" points="613.154,559.27 624.556,636.164 697.5,609.464 613.154,559.27"/>
<polyline fill="none" stroke="#060606" stroke-width="1" stroke-linecap="butt" stroke-linejoin="miter" points="542.719,303.161 624.556,283.836 597.857,210.893 542.719,303.161"/>
<polyline fill="none" stroke="#060606" stroke-width="1" stroke-linecap="butt" stroke-linejoin="miter" points="292.995,367.947 272.229,283.836 199.286,310.536 292.995,367.947"/>
<polyline fill="none" stroke="#060606" stroke-width="1" stroke-linecap="butt" stroke-linejoin="miter" points="618.3,363.1 624.556,283.836 542.719,303.161 618.3,363.1"/>
<polyline fill="none" stroke="#060606" stroke-width="1" stroke-linecap="butt" stroke-linejoin="miter" points="286.234,551.726 272.229,636.164 348.807,624.719 286.234,551.726"/>
<polyline fill="none" stroke="#060606" stroke-width="1" stroke-linecap="butt" stroke-linejoin="miter" points="539.886,615.348 624.556,636.164 613.154,559.27 539.886,615.348"/>
<polyline fill="none" stroke="#060606" stroke-width="1" stroke-linecap="butt" stroke-linejoin="miter" points="351.723,291.476 272.229,283.836 292.995,367.947 351.723,291.476"/>
<polyline fill="none" stroke="#060606" stroke-width="1" stroke-linecap="butt" stroke-linejoin="miter" points="393.181,370.361 357.567,448.34 438.62,460 393.181,370.361"/>
<polyline fill="none" stroke="#060606" stroke-width="1" stroke-linecap="butt" stroke-linejoin="miter" points="442.746,627.546 469.217,554.51 391.287,543.888 442.746,627.546"/>
<polyline fill="none" stroke="#060606" stroke-width="1" stroke-linecap="butt" stroke-linejoin="miter" points="393.181,370.361 469.256,365.464 444.391,292.45 393.181,370.361"/>
<polyline fill="none" stroke="#060606" stroke-width="1" stroke-linecap="butt" stroke-linejoin="miter" points="1045.88,624.761 1102.03,551.618 998.346,545.069 1045.88,624.761"/>
<polyline fill="none" stroke="#060606" stroke-width="1" stroke-linecap="butt" stroke-linejoin="miter" points="1037.24,306.351 961.779,373.707 1036.07,404.962 1037.24,306.351"/>
<polyline fill="none" stroke="#060606" stroke-width="1" stroke-linecap="butt" stroke-linejoin="miter" points="789.768,554.326 849.707,629.907 896.682,547.454 789.768,554.326"/>
<polyline fill="none" stroke="#060606" stroke-width="1" stroke-linecap="butt" stroke-linejoin="miter" points="1037.24,306.351 1036.07,404.962 1115.02,363.441 1037.24,306.351"/>
<polyline fill="none" stroke="#060606" stroke-width="1" stroke-linecap="butt" stroke-linejoin="miter" points="1102.03,551.618 1041.14,480.864 998.346,545.069 1102.03,551.618"/>
<polyline fill="none" stroke="#060606" stroke-width="1" stroke-linecap="butt" stroke-linejoin="miter" points="896.682,547.454 852.934,481.6 789.768,554.326 896.682,547.454"/>
<polyline fill="none" stroke="#060606" stroke-width="1" stroke-linecap="butt" stroke-linejoin="miter" points="792.855,357.655 892.191,346.793 847.003,284.76 792.855,357.655"/>
<polyline fill="none" stroke="#060606" stroke-width="1" stroke-linecap="butt" stroke-linejoin="miter" points="864.819,410.456 892.191,346.793 792.855,357.655 864.819,410.456"/>
<polyline fill="none" stroke="#060606" stroke-width="1" stroke-linecap="butt" stroke-linejoin="miter" points="940.698,289.651 961.779,373.707 1037.24,306.351 940.698,289.651"/>
<polyline fill="none" stroke="#060606" stroke-width="1" stroke-linecap="butt" stroke-linejoin="miter" points="996.429,709.107 947.422,623.284 896.786,709.107 996.429,709.107"/>
<polyline fill="none" stroke="#060606" stroke-width="1" stroke-linecap="butt" stroke-linejoin="miter" points="896.786,210.893 940.698,289.651 996.429,210.893 896.786,210.893"/>
<polyline fill="none" stroke="#060606" stroke-width="1" stroke-linecap="butt" stroke-linejoin="miter" points="697.5,609.464 789.768,554.326 697.5,509.821 697.5,609.464"/>
<polyline fill="none" stroke="#060606" stroke-width="1" stroke-linecap="butt" stroke-linejoin="miter" points="697.5,509.821 789.768,554.326 779.057,455.998 697.5,509.821"/>
<polyline fill="none" stroke="#060606" stroke-width="1" stroke-linecap="butt" stroke-linejoin="miter" points="896.786,210.893 847.003,284.76 940.698,289.651 896.786,210.893"/>
<polyline fill="none" stroke="#060606" stroke-width="1" stroke-linecap="butt" stroke-linejoin="miter" points="1045.88,624.761 998.346,545.069 947.422,623.284 1045.88,624.761"/>
<polyline fill="none" stroke="#060606" stroke-width="1" stroke-linecap="butt" stroke-linejoin="miter" points="996.429,709.107 1045.88,624.761 947.422,623.284 996.429,709.107"/>
<polyline fill="none" stroke="#060606" stroke-width="1" stroke-linecap="butt" stroke-linejoin="miter" points="996.429,210.893 1037.24,306.351 1096.07,210.893 996.429,210.893"/>
<polyline fill="none" stroke="#060606" stroke-width="1" stroke-linecap="butt" stroke-linejoin="miter" points="697.5,509.821 779.057,455.998 697.5,410.179 697.5,509.821"/>
<polyline fill="none" stroke="#060606" stroke-width="1" stroke-linecap="butt" stroke-linejoin="miter" points="1195.71,410.179 1114.63,455.183 1195.71,509.821 1195.71,410.179"/>
<polyline fill="none" stroke="#060606" stroke-width="1" stroke-linecap="butt" stroke-linejoin="miter" points="998.346,545.069 896.682,547.454 947.422,623.284 998.346,545.069 946.607,450.227 896.682,547.454 998.346,545.069"/>
<polyline fill="none" stroke="#060606" stroke-width="1" stroke-linecap="butt" stroke-linejoin="miter" points="797.143,210.893 847.003,284.76 896.786,210.893 797.143,210.893"/>
<polyline fill="none" stroke="#060606" stroke-width="1" stroke-linecap="butt" stroke-linejoin="miter" points="1096.07,709.107 1045.88,624.761 996.429,709.107 1096.07,709.107"/>
<polyline fill="none" stroke="#060606" stroke-width="1" stroke-linecap="butt" stroke-linejoin="miter" points="940.698,289.651 1037.24,306.351 996.429,210.893 940.698,289.651"/>
<polyline fill="none" stroke="#060606" stroke-width="1" stroke-linecap="butt" stroke-linejoin="miter" points="896.786,709.107 849.707,629.907 797.143,709.107 896.786,709.107"/>
<polyline fill="none" stroke="#060606" stroke-width="1" stroke-linecap="butt" stroke-linejoin="miter" points="1195.71,509.821 1102.03,551.618 1195.71,609.464 1195.71,509.821"/>
<polyline fill="none" stroke="#060606" stroke-width="1" stroke-linecap="butt" stroke-linejoin="miter" points="896.682,547.454 849.707,629.907 947.422,623.284 896.682,547.454"/>
<polyline fill="none" stroke="#060606" stroke-width="1" stroke-linecap="butt" stroke-linejoin="miter" points="1195.71,310.536 1115.02,363.441 1195.71,410.179 1195.71,310.536"/>
<polyline fill="none" stroke="#060606" stroke-width="1" stroke-linecap="butt" stroke-linejoin="miter" points="697.5,410.179 792.855,357.655 697.5,310.536 697.5,410.179"/>
<polyline fill="none" stroke="#060606" stroke-width="1" stroke-linecap="butt" stroke-linejoin="miter" points="1114.63,455.183 1102.03,551.618 1195.71,509.821 1114.63,455.183"/>
<polyline fill="none" stroke="#060606" stroke-width="1" stroke-linecap="butt" stroke-linejoin="miter" points="947.422,623.284 849.707,629.907 896.786,709.107 947.422,623.284"/>
<polyline fill="none" stroke="#060606" stroke-width="1" stroke-linecap="butt" stroke-linejoin="miter" points="1195.71,410.179 1115.02,363.441 1114.63,455.183 1195.71,410.179"/>
<polyline fill="none" stroke="#060606" stroke-width="1" stroke-linecap="butt" stroke-linejoin="miter" points="779.057,455.998 792.855,357.655 697.5,410.179 779.057,455.998"/>
<polyline fill="none" stroke="#060606" stroke-width="1" stroke-linecap="butt" stroke-linejoin="miter" points="1096.07,210.893 1122.77,283.836 1195.71,210.893 1096.07,210.893"/>
<polyline fill="none" stroke="#060606" stroke-width="1" stroke-linecap="butt" stroke-linejoin="miter" points="1195.71,210.893 1122.77,283.836 1195.71,310.536 1195.71,210.893"/>
<polyline fill="none" stroke="#060606" stroke-width="1" stroke-linecap="butt" stroke-linejoin="miter" points="797.143,709.107 770.444,636.164 697.5,709.107 797.143,709.107"/>
<polyline fill="none" stroke="#060606" stroke-width="1" stroke-linecap="butt" stroke-linejoin="miter" points="697.5,210.893 770.444,283.836 797.143,210.893 697.5,210.893"/>
<polyline fill="none" stroke="#060606" stroke-width="1" stroke-linecap="butt" stroke-linejoin="miter" points="697.5,709.107 770.444,636.164 697.5,609.464 697.5,709.107"/>
<polyline fill="none" stroke="#060606" stroke-width="1" stroke-linecap="butt" stroke-linejoin="miter" points="697.5,310.536 770.444,283.836 697.5,210.893 697.5,310.536"/>
<polyline fill="none" stroke="#060606" stroke-width="1" stroke-linecap="butt" stroke-linejoin="miter" points="1195.71,709.107 1122.77,636.164 1096.07,709.107 1195.71,709.107"/>
<polyline fill="none" stroke="#060606" stroke-width="1" stroke-linecap="butt" stroke-linejoin="miter" points="1195.71,609.464 1122.77,636.164 1195.71,709.107 1195.71,609.464"/>
<polyline fill="none" stroke="#060606" stroke-width="1" stroke-linecap="butt" stroke-linejoin="miter" points="946.607,450.227 961.779,373.707 864.819,410.456 946.607,450.227"/>
<polyline fill="none" stroke="#060606" stroke-width="1" stroke-linecap="butt" stroke-linejoin="miter" points="789.768,554.326 852.934,481.6 779.057,455.998 789.768,554.326"/>
<polyline fill="none" stroke="#060606" stroke-width="1" stroke-linecap="butt" stroke-linejoin="miter" points="779.057,455.998 864.819,410.456 792.855,357.655 779.057,455.998"/>
<polyline fill="none" stroke="#060606" stroke-width="1" stroke-linecap="butt" stroke-linejoin="miter" points="1115.02,363.441 1036.07,404.962 1114.63,455.183 1115.02,363.441"/>
<polyline fill="none" stroke="#060606" stroke-width="1" stroke-linecap="butt" stroke-linejoin="miter" points="946.607,450.227 852.934,481.6 896.682,547.454 946.607,450.227"/>
<polyline fill="none" stroke="#060606" stroke-width="1" stroke-linecap="butt" stroke-linejoin="miter" points="998.346,545.069 1041.14,480.864 946.607,450.227 998.346,545.069"/>
<polyline fill="none" stroke="#060606" stroke-width="1" stroke-linecap="butt" stroke-linejoin="miter" points="961.779,373.707 892.191,346.793 864.819,410.456 961.779,373.707"/>
<polyline fill="none" stroke="#060606" stroke-width="1" stroke-linecap="butt" stroke-linejoin="miter" points="1114.63,455.183 1041.14,480.864 1102.03,551.618 1114.63,455.183"/>
<polyline fill="none" stroke="#060606" stroke-width="1" stroke-linecap="butt" stroke-linejoin="miter" points="864.819,410.456 852.934,481.6 946.607,450.227 864.819,410.456"/>
<polyline fill="none" stroke="#060606" stroke-width="1" stroke-linecap="butt" stroke-linejoin="miter" points="946.607,450.227 1041.14,480.864 1036.07,404.962 946.607,450.227"/>
<polyline fill="none" stroke="#060606" stroke-width="1" stroke-linecap="butt" stroke-linejoin="miter" points="1102.03,551.618 1122.77,636.164 1195.71,609.464 1102.03,551.618"/>
<polyline fill="none" stroke="#060606" stroke-width="1" stroke-linecap="butt" stroke-linejoin="miter" points="849.707,629.907 770.444,636.164 797.143,709.107 849.707,629.907"/>
<polyline fill="none" stroke="#060606" stroke-width="1" stroke-linecap="butt" stroke-linejoin="miter" points="792.855,357.655 770.444,283.836 697.5,310.536 792.855,357.655"/>
<polyline fill="none" stroke="#060606" stroke-width="1" stroke-linecap="butt" stroke-linejoin="miter" points="1195.71,310.536 1122.77,283.836 1115.02,363.441 1195.71,310.536"/>
<polyline fill="none" stroke="#060606" stroke-width="1" stroke-linecap="butt" stroke-linejoin="miter" points="1037.24,306.351 1122.77,283.836 1096.07,210.893 1037.24,306.351"/>
<polyline fill="none" stroke="#060606" stroke-width="1" stroke-linecap="butt" stroke-linejoin="miter" points="797.143,210.893 770.444,283.836 847.003,284.76 797.143,210.893"/>
<polyline fill="none" stroke="#060606" stroke-width="1" stroke-linecap="butt" stroke-linejoin="miter" points="697.5,609.464 770.444,636.164 789.768,554.326 697.5,609.464"/>
<polyline fill="none" stroke="#060606" stroke-width="1" stroke-linecap="butt" stroke-linejoin="miter" points="1096.07,709.107 1122.77,636.164 1045.88,624.761 1096.07,709.107"/>
<polyline fill="none" stroke="#060606" stroke-width="1" stroke-linecap="butt" stroke-linejoin="miter" points="847.003,284.76 892.191,346.793 940.698,289.651 847.003,284.76"/>
<polyline fill="none" stroke="#060606" stroke-width="1" stroke-linecap="butt" stroke-linejoin="miter" points="1045.88,624.761 1122.77,636.164 1102.03,551.618 1045.88,624.761"/>
<polyline fill="none" stroke="#060606" stroke-width="1" stroke-linecap="butt" stroke-linejoin="miter" points="789.768,554.326 770.444,636.164 849.707,629.907 789.768,554.326"/>
<polyline fill="none" stroke="#060606" stroke-width="1" stroke-linecap="butt" stroke-linejoin="miter" points="847.003,284.76 770.444,283.836 792.855,357.655 847.003,284.76"/>
<polyline fill="none" stroke="#060606" stroke-width="1" stroke-linecap="butt" stroke-linejoin="miter" points="1115.02,363.441 1122.77,283.836 1037.24,306.351 1115.02,363.441"/>
<polyline fill="none" stroke="#060606" stroke-width="1" stroke-linecap="butt" stroke-linejoin="miter" points="1036.07,404.962 961.779,373.707 946.607,450.227 1036.07,404.962"/>
<polyline fill="none" stroke="#060606" stroke-width="1" stroke-linecap="butt" stroke-linejoin="miter" points="779.057,455.998 852.934,481.6 864.819,410.456 779.057,455.998"/>
<polyline fill="none" stroke="#060606" stroke-width="1" stroke-linecap="butt" stroke-linejoin="miter" points="1036.07,404.962 1041.14,480.864 1114.63,455.183 1036.07,404.962"/>
<polyline fill="none" stroke="#060606" stroke-width="1" stroke-linecap="butt" stroke-linejoin="miter" points="940.698,289.651 892.191,346.793 961.779,373.707 940.698,289.651"/>
</g>
</svg>
